  0
SECTION
  2
HEADER
  9
$ACADVER
  1
AC1014
  9
$HANDSEED
  5
FFFF
  9
$INSUNITS
 70
     0
  9
$MEASUREMENT
 70
     1
  0
ENDSEC
  0
SECTION
  2
TABLES
  0
TABLE
  2
VPORT
  5
8
330
0
100
AcDbSymbolTable
 70
     4
  0
VPORT
  5
2E
330
8
100
AcDbSymbolTableRecord
100
AcDbViewportTableRecord
  2
*ACTIVE
 70
     0
 10
0.0
 20
0.0
 11
1.0
 21
1.0
 12
210.0
 22
148.5
 13
0.0
 23
0.0
 14
10.0
 24
10.0
 15
10.0
 25
10.0
 16
0.0
 26
0.0
 36
1.0
 17
0.0
 27
0.0
 37
0.0
 40
341.0
 41
1.24
 42
50.0
 43
0.0
 44
0.0
 50
0.0
 51
0.0
 71
     0
 72
   100
 73
     1
 74
     3
 75
     0
 76
     0
 77
     0
 78
     0
  0
ENDTAB
  0
TABLE
  2
LTYPE
  5
5
330
0
100
AcDbSymbolTable
 70
     1
  0
LTYPE
  5
14
330
5
100
AcDbSymbolTableRecord
100
AcDbLinetypeTableRecord
  2
BYBLOCK
 70
     0
  3

 72
    65
 73
     0
 40
0.0
  0
LTYPE
  5
15
330
5
100
AcDbSymbolTableRecord
100
AcDbLinetypeTableRecord
  2
BYLAYER
 70
     0
  3

 72
    65
 73
     0
 40
0.0
  0
LTYPE
  5
16
330
5
100
AcDbSymbolTableRecord
100
AcDbLinetypeTableRecord
  2
CONTINUOUS
 70
     0
  3
Solid line
 72
    65
 73
     0
 40
0.0
  0
ENDTAB
  0
TABLE
  2
LAYER
  5
2
100
AcDbSymbolTable
 70
1
  0
LAYER
  5
50
100
AcDbSymbolTableRecord
100
AcDbLayerTableRecord
  2
0
 70
0
  6
CONTINUOUS
  0
ENDTAB
  0
TABLE
  2
STYLE
  5
3
330
0
100
AcDbSymbolTable
 70
     1
  0
STYLE
  5
11
330
3
100
AcDbSymbolTableRecord
100
AcDbTextStyleTableRecord
  2
STANDARD
 70
     0
 40
0.0
 41
1.0
 50
0.0
 71
     0
 42
2.5
  3
txt
  4

  0
ENDTAB
  0
TABLE
  2
VIEW
  5
6
330
0
100
AcDbSymbolTable
 70
     0
  0
ENDTAB
  0
TABLE
  2
UCS
  5
7
330
0
100
AcDbSymbolTable
 70
     0
  0
ENDTAB
  0
TABLE
  2
APPID
  5
9
330
0
100
AcDbSymbolTable
 70
     2
  0
APPID
  5
12
330
9
100
AcDbSymbolTableRecord
100
AcDbRegAppTableRecord
  2
ACAD
 70
     0
  0
ENDTAB
  0
TABLE
  2
DIMSTYLE
  5
A
330
0
100
AcDbSymbolTable
 70
     1
  0
DIMSTYLE
105
27
330
A
100
AcDbSymbolTableRecord
100
AcDbDimStyleTableRecord
  2
ISO-25
 70
     0
  3

  4

  5

  6

  7

 40
1.0
 41
2.5
 42
0.625
 43
3.75
 44
1.25
 45
0.0
 46
0.0
 47
0.0
 48
0.0
140
2.5
141
2.5
142
0.0
143
0.03937007874016
144
1.0
145
0.0
146
1.0
147
0.625
 71
     0
 72
     0
 73
     0
 74
     0
 75
     0
 76
     0
 77
     1
 78
     8
170
     0
171
     3
172
     1
173
     0
174
     0
175
     0
176
     0
177
     0
178
     0
270
     2
271
     2
272
     2
273
     2
274
     3
340
11
275
     0
280
     0
281
     0
282
     0
283
     0
284
     8
285
     0
286
     0
287
     3
288
     0
  0
ENDTAB
  0
TABLE
  2
BLOCK_RECORD
  5
1
330
0
100
AcDbSymbolTable
 70
     1
  0
BLOCK_RECORD
  5
1F
330
1
100
AcDbSymbolTableRecord
100
AcDbBlockTableRecord
  2
*MODEL_SPACE
  0
BLOCK_RECORD
  5
1B
330
1
100
AcDbSymbolTableRecord
100
AcDbBlockTableRecord
  2
*PAPER_SPACE
  0
ENDTAB
  0
ENDSEC
  0
SECTION
  2
BLOCKS
  0
BLOCK
  5
20
330
1F
100
AcDbEntity
  8
0
100
AcDbBlockBegin
  2
*MODEL_SPACE
 70
     0
 10
0.0
 20
0.0
 30
0.0
  3
*MODEL_SPACE
  1

  0
ENDBLK
  5
21
330
1F
100
AcDbEntity
  8
0
100
AcDbBlockEnd
  0
BLOCK
  5
1C
330
1B
100
AcDbEntity
 67
     1
  8
0
100
AcDbBlockBegin
  2
*PAPER_SPACE
  1

  0
ENDBLK
  5
1D
330
1B
100
AcDbEntity
 67
     1
  8
0
100
AcDbBlockEnd
  0
ENDSEC
  0
SECTION
  2
ENTITIES
  0
SPLINE
  5
100
100
AcDbEntity
  8
0
 62
7
100
AcDbSpline
 70
8
 71
3
 72
8
 73
4
 74
0
 40
0
 40
0
 40
0
 40
0
 40
1
 40
1
 40
1
 40
1
 10
40.641242
 20
64.113771
 30
0.0
 10
40.487698
 20
64.917784
 30
0.0
 10
40.551907
 20
65.819507
 30
0.0
 10
40.431863
 20
66.626312
 30
0.0
  0
SPLINE
  5
101
100
AcDbEntity
  8
0
 62
7
100
AcDbSpline
 70
8
 71
3
 72
8
 73
4
 74
0
 40
0
 40
0
 40
0
 40
0
 40
1
 40
1
 40
1
 40
1
 10
40.431863
 20
66.626312
 30
0.0
 10
40.311820
 20
67.433117
 30
0.0
 10
40.408832
 20
68.344611
 30
0.0
 10
40.290882
 20
69.137457
 30
0.0
  0
SPLINE
  5
102
100
AcDbEntity
  8
0
 62
7
100
AcDbSpline
 70
8
 71
3
 72
8
 73
4
 74
0
 40
0
 40
0
 40
0
 40
0
 40
1
 40
1
 40
1
 40
1
 10
40.290882
 20
69.137457
 30
0.0
 10
40.172932
 20
69.929605
 30
0.0
 10
40.376727
 20
70.626138
 30
0.0
 10
40.833172
 20
71.180292
 30
0.0
  0
SPLINE
  5
103
100
AcDbEntity
  8
0
 62
7
100
AcDbSpline
 70
8
 71
3
 72
8
 73
4
 74
0
 40
0
 40
0
 40
0
 40
0
 40
1
 40
1
 40
1
 40
1
 10
40.833172
 20
71.180292
 30
0.0
 10
41.289617
 20
71.735145
 30
0.0
 10
41.393608
 20
72.289998
 30
0.0
 10
41.833303
 20
72.832288
 30
0.0
  0
SPLINE
  5
104
100
AcDbEntity
  8
0
 62
7
100
AcDbSpline
 70
8
 71
3
 72
8
 73
4
 74
0
 40
0
 40
0
 40
0
 40
0
 40
1
 40
1
 40
1
 40
1
 10
41.833303
 20
72.832288
 30
0.0
 10
42.272997
 20
73.374578
 30
0.0
 10
42.430031
 20
73.940598
 30
0.0
 10
42.786672
 20
74.531045
 30
0.0
  0
SPLINE
  5
105
100
AcDbEntity
  8
0
 62
7
100
AcDbSpline
 70
8
 71
3
 72
8
 73
4
 74
0
 40
0
 40
0
 40
0
 40
0
 40
1
 40
1
 40
1
 40
1
 10
42.786672
 20
74.531045
 30
0.0
 10
43.143314
 20
75.121492
 30
0.0
 10
43.345713
 20
75.751721
 30
0.0
 10
43.647218
 20
76.392419
 30
0.0
  0
SPLINE
  5
106
100
AcDbEntity
  8
0
 62
7
100
AcDbSpline
 70
8
 71
3
 72
8
 73
4
 74
0
 40
0
 40
0
 40
0
 40
0
 40
1
 40
1
 40
1
 40
1
 10
43.647218
 20
76.392419
 30
0.0
 10
43.949421
 20
77.032419
 30
0.0
 10
44.115527
 20
77.754774
 30
0.0
 10
44.205560
 20
78.486203
 30
0.0
  0
SPLINE
  5
107
100
AcDbEntity
  8
0
 62
7
100
AcDbSpline
 70
8
 71
3
 72
8
 73
4
 74
0
 40
0
 40
0
 40
0
 40
0
 40
1
 40
1
 40
1
 40
1
 10
44.205560
 20
78.486203
 30
0.0
 10
44.296291
 20
79.216934
 30
0.0
 10
44.721329
 20
79.833902
 30
0.0
 10
44.833695
 20
80.579987
 30
0.0
  0
SPLINE
  5
108
100
AcDbEntity
  8
0
 62
7
100
AcDbSpline
 70
8
 71
3
 72
8
 73
4
 74
0
 40
0
 40
0
 40
0
 40
0
 40
1
 40
1
 40
1
 40
1
 10
44.833695
 20
80.579987
 30
0.0
 10
44.946760
 20
81.325374
 30
0.0
 10
45.165909
 20
82.038657
 30
0.0
 10
45.248265
 20
82.817544
 30
0.0
  0
SPLINE
  5
109
100
AcDbEntity
  8
0
 62
7
100
AcDbSpline
 70
8
 71
3
 72
8
 73
4
 74
0
 40
0
 40
0
 40
0
 40
0
 40
1
 40
1
 40
1
 40
1
 10
45.248265
 20
82.817544
 30
0.0
 10
45.330620
 20
83.596432
 30
0.0
 10
45.424840
 20
84.390674
 30
0.0
 10
45.526738
 20
85.191198
 30
0.0
  0
SPLINE
  5
10a
100
AcDbEntity
  8
0
 62
7
100
AcDbSpline
 70
8
 71
3
 72
8
 73
4
 74
0
 40
0
 40
0
 40
0
 40
0
 40
1
 40
1
 40
1
 40
1
 10
45.526738
 20
85.191198
 30
0.0
 10
45.628635
 20
85.991721
 30
0.0
 10
45.684470
 20
86.932528
 30
0.0
 10
45.666324
 20
87.773531
 30
0.0
  0
SPLINE
  5
10b
100
AcDbEntity
  8
0
 62
7
100
AcDbSpline
 70
8
 71
3
 72
8
 73
4
 74
0
 40
0
 40
0
 40
0
 40
0
 40
1
 40
1
 40
1
 40
1
 10
45.666324
 20
87.773531
 30
0.0
 10
45.648177
 20
88.614535
 30
0.0
 10
45.720762
 20
89.548362
 30
0.0
 10
45.596531
 20
90.355865
 30
0.0
  0
SPLINE
  5
10c
100
AcDbEntity
  8
0
 62
7
100
AcDbSpline
 70
8
 71
3
 72
8
 73
4
 74
0
 40
0
 40
0
 40
0
 40
0
 40
1
 40
1
 40
1
 40
1
 10
45.596531
 20
90.355865
 30
0.0
 10
45.472300
 20
91.163368
 30
0.0
 10
45.436705
 20
92.062997
 30
0.0
 10
45.387152
 20
92.868406
 30
0.0
  0
SPLINE
  5
10d
100
AcDbEntity
  8
0
 62
7
100
AcDbSpline
 70
8
 71
3
 72
8
 73
4
 74
0
 40
0
 40
0
 40
0
 40
0
 40
1
 40
1
 40
1
 40
1
 10
45.387152
 20
92.868406
 30
0.0
 10
45.336901
 20
93.673117
 30
0.0
 10
45.222441
 20
94.487599
 30
0.0
 10
45.107283
 20
95.240663
 30
0.0
  0
SPLINE
  5
10e
100
AcDbEntity
  8
0
 62
7
100
AcDbSpline
 70
8
 71
3
 72
8
 73
4
 74
0
 40
0
 40
0
 40
0
 40
0
 40
1
 40
1
 40
1
 40
1
 10
45.107283
 20
95.240663
 30
0.0
 10
44.992823
 20
95.993728
 30
0.0
 10
44.884644
 20
96.785178
 30
0.0
 10
44.684339
 20
97.469845
 30
0.0
  0
SPLINE
  5
10f
100
AcDbEntity
  8
0
 62
7
100
AcDbSpline
 70
8
 71
3
 72
8
 73
4
 74
0
 40
0
 40
0
 40
0
 40
0
 40
1
 40
1
 40
1
 40
1
 10
44.684339
 20
97.469845
 30
0.0
 10
44.484033
 20
98.153815
 30
0.0
 10
44.622223
 20
99.230020
 30
0.0
 10
43.851711
 20
99.359137
 30
0.0
  0
SPLINE
  5
110
100
AcDbEntity
  8
0
 62
7
100
AcDbSpline
 70
8
 71
3
 72
8
 73
4
 74
0
 40
0
 40
0
 40
0
 40
0
 40
1
 40
1
 40
1
 40
1
 10
43.851711
 20
99.359137
 30
0.0
 10
43.081198
 20
99.488253
 30
0.0
 10
42.141089
 20
99.411481
 30
0.0
 10
41.882158
 20
98.676563
 30
0.0
  0
SPLINE
  5
111
100
AcDbEntity
  8
0
 62
7
100
AcDbSpline
 70
8
 71
3
 72
8
 73
4
 74
0
 40
0
 40
0
 40
0
 40
0
 40
1
 40
1
 40
1
 40
1
 10
41.882158
 20
98.676563
 30
0.0
 10
41.622529
 20
97.942343
 30
0.0
 10
41.374066
 20
97.451001
 30
0.0
 10
41.011842
 20
96.825658
 30
0.0
  0
SPLINE
  5
112
100
AcDbEntity
  8
0
 62
7
100
AcDbSpline
 70
8
 71
3
 72
8
 73
4
 74
0
 40
0
 40
0
 40
0
 40
0
 40
1
 40
1
 40
1
 40
1
 10
41.011842
 20
96.825658
 30
0.0
 10
40.648919
 20
96.199616
 30
0.0
 10
40.385800
 20
95.706879
 30
0.0
 10
40.105233
 20
95.079442
 30
0.0
  0
SPLINE
  5
113
100
AcDbEntity
  8
0
 62
7
100
AcDbSpline
 70
8
 71
3
 72
8
 73
4
 74
0
 40
0
 40
0
 40
0
 40
0
 40
1
 40
1
 40
1
 40
1
 10
40.105233
 20
95.079442
 30
0.0
 10
39.824666
 20
94.452005
 30
0.0
 10
39.615288
 20
93.827359
 30
0.0
 10
39.309595
 20
93.222953
 30
0.0
  0
SPLINE
  5
114
100
AcDbEntity
  8
0
 62
7
100
AcDbSpline
 70
8
 71
3
 72
8
 73
4
 74
0
 40
0
 40
0
 40
0
 40
0
 40
1
 40
1
 40
1
 40
1
 10
39.309595
 20
93.222953
 30
0.0
 10
39.004600
 20
92.617850
 30
0.0
 10
38.705189
 20
92.002277
 30
0.0
 10
38.402289
 20
91.408340
 30
0.0
  0
SPLINE
  5
115
100
AcDbEntity
  8
0
 62
7
100
AcDbSpline
 70
8
 71
3
 72
8
 73
4
 74
0
 40
0
 40
0
 40
0
 40
0
 40
1
 40
1
 40
1
 40
1
 10
38.402289
 20
91.408340
 30
0.0
 10
38.100086
 20
90.813706
 30
0.0
 10
37.815331
 20
90.219071
 30
0.0
 10
37.522201
 20
89.636999
 30
0.0
  0
SPLINE
  5
116
100
AcDbEntity
  8
0
 62
7
100
AcDbSpline
 70
8
 71
3
 72
8
 73
4
 74
0
 40
0
 40
0
 40
0
 40
0
 40
1
 40
1
 40
1
 40
1
 10
37.522201
 20
89.636999
 30
0.0
 10
37.228374
 20
89.054229
 30
0.0
 10
36.697250
 20
88.628493
 30
0.0
 10
36.331536
 20
88.105047
 30
0.0
  0
SPLINE
  5
117
100
AcDbEntity
  8
0
 62
7
100
AcDbSpline
 70
8
 71
3
 72
8
 73
4
 74
0
 40
0
 40
0
 40
0
 40
0
 40
1
 40
1
 40
1
 40
1
 10
36.331536
 20
88.105047
 30
0.0
 10
35.966520
 20
87.580903
 30
0.0
 10
35.600108
 20
87.115385
 30
0.0
 10
35.191820
 20
86.592637
 30
0.0
  0
SPLINE
  5
118
100
AcDbEntity
  8
0
 62
7
100
AcDbSpline
 70
8
 71
3
 72
8
 73
4
 74
0
 40
0
 40
0
 40
0
 40
0
 40
1
 40
1
 40
1
 40
1
 10
35.191820
 20
86.592637
 30
0.0
 10
34.784230
 20
86.069889
 30
0.0
 10
34.502965
 20
85.558308
 30
0.0
 10
34.063270
 20
85.069060
 30
0.0
  0
SPLINE
  5
119
100
AcDbEntity
  8
0
 62
7
100
AcDbSpline
 70
8
 71
3
 72
8
 73
4
 74
0
 40
0
 40
0
 40
0
 40
0
 40
1
 40
1
 40
1
 40
1
 10
34.063270
 20
85.069060
 30
0.0
 10
33.623575
 20
84.579813
 30
0.0
 10
33.284382
 20
84.036825
 30
0.0
 10
32.915876
 20
83.494535
 30
0.0
  0
SPLINE
  5
11a
100
AcDbEntity
  8
0
 62
7
100
AcDbSpline
 70
8
 71
3
 72
8
 73
4
 74
0
 40
0
 40
0
 40
0
 40
0
 40
1
 40
1
 40
1
 40
1
 10
32.915876
 20
83.494535
 30
0.0
 10
32.546672
 20
82.952942
 30
0.0
 10
32.314960
 20
82.374360
 30
0.0
 10
31.935287
 20
81.822997
 30
0.0
  0
SPLINE
  5
11b
100
AcDbEntity
  8
0
 62
7
100
AcDbSpline
 70
8
 71
3
 72
8
 73
4
 74
0
 40
0
 40
0
 40
0
 40
0
 40
1
 40
1
 40
1
 40
1
 10
31.935287
 20
81.822997
 30
0.0
 10
31.555615
 20
81.271634
 30
0.0
 10
31.515833
 20
80.351765
 30
0.0
 10
30.730664
 20
80.305701
 30
0.0
  0
SPLINE
  5
11c
100
AcDbEntity
  8
0
 62
7
100
AcDbSpline
 70
8
 71
3
 72
8
 73
4
 74
0
 40
0
 40
0
 40
0
 40
0
 40
1
 40
1
 40
1
 40
1
 10
30.730664
 20
80.305701
 30
0.0
 10
29.945495
 20
80.259638
 30
0.0
 10
29.102398
 20
80.422953
 30
0.0
 10
28.357708
 20
80.584873
 30
0.0
  0
SPLINE
  5
11d
100
AcDbEntity
  8
0
 62
7
100
AcDbSpline
 70
8
 71
3
 72
8
 73
4
 74
0
 40
0
 40
0
 40
0
 40
0
 40
1
 40
1
 40
1
 40
1
 10
28.357708
 20
80.584873
 30
0.0
 10
27.613717
 20
80.746792
 30
0.0
 10
26.920675
 20
80.809605
 30
0.0
 10
26.199017
 20
81.078308
 30
0.0
  0
SPLINE
  5
11e
100
AcDbEntity
  8
0
 62
7
100
AcDbSpline
 70
8
 71
3
 72
8
 73
4
 74
0
 40
0
 40
0
 40
0
 40
0
 40
1
 40
1
 40
1
 40
1
 10
26.199017
 20
81.078308
 30
0.0
 10
25.477359
 20
81.347708
 30
0.0
 10
24.783619
 20
81.383302
 30
0.0
 10
24.031950
 20
81.633161
 30
0.0
  0
SPLINE
  5
11f
100
AcDbEntity
  8
0
 62
7
100
AcDbSpline
 70
8
 71
3
 72
8
 73
4
 74
0
 40
0
 40
0
 40
0
 40
0
 40
1
 40
1
 40
1
 40
1
 10
24.031950
 20
81.633161
 30
0.0
 10
23.280980
 20
81.883717
 30
0.0
 10
22.709377
 20
81.993291
 30
0.0
 10
21.866978
 20
82.120314
 30
0.0
  0
SPLINE
  5
120
100
AcDbEntity
  8
0
 62
7
100
AcDbSpline
 70
8
 71
3
 72
8
 73
4
 74
0
 40
0
 40
0
 40
0
 40
0
 40
1
 40
1
 40
1
 40
1
 10
21.866978
 20
82.120314
 30
0.0
 10
21.024579
 20
82.247337
 30
0.0
 10
20.170315
 20
81.889300
 30
0.0
 10
20.540914
 20
80.794251
 30
0.0
  0
SPLINE
  5
121
100
AcDbEntity
  8
0
 62
7
100
AcDbSpline
 70
8
 71
3
 72
8
 73
4
 74
0
 40
0
 40
0
 40
0
 40
0
 40
1
 40
1
 40
1
 40
1
 10
20.540914
 20
80.794251
 30
0.0
 10
18.674655
 20
80.708406
 30
0.0
 10
16.502005
 20
80.612790
 30
0.0
 10
15.236661
 20
79.119224
 30
0.0
  0
SPLINE
  5
122
100
AcDbEntity
  8
0
 62
7
100
AcDbSpline
 70
8
 71
3
 72
8
 73
4
 74
0
 40
0
 40
0
 40
0
 40
0
 40
1
 40
1
 40
1
 40
1
 10
15.236661
 20
79.119224
 30
0.0
 10
14.780217
 20
80.922670
 30
0.0
 10
14.438930
 20
83.175581
 30
0.0
 10
13.685167
 20
84.895974
 30
0.0
  0
SPLINE
  5
123
100
AcDbEntity
  8
0
 62
7
100
AcDbSpline
 70
8
 71
3
 72
8
 73
4
 74
0
 40
0
 40
0
 40
0
 40
0
 40
1
 40
1
 40
1
 40
1
 10
13.685167
 20
84.895974
 30
0.0
 10
12.932103
 20
86.616367
 30
0.0
 10
12.247436
 20
88.156694
 30
0.0
 10
10.961852
 20
89.500903
 30
0.0
  0
SPLINE
  5
124
100
AcDbEntity
  8
0
 62
7
100
AcDbSpline
 70
8
 71
3
 72
8
 73
4
 74
0
 40
0
 40
0
 40
0
 40
0
 40
1
 40
1
 40
1
 40
1
 10
10.961852
 20
89.500903
 30
0.0
 10
9.676967
 20
90.845113
 30
0.0
 10
9.170969
 20
92.590631
 30
0.0
 10
8.348810
 20
94.216105
 30
0.0
  0
SPLINE
  5
125
100
AcDbEntity
  8
0
 62
7
100
AcDbSpline
 70
8
 71
3
 72
8
 73
4
 74
0
 40
0
 40
0
 40
0
 40
0
 40
1
 40
1
 40
1
 40
1
 10
8.348810
 20
94.216105
 30
0.0
 10
7.525953
 20
95.840881
 30
0.0
 10
6.463706
 20
97.218591
 30
0.0
 10
5.744840
 20
98.870587
 30
0.0
  0
SPLINE
  5
126
100
AcDbEntity
  8
0
 62
7
100
AcDbSpline
 70
8
 71
3
 72
8
 73
4
 74
0
 40
0
 40
0
 40
0
 40
0
 40
1
 40
1
 40
1
 40
1
 10
5.744840
 20
98.870587
 30
0.0
 10
4.579998
 20
99.189540
 30
0.0
 10
3.708286
 20
98.660511
 30
0.0
 10
3.284644
 20
97.701558
 30
0.0
  0
SPLINE
  5
127
100
AcDbEntity
  8
0
 62
7
100
AcDbSpline
 70
8
 71
3
 72
8
 73
4
 74
0
 40
0
 40
0
 40
0
 40
0
 40
1
 40
1
 40
1
 40
1
 10
3.284644
 20
97.701558
 30
0.0
 10
2.861700
 20
96.741906
 30
0.0
 10
2.412932
 20
96.198918
 30
0.0
 10
2.170053
 20
95.186923
 30
0.0
  0
SPLINE
  5
128
100
AcDbEntity
  8
0
 62
7
100
AcDbSpline
 70
8
 71
3
 72
8
 73
4
 74
0
 40
0
 40
0
 40
0
 40
0
 40
1
 40
1
 40
1
 40
1
 10
2.170053
 20
95.186923
 30
0.0
 10
1.927174
 20
94.175625
 30
0.0
 10
1.592168
 20
93.306705
 30
0.0
 10
1.486781
 20
92.240969
 30
0.0
  0
SPLINE
  5
129
100
AcDbEntity
  8
0
 62
7
100
AcDbSpline
 70
8
 71
3
 72
8
 73
4
 74
0
 40
0
 40
0
 40
0
 40
0
 40
1
 40
1
 40
1
 40
1
 10
1.486781
 20
92.240969
 30
0.0
 10
1.381394
 20
91.174535
 30
0.0
 10
1.275309
 20
90.039006
 30
0.0
 10
1.137817
 20
88.960707
 30
0.0
  0
SPLINE
  5
12a
100
AcDbEntity
  8
0
 62
7
100
AcDbSpline
 70
8
 71
3
 72
8
 73
4
 74
0
 40
0
 40
0
 40
0
 40
0
 40
1
 40
1
 40
1
 40
1
 10
1.137817
 20
88.960707
 30
0.0
 10
1.000325
 20
87.881710
 30
0.0
 10
0.904709
 20
86.661732
 30
0.0
 10
0.929137
 20
85.540162
 30
0.0
  0
SPLINE
  5
12b
100
AcDbEntity
  8
0
 62
7
100
AcDbSpline
 70
8
 71
3
 72
8
 73
4
 74
0
 40
0
 40
0
 40
0
 40
0
 40
1
 40
1
 40
1
 40
1
 10
0.929137
 20
85.540162
 30
0.0
 10
0.953564
 20
84.418591
 30
0.0
 10
0.882376
 20
83.047861
 30
0.0
 10
1.003815
 20
81.985614
 30
0.0
  0
SPLINE
  5
12c
100
AcDbEntity
  8
0
 62
7
100
AcDbSpline
 70
8
 71
3
 72
8
 73
4
 74
0
 40
0
 40
0
 40
0
 40
0
 40
1
 40
1
 40
1
 40
1
 10
1.003815
 20
81.985614
 30
0.0
 10
1.125953
 20
80.924066
 30
0.0
 10
1.303226
 20
79.908580
 30
0.0
 10
1.604033
 20
78.956607
 30
0.0
  0
SPLINE
  5
12d
100
AcDbEntity
  8
0
 62
7
100
AcDbSpline
 70
8
 71
3
 72
8
 73
4
 74
0
 40
0
 40
0
 40
0
 40
0
 40
1
 40
1
 40
1
 40
1
 10
1.604033
 20
78.956607
 30
0.0
 10
1.904840
 20
78.004633
 30
0.0
 10
2.224491
 20
77.145483
 30
0.0
 10
2.539257
 20
76.262604
 30
0.0
  0
SPLINE
  5
12e
100
AcDbEntity
  8
0
 62
7
100
AcDbSpline
 70
8
 71
3
 72
8
 73
4
 74
0
 40
0
 40
0
 40
0
 40
0
 40
1
 40
1
 40
1
 40
1
 10
2.539257
 20
76.262604
 30
0.0
 10
2.854720
 20
75.380423
 30
0.0
 10
3.334895
 20
74.667141
 30
0.0
 10
3.806694
 20
73.900816
 30
0.0
  0
SPLINE
  5
12f
100
AcDbEntity
  8
0
 62
7
100
AcDbSpline
 70
8
 71
3
 72
8
 73
4
 74
0
 40
0
 40
0
 40
0
 40
0
 40
1
 40
1
 40
1
 40
1
 10
3.806694
 20
73.900816
 30
0.0
 10
4.278493
 20
73.134491
 30
0.0
 10
4.747501
 20
72.525200
 30
0.0
 10
5.326083
 20
71.860772
 30
0.0
  0
SPLINE
  5
130
100
AcDbEntity
  8
0
 62
7
100
AcDbSpline
 70
8
 71
3
 72
8
 73
4
 74
0
 40
0
 40
0
 40
0
 40
0
 40
1
 40
1
 40
1
 40
1
 10
5.326083
 20
71.860772
 30
0.0
 10
4.838232
 20
71.460162
 30
0.0
 10
5.372147
 20
70.824349
 30
0.0
 10
5.116705
 20
70.325331
 30
0.0
  0
SPLINE
  5
131
100
AcDbEntity
  8
0
 62
7
100
AcDbSpline
 70
8
 71
3
 72
8
 73
4
 74
0
 40
0
 40
0
 40
0
 40
0
 40
1
 40
1
 40
1
 40
1
 10
5.116705
 20
70.325331
 30
0.0
 10
4.861263
 20
69.826312
 30
0.0
 10
5.855113
 20
69.531088
 30
0.0
 10
5.518014
 20
69.156301
 30
0.0
  0
SPLINE
  5
132
100
AcDbEntity
  8
0
 62
7
100
AcDbSpline
 70
8
 71
3
 72
8
 73
4
 74
0
 40
0
 40
0
 40
0
 40
0
 40
1
 40
1
 40
1
 40
1
 10
5.518014
 20
69.156301
 30
0.0
 10
5.180914
 20
68.781514
 30
0.0
 10
5.176029
 20
68.258766
 30
0.0
 10
5.186498
 20
67.742997
 30
0.0
  0
SPLINE
  5
133
100
AcDbEntity
  8
0
 62
7
100
AcDbSpline
 70
8
 71
3
 72
8
 73
4
 74
0
 40
0
 40
0
 40
0
 40
0
 40
1
 40
1
 40
1
 40
1
 10
5.186498
 20
67.742997
 30
0.0
 10
5.196967
 20
67.227228
 30
0.0
 10
5.205342
 20
66.740772
 30
0.0
 10
5.729486
 20
66.541165
 30
0.0
  0
SPLINE
  5
134
100
AcDbEntity
  8
0
 62
7
100
AcDbSpline
 70
8
 71
3
 72
8
 73
4
 74
0
 40
0
 40
0
 40
0
 40
0
 40
1
 40
1
 40
1
 40
1
 10
5.729486
 20
66.541165
 30
0.0
 10
6.252932
 20
66.340859
 30
0.0
 10
6.527218
 20
66.193597
 30
0.0
 10
7.070903
 20
66.137762
 30
0.0
  0
SPLINE
  5
135
100
AcDbEntity
  8
0
 62
7
100
AcDbSpline
 70
8
 71
3
 72
8
 73
4
 74
0
 40
0
 40
0
 40
0
 40
0
 40
1
 40
1
 40
1
 40
1
 10
7.070903
 20
66.137762
 30
0.0
 10
7.001809
 20
65.626879
 30
0.0
 10
7.271209
 20
64.859158
 30
0.0
 10
6.809180
 20
64.515080
 30
0.0
  0
SPLINE
  5
136
100
AcDbEntity
  8
0
 62
7
100
AcDbSpline
 70
8
 71
3
 72
8
 73
4
 74
0
 40
0
 40
0
 40
0
 40
0
 40
1
 40
1
 40
1
 40
1
 10
6.809180
 20
64.515080
 30
0.0
 10
6.346454
 20
64.171699
 30
0.0
 10
6.268286
 20
63.742473
 30
0.0
 10
6.303183
 20
63.206465
 30
0.0
  0
SPLINE
  5
137
100
AcDbEntity
  8
0
 62
7
100
AcDbSpline
 70
8
 71
3
 72
8
 73
4
 74
0
 40
0
 40
0
 40
0
 40
0
 40
1
 40
1
 40
1
 40
1
 10
6.303183
 20
63.206465
 30
0.0
 10
5.735069
 20
63.215538
 30
0.0
 10
5.199758
 20
63.193902
 30
0.0
 10
4.628155
 20
63.206465
 30
0.0
  0
SPLINE
  5
138
100
AcDbEntity
  8
0
 62
7
100
AcDbSpline
 70
8
 71
3
 72
8
 73
4
 74
0
 40
0
 40
0
 40
0
 40
0
 40
1
 40
1
 40
1
 40
1
 10
4.628155
 20
63.206465
 30
0.0
 10
4.056552
 20
63.219027
 30
0.0
 10
3.536596
 20
63.182735
 30
0.0
 10
2.953128
 20
63.206465
 30
0.0
  0
SPLINE
  5
139
100
AcDbEntity
  8
0
 62
7
100
AcDbSpline
 70
8
 71
3
 72
8
 73
4
 74
0
 40
0
 40
0
 40
0
 40
0
 40
1
 40
1
 40
1
 40
1
 10
2.953128
 20
63.206465
 30
0.0
 10
2.369660
 20
63.230194
 30
0.0
 10
2.024884
 20
63.152724
 30
0.0
 10
1.417686
 20
63.276257
 30
0.0
  0
SPLINE
  5
13a
100
AcDbEntity
  8
0
 62
7
100
AcDbSpline
 70
8
 71
3
 72
8
 73
4
 74
0
 40
0
 40
0
 40
0
 40
0
 40
1
 40
1
 40
1
 40
1
 10
1.417686
 20
63.276257
 30
0.0
 10
0.810489
 20
63.399791
 30
0.0
 10
0.363117
 20
63.152724
 30
0.0
 10
0.510380
 20
62.508537
 30
0.0
  0
SPLINE
  5
13b
100
AcDbEntity
  8
0
 62
7
100
AcDbSpline
 70
8
 71
3
 72
8
 73
4
 74
0
 40
0
 40
0
 40
0
 40
0
 40
1
 40
1
 40
1
 40
1
 10
0.510380
 20
62.508537
 30
0.0
 10
0.657643
 20
61.864349
 30
0.0
 10
0.416160
 20
61.481187
 30
0.0
 10
0.510380
 20
60.903302
 30
0.0
  0
SPLINE
  5
13c
100
AcDbEntity
  8
0
 62
7
100
AcDbSpline
 70
8
 71
3
 72
8
 73
4
 74
0
 40
0
 40
0
 40
0
 40
0
 40
1
 40
1
 40
1
 40
1
 10
0.510380
 20
60.903302
 30
0.0
 10
0.604600
 20
60.325418
 30
0.0
 10
0.402201
 20
59.767773
 30
0.0
 10
0.512474
 20
59.230369
 30
0.0
  0
SPLINE
  5
13d
100
AcDbEntity
  8
0
 62
7
100
AcDbSpline
 70
8
 71
3
 72
8
 73
4
 74
0
 40
0
 40
0
 40
0
 40
0
 40
1
 40
1
 40
1
 40
1
 10
0.512474
 20
59.230369
 30
0.0
 10
0.622049
 20
58.692266
 30
0.0
 10
1.546803
 20
59.195472
 30
0.0
 10
1.906236
 20
59.018896
 30
0.0
  0
SPLINE
  5
13e
100
AcDbEntity
  8
0
 62
7
100
AcDbSpline
 70
8
 71
3
 72
8
 73
4
 74
0
 40
0
 40
0
 40
0
 40
0
 40
1
 40
1
 40
1
 40
1
 10
3.302092
 20
57.623040
 30
0.0
 10
3.204382
 20
57.110761
 30
0.0
 10
3.515658
 20
56.389802
 30
0.0
 10
3.110162
 20
56.000358
 30
0.0
  0
SPLINE
  5
13f
100
AcDbEntity
  8
0
 62
7
100
AcDbSpline
 70
8
 71
3
 72
8
 73
4
 74
0
 40
0
 40
0
 40
0
 40
0
 40
1
 40
1
 40
1
 40
1
 10
3.110162
 20
56.000358
 30
0.0
 10
2.705364
 20
55.610216
 30
0.0
 10
2.713041
 20
55.093749
 30
0.0
 10
2.743750
 20
54.552157
 30
0.0
  0
SPLINE
  5
140
100
AcDbEntity
  8
0
 62
7
100
AcDbSpline
 70
8
 71
3
 72
8
 73
4
 74
0
 40
0
 40
0
 40
0
 40
0
 40
1
 40
1
 40
1
 40
1
 10
2.743750
 20
54.552157
 30
0.0
 10
1.191558
 20
53.739071
 30
0.0
 10
-0.322248
 20
52.266443
 30
0.0
 10
0.091623
 20
50.294796
 30
0.0
  0
LWPOLYLINE
  5
141
100
AcDbEntity
  8
0
 62
7
100
AcDbPolyline
 90
3
 70
0
 10
1.906236
 20
59.018896
 30
0.0
 10
1.906236
 20
57.623040
 30
0.0
 10
3.302092
 20
57.623040
 30
0.0
  0
SPLINE
  5
142
100
AcDbEntity
  8
0
 62
7
100
AcDbSpline
 70
8
 71
3
 72
8
 73
4
 74
0
 40
0
 40
0
 40
0
 40
0
 40
1
 40
1
 40
1
 40
1
 10
1.557272
 20
50.294796
 30
0.0
 10
1.242507
 20
49.444720
 30
0.0
 10
1.139911
 20
48.874513
 30
0.0
 10
1.068722
 20
47.921841
 30
0.0
  0
SPLINE
  5
143
100
AcDbEntity
  8
0
 62
7
100
AcDbSpline
 70
8
 71
3
 72
8
 73
4
 74
0
 40
0
 40
0
 40
0
 40
0
 40
1
 40
1
 40
1
 40
1
 10
1.068722
 20
47.921841
 30
0.0
 10
0.997534
 20
46.969169
 30
0.0
 10
1.235527
 20
46.145614
 30
0.0
 10
1.138515
 20
45.130129
 30
0.0
  0
SPLINE
  5
144
100
AcDbEntity
  8
0
 62
7
100
AcDbSpline
 70
8
 71
3
 72
8
 73
4
 74
0
 40
0
 40
0
 40
0
 40
0
 40
1
 40
1
 40
1
 40
1
 10
1.138515
 20
45.130129
 30
0.0
 10
1.041503
 20
44.114643
 30
0.0
 10
2.037447
 20
43.876650
 30
0.0
 10
2.953128
 20
44.083237
 30
0.0
  0
SPLINE
  5
145
100
AcDbEntity
  8
0
 62
7
100
AcDbSpline
 70
8
 71
3
 72
8
 73
4
 74
0
 40
0
 40
0
 40
0
 40
0
 40
1
 40
1
 40
1
 40
1
 10
2.953128
 20
44.083237
 30
0.0
 10
2.944055
 20
44.328209
 30
0.0
 10
3.156225
 20
44.412659
 30
0.0
 10
3.371885
 20
44.362408
 30
0.0
  0
SPLINE
  5
146
100
AcDbEntity
  8
0
 62
7
100
AcDbSpline
 70
8
 71
3
 72
8
 73
4
 74
0
 40
0
 40
0
 40
0
 40
0
 40
1
 40
1
 40
1
 40
1
 10
3.371885
 20
44.362408
 30
0.0
 10
3.068984
 20
43.359485
 30
0.0
 10
3.215549
 20
42.451481
 30
0.0
 10
3.162507
 20
41.361317
 30
0.0
  0
SPLINE
  5
147
100
AcDbEntity
  8
0
 62
7
100
AcDbSpline
 70
8
 71
3
 72
8
 73
4
 74
0
 40
0
 40
0
 40
0
 40
0
 40
1
 40
1
 40
1
 40
1
 10
3.162507
 20
41.361317
 30
0.0
 10
3.109464
 20
40.271154
 30
0.0
 10
4.373412
 20
40.102255
 30
0.0
 10
5.256291
 20
40.244633
 30
0.0
  0
SPLINE
  5
148
100
AcDbEntity
  8
0
 62
7
100
AcDbSpline
 70
8
 71
3
 72
8
 73
4
 74
0
 40
0
 40
0
 40
0
 40
0
 40
1
 40
1
 40
1
 40
1
 10
5.256291
 20
40.244633
 30
0.0
 10
5.315615
 20
39.265439
 30
0.0
 10
5.664579
 20
38.114556
 30
0.0
 10
6.025407
 20
37.244938
 30
0.0
  0
SPLINE
  5
149
100
AcDbEntity
  8
0
 62
7
100
AcDbSpline
 70
8
 71
3
 72
8
 73
4
 74
0
 40
0
 40
0
 40
0
 40
0
 40
1
 40
1
 40
1
 40
1
 10
6.025407
 20
37.244938
 30
0.0
 10
6.386934
 20
36.376017
 30
0.0
 10
6.507676
 20
35.184654
 30
0.0
 10
7.629246
 20
35.149758
 30
0.0
  0
SPLINE
  5
14a
100
AcDbEntity
  8
0
 62
7
100
AcDbSpline
 70
8
 71
3
 72
8
 73
4
 74
0
 40
0
 40
0
 40
0
 40
0
 40
1
 40
1
 40
1
 40
1
 10
7.629246
 20
35.149758
 30
0.0
 10
7.715091
 20
34.333182
 30
0.0
 10
7.923074
 20
33.601056
 30
0.0
 10
8.063357
 20
32.792157
 30
0.0
  0
SPLINE
  5
14b
100
AcDbEntity
  8
0
 62
7
100
AcDbSpline
 70
8
 71
3
 72
8
 73
4
 74
0
 40
0
 40
0
 40
0
 40
0
 40
1
 40
1
 40
1
 40
1
 10
8.063357
 20
32.792157
 30
0.0
 10
8.204339
 20
31.983258
 30
0.0
 10
8.215505
 20
31.110150
 30
0.0
 10
8.257381
 20
30.264262
 30
0.0
  0
SPLINE
  5
14c
100
AcDbEntity
  8
0
 62
7
100
AcDbSpline
 70
8
 71
3
 72
8
 73
4
 74
0
 40
0
 40
0
 40
0
 40
0
 40
1
 40
1
 40
1
 40
1
 10
8.257381
 20
30.264262
 30
0.0
 10
8.299257
 20
29.418373
 30
0.0
 10
8.209224
 20
28.379158
 30
0.0
 10
8.258079
 20
27.543040
 30
0.0
  0
SPLINE
  5
14d
100
AcDbEntity
  8
0
 62
7
100
AcDbSpline
 70
8
 71
3
 72
8
 73
4
 74
0
 40
0
 40
0
 40
0
 40
0
 40
1
 40
1
 40
1
 40
1
 10
8.258079
 20
27.543040
 30
0.0
 10
8.306236
 20
26.706923
 30
0.0
 10
8.463270
 20
26.014578
 30
0.0
 10
8.677534
 20
25.240576
 30
0.0
  0
SPLINE
  5
14e
100
AcDbEntity
  8
0
 62
7
100
AcDbSpline
 70
8
 71
3
 72
8
 73
4
 74
0
 40
0
 40
0
 40
0
 40
0
 40
1
 40
1
 40
1
 40
1
 10
8.677534
 20
25.240576
 30
0.0
 10
8.892496
 20
24.467271
 30
0.0
 10
8.981133
 20
23.684196
 30
0.0
 10
9.025800
 20
22.866922
 30
0.0
  0
SPLINE
  5
14f
100
AcDbEntity
  8
0
 62
7
100
AcDbSpline
 70
8
 71
3
 72
8
 73
4
 74
0
 40
0
 40
0
 40
0
 40
0
 40
1
 40
1
 40
1
 40
1
 10
9.025800
 20
22.866922
 30
0.0
 10
9.070467
 20
22.048951
 30
0.0
 10
9.267283
 20
21.185614
 30
0.0
 10
9.229595
 20
20.358569
 30
0.0
  0
SPLINE
  5
150
100
AcDbEntity
  8
0
 62
7
100
AcDbSpline
 70
8
 71
3
 72
8
 73
4
 74
0
 40
0
 40
0
 40
0
 40
0
 40
1
 40
1
 40
1
 40
1
 10
9.229595
 20
20.358569
 30
0.0
 10
9.191209
 20
19.531524
 30
0.0
 10
8.898079
 20
18.726813
 30
0.0
 10
9.025102
 20
17.841143
 30
0.0
  0
SPLINE
  5
151
100
AcDbEntity
  8
0
 62
7
100
AcDbSpline
 70
8
 71
3
 72
8
 73
4
 74
0
 40
0
 40
0
 40
0
 40
0
 40
1
 40
1
 40
1
 40
1
 10
9.025102
 20
17.841143
 30
0.0
 10
9.152125
 20
16.955472
 30
0.0
 10
8.832474
 20
16.184262
 30
0.0
 10
8.815724
 20
15.328602
 30
0.0
  0
SPLINE
  5
152
100
AcDbEntity
  8
0
 62
7
100
AcDbSpline
 70
8
 71
3
 72
8
 73
4
 74
0
 40
0
 40
0
 40
0
 40
0
 40
1
 40
1
 40
1
 40
1
 10
8.815724
 20
15.328602
 30
0.0
 10
8.798973
 20
14.472942
 30
0.0
 10
8.824099
 20
13.459551
 30
0.0
 10
8.815724
 20
12.606683
 30
0.0
  0
SPLINE
  5
153
100
AcDbEntity
  8
0
 62
7
100
AcDbSpline
 70
8
 71
3
 72
8
 73
4
 74
0
 40
0
 40
0
 40
0
 40
0
 40
1
 40
1
 40
1
 40
1
 10
8.815724
 20
12.606683
 30
0.0
 10
8.807348
 20
11.753814
 30
0.0
 10
9.006956
 20
10.953989
 30
0.0
 10
8.675440
 20
10.164632
 30
0.0
  0
SPLINE
  5
154
100
AcDbEntity
  8
0
 62
7
100
AcDbSpline
 70
8
 71
3
 72
8
 73
4
 74
0
 40
0
 40
0
 40
0
 40
0
 40
1
 40
1
 40
1
 40
1
 10
8.675440
 20
10.164632
 30
0.0
 10
8.344622
 20
9.374578
 30
0.0
 10
8.422790
 20
8.567075
 30
0.0
 10
8.466062
 20
7.721884
 30
0.0
  0
SPLINE
  5
155
100
AcDbEntity
  8
0
 62
7
100
AcDbSpline
 70
8
 71
3
 72
8
 73
4
 74
0
 40
0
 40
0
 40
0
 40
0
 40
1
 40
1
 40
1
 40
1
 10
8.466062
 20
7.721884
 30
0.0
 10
8.510031
 20
6.876693
 30
0.0
 10
8.283902
 20
6.065003
 30
0.0
 10
8.257381
 20
5.208645
 30
0.0
  0
SPLINE
  5
156
100
AcDbEntity
  8
0
 62
7
100
AcDbSpline
 70
8
 71
3
 72
8
 73
4
 74
0
 40
0
 40
0
 40
0
 40
0
 40
1
 40
1
 40
1
 40
1
 10
8.257381
 20
5.208645
 30
0.0
 10
8.230860
 20
4.352288
 30
0.0
 10
8.133848
 20
3.513378
 30
0.0
 10
8.117796
 20
2.626312
 30
0.0
  0
SPLINE
  5
157
100
AcDbEntity
  8
0
 62
7
100
AcDbSpline
 70
8
 71
3
 72
8
 73
4
 74
0
 40
0
 40
0
 40
0
 40
0
 40
1
 40
1
 40
1
 40
1
 10
8.117796
 20
2.626312
 30
0.0
 10
8.101743
 20
1.739245
 30
0.0
 10
8.136640
 20
0.934534
 30
0.0
 10
8.272736
 20
0.059332
 30
0.0
  0
SPLINE
  5
158
100
AcDbEntity
  8
0
 62
7
100
AcDbSpline
 70
8
 71
3
 72
8
 73
4
 74
0
 40
0
 40
0
 40
0
 40
0
 40
1
 40
1
 40
1
 40
1
 10
8.272736
 20
0.059332
 30
0.0
 10
8.408832
 20
-0.815869
 30
0.0
 10
9.591820
 20
-0.524135
 30
0.0
 10
10.420958
 20
-0.514364
 30
0.0
  0
SPLINE
  5
159
100
AcDbEntity
  8
0
 62
7
100
AcDbSpline
 70
8
 71
3
 72
8
 73
4
 74
0
 40
0
 40
0
 40
0
 40
0
 40
1
 40
1
 40
1
 40
1
 10
10.420958
 20
-0.514364
 30
0.0
 10
11.250097
 20
-0.504593
 30
0.0
 10
12.192997
 20
-0.406186
 30
0.0
 10
13.073085
 20
-0.444572
 30
0.0
  0
SPLINE
  5
15a
100
AcDbEntity
  8
0
 62
7
100
AcDbSpline
 70
8
 71
3
 72
8
 73
4
 74
0
 40
0
 40
0
 40
0
 40
0
 40
1
 40
1
 40
1
 40
1
 10
13.073085
 20
-0.444572
 30
0.0
 10
13.953172
 20
-0.482958
 30
0.0
 10
14.899562
 20
-0.426425
 30
0.0
 10
15.795004
 20
-0.444572
 30
0.0
  0
SPLINE
  5
15b
100
AcDbEntity
  8
0
 62
7
100
AcDbSpline
 70
8
 71
3
 72
8
 73
4
 74
0
 40
0
 40
0
 40
0
 40
0
 40
1
 40
1
 40
1
 40
1
 10
15.795004
 20
-0.444572
 30
0.0
 10
16.690446
 20
-0.462718
 30
0.0
 10
17.613804
 20
-0.434801
 30
0.0
 10
18.516923
 20
-0.444572
 30
0.0
  0
SPLINE
  5
15c
100
AcDbEntity
  8
0
 62
7
100
AcDbSpline
 70
8
 71
3
 72
8
 73
4
 74
0
 40
0
 40
0
 40
0
 40
0
 40
1
 40
1
 40
1
 40
1
 10
18.516923
 20
-0.444572
 30
0.0
 10
19.420042
 20
-0.454343
 30
0.0
 10
20.331536
 20
-0.437592
 30
0.0
 10
21.238842
 20
-0.444572
 30
0.0
  0
SPLINE
  5
15d
100
AcDbEntity
  8
0
 62
7
100
AcDbSpline
 70
8
 71
3
 72
8
 73
4
 74
0
 40
0
 40
0
 40
0
 40
0
 40
1
 40
1
 40
1
 40
1
 10
21.238842
 20
-0.444572
 30
0.0
 10
22.146149
 20
-0.451551
 30
0.0
 10
23.048570
 20
-0.434801
 30
0.0
 10
23.960762
 20
-0.444572
 30
0.0
  0
SPLINE
  5
15e
100
AcDbEntity
  8
0
 62
7
100
AcDbSpline
 70
8
 71
3
 72
8
 73
4
 74
0
 40
0
 40
0
 40
0
 40
0
 40
1
 40
1
 40
1
 40
1
 10
23.960762
 20
-0.444572
 30
0.0
 10
24.872954
 20
-0.454343
 30
0.0
 10
25.762812
 20
-0.426425
 30
0.0
 10
26.682681
 20
-0.444572
 30
0.0
  0
SPLINE
  5
15f
100
AcDbEntity
  8
0
 62
7
100
AcDbSpline
 70
8
 71
3
 72
8
 73
4
 74
0
 40
0
 40
0
 40
0
 40
0
 40
1
 40
1
 40
1
 40
1
 10
26.682681
 20
-0.444572
 30
0.0
 10
27.602550
 20
-0.462718
 30
0.0
 10
28.546149
 20
-0.406186
 30
0.0
 10
29.474393
 20
-0.444572
 30
0.0
  0
SPLINE
  5
160
100
AcDbEntity
  8
0
 62
7
100
AcDbSpline
 70
8
 71
3
 72
8
 73
4
 74
0
 40
0
 40
0
 40
0
 40
0
 40
1
 40
1
 40
1
 40
1
 10
29.474393
 20
-0.444572
 30
0.0
 10
30.402638
 20
-0.482958
 30
0.0
 10
31.194786
 20
-0.350351
 30
0.0
 10
32.126520
 20
-0.374779
 30
0.0
  0
SPLINE
  5
161
100
AcDbEntity
  8
0
 62
7
100
AcDbSpline
 70
8
 71
3
 72
8
 73
4
 74
0
 40
0
 40
0
 40
0
 40
0
 40
1
 40
1
 40
1
 40
1
 10
32.126520
 20
-0.374779
 30
0.0
 10
33.058254
 20
-0.399206
 30
0.0
 10
33.878319
 20
-0.304288
 30
0.0
 10
34.848439
 20
-0.374779
 30
0.0
  0
SPLINE
  5
162
100
AcDbEntity
  8
0
 62
7
100
AcDbSpline
 70
8
 71
3
 72
8
 73
4
 74
0
 40
0
 40
0
 40
0
 40
0
 40
1
 40
1
 40
1
 40
1
 10
34.848439
 20
-0.374779
 30
0.0
 10
35.818559
 20
-0.445270
 30
0.0
 10
36.519279
 20
-0.211464
 30
0.0
 10
37.570358
 20
-0.374779
 30
0.0
  0
SPLINE
  5
163
100
AcDbEntity
  8
0
 62
7
100
AcDbSpline
 70
8
 71
3
 72
8
 73
4
 74
0
 40
0
 40
0
 40
0
 40
0
 40
1
 40
1
 40
1
 40
1
 10
37.570358
 20
-0.374779
 30
0.0
 10
38.621438
 20
-0.538094
 30
0.0
 10
38.586542
 20
0.471110
 30
0.0
 10
38.547458
 20
1.370041
 30
0.0
  0
SPLINE
  5
164
100
AcDbEntity
  8
0
 62
7
100
AcDbSpline
 70
8
 71
3
 72
8
 73
4
 74
0
 40
0
 40
0
 40
0
 40
0
 40
1
 40
1
 40
1
 40
1
 10
38.547458
 20
1.370041
 30
0.0
 10
38.508374
 20
2.268973
 30
0.0
 10
38.698210
 20
3.077173
 30
0.0
 10
38.687043
 20
3.952375
 30
0.0
  0
SPLINE
  5
165
100
AcDbEntity
  8
0
 62
7
100
AcDbSpline
 70
8
 71
3
 72
8
 73
4
 74
0
 40
0
 40
0
 40
0
 40
0
 40
1
 40
1
 40
1
 40
1
 10
38.687043
 20
3.952375
 30
0.0
 10
38.675876
 20
4.827577
 30
0.0
 10
38.860827
 20
5.671372
 30
0.0
 10
38.826629
 20
6.534709
 30
0.0
  0
SPLINE
  5
166
100
AcDbEntity
  8
0
 62
7
100
AcDbSpline
 70
8
 71
3
 72
8
 73
4
 74
0
 40
0
 40
0
 40
0
 40
0
 40
1
 40
1
 40
1
 40
1
 10
38.826629
 20
6.534709
 30
0.0
 10
38.792430
 20
7.398046
 30
0.0
 10
38.859431
 20
8.226486
 30
0.0
 10
39.082768
 20
9.000488
 30
0.0
  0
SPLINE
  5
167
100
AcDbEntity
  8
0
 62
7
100
AcDbSpline
 70
8
 71
3
 72
8
 73
4
 74
0
 40
0
 40
0
 40
0
 40
0
 40
1
 40
1
 40
1
 40
1
 10
39.082768
 20
9.000488
 30
0.0
 10
39.306105
 20
9.773793
 30
0.0
 10
39.600631
 20
10.208602
 30
0.0
 10
39.819082
 20
10.986094
 30
0.0
  0
SPLINE
  5
168
100
AcDbEntity
  8
0
 62
7
100
AcDbSpline
 70
8
 71
3
 72
8
 73
4
 74
0
 40
0
 40
0
 40
0
 40
0
 40
1
 40
1
 40
1
 40
1
 10
39.819082
 20
10.986094
 30
0.0
 10
40.037534
 20
11.763585
 30
0.0
 10
39.852583
 20
12.739289
 30
0.0
 10
39.943314
 20
13.583782
 30
0.0
  0
SPLINE
  5
169
100
AcDbEntity
  8
0
 62
7
100
AcDbSpline
 70
8
 71
3
 72
8
 73
4
 74
0
 40
0
 40
0
 40
0
 40
0
 40
1
 40
1
 40
1
 40
1
 10
39.943314
 20
13.583782
 30
0.0
 10
40.034044
 20
14.428275
 30
0.0
 10
40.022877
 20
15.426312
 30
0.0
 10
40.013106
 20
16.305701
 30
0.0
  0
SPLINE
  5
16a
100
AcDbEntity
  8
0
 62
7
100
AcDbSpline
 70
8
 71
3
 72
8
 73
4
 74
0
 40
0
 40
0
 40
0
 40
0
 40
1
 40
1
 40
1
 40
1
 10
40.013106
 20
16.305701
 30
0.0
 10
40.003335
 20
17.185090
 30
0.0
 10
40.035440
 20
18.156606
 30
0.0
 10
40.013106
 20
19.027620
 30
0.0
  0
SPLINE
  5
16b
100
AcDbEntity
  8
0
 62
7
100
AcDbSpline
 70
8
 71
3
 72
8
 73
4
 74
0
 40
0
 40
0
 40
0
 40
0
 40
1
 40
1
 40
1
 40
1
 10
40.013106
 20
19.027620
 30
0.0
 10
39.990773
 20
19.898635
 30
0.0
 10
39.945407
 20
20.766159
 30
0.0
 10
39.873521
 20
21.609954
 30
0.0
  0
SPLINE
  5
16c
100
AcDbEntity
  8
0
 62
7
100
AcDbSpline
 70
8
 71
3
 72
8
 73
4
 74
0
 40
0
 40
0
 40
0
 40
0
 40
1
 40
1
 40
1
 40
1
 10
39.873521
 20
21.609954
 30
0.0
 10
39.800936
 20
22.453749
 30
0.0
 10
39.675309
 20
23.222168
 30
0.0
 10
39.594350
 20
24.052702
 30
0.0
  0
SPLINE
  5
16d
100
AcDbEntity
  8
0
 62
7
100
AcDbSpline
 70
8
 71
3
 72
8
 73
4
 74
0
 40
0
 40
0
 40
0
 40
0
 40
1
 40
1
 40
1
 40
1
 10
39.594350
 20
24.052702
 30
0.0
 10
39.513390
 20
24.883237
 30
0.0
 10
39.511296
 20
25.754251
 30
0.0
 10
39.384971
 20
26.565243
 30
0.0
  0
SPLINE
  5
16e
100
AcDbEntity
  8
0
 62
7
100
AcDbSpline
 70
8
 71
3
 72
8
 73
4
 74
0
 40
0
 40
0
 40
0
 40
0
 40
1
 40
1
 40
1
 40
1
 10
39.384971
 20
26.565243
 30
0.0
 10
39.257948
 20
27.376235
 30
0.0
 10
39.163728
 20
28.091612
 30
0.0
 10
39.105800
 20
28.868406
 30
0.0
  0
SPLINE
  5
16f
100
AcDbEntity
  8
0
 62
7
100
AcDbSpline
 70
8
 71
3
 72
8
 73
4
 74
0
 40
0
 40
0
 40
0
 40
0
 40
1
 40
1
 40
1
 40
1
 10
39.105800
 20
28.868406
 30
0.0
 10
39.047872
 20
29.644502
 30
0.0
 10
39.171405
 20
30.416410
 30
0.0
 10
39.431732
 20
31.124807
 30
0.0
  0
SPLINE
  5
170
100
AcDbEntity
  8
0
 62
7
100
AcDbSpline
 70
8
 71
3
 72
8
 73
4
 74
0
 40
0
 40
0
 40
0
 40
0
 40
1
 40
1
 40
1
 40
1
 10
39.431732
 20
31.124807
 30
0.0
 10
39.692758
 20
31.832506
 30
0.0
 10
39.796749
 20
32.482975
 30
0.0
 10
40.154786
 20
33.123673
 30
0.0
  0
SPLINE
  5
171
100
AcDbEntity
  8
0
 62
7
100
AcDbSpline
 70
8
 71
3
 72
8
 73
4
 74
0
 40
0
 40
0
 40
0
 40
0
 40
1
 40
1
 40
1
 40
1
 10
40.154786
 20
33.123673
 30
0.0
 10
40.512125
 20
33.764371
 30
0.0
 10
40.725691
 20
34.301077
 30
0.0
 10
41.065582
 20
34.934796
 30
0.0
  0
SPLINE
  5
172
100
AcDbEntity
  8
0
 62
7
100
AcDbSpline
 70
8
 71
3
 72
8
 73
4
 74
0
 40
0
 40
0
 40
0
 40
0
 40
1
 40
1
 40
1
 40
1
 10
41.065582
 20
34.934796
 30
0.0
 10
41.405473
 20
35.568515
 30
0.0
 10
41.690925
 20
36.114294
 30
0.0
 10
41.898210
 20
36.824087
 30
0.0
  0
SPLINE
  5
173
100
AcDbEntity
  8
0
 62
7
100
AcDbSpline
 70
8
 71
3
 72
8
 73
4
 74
0
 40
0
 40
0
 40
0
 40
0
 40
1
 40
1
 40
1
 40
1
 10
41.898210
 20
36.824087
 30
0.0
 10
42.104797
 20
37.533880
 30
0.0
 10
42.249268
 20
38.421644
 30
0.0
 10
42.246476
 20
39.197740
 30
0.0
  0
SPLINE
  5
174
100
AcDbEntity
  8
0
 62
7
100
AcDbSpline
 70
8
 71
3
 72
8
 73
4
 74
0
 40
0
 40
0
 40
0
 40
0
 40
1
 40
1
 40
1
 40
1
 10
42.246476
 20
39.197740
 30
0.0
 10
43.183794
 20
39.182386
 30
0.0
 10
44.063881
 20
39.719791
 30
0.0
 10
43.851711
 20
40.733182
 30
0.0
  0
SPLINE
  5
175
100
AcDbEntity
  8
0
 62
7
100
AcDbSpline
 70
8
 71
3
 72
8
 73
4
 74
0
 40
0
 40
0
 40
0
 40
0
 40
1
 40
1
 40
1
 40
1
 10
43.851711
 20
40.733182
 30
0.0
 10
43.639541
 20
41.746574
 30
0.0
 10
43.749115
 20
42.644109
 30
0.0
 10
44.567087
 20
43.018896
 30
0.0
  0
SPLINE
  5
176
100
AcDbEntity
  8
0
 62
7
100
AcDbSpline
 70
8
 71
3
 72
8
 73
4
 74
0
 40
0
 40
0
 40
0
 40
0
 40
1
 40
1
 40
1
 40
1
 10
44.567087
 20
43.018896
 30
0.0
 10
45.385756
 20
43.393684
 30
0.0
 10
45.962943
 20
43.741252
 30
0.0
 10
46.015288
 20
44.641579
 30
0.0
  0
SPLINE
  5
177
100
AcDbEntity
  8
0
 62
7
100
AcDbSpline
 70
8
 71
3
 72
8
 73
4
 74
0
 40
0
 40
0
 40
0
 40
0
 40
1
 40
1
 40
1
 40
1
 10
46.015288
 20
44.641579
 30
0.0
 10
46.067632
 20
45.541906
 30
0.0
 10
45.840806
 20
46.620903
 30
0.0
 10
46.296553
 20
47.361405
 30
0.0
  0
SPLINE
  5
178
100
AcDbEntity
  8
0
 62
7
100
AcDbSpline
 70
8
 71
3
 72
8
 73
4
 74
0
 40
0
 40
0
 40
0
 40
0
 40
1
 40
1
 40
1
 40
1
 10
46.296553
 20
47.361405
 30
0.0
 10
46.751602
 20
48.102604
 30
0.0
 10
47.282027
 20
48.469016
 30
0.0
 10
47.341351
 20
49.387490
 30
0.0
  0
SPLINE
  5
179
100
AcDbEntity
  8
0
 62
7
100
AcDbSpline
 70
8
 71
3
 72
8
 73
4
 74
0
 40
0
 40
0
 40
0
 40
0
 40
1
 40
1
 40
1
 40
1
 10
47.341351
 20
49.387490
 30
0.0
 10
47.400675
 20
50.305963
 30
0.0
 10
47.234568
 20
51.446377
 30
0.0
 10
47.130577
 20
52.317392
 30
0.0
  0
SPLINE
  5
17a
100
AcDbEntity
  8
0
 62
7
100
AcDbSpline
 70
8
 71
3
 72
8
 73
4
 74
0
 40
0
 40
0
 40
0
 40
0
 40
1
 40
1
 40
1
 40
1
 10
47.130577
 20
52.317392
 30
0.0
 10
47.025887
 20
53.187708
 30
0.0
 10
46.434044
 20
53.630892
 30
0.0
 10
46.138821
 20
54.396519
 30
0.0
  0
SPLINE
  5
17b
100
AcDbEntity
  8
0
 62
7
100
AcDbSpline
 70
8
 71
3
 72
8
 73
4
 74
0
 40
0
 40
0
 40
0
 40
0
 40
1
 40
1
 40
1
 40
1
 10
46.138821
 20
54.396519
 30
0.0
 10
45.843597
 20
55.161448
 30
0.0
 10
44.788330
 20
55.344305
 30
0.0
 10
44.898603
 20
56.296977
 30
0.0
  0
SPLINE
  5
17c
100
AcDbEntity
  8
0
 62
7
100
AcDbSpline
 70
8
 71
3
 72
8
 73
4
 74
0
 40
0
 40
0
 40
0
 40
0
 40
1
 40
1
 40
1
 40
1
 10
44.898603
 20
56.296977
 30
0.0
 10
45.008875
 20
57.249649
 30
0.0
 10
44.006651
 20
57.651655
 30
0.0
 10
43.083990
 20
57.553248
 30
0.0
  0
SPLINE
  5
17d
100
AcDbEntity
  8
0
 62
7
100
AcDbSpline
 70
8
 71
3
 72
8
 73
4
 74
0
 40
0
 40
0
 40
0
 40
0
 40
1
 40
1
 40
1
 40
1
 10
43.083990
 20
57.553248
 30
0.0
 10
43.433652
 20
57.715167
 30
0.0
 10
43.933368
 20
57.576977
 30
0.0
 10
44.340260
 20
57.623040
 30
0.0
  0
LWPOLYLINE
  5
17e
100
AcDbEntity
  8
0
 62
7
100
AcDbPolyline
 90
2
 70
0
 10
0.091623
 20
50.294796
 30
0.0
 10
1.557272
 20
50.294796
 30
0.0
  0
SPLINE
  5
17f
100
AcDbEntity
  8
0
 62
7
100
AcDbSpline
 70
8
 71
3
 72
8
 73
4
 74
0
 40
0
 40
0
 40
0
 40
0
 40
1
 40
1
 40
1
 40
1
 10
44.340260
 20
59.018896
 30
0.0
 10
44.990729
 20
58.958177
 30
0.0
 10
45.930140
 20
58.875123
 30
0.0
 10
45.805909
 20
59.647032
 30
0.0
  0
SPLINE
  5
180
100
AcDbEntity
  8
0
 62
7
100
AcDbSpline
 70
8
 71
3
 72
8
 73
4
 74
0
 40
0
 40
0
 40
0
 40
0
 40
1
 40
1
 40
1
 40
1
 10
45.805909
 20
59.647032
 30
0.0
 10
45.681678
 20
60.418940
 30
0.0
 10
45.884775
 20
60.993335
 30
0.0
 10
45.805909
 20
61.671023
 30
0.0
  0
SPLINE
  5
181
100
AcDbEntity
  8
0
 62
7
100
AcDbSpline
 70
8
 71
3
 72
8
 73
4
 74
0
 40
0
 40
0
 40
0
 40
0
 40
1
 40
1
 40
1
 40
1
 10
45.805909
 20
61.671023
 30
0.0
 10
45.727043
 20
62.348711
 30
0.0
 10
46.089268
 20
63.274164
 30
0.0
 10
45.317360
 20
63.276257
 30
0.0
  0
SPLINE
  5
182
100
AcDbEntity
  8
0
 62
7
100
AcDbSpline
 70
8
 71
3
 72
8
 73
4
 74
0
 40
0
 40
0
 40
0
 40
0
 40
1
 40
1
 40
1
 40
1
 10
45.317360
 20
63.276257
 30
0.0
 10
44.545451
 20
63.278351
 30
0.0
 10
44.090402
 20
63.189714
 30
0.0
 10
43.363161
 20
63.206465
 30
0.0
  0
SPLINE
  5
183
100
AcDbEntity
  8
0
 62
7
100
AcDbSpline
 70
8
 71
3
 72
8
 73
4
 74
0
 40
0
 40
0
 40
0
 40
0
 40
1
 40
1
 40
1
 40
1
 10
43.363161
 20
63.206465
 30
0.0
 10
42.635920
 20
63.223215
 30
0.0
 10
42.053150
 20
63.193902
 30
0.0
 10
41.339170
 20
63.206465
 30
0.0
  0
LWPOLYLINE
  5
184
100
AcDbEntity
  8
0
 62
7
100
AcDbPolyline
 90
2
 70
0
 10
44.340260
 20
57.623040
 30
0.0
 10
44.340260
 20
59.018896
 30
0.0
  0
SPLINE
  5
185
100
AcDbEntity
  8
0
 62
7
100
AcDbSpline
 70
8
 71
3
 72
8
 73
4
 74
0
 40
0
 40
0
 40
0
 40
0
 40
1
 40
1
 40
1
 40
1
 10
41.339170
 20
64.043978
 30
0.0
 10
41.104666
 20
64.071197
 30
0.0
 10
40.890402
 20
64.149365
 30
0.0
 10
40.641242
 20
64.113771
 30
0.0
  0
LWPOLYLINE
  5
186
100
AcDbEntity
  8
0
 62
7
100
AcDbPolyline
 90
2
 70
0
 10
41.339170
 20
63.206465
 30
0.0
 10
41.339170
 20
64.043978
 30
0.0
  0
SPLINE
  5
187
100
AcDbEntity
  8
0
 62
7
100
AcDbSpline
 70
8
 71
3
 72
8
 73
4
 74
0
 40
0
 40
0
 40
0
 40
0
 40
1
 40
1
 40
1
 40
1
 10
43.712125
 20
59.716825
 30
0.0
 10
43.569050
 20
59.384611
 30
0.0
 10
43.927087
 20
58.644109
 30
0.0
 10
43.657687
 20
58.375407
 30
0.0
  0
SPLINE
  5
188
100
AcDbEntity
  8
0
 62
7
100
AcDbSpline
 70
8
 71
3
 72
8
 73
4
 74
0
 40
0
 40
0
 40
0
 40
0
 40
1
 40
1
 40
1
 40
1
 10
43.657687
 20
58.375407
 30
0.0
 10
43.388286
 20
58.106705
 30
0.0
 10
42.649879
 20
58.463346
 30
0.0
 10
42.316269
 20
58.320968
 30
0.0
  0
LWPOLYLINE
  5
189
100
AcDbEntity
  8
0
 62
7
100
AcDbPolyline
 90
4
 70
0
 10
40.431863
 20
62.578329
 30
0.0
 10
45.107981
 20
62.578329
 30
0.0
 10
45.107981
 20
59.716825
 30
0.0
 10
43.712125
 20
59.716825
 30
0.0
  0
SPLINE
  5
18a
100
AcDbEntity
  8
0
 62
7
100
AcDbSpline
 70
8
 71
3
 72
8
 73
4
 74
0
 40
0
 40
0
 40
0
 40
0
 40
1
 40
1
 40
1
 40
1
 10
42.316269
 20
56.925112
 30
0.0
 10
42.866934
 20
56.946748
 30
0.0
 10
43.380609
 20
56.774360
 30
0.0
 10
43.922899
 20
56.647337
 30
0.0
  0
SPLINE
  5
18b
100
AcDbEntity
  8
0
 62
7
100
AcDbSpline
 70
8
 71
3
 72
8
 73
4
 74
0
 40
0
 40
0
 40
0
 40
0
 40
1
 40
1
 40
1
 40
1
 10
43.922899
 20
56.647337
 30
0.0
 10
44.465887
 20
56.521012
 30
0.0
 10
44.066672
 20
55.621383
 30
0.0
 10
43.642332
 20
55.599049
 30
0.0
  0
SPLINE
  5
18c
100
AcDbEntity
  8
0
 62
7
100
AcDbSpline
 70
8
 71
3
 72
8
 73
4
 74
0
 40
0
 40
0
 40
0
 40
0
 40
1
 40
1
 40
1
 40
1
 10
43.642332
 20
55.599049
 30
0.0
 10
44.322812
 20
55.209605
 30
0.0
 10
44.874175
 20
54.635211
 30
0.0
 10
45.299911
 20
53.976366
 30
0.0
  0
SPLINE
  5
18d
100
AcDbEntity
  8
0
 62
7
100
AcDbSpline
 70
8
 71
3
 72
8
 73
4
 74
0
 40
0
 40
0
 40
0
 40
0
 40
1
 40
1
 40
1
 40
1
 10
45.299911
 20
53.976366
 30
0.0
 10
45.725647
 20
53.318220
 30
0.0
 10
46.295855
 20
52.620990
 30
0.0
 10
46.432649
 20
51.828144
 30
0.0
  0
SPLINE
  5
18e
100
AcDbEntity
  8
0
 62
7
100
AcDbSpline
 70
8
 71
3
 72
8
 73
4
 74
0
 40
0
 40
0
 40
0
 40
0
 40
1
 40
1
 40
1
 40
1
 10
46.432649
 20
51.828144
 30
0.0
 10
46.568744
 20
51.035996
 30
0.0
 10
46.912823
 20
49.739245
 30
0.0
 10
46.413107
 20
49.059464
 30
0.0
  0
SPLINE
  5
18f
100
AcDbEntity
  8
0
 62
7
100
AcDbSpline
 70
8
 71
3
 72
8
 73
4
 74
0
 40
0
 40
0
 40
0
 40
0
 40
1
 40
1
 40
1
 40
1
 10
46.413107
 20
49.059464
 30
0.0
 10
45.912692
 20
48.380380
 30
0.0
 10
45.266411
 20
47.837392
 30
0.0
 10
45.200806
 20
47.037566
 30
0.0
  0
SPLINE
  5
190
100
AcDbEntity
  8
0
 62
7
100
AcDbSpline
 70
8
 71
3
 72
8
 73
4
 74
0
 40
0
 40
0
 40
0
 40
0
 40
1
 40
1
 40
1
 40
1
 10
45.200806
 20
47.037566
 30
0.0
 10
45.135200
 20
46.237043
 30
0.0
 10
45.741002
 20
44.934709
 30
0.0
 10
44.985844
 20
44.344960
 30
0.0
  0
SPLINE
  5
191
100
AcDbEntity
  8
0
 62
7
100
AcDbSpline
 70
8
 71
3
 72
8
 73
4
 74
0
 40
0
 40
0
 40
0
 40
0
 40
1
 40
1
 40
1
 40
1
 10
44.985844
 20
44.344960
 30
0.0
 10
44.229988
 20
43.755210
 30
0.0
 10
43.667458
 20
43.547926
 30
0.0
 10
42.874611
 20
43.106137
 30
0.0
  0
SPLINE
  5
192
100
AcDbEntity
  8
0
 62
7
100
AcDbSpline
 70
8
 71
3
 72
8
 73
4
 74
0
 40
0
 40
0
 40
0
 40
0
 40
1
 40
1
 40
1
 40
1
 10
42.874611
 20
43.106137
 30
0.0
 10
42.973019
 20
42.204414
 30
0.0
 10
43.354088
 20
41.308973
 30
0.0
 10
43.153783
 20
40.384218
 30
0.0
  0
SPLINE
  5
193
100
AcDbEntity
  8
0
 62
7
100
AcDbSpline
 70
8
 71
3
 72
8
 73
4
 74
0
 40
0
 40
0
 40
0
 40
0
 40
1
 40
1
 40
1
 40
1
 10
43.153783
 20
40.384218
 30
0.0
 10
42.703619
 20
40.070848
 30
0.0
 10
42.150162
 20
39.957086
 30
0.0
 10
41.618341
 20
39.825876
 30
0.0
  0
SPLINE
  5
194
100
AcDbEntity
  8
0
 62
7
100
AcDbSpline
 70
8
 71
3
 72
8
 73
4
 74
0
 40
0
 40
0
 40
0
 40
0
 40
1
 40
1
 40
1
 40
1
 10
41.618341
 20
39.825876
 30
0.0
 10
41.568788
 20
39.003019
 30
0.0
 10
41.427109
 20
38.078962
 30
0.0
 10
41.200980
 20
37.311939
 30
0.0
  0
SPLINE
  5
195
100
AcDbEntity
  8
0
 62
7
100
AcDbSpline
 70
8
 71
3
 72
8
 73
4
 74
0
 40
0
 40
0
 40
0
 40
0
 40
1
 40
1
 40
1
 40
1
 10
41.200980
 20
37.311939
 30
0.0
 10
40.975549
 20
36.544218
 30
0.0
 10
40.606345
 20
35.967032
 30
0.0
 10
40.238537
 20
35.273291
 30
0.0
  0
SPLINE
  5
196
100
AcDbEntity
  8
0
 62
7
100
AcDbSpline
 70
8
 71
3
 72
8
 73
4
 74
0
 40
0
 40
0
 40
0
 40
0
 40
1
 40
1
 40
1
 40
1
 10
40.238537
 20
35.273291
 30
0.0
 10
39.870729
 20
34.579551
 30
0.0
 10
39.618777
 20
34.017021
 30
0.0
 10
39.292845
 20
33.287686
 30
0.0
  0
SPLINE
  5
197
100
AcDbEntity
  8
0
 62
7
100
AcDbSpline
 70
8
 71
3
 72
8
 73
4
 74
0
 40
0
 40
0
 40
0
 40
0
 40
1
 40
1
 40
1
 40
1
 10
39.292845
 20
33.287686
 30
0.0
 10
38.966214
 20
32.558351
 30
0.0
 10
38.777076
 20
31.834600
 30
0.0
 10
38.552343
 20
31.027097
 30
0.0
  0
SPLINE
  5
198
100
AcDbEntity
  8
0
 62
7
100
AcDbSpline
 70
8
 71
3
 72
8
 73
4
 74
0
 40
0
 40
0
 40
0
 40
0
 40
1
 40
1
 40
1
 40
1
 10
38.552343
 20
31.027097
 30
0.0
 10
38.328308
 20
30.218896
 30
0.0
 10
38.398799
 20
29.060336
 30
0.0
 10
38.407872
 20
28.170478
 30
0.0
  0
SPLINE
  5
199
100
AcDbEntity
  8
0
 62
7
100
AcDbSpline
 70
8
 71
3
 72
8
 73
4
 74
0
 40
0
 40
0
 40
0
 40
0
 40
1
 40
1
 40
1
 40
1
 10
38.407872
 20
28.170478
 30
0.0
 10
38.416945
 20
27.280619
 30
0.0
 10
38.731013
 20
26.491263
 30
0.0
 10
38.756836
 20
25.588144
 30
0.0
  0
SPLINE
  5
19a
100
AcDbEntity
  8
0
 62
7
100
AcDbSpline
 70
8
 71
3
 72
8
 73
4
 74
0
 40
0
 40
0
 40
0
 40
0
 40
1
 40
1
 40
1
 40
1
 10
38.756836
 20
25.588144
 30
0.0
 10
38.782659
 20
24.685025
 30
0.0
 10
38.948068
 20
23.765156
 30
0.0
 10
39.034611
 20
22.864829
 30
0.0
  0
SPLINE
  5
19b
100
AcDbEntity
  8
0
 62
7
100
AcDbSpline
 70
8
 71
3
 72
8
 73
4
 74
0
 40
0
 40
0
 40
0
 40
0
 40
1
 40
1
 40
1
 40
1
 10
39.034611
 20
22.864829
 30
0.0
 10
39.121154
 20
21.963804
 30
0.0
 10
39.196531
 20
21.064872
 30
0.0
 10
39.245386
 20
20.144305
 30
0.0
  0
SPLINE
  5
19c
100
AcDbEntity
  8
0
 62
7
100
AcDbSpline
 70
8
 71
3
 72
8
 73
4
 74
0
 40
0
 40
0
 40
0
 40
0
 40
1
 40
1
 40
1
 40
1
 10
39.245386
 20
20.144305
 30
0.0
 10
39.294241
 20
19.223738
 30
0.0
 10
39.427545
 20
18.227097
 30
0.0
 10
39.384971
 20
17.282800
 30
0.0
  0
SPLINE
  5
19d
100
AcDbEntity
  8
0
 62
7
100
AcDbSpline
 70
8
 71
3
 72
8
 73
4
 74
0
 40
0
 40
0
 40
0
 40
0
 40
1
 40
1
 40
1
 40
1
 10
39.384971
 20
17.282800
 30
0.0
 10
39.342398
 20
16.338504
 30
0.0
 10
39.435222
 20
15.262299
 30
0.0
 10
39.315178
 20
14.351503
 30
0.0
  0
SPLINE
  5
19e
100
AcDbEntity
  8
0
 62
7
100
AcDbSpline
 70
8
 71
3
 72
8
 73
4
 74
0
 40
0
 40
0
 40
0
 40
0
 40
1
 40
1
 40
1
 40
1
 10
39.315178
 20
14.351503
 30
0.0
 10
39.195135
 20
13.440707
 30
0.0
 10
39.417076
 20
12.407075
 30
0.0
 10
39.176291
 20
11.559093
 30
0.0
  0
SPLINE
  5
19f
100
AcDbEntity
  8
0
 62
7
100
AcDbSpline
 70
8
 71
3
 72
8
 73
4
 74
0
 40
0
 40
0
 40
0
 40
0
 40
1
 40
1
 40
1
 40
1
 10
39.176291
 20
11.559093
 30
0.0
 10
38.935506
 20
10.711110
 30
0.0
 10
38.525822
 20
10.268624
 30
0.0
 10
38.342965
 20
9.391328
 30
0.0
  0
SPLINE
  5
1a0
100
AcDbEntity
  8
0
 62
7
100
AcDbSpline
 70
8
 71
3
 72
8
 73
4
 74
0
 40
0
 40
0
 40
0
 40
0
 40
1
 40
1
 40
1
 40
1
 10
38.342965
 20
9.391328
 30
0.0
 10
38.160806
 20
8.513335
 30
0.0
 10
38.163597
 20
7.717697
 30
0.0
 10
38.175462
 20
6.767119
 30
0.0
  0
SPLINE
  5
1a1
100
AcDbEntity
  8
0
 62
7
100
AcDbSpline
 70
8
 71
3
 72
8
 73
4
 74
0
 40
0
 40
0
 40
0
 40
0
 40
1
 40
1
 40
1
 40
1
 10
38.175462
 20
6.767119
 30
0.0
 10
38.187327
 20
5.816541
 30
0.0
 10
37.955615
 20
4.960881
 30
0.0
 10
37.989115
 20
3.952375
 30
0.0
  0
SPLINE
  5
1a2
100
AcDbEntity
  8
0
 62
7
100
AcDbSpline
 70
8
 71
3
 72
8
 73
4
 74
0
 40
0
 40
0
 40
0
 40
0
 40
1
 40
1
 40
1
 40
1
 10
37.989115
 20
3.952375
 30
0.0
 10
38.022616
 20
2.943869
 30
0.0
 10
37.732976
 20
2.198482
 30
0.0
 10
37.849530
 20
1.090870
 30
0.0
  0
SPLINE
  5
1a3
100
AcDbEntity
  8
0
 62
7
100
AcDbSpline
 70
8
 71
3
 72
8
 73
4
 74
0
 40
0
 40
0
 40
0
 40
0
 40
1
 40
1
 40
1
 40
1
 10
37.849530
 20
1.090870
 30
0.0
 10
37.966084
 20
-0.016742
 30
0.0
 10
36.722376
 20
0.234512
 30
0.0
 10
35.755746
 20
0.253356
 30
0.0
  0
SPLINE
  5
1a4
100
AcDbEntity
  8
0
 62
7
100
AcDbSpline
 70
8
 71
3
 72
8
 73
4
 74
0
 40
0
 40
0
 40
0
 40
0
 40
1
 40
1
 40
1
 40
1
 10
35.755746
 20
0.253356
 30
0.0
 10
34.789115
 20
0.272200
 30
0.0
 10
33.733848
 20
0.242190
 30
0.0
 10
32.754655
 20
0.253356
 30
0.0
  0
SPLINE
  5
1a5
100
AcDbEntity
  8
0
 62
7
100
AcDbSpline
 70
8
 71
3
 72
8
 73
4
 74
0
 40
0
 40
0
 40
0
 40
0
 40
1
 40
1
 40
1
 40
1
 10
32.754655
 20
0.253356
 30
0.0
 10
31.775462
 20
0.264523
 30
0.0
 10
30.809530
 20
0.242887
 30
0.0
 10
29.823357
 20
0.253356
 30
0.0
  0
SPLINE
  5
1a6
100
AcDbEntity
  8
0
 62
7
100
AcDbSpline
 70
8
 71
3
 72
8
 73
4
 74
0
 40
0
 40
0
 40
0
 40
0
 40
1
 40
1
 40
1
 40
1
 10
29.823357
 20
0.253356
 30
0.0
 10
28.837185
 20
0.263127
 30
0.0
 10
27.812627
 20
0.237304
 30
0.0
 10
26.822267
 20
0.253356
 30
0.0
  0
SPLINE
  5
1a7
100
AcDbEntity
  8
0
 62
7
100
AcDbSpline
 70
8
 71
3
 72
8
 73
4
 74
0
 40
0
 40
0
 40
0
 40
0
 40
1
 40
1
 40
1
 40
1
 10
26.822267
 20
0.253356
 30
0.0
 10
25.831907
 20
0.269409
 30
0.0
 10
24.858995
 20
0.251263
 30
0.0
 10
23.890271
 20
0.184262
 30
0.0
  0
SPLINE
  5
1a8
100
AcDbEntity
  8
0
 62
7
100
AcDbSpline
 70
8
 71
3
 72
8
 73
4
 74
0
 40
0
 40
0
 40
0
 40
0
 40
1
 40
1
 40
1
 40
1
 10
23.890271
 20
0.184262
 30
0.0
 10
22.921547
 20
0.116563
 30
0.0
 10
21.940260
 20
0.212877
 30
0.0
 10
20.959671
 20
0.183564
 30
0.0
  0
SPLINE
  5
1a9
100
AcDbEntity
  8
0
 62
7
100
AcDbSpline
 70
8
 71
3
 72
8
 73
4
 74
0
 40
0
 40
0
 40
0
 40
0
 40
1
 40
1
 40
1
 40
1
 10
20.959671
 20
0.183564
 30
0.0
 10
19.979082
 20
0.154251
 30
0.0
 10
18.944753
 20
0.196824
 30
0.0
 10
17.958581
 20
0.183564
 30
0.0
  0
SPLINE
  5
1aa
100
AcDbEntity
  8
0
 62
7
100
AcDbSpline
 70
8
 71
3
 72
8
 73
4
 74
0
 40
0
 40
0
 40
0
 40
0
 40
1
 40
1
 40
1
 40
1
 10
17.958581
 20
0.183564
 30
0.0
 10
16.972408
 20
0.170303
 30
0.0
 10
16.017643
 20
0.189845
 30
0.0
 10
15.027283
 20
0.183564
 30
0.0
  0
SPLINE
  5
1ab
100
AcDbEntity
  8
0
 62
7
100
AcDbSpline
 70
8
 71
3
 72
8
 73
4
 74
0
 40
0
 40
0
 40
0
 40
0
 40
1
 40
1
 40
1
 40
1
 10
15.027283
 20
0.183564
 30
0.0
 10
14.036923
 20
0.177282
 30
0.0
 10
13.021438
 20
0.187053
 30
0.0
 10
12.026193
 20
0.183564
 30
0.0
  0
SPLINE
  5
1ac
100
AcDbEntity
  8
0
 62
7
100
AcDbSpline
 70
8
 71
3
 72
8
 73
4
 74
0
 40
0
 40
0
 40
0
 40
0
 40
1
 40
1
 40
1
 40
1
 10
12.026193
 20
0.183564
 30
0.0
 10
11.030947
 20
0.180074
 30
0.0
 10
10.021743
 20
0.185657
 30
0.0
 10
9.025102
 20
0.183564
 30
0.0
  0
SPLINE
  5
1ad
100
AcDbEntity
  8
0
 62
7
100
AcDbSpline
 70
8
 71
3
 72
8
 73
4
 74
0
 40
0
 40
0
 40
0
 40
0
 40
1
 40
1
 40
1
 40
1
 10
9.025102
 20
0.183564
 30
0.0
 10
8.693586
 20
1.351197
 30
0.0
 10
8.786411
 20
2.479747
 30
0.0
 10
8.870162
 20
3.688558
 30
0.0
  0
SPLINE
  5
1ae
100
AcDbEntity
  8
0
 62
7
100
AcDbSpline
 70
8
 71
3
 72
8
 73
4
 74
0
 40
0
 40
0
 40
0
 40
0
 40
1
 40
1
 40
1
 40
1
 10
8.870162
 20
3.688558
 30
0.0
 10
8.953913
 20
4.897370
 30
0.0
 10
9.122812
 20
6.144567
 30
0.0
 10
9.094895
 20
7.372222
 30
0.0
  0
SPLINE
  5
1af
100
AcDbEntity
  8
0
 62
7
100
AcDbSpline
 70
8
 71
3
 72
8
 73
4
 74
0
 40
0
 40
0
 40
0
 40
0
 40
1
 40
1
 40
1
 40
1
 10
9.094895
 20
7.372222
 30
0.0
 10
9.066978
 20
8.599878
 30
0.0
 10
9.374764
 20
9.683062
 30
0.0
 10
9.513652
 20
10.861862
 30
0.0
  0
SPLINE
  5
1b0
100
AcDbEntity
  8
0
 62
7
100
AcDbSpline
 70
8
 71
3
 72
8
 73
4
 74
0
 40
0
 40
0
 40
0
 40
0
 40
1
 40
1
 40
1
 40
1
 10
9.513652
 20
10.861862
 30
0.0
 10
9.652539
 20
12.040663
 30
0.0
 10
9.305669
 20
13.361143
 30
0.0
 10
9.443859
 20
14.560881
 30
0.0
  0
SPLINE
  5
1b1
100
AcDbEntity
  8
0
 62
7
100
AcDbSpline
 70
8
 71
3
 72
8
 73
4
 74
0
 40
0
 40
0
 40
0
 40
0
 40
1
 40
1
 40
1
 40
1
 10
9.443859
 20
14.560881
 30
0.0
 10
9.582049
 20
15.760619
 30
0.0
 10
9.700696
 20
16.919180
 30
0.0
 10
9.707676
 20
18.135668
 30
0.0
  0
SPLINE
  5
1b2
100
AcDbEntity
  8
0
 62
7
100
AcDbSpline
 70
8
 71
3
 72
8
 73
4
 74
0
 40
0
 40
0
 40
0
 40
0
 40
1
 40
1
 40
1
 40
1
 10
9.707676
 20
18.135668
 30
0.0
 10
9.714655
 20
19.352157
 30
0.0
 10
10.095026
 20
20.551197
 30
0.0
 10
9.862616
 20
21.749540
 30
0.0
  0
SPLINE
  5
1b3
100
AcDbEntity
  8
0
 62
7
100
AcDbSpline
 70
8
 71
3
 72
8
 73
4
 74
0
 40
0
 40
0
 40
0
 40
0
 40
1
 40
1
 40
1
 40
1
 10
9.862616
 20
21.749540
 30
0.0
 10
9.630206
 20
22.947882
 30
0.0
 10
9.773979
 20
24.154600
 30
0.0
 10
9.515047
 20
25.310369
 30
0.0
  0
SPLINE
  5
1b4
100
AcDbEntity
  8
0
 62
7
100
AcDbSpline
 70
8
 71
3
 72
8
 73
4
 74
0
 40
0
 40
0
 40
0
 40
0
 40
1
 40
1
 40
1
 40
1
 10
9.515047
 20
25.310369
 30
0.0
 10
9.256814
 20
26.466835
 30
0.0
 10
8.863183
 20
27.359485
 30
0.0
 10
8.885516
 20
28.589234
 30
0.0
  0
SPLINE
  5
1b5
100
AcDbEntity
  8
0
 62
7
100
AcDbSpline
 70
8
 71
3
 72
8
 73
4
 74
0
 40
0
 40
0
 40
0
 40
0
 40
1
 40
1
 40
1
 40
1
 10
8.885516
 20
28.589234
 30
0.0
 10
8.908548
 20
29.819682
 30
0.0
 10
8.888308
 20
31.222517
 30
0.0
 10
8.815724
 20
32.427839
 30
0.0
  0
SPLINE
  5
1b6
100
AcDbEntity
  8
0
 62
7
100
AcDbSpline
 70
8
 71
3
 72
8
 73
4
 74
0
 40
0
 40
0
 40
0
 40
0
 40
1
 40
1
 40
1
 40
1
 10
8.815724
 20
32.427839
 30
0.0
 10
8.743139
 20
33.633160
 30
0.0
 10
8.417905
 20
34.673073
 30
0.0
 10
8.257381
 20
35.847686
 30
0.0
  0
SPLINE
  5
1b7
100
AcDbEntity
  8
0
 62
7
100
AcDbSpline
 70
8
 71
3
 72
8
 73
4
 74
0
 40
0
 40
0
 40
0
 40
0
 40
1
 40
1
 40
1
 40
1
 10
8.257381
 20
35.847686
 30
0.0
 10
7.124644
 20
35.853967
 30
0.0
 10
6.988548
 20
37.111634
 30
0.0
 10
6.630511
 20
37.989627
 30
0.0
  0
SPLINE
  5
1b8
100
AcDbEntity
  8
0
 62
7
100
AcDbSpline
 70
8
 71
3
 72
8
 73
4
 74
0
 40
0
 40
0
 40
0
 40
0
 40
1
 40
1
 40
1
 40
1
 10
6.630511
 20
37.989627
 30
0.0
 10
6.273172
 20
38.867620
 30
0.0
 10
5.892103
 20
40.063171
 30
0.0
 10
5.954219
 20
41.082146
 30
0.0
  0
SPLINE
  5
1b9
100
AcDbEntity
  8
0
 62
7
100
AcDbSpline
 70
8
 71
3
 72
8
 73
4
 74
0
 40
0
 40
0
 40
0
 40
0
 40
1
 40
1
 40
1
 40
1
 10
5.954219
 20
41.082146
 30
0.0
 10
5.053891
 20
40.546137
 30
0.0
 10
3.631514
 20
41.045156
 30
0.0
 10
3.790642
 20
42.198831
 30
0.0
  0
SPLINE
  5
1ba
100
AcDbEntity
  8
0
 62
7
100
AcDbSpline
 70
8
 71
3
 72
8
 73
4
 74
0
 40
0
 40
0
 40
0
 40
0
 40
1
 40
1
 40
1
 40
1
 10
3.790642
 20
42.198831
 30
0.0
 10
3.949769
 20
43.352506
 30
0.0
 10
3.998624
 20
44.219333
 30
0.0
 10
4.418777
 20
45.269714
 30
0.0
  0
SPLINE
  5
1bb
100
AcDbEntity
  8
0
 62
7
100
AcDbSpline
 70
8
 71
3
 72
8
 73
4
 74
0
 40
0
 40
0
 40
0
 40
0
 40
1
 40
1
 40
1
 40
1
 10
4.418777
 20
45.269714
 30
0.0
 10
4.048177
 20
45.125941
 30
0.0
 10
3.607087
 20
45.190848
 30
0.0
 10
3.232299
 20
45.060336
 30
0.0
  0
SPLINE
  5
1bc
100
AcDbEntity
  8
0
 62
7
100
AcDbSpline
 70
8
 71
3
 72
8
 73
4
 74
0
 40
0
 40
0
 40
0
 40
0
 40
1
 40
1
 40
1
 40
1
 10
3.232299
 20
45.060336
 30
0.0
 10
2.857512
 20
44.930521
 30
0.0
 10
2.335462
 20
45.225745
 30
0.0
 10
2.255200
 20
44.711372
 30
0.0
  0
SPLINE
  5
1bd
100
AcDbEntity
  8
0
 62
7
100
AcDbSpline
 70
8
 71
3
 72
8
 73
4
 74
0
 40
0
 40
0
 40
0
 40
0
 40
1
 40
1
 40
1
 40
1
 10
2.255200
 20
44.711372
 30
0.0
 10
1.513303
 20
45.289256
 30
0.0
 10
1.837141
 20
46.539943
 30
0.0
 10
1.766650
 20
47.433291
 30
0.0
  0
SPLINE
  5
1be
100
AcDbEntity
  8
0
 62
7
100
AcDbSpline
 70
8
 71
3
 72
8
 73
4
 74
0
 40
0
 40
0
 40
0
 40
0
 40
1
 40
1
 40
1
 40
1
 10
1.766650
 20
47.433291
 30
0.0
 10
1.696160
 20
48.326639
 30
0.0
 10
2.078624
 20
49.248602
 30
0.0
 10
2.379431
 20
50.030979
 30
0.0
  0
SPLINE
  5
1bf
100
AcDbEntity
  8
0
 62
7
100
AcDbSpline
 70
8
 71
3
 72
8
 73
4
 74
0
 40
0
 40
0
 40
0
 40
0
 40
1
 40
1
 40
1
 40
1
 10
2.379431
 20
50.030979
 30
0.0
 10
2.680238
 20
50.814055
 30
0.0
 10
3.050838
 20
51.480576
 30
0.0
 10
3.511471
 20
52.179202
 30
0.0
  0
SPLINE
  5
1c0
100
AcDbEntity
  8
0
 62
7
100
AcDbSpline
 70
8
 71
3
 72
8
 73
4
 74
0
 40
0
 40
0
 40
0
 40
0
 40
1
 40
1
 40
1
 40
1
 10
3.511471
 20
52.179202
 30
0.0
 10
2.527392
 20
51.891655
 30
0.0
 10
1.641721
 20
51.299115
 30
0.0
 10
0.719758
 20
50.922931
 30
0.0
  0
SPLINE
  5
1c1
100
AcDbEntity
  8
0
 62
7
100
AcDbSpline
 70
8
 71
3
 72
8
 73
4
 74
0
 40
0
 40
0
 40
0
 40
0
 40
1
 40
1
 40
1
 40
1
 10
0.719758
 20
50.922931
 30
0.0
 10
1.028243
 20
52.506530
 30
0.0
 10
2.606956
 20
53.369867
 30
0.0
 10
3.790642
 20
54.272986
 30
0.0
  0
SPLINE
  5
1c2
100
AcDbEntity
  8
0
 62
7
100
AcDbSpline
 70
8
 71
3
 72
8
 73
4
 74
0
 40
0
 40
0
 40
0
 40
0
 40
1
 40
1
 40
1
 40
1
 10
3.790642
 20
54.272986
 30
0.0
 10
3.776683
 20
54.488646
 30
0.0
 10
3.544273
 20
54.613575
 30
0.0
 10
3.371885
 20
54.691743
 30
0.0
  0
SPLINE
  5
1c3
100
AcDbEntity
  8
0
 62
7
100
AcDbSpline
 70
8
 71
3
 72
8
 73
4
 74
0
 40
0
 40
0
 40
0
 40
0
 40
1
 40
1
 40
1
 40
1
 10
3.371885
 20
54.691743
 30
0.0
 10
3.568701
 20
55.157261
 30
0.0
 10
3.832517
 20
55.546705
 30
0.0
 10
4.353870
 20
55.663956
 30
0.0
  0
SPLINE
  5
1c4
100
AcDbEntity
  8
0
 62
7
100
AcDbSpline
 70
8
 71
3
 72
8
 73
4
 74
0
 40
0
 40
0
 40
0
 40
0
 40
1
 40
1
 40
1
 40
1
 10
4.353870
 20
55.663956
 30
0.0
 10
4.875920
 20
55.780510
 30
0.0
 10
4.985495
 20
56.451219
 30
0.0
 10
5.395876
 20
56.645941
 30
0.0
  0
SPLINE
  5
1c5
100
AcDbEntity
  8
0
 62
7
100
AcDbSpline
 70
8
 71
3
 72
8
 73
4
 74
0
 40
0
 40
0
 40
0
 40
0
 40
1
 40
1
 40
1
 40
1
 10
5.395876
 20
56.645941
 30
0.0
 10
5.375636
 20
56.708755
 30
0.0
 10
5.411929
 20
56.791110
 30
0.0
 10
5.395876
 20
56.855320
 30
0.0
  0
LWPOLYLINE
  5
1c6
100
AcDbEntity
  8
0
 62
7
100
AcDbPolyline
 90
2
 70
0
 10
42.316269
 20
58.320968
 30
0.0
 10
42.316269
 20
56.925112
 30
0.0
  0
SPLINE
  5
1c7
100
AcDbEntity
  8
0
 62
7
100
AcDbSpline
 70
8
 71
3
 72
8
 73
4
 74
0
 40
0
 40
0
 40
0
 40
0
 40
1
 40
1
 40
1
 40
1
 10
1.138515
 20
59.716825
 30
0.0
 10
1.030336
 20
60.571786
 30
0.0
 10
1.282986
 20
60.980772
 30
0.0
 10
1.138515
 20
61.880401
 30
0.0
  0
SPLINE
  5
1c8
100
AcDbEntity
  8
0
 62
7
100
AcDbSpline
 70
8
 71
3
 72
8
 73
4
 74
0
 40
0
 40
0
 40
0
 40
0
 40
1
 40
1
 40
1
 40
1
 10
1.138515
 20
61.880401
 30
0.0
 10
0.994044
 20
62.780031
 30
0.0
 10
1.948112
 20
62.596476
 30
0.0
 10
2.673957
 20
62.578329
 30
0.0
  0
SPLINE
  5
1c9
100
AcDbEntity
  8
0
 62
7
100
AcDbSpline
 70
8
 71
3
 72
8
 73
4
 74
0
 40
0
 40
0
 40
0
 40
0
 40
1
 40
1
 40
1
 40
1
 10
2.673957
 20
62.578329
 30
0.0
 10
3.399802
 20
62.560183
 30
0.0
 10
4.172408
 20
62.588100
 30
0.0
 10
4.907327
 20
62.578329
 30
0.0
  0
SPLINE
  5
1ca
100
AcDbEntity
  8
0
 62
7
100
AcDbSpline
 70
8
 71
3
 72
8
 73
4
 74
0
 40
0
 40
0
 40
0
 40
0
 40
1
 40
1
 40
1
 40
1
 10
4.907327
 20
62.578329
 30
0.0
 10
5.642245
 20
62.568558
 30
0.0
 10
6.403684
 20
62.585309
 30
0.0
 10
7.140696
 20
62.578329
 30
0.0
  0
SPLINE
  5
1cb
100
AcDbEntity
  8
0
 62
7
100
AcDbSpline
 70
8
 71
3
 72
8
 73
4
 74
0
 40
0
 40
0
 40
0
 40
0
 40
1
 40
1
 40
1
 40
1
 10
7.140696
 20
62.578329
 30
0.0
 10
6.689835
 20
62.800968
 30
0.0
 10
7.072299
 20
63.519136
 30
0.0
 10
7.367523
 20
63.747359
 30
0.0
  0
SPLINE
  5
1cc
100
AcDbEntity
  8
0
 62
7
100
AcDbSpline
 70
8
 71
3
 72
8
 73
4
 74
0
 40
0
 40
0
 40
0
 40
0
 40
1
 40
1
 40
1
 40
1
 10
7.367523
 20
63.747359
 30
0.0
 10
7.662049
 20
63.975581
 30
0.0
 10
7.978908
 20
64.476694
 30
0.0
 10
8.257381
 20
64.741906
 30
0.0
  0
SPLINE
  5
1cd
100
AcDbEntity
  8
0
 62
7
100
AcDbSpline
 70
8
 71
3
 72
8
 73
4
 74
0
 40
0
 40
0
 40
0
 40
0
 40
1
 40
1
 40
1
 40
1
 10
8.257381
 20
64.741906
 30
0.0
 10
7.250271
 20
65.074120
 30
0.0
 10
8.182703
 20
66.048428
 30
0.0
 10
8.257381
 20
66.696105
 30
0.0
  0
SPLINE
  5
1ce
100
AcDbEntity
  8
0
 62
7
100
AcDbSpline
 70
8
 71
3
 72
8
 73
4
 74
0
 40
0
 40
0
 40
0
 40
0
 40
1
 40
1
 40
1
 40
1
 10
8.257381
 20
66.696105
 30
0.0
 10
7.557359
 20
66.849649
 30
0.0
 10
6.247348
 20
66.886639
 30
0.0
 10
5.890009
 20
67.678787
 30
0.0
  0
SPLINE
  5
1cf
100
AcDbEntity
  8
0
 62
7
100
AcDbSpline
 70
8
 71
3
 72
8
 73
4
 74
0
 40
0
 40
0
 40
0
 40
0
 40
1
 40
1
 40
1
 40
1
 10
5.890009
 20
67.678787
 30
0.0
 10
5.532670
 20
68.470936
 30
0.0
 10
6.848962
 20
69.054404
 30
0.0
 10
7.001111
 20
69.766988
 30
0.0
  0
SPLINE
  5
1d0
100
AcDbEntity
  8
0
 62
7
100
AcDbSpline
 70
8
 71
3
 72
8
 73
4
 74
0
 40
0
 40
0
 40
0
 40
0
 40
1
 40
1
 40
1
 40
1
 10
7.001111
 20
69.766988
 30
0.0
 10
6.544666
 20
69.925418
 30
0.0
 10
6.054720
 20
70.005680
 30
0.0
 10
5.820216
 20
70.540292
 30
0.0
  0
SPLINE
  5
1d1
100
AcDbEntity
  8
0
 62
7
100
AcDbSpline
 70
8
 71
3
 72
8
 73
4
 74
0
 40
0
 40
0
 40
0
 40
0
 40
1
 40
1
 40
1
 40
1
 10
5.820216
 20
70.540292
 30
0.0
 10
5.585713
 20
71.075603
 30
0.0
 10
6.488134
 20
71.253575
 30
0.0
 10
6.861525
 20
71.372223
 30
0.0
  0
SPLINE
  5
1d2
100
AcDbEntity
  8
0
 62
7
100
AcDbSpline
 70
8
 71
3
 72
8
 73
4
 74
0
 40
0
 40
0
 40
0
 40
0
 40
1
 40
1
 40
1
 40
1
 10
6.861525
 20
71.372223
 30
0.0
 10
6.352038
 20
72.102953
 30
0.0
 10
5.776247
 20
72.667577
 30
0.0
 10
5.261874
 20
73.401797
 30
0.0
  0
SPLINE
  5
1d3
100
AcDbEntity
  8
0
 62
7
100
AcDbSpline
 70
8
 71
3
 72
8
 73
4
 74
0
 40
0
 40
0
 40
0
 40
0
 40
1
 40
1
 40
1
 40
1
 10
5.261874
 20
73.401797
 30
0.0
 10
4.747501
 20
74.136716
 30
0.0
 10
4.298035
 20
74.796955
 30
0.0
 10
3.839497
 20
75.608646
 30
0.0
  0
SPLINE
  5
1d4
100
AcDbEntity
  8
0
 62
7
100
AcDbSpline
 70
8
 71
3
 72
8
 73
4
 74
0
 40
0
 40
0
 40
0
 40
0
 40
1
 40
1
 40
1
 40
1
 10
3.839497
 20
75.608646
 30
0.0
 10
3.380958
 20
76.420336
 30
0.0
 10
3.076661
 20
77.244589
 30
0.0
 10
2.759104
 20
78.157479
 30
0.0
  0
SPLINE
  5
1d5
100
AcDbEntity
  8
0
 62
7
100
AcDbSpline
 70
8
 71
3
 72
8
 73
4
 74
0
 40
0
 40
0
 40
0
 40
0
 40
1
 40
1
 40
1
 40
1
 10
2.759104
 20
78.157479
 30
0.0
 10
2.441547
 20
79.071067
 30
0.0
 10
2.086302
 20
79.916955
 30
0.0
 10
1.911122
 20
80.938722
 30
0.0
  0
SPLINE
  5
1d6
100
AcDbEntity
  8
0
 62
7
100
AcDbSpline
 70
8
 71
3
 72
8
 73
4
 74
0
 40
0
 40
0
 40
0
 40
0
 40
1
 40
1
 40
1
 40
1
 10
1.911122
 20
80.938722
 30
0.0
 10
1.736640
 20
81.960489
 30
0.0
 10
1.594960
 20
83.181165
 30
0.0
 10
1.557272
 20
84.283891
 30
0.0
  0
SPLINE
  5
1d7
100
AcDbEntity
  8
0
 62
7
100
AcDbSpline
 70
8
 71
3
 72
8
 73
4
 74
0
 40
0
 40
0
 40
0
 40
0
 40
1
 40
1
 40
1
 40
1
 10
1.557272
 20
84.283891
 30
0.0
 10
1.519584
 20
85.386617
 30
0.0
 10
1.595658
 20
86.663826
 30
0.0
 10
1.751296
 20
87.719093
 30
0.0
  0
SPLINE
  5
1d8
100
AcDbEntity
  8
0
 62
7
100
AcDbSpline
 70
8
 71
3
 72
8
 73
4
 74
0
 40
0
 40
0
 40
0
 40
0
 40
1
 40
1
 40
1
 40
1
 10
1.751296
 20
87.719093
 30
0.0
 10
1.906934
 20
88.774360
 30
0.0
 10
1.941132
 20
90.022255
 30
0.0
 10
2.045822
 20
91.053793
 30
0.0
  0
SPLINE
  5
1d9
100
AcDbEntity
  8
0
 62
7
100
AcDbSpline
 70
8
 71
3
 72
8
 73
4
 74
0
 40
0
 40
0
 40
0
 40
0
 40
1
 40
1
 40
1
 40
1
 10
2.045822
 20
91.053793
 30
0.0
 10
2.150511
 20
92.085331
 30
0.0
 10
2.451318
 20
93.113379
 30
0.0
 10
2.673259
 20
94.055582
 30
0.0
  0
SPLINE
  5
1da
100
AcDbEntity
  8
0
 62
7
100
AcDbSpline
 70
8
 71
3
 72
8
 73
4
 74
0
 40
0
 40
0
 40
0
 40
0
 40
1
 40
1
 40
1
 40
1
 10
2.673259
 20
94.055582
 30
0.0
 10
2.895200
 20
94.997784
 30
0.0
 10
3.360718
 20
95.893924
 30
0.0
 10
3.715266
 20
96.712594
 30
0.0
  0
SPLINE
  5
1db
100
AcDbEntity
  8
0
 62
7
100
AcDbSpline
 70
8
 71
3
 72
8
 73
4
 74
0
 40
0
 40
0
 40
0
 40
0
 40
1
 40
1
 40
1
 40
1
 10
3.715266
 20
96.712594
 30
0.0
 10
4.070511
 20
97.530565
 30
0.0
 10
4.866847
 20
98.658417
 30
0.0
 10
5.277926
 20
97.705745
 30
0.0
  0
SPLINE
  5
1dc
100
AcDbEntity
  8
0
 62
7
100
AcDbSpline
 70
8
 71
3
 72
8
 73
4
 74
0
 40
0
 40
0
 40
0
 40
0
 40
1
 40
1
 40
1
 40
1
 10
5.277926
 20
97.705745
 30
0.0
 10
5.688308
 20
96.752375
 30
0.0
 10
6.211056
 20
96.304306
 30
0.0
 10
6.646563
 20
95.445156
 30
0.0
  0
SPLINE
  5
1dd
100
AcDbEntity
  8
0
 62
7
100
AcDbSpline
 70
8
 71
3
 72
8
 73
4
 74
0
 40
0
 40
0
 40
0
 40
0
 40
1
 40
1
 40
1
 40
1
 10
6.646563
 20
95.445156
 30
0.0
 10
7.082070
 20
94.586007
 30
0.0
 10
7.531536
 20
93.942517
 30
0.0
 10
7.930053
 20
93.098722
 30
0.0
  0
SPLINE
  5
1de
100
AcDbEntity
  8
0
 62
7
100
AcDbSpline
 70
8
 71
3
 72
8
 73
4
 74
0
 40
0
 40
0
 40
0
 40
0
 40
1
 40
1
 40
1
 40
1
 10
7.930053
 20
93.098722
 30
0.0
 10
8.327872
 20
92.255625
 30
0.0
 10
8.783619
 20
91.482321
 30
0.0
 10
9.047436
 20
90.587577
 30
0.0
  0
SPLINE
  5
1df
100
AcDbEntity
  8
0
 62
7
100
AcDbSpline
 70
8
 71
3
 72
8
 73
4
 74
0
 40
0
 40
0
 40
0
 40
0
 40
1
 40
1
 40
1
 40
1
 10
9.047436
 20
90.587577
 30
0.0
 10
9.311252
 20
89.692833
 30
0.0
 10
10.081765
 20
89.163106
 30
0.0
 10
10.614284
 20
88.455407
 30
0.0
  0
SPLINE
  5
1e0
100
AcDbEntity
  8
0
 62
7
100
AcDbSpline
 70
8
 71
3
 72
8
 73
4
 74
0
 40
0
 40
0
 40
0
 40
0
 40
1
 40
1
 40
1
 40
1
 10
10.614284
 20
88.455407
 30
0.0
 10
11.146803
 20
87.747708
 30
0.0
 10
11.689791
 20
87.095145
 30
0.0
 10
12.079933
 20
86.291830
 30
0.0
  0
SPLINE
  5
1e1
100
AcDbEntity
  8
0
 62
7
100
AcDbSpline
 70
8
 71
3
 72
8
 73
4
 74
0
 40
0
 40
0
 40
0
 40
0
 40
1
 40
1
 40
1
 40
1
 10
12.079933
 20
86.291830
 30
0.0
 10
12.470773
 20
85.488515
 30
0.0
 10
12.884644
 20
84.681012
 30
0.0
 10
13.197316
 20
83.779987
 30
0.0
  0
SPLINE
  5
1e2
100
AcDbEntity
  8
0
 62
7
100
AcDbSpline
 70
8
 71
3
 72
8
 73
4
 74
0
 40
0
 40
0
 40
0
 40
0
 40
1
 40
1
 40
1
 40
1
 10
13.197316
 20
83.779987
 30
0.0
 10
13.509290
 20
82.878962
 30
0.0
 10
13.801023
 20
81.956999
 30
0.0
 10
14.045298
 20
80.998744
 30
0.0
  0
SPLINE
  5
1e3
100
AcDbEntity
  8
0
 62
7
100
AcDbSpline
 70
8
 71
3
 72
8
 73
4
 74
0
 40
0
 40
0
 40
0
 40
0
 40
1
 40
1
 40
1
 40
1
 10
14.045298
 20
80.998744
 30
0.0
 10
14.288875
 20
80.039791
 30
0.0
 10
14.436138
 20
78.858199
 30
0.0
 10
14.608526
 20
77.862953
 30
0.0
  0
SPLINE
  5
1e4
100
AcDbEntity
  8
0
 62
7
100
AcDbSpline
 70
8
 71
3
 72
8
 73
4
 74
0
 40
0
 40
0
 40
0
 40
0
 40
1
 40
1
 40
1
 40
1
 10
14.608526
 20
77.862953
 30
0.0
 10
15.855724
 20
78.068144
 30
0.0
 10
16.245865
 20
79.217632
 30
0.0
 10
17.486083
 20
79.591721
 30
0.0
  0
SPLINE
  5
1e5
100
AcDbEntity
  8
0
 62
7
100
AcDbSpline
 70
8
 71
3
 72
8
 73
4
 74
0
 40
0
 40
0
 40
0
 40
0
 40
1
 40
1
 40
1
 40
1
 10
17.486083
 20
79.591721
 30
0.0
 10
18.726302
 20
79.965810
 30
0.0
 10
20.270816
 20
80.207294
 30
0.0
 10
21.657599
 20
80.096323
 30
0.0
  0
SPLINE
  5
1e6
100
AcDbEntity
  8
0
 62
7
100
AcDbSpline
 70
8
 71
3
 72
8
 73
4
 74
0
 40
0
 40
0
 40
0
 40
0
 40
1
 40
1
 40
1
 40
1
 10
21.657599
 20
80.096323
 30
0.0
 10
21.202550
 20
80.334316
 30
0.0
 10
20.994568
 20
81.610827
 30
0.0
 10
21.706454
 20
81.467054
 30
0.0
  0
SPLINE
  5
1e7
100
AcDbEntity
  8
0
 62
7
100
AcDbSpline
 70
8
 71
3
 72
8
 73
4
 74
0
 40
0
 40
0
 40
0
 40
0
 40
1
 40
1
 40
1
 40
1
 10
21.706454
 20
81.467054
 30
0.0
 10
22.417643
 20
81.323978
 30
0.0
 10
22.932714
 20
81.076912
 30
0.0
 10
23.612496
 20
80.934535
 30
0.0
  0
SPLINE
  5
1e8
100
AcDbEntity
  8
0
 62
7
100
AcDbSpline
 70
8
 71
3
 72
8
 73
4
 74
0
 40
0
 40
0
 40
0
 40
0
 40
1
 40
1
 40
1
 40
1
 10
23.612496
 20
80.934535
 30
0.0
 10
24.292278
 20
80.791459
 30
0.0
 10
24.884819
 20
80.603019
 30
0.0
 10
25.542965
 20
80.422255
 30
0.0
  0
SPLINE
  5
1e9
100
AcDbEntity
  8
0
 62
7
100
AcDbSpline
 70
8
 71
3
 72
8
 73
4
 74
0
 40
0
 40
0
 40
0
 40
0
 40
1
 40
1
 40
1
 40
1
 10
25.542965
 20
80.422255
 30
0.0
 10
26.201111
 20
80.241492
 30
0.0
 10
26.838319
 20
80.043978
 30
0.0
 10
27.521591
 20
79.958133
 30
0.0
  0
SPLINE
  5
1ea
100
AcDbEntity
  8
0
 62
7
100
AcDbSpline
 70
8
 71
3
 72
8
 73
4
 74
0
 40
0
 40
0
 40
0
 40
0
 40
1
 40
1
 40
1
 40
1
 10
27.521591
 20
79.958133
 30
0.0
 10
28.204862
 20
79.872986
 30
0.0
 10
28.867894
 20
79.634295
 30
0.0
 10
29.544884
 20
79.538678
 30
0.0
  0
SPLINE
  5
1eb
100
AcDbEntity
  8
0
 62
7
100
AcDbSpline
 70
8
 71
3
 72
8
 73
4
 74
0
 40
0
 40
0
 40
0
 40
0
 40
1
 40
1
 40
1
 40
1
 10
29.544884
 20
79.538678
 30
0.0
 10
30.221874
 20
79.443062
 30
0.0
 10
30.534546
 20
79.715254
 30
0.0
 10
31.155004
 20
79.264393
 30
0.0
  0
SPLINE
  5
1ec
100
AcDbEntity
  8
0
 62
7
100
AcDbSpline
 70
8
 71
3
 72
8
 73
4
 74
0
 40
0
 40
0
 40
0
 40
0
 40
1
 40
1
 40
1
 40
1
 10
31.155004
 20
79.264393
 30
0.0
 10
31.776160
 20
78.814229
 30
0.0
 10
31.956225
 20
80.095625
 30
0.0
 10
32.217948
 20
80.493444
 30
0.0
  0
SPLINE
  5
1ed
100
AcDbEntity
  8
0
 62
7
100
AcDbSpline
 70
8
 71
3
 72
8
 73
4
 74
0
 40
0
 40
0
 40
0
 40
0
 40
1
 40
1
 40
1
 40
1
 10
32.217948
 20
80.493444
 30
0.0
 10
32.479671
 20
80.891961
 30
0.0
 10
32.820260
 20
81.596170
 30
0.0
 10
33.098036
 20
82.056105
 30
0.0
  0
SPLINE
  5
1ee
100
AcDbEntity
  8
0
 62
7
100
AcDbSpline
 70
8
 71
3
 72
8
 73
4
 74
0
 40
0
 40
0
 40
0
 40
0
 40
1
 40
1
 40
1
 40
1
 10
33.098036
 20
82.056105
 30
0.0
 10
33.375113
 20
82.516039
 30
0.0
 10
33.743619
 20
83.070194
 30
0.0
 10
34.064666
 20
83.532223
 30
0.0
  0
SPLINE
  5
1ef
100
AcDbEntity
  8
0
 62
7
100
AcDbSpline
 70
8
 71
3
 72
8
 73
4
 74
0
 40
0
 40
0
 40
0
 40
0
 40
1
 40
1
 40
1
 40
1
 10
34.064666
 20
83.532223
 30
0.0
 10
34.385713
 20
83.994251
 30
0.0
 10
34.716531
 20
84.498155
 30
0.0
 10
35.110162
 20
84.929475
 30
0.0
  0
SPLINE
  5
1f0
100
AcDbEntity
  8
0
 62
7
100
AcDbSpline
 70
8
 71
3
 72
8
 73
4
 74
0
 40
0
 40
0
 40
0
 40
0
 40
1
 40
1
 40
1
 40
1
 10
35.110162
 20
84.929475
 30
0.0
 10
35.504491
 20
85.360096
 30
0.0
 10
35.831820
 20
85.827010
 30
0.0
 10
36.191951
 20
86.290434
 30
0.0
  0
SPLINE
  5
1f1
100
AcDbEntity
  8
0
 62
7
100
AcDbSpline
 70
8
 71
3
 72
8
 73
4
 74
0
 40
0
 40
0
 40
0
 40
0
 40
1
 40
1
 40
1
 40
1
 10
36.191951
 20
86.290434
 30
0.0
 10
36.551383
 20
86.754556
 30
0.0
 10
36.806825
 20
87.276607
 30
0.0
 10
37.203946
 20
87.721187
 30
0.0
  0
SPLINE
  5
1f2
100
AcDbEntity
  8
0
 62
7
100
AcDbSpline
 70
8
 71
3
 72
8
 73
4
 74
0
 40
0
 40
0
 40
0
 40
0
 40
1
 40
1
 40
1
 40
1
 10
37.203946
 20
87.721187
 30
0.0
 10
37.601765
 20
88.165767
 30
0.0
 10
37.992605
 20
88.583128
 30
0.0
 10
38.252234
 20
89.115647
 30
0.0
  0
SPLINE
  5
1f3
100
AcDbEntity
  8
0
 62
7
100
AcDbSpline
 70
8
 71
3
 72
8
 73
4
 74
0
 40
0
 40
0
 40
0
 40
0
 40
1
 40
1
 40
1
 40
1
 10
38.252234
 20
89.115647
 30
0.0
 10
38.511863
 20
89.648166
 30
0.0
 10
38.793128
 20
90.218373
 30
0.0
 10
39.057643
 20
90.752986
 30
0.0
  0
SPLINE
  5
1f4
100
AcDbEntity
  8
0
 62
7
100
AcDbSpline
 70
8
 71
3
 72
8
 73
4
 74
0
 40
0
 40
0
 40
0
 40
0
 40
1
 40
1
 40
1
 40
1
 10
39.057643
 20
90.752986
 30
0.0
 10
39.321460
 20
91.288297
 30
0.0
 10
39.609704
 20
91.838962
 30
0.0
 10
39.890969
 20
92.362408
 30
0.0
  0
SPLINE
  5
1f5
100
AcDbEntity
  8
0
 62
7
100
AcDbSpline
 70
8
 71
3
 72
8
 73
4
 74
0
 40
0
 40
0
 40
0
 40
0
 40
1
 40
1
 40
1
 40
1
 10
39.890969
 20
92.362408
 30
0.0
 10
40.172932
 20
92.885156
 30
0.0
 10
40.359977
 20
93.542604
 30
0.0
 10
40.635658
 20
94.060467
 30
0.0
  0
SPLINE
  5
1f6
100
AcDbEntity
  8
0
 62
7
100
AcDbSpline
 70
8
 71
3
 72
8
 73
4
 74
0
 40
0
 40
0
 40
0
 40
0
 40
1
 40
1
 40
1
 40
1
 10
40.635658
 20
94.060467
 30
0.0
 10
40.911340
 20
94.577632
 30
0.0
 10
41.076051
 20
95.272070
 30
0.0
 10
41.403379
 20
95.735494
 30
0.0
  0
SPLINE
  5
1f7
100
AcDbEntity
  8
0
 62
7
100
AcDbSpline
 70
8
 71
3
 72
8
 73
4
 74
0
 40
0
 40
0
 40
0
 40
0
 40
1
 40
1
 40
1
 40
1
 10
41.403379
 20
95.735494
 30
0.0
 10
41.731405
 20
96.198221
 30
0.0
 10
42.004295
 20
96.908013
 30
0.0
 10
42.241591
 20
97.340031
 30
0.0
  0
SPLINE
  5
1f8
100
AcDbEntity
  8
0
 62
7
100
AcDbSpline
 70
8
 71
3
 72
8
 73
4
 74
0
 40
0
 40
0
 40
0
 40
0
 40
1
 40
1
 40
1
 40
1
 10
42.241591
 20
97.340031
 30
0.0
 10
42.478188
 20
97.772746
 30
0.0
 10
42.667327
 20
98.772877
 30
0.0
 10
43.295462
 20
98.728908
 30
0.0
  0
SPLINE
  5
1f9
100
AcDbEntity
  8
0
 62
7
100
AcDbSpline
 70
8
 71
3
 72
8
 73
4
 74
0
 40
0
 40
0
 40
0
 40
0
 40
1
 40
1
 40
1
 40
1
 10
43.295462
 20
98.728908
 30
0.0
 10
43.922899
 20
98.685636
 30
0.0
 10
43.813325
 20
97.519398
 30
0.0
 10
43.990598
 20
96.985483
 30
0.0
  0
SPLINE
  5
1fa
100
AcDbEntity
  8
0
 62
7
100
AcDbSpline
 70
8
 71
3
 72
8
 73
4
 74
0
 40
0
 40
0
 40
0
 40
0
 40
1
 40
1
 40
1
 40
1
 10
43.990598
 20
96.985483
 30
0.0
 10
44.167872
 20
96.452266
 30
0.0
 10
44.279541
 20
95.591721
 30
0.0
 10
44.405168
 20
94.957305
 30
0.0
  0
SPLINE
  5
1fb
100
AcDbEntity
  8
0
 62
7
100
AcDbSpline
 70
8
 71
3
 72
8
 73
4
 74
0
 40
0
 40
0
 40
0
 40
0
 40
1
 40
1
 40
1
 40
1
 10
44.405168
 20
94.957305
 30
0.0
 10
44.530097
 20
94.322190
 30
0.0
 10
44.641765
 20
93.499333
 30
0.0
 10
44.688526
 20
92.797915
 30
0.0
  0
SPLINE
  5
1fc
100
AcDbEntity
  8
0
 62
7
100
AcDbSpline
 70
8
 71
3
 72
8
 73
4
 74
0
 40
0
 40
0
 40
0
 40
0
 40
1
 40
1
 40
1
 40
1
 10
44.688526
 20
92.797915
 30
0.0
 10
44.735288
 20
92.096498
 30
0.0
 10
44.784143
 20
91.265265
 30
0.0
 10
44.893717
 20
90.560358
 30
0.0
  0
SPLINE
  5
1fd
100
AcDbEntity
  8
0
 62
7
100
AcDbSpline
 70
8
 71
3
 72
8
 73
4
 74
0
 40
0
 40
0
 40
0
 40
0
 40
1
 40
1
 40
1
 40
1
 10
44.893717
 20
90.560358
 30
0.0
 10
45.002594
 20
89.855451
 30
0.0
 10
45.026324
 20
88.984436
 30
0.0
 10
45.038188
 20
88.262081
 30
0.0
  0
SPLINE
  5
1fe
100
AcDbEntity
  8
0
 62
7
100
AcDbSpline
 70
8
 71
3
 72
8
 73
4
 74
0
 40
0
 40
0
 40
0
 40
0
 40
1
 40
1
 40
1
 40
1
 10
45.038188
 20
88.262081
 30
0.0
 10
45.050053
 20
87.539725
 30
0.0
 10
44.960020
 20
86.674993
 30
0.0
 10
44.898603
 20
85.958918
 30
0.0
  0
SPLINE
  5
1ff
100
AcDbEntity
  8
0
 62
7
100
AcDbSpline
 70
8
 71
3
 72
8
 73
4
 74
0
 40
0
 40
0
 40
0
 40
0
 40
1
 40
1
 40
1
 40
1
 10
44.898603
 20
85.958918
 30
0.0
 10
44.837185
 20
85.242844
 30
0.0
 10
44.633390
 20
84.514905
 30
0.0
 10
44.620129
 20
83.794644
 30
0.0
  0
SPLINE
  5
200
100
AcDbEntity
  8
0
 62
7
100
AcDbSpline
 70
8
 71
3
 72
8
 73
4
 74
0
 40
0
 40
0
 40
0
 40
0
 40
1
 40
1
 40
1
 40
1
 10
44.620129
 20
83.794644
 30
0.0
 10
44.606171
 20
83.074382
 30
0.0
 10
44.390511
 20
82.376454
 30
0.0
 10
44.271863
 20
81.700162
 30
0.0
  0
SPLINE
  5
201
100
AcDbEntity
  8
0
 62
7
100
AcDbSpline
 70
8
 71
3
 72
8
 73
4
 74
0
 40
0
 40
0
 40
0
 40
0
 40
1
 40
1
 40
1
 40
1
 10
44.271863
 20
81.700162
 30
0.0
 10
44.153913
 20
81.023171
 30
0.0
 10
43.961285
 20
80.423651
 30
0.0
 10
43.727479
 20
79.801797
 30
0.0
  0
SPLINE
  5
202
100
AcDbEntity
  8
0
 62
7
100
AcDbSpline
 70
8
 71
3
 72
8
 73
4
 74
0
 40
0
 40
0
 40
0
 40
0
 40
1
 40
1
 40
1
 40
1
 10
43.727479
 20
79.801797
 30
0.0
 10
43.494372
 20
79.179246
 30
0.0
 10
43.571842
 20
78.381514
 30
0.0
 10
43.294764
 20
77.791765
 30
0.0
  0
SPLINE
  5
203
100
AcDbEntity
  8
0
 62
7
100
AcDbSpline
 70
8
 71
3
 72
8
 73
4
 74
0
 40
0
 40
0
 40
0
 40
0
 40
1
 40
1
 40
1
 40
1
 10
43.294764
 20
77.791765
 30
0.0
 10
43.018385
 20
77.201318
 30
0.0
 10
42.855069
 20
76.629714
 30
0.0
 10
42.573804
 20
76.069976
 30
0.0
  0
SPLINE
  5
204
100
AcDbEntity
  8
0
 62
7
100
AcDbSpline
 70
8
 71
3
 72
8
 73
4
 74
0
 40
0
 40
0
 40
0
 40
0
 40
1
 40
1
 40
1
 40
1
 10
42.573804
 20
76.069976
 30
0.0
 10
42.293237
 20
75.509540
 30
0.0
 10
42.078276
 20
74.959573
 30
0.0
 10
41.763510
 20
74.437523
 30
0.0
  0
SPLINE
  5
205
100
AcDbEntity
  8
0
 62
7
100
AcDbSpline
 70
8
 71
3
 72
8
 73
4
 74
0
 40
0
 40
0
 40
0
 40
0
 40
1
 40
1
 40
1
 40
1
 10
41.763510
 20
74.437523
 30
0.0
 10
41.448047
 20
73.916170
 30
0.0
 10
41.175855
 20
73.413662
 30
0.0
 10
40.833172
 20
72.925112
 30
0.0
  0
SPLINE
  5
206
100
AcDbEntity
  8
0
 62
7
100
AcDbSpline
 70
8
 71
3
 72
8
 73
4
 74
0
 40
0
 40
0
 40
0
 40
0
 40
1
 40
1
 40
1
 40
1
 10
40.833172
 20
72.925112
 30
0.0
 10
40.489791
 20
72.437261
 30
0.0
 10
40.344622
 20
71.814709
 30
0.0
 10
39.803728
 20
71.511808
 30
0.0
  0
SPLINE
  5
207
100
AcDbEntity
  8
0
 62
7
100
AcDbSpline
 70
8
 71
3
 72
8
 73
4
 74
0
 40
0
 40
0
 40
0
 40
0
 40
1
 40
1
 40
1
 40
1
 10
39.803728
 20
71.511808
 30
0.0
 10
39.353565
 20
70.231110
 30
0.0
 10
39.542005
 20
68.969954
 30
0.0
 10
39.664142
 20
67.603411
 30
0.0
  0
SPLINE
  5
208
100
AcDbEntity
  8
0
 62
7
100
AcDbSpline
 70
8
 71
3
 72
8
 73
4
 74
0
 40
0
 40
0
 40
0
 40
0
 40
1
 40
1
 40
1
 40
1
 10
39.664142
 20
67.603411
 30
0.0
 10
39.785582
 20
66.236868
 30
0.0
 10
39.800238
 20
64.762844
 30
0.0
 10
40.013106
 20
63.415843
 30
0.0
  0
SPLINE
  5
209
100
AcDbEntity
  8
0
 62
7
100
AcDbSpline
 70
8
 71
3
 72
8
 73
4
 74
0
 40
0
 40
0
 40
0
 40
0
 40
1
 40
1
 40
1
 40
1
 10
40.013106
 20
63.415843
 30
0.0
 10
40.246214
 20
63.393509
 30
0.0
 10
40.505844
 20
63.474469
 30
0.0
 10
40.711035
 20
63.346050
 30
0.0
  0
SPLINE
  5
20a
100
AcDbEntity
  8
0
 62
7
100
AcDbSpline
 70
8
 71
3
 72
8
 73
4
 74
0
 40
0
 40
0
 40
0
 40
0
 40
1
 40
1
 40
1
 40
1
 10
40.711035
 20
63.346050
 30
0.0
 10
40.564470
 20
63.200881
 30
0.0
 10
40.281809
 20
63.311154
 30
0.0
 10
40.082899
 20
63.276257
 30
0.0
  0
SPLINE
  5
20b
100
AcDbEntity
  8
0
 62
7
100
AcDbSpline
 70
8
 71
3
 72
8
 73
4
 74
0
 40
0
 40
0
 40
0
 40
0
 40
1
 40
1
 40
1
 40
1
 10
40.082899
 20
63.276257
 30
0.0
 10
40.119889
 20
63.011743
 30
0.0
 10
40.469551
 20
62.873553
 30
0.0
 10
40.431863
 20
62.578329
 30
0.0
  0
LWPOLYLINE
  5
20c
100
AcDbEntity
  8
0
 62
7
100
AcDbPolyline
 90
6
 70
0
 10
5.395876
 20
56.855320
 30
0.0
 10
4.000020
 20
56.855320
 30
0.0
 10
4.000020
 20
58.320968
 30
0.0
 10
2.534371
 20
58.320968
 30
0.0
 10
2.534371
 20
59.716825
 30
0.0
 10
1.138515
 20
59.716825
 30
0.0
  0
LWPOLYLINE
  5
20d
100
AcDbEntity
  8
0
 62
7
100
AcDbPolyline
 90
1
 70
1
 10
40.431863
 20
62.578329
 30
0.0
  0
ENDSEC
  0
SECTION
  2
OBJECTS
  0
DICTIONARY
  5
C
330
0
100
AcDbDictionary
  3
ACAD_GROUP
350
D
  3
ACAD_MLINESTYLE
350
17
  0
DICTIONARY
  5
D
330
C
100
AcDbDictionary
  0
DICTIONARY
  5
1A
330
C
100
AcDbDictionary
  0
DICTIONARY
  5
17
330
C
100
AcDbDictionary
  3
STANDARD
350
18
  0
DICTIONARY
  5
19
330
C
100
AcDbDictionary
  0
ENDSEC
  0
EOF
