  0
SECTION
  2
HEADER
  9
$ACADVER
  1
AC1014
  9
$HANDSEED
  5
FFFF
  9
$INSUNITS
 70
     0
  9
$MEASUREMENT
 70
     1
  0
ENDSEC
  0
SECTION
  2
TABLES
  0
TABLE
  2
VPORT
  5
8
330
0
100
AcDbSymbolTable
 70
     4
  0
VPORT
  5
2E
330
8
100
AcDbSymbolTableRecord
100
AcDbViewportTableRecord
  2
*ACTIVE
 70
     0
 10
0.0
 20
0.0
 11
1.0
 21
1.0
 12
210.0
 22
148.5
 13
0.0
 23
0.0
 14
10.0
 24
10.0
 15
10.0
 25
10.0
 16
0.0
 26
0.0
 36
1.0
 17
0.0
 27
0.0
 37
0.0
 40
341.0
 41
1.24
 42
50.0
 43
0.0
 44
0.0
 50
0.0
 51
0.0
 71
     0
 72
   100
 73
     1
 74
     3
 75
     0
 76
     0
 77
     0
 78
     0
  0
ENDTAB
  0
TABLE
  2
LTYPE
  5
5
330
0
100
AcDbSymbolTable
 70
     1
  0
LTYPE
  5
14
330
5
100
AcDbSymbolTableRecord
100
AcDbLinetypeTableRecord
  2
BYBLOCK
 70
     0
  3

 72
    65
 73
     0
 40
0.0
  0
LTYPE
  5
15
330
5
100
AcDbSymbolTableRecord
100
AcDbLinetypeTableRecord
  2
BYLAYER
 70
     0
  3

 72
    65
 73
     0
 40
0.0
  0
LTYPE
  5
16
330
5
100
AcDbSymbolTableRecord
100
AcDbLinetypeTableRecord
  2
CONTINUOUS
 70
     0
  3
Solid line
 72
    65
 73
     0
 40
0.0
  0
ENDTAB
  0
TABLE
  2
LAYER
  5
2
100
AcDbSymbolTable
 70
1
  0
LAYER
  5
50
100
AcDbSymbolTableRecord
100
AcDbLayerTableRecord
  2
0
 70
0
  6
CONTINUOUS
  0
ENDTAB
  0
TABLE
  2
STYLE
  5
3
330
0
100
AcDbSymbolTable
 70
     1
  0
STYLE
  5
11
330
3
100
AcDbSymbolTableRecord
100
AcDbTextStyleTableRecord
  2
STANDARD
 70
     0
 40
0.0
 41
1.0
 50
0.0
 71
     0
 42
2.5
  3
txt
  4

  0
ENDTAB
  0
TABLE
  2
VIEW
  5
6
330
0
100
AcDbSymbolTable
 70
     0
  0
ENDTAB
  0
TABLE
  2
UCS
  5
7
330
0
100
AcDbSymbolTable
 70
     0
  0
ENDTAB
  0
TABLE
  2
APPID
  5
9
330
0
100
AcDbSymbolTable
 70
     2
  0
APPID
  5
12
330
9
100
AcDbSymbolTableRecord
100
AcDbRegAppTableRecord
  2
ACAD
 70
     0
  0
ENDTAB
  0
TABLE
  2
DIMSTYLE
  5
A
330
0
100
AcDbSymbolTable
 70
     1
  0
DIMSTYLE
105
27
330
A
100
AcDbSymbolTableRecord
100
AcDbDimStyleTableRecord
  2
ISO-25
 70
     0
  3

  4

  5

  6

  7

 40
1.0
 41
2.5
 42
0.625
 43
3.75
 44
1.25
 45
0.0
 46
0.0
 47
0.0
 48
0.0
140
2.5
141
2.5
142
0.0
143
0.03937007874016
144
1.0
145
0.0
146
1.0
147
0.625
 71
     0
 72
     0
 73
     0
 74
     0
 75
     0
 76
     0
 77
     1
 78
     8
170
     0
171
     3
172
     1
173
     0
174
     0
175
     0
176
     0
177
     0
178
     0
270
     2
271
     2
272
     2
273
     2
274
     3
340
11
275
     0
280
     0
281
     0
282
     0
283
     0
284
     8
285
     0
286
     0
287
     3
288
     0
  0
ENDTAB
  0
TABLE
  2
BLOCK_RECORD
  5
1
330
0
100
AcDbSymbolTable
 70
     1
  0
BLOCK_RECORD
  5
1F
330
1
100
AcDbSymbolTableRecord
100
AcDbBlockTableRecord
  2
*MODEL_SPACE
  0
BLOCK_RECORD
  5
1B
330
1
100
AcDbSymbolTableRecord
100
AcDbBlockTableRecord
  2
*PAPER_SPACE
  0
ENDTAB
  0
ENDSEC
  0
SECTION
  2
BLOCKS
  0
BLOCK
  5
20
330
1F
100
AcDbEntity
  8
0
100
AcDbBlockBegin
  2
*MODEL_SPACE
 70
     0
 10
0.0
 20
0.0
 30
0.0
  3
*MODEL_SPACE
  1

  0
ENDBLK
  5
21
330
1F
100
AcDbEntity
  8
0
100
AcDbBlockEnd
  0
BLOCK
  5
1C
330
1B
100
AcDbEntity
 67
     1
  8
0
100
AcDbBlockBegin
  2
*PAPER_SPACE
  1

  0
ENDBLK
  5
1D
330
1B
100
AcDbEntity
 67
     1
  8
0
100
AcDbBlockEnd
  0
ENDSEC
  0
SECTION
  2
ENTITIES
  0
SPLINE
  5
100
100
AcDbEntity
  8
0
 62
7
100
AcDbSpline
 70
8
 71
3
 72
8
 73
4
 74
0
 40
0
 40
0
 40
0
 40
0
 40
1
 40
1
 40
1
 40
1
 10
38.657341
 20
61.401933
 30
0.0
 10
38.392106
 20
62.122047
 30
0.0
 10
38.513451
 20
62.966160
 30
0.0
 10
38.392106
 20
63.722744
 30
0.0
  0
SPLINE
  5
101
100
AcDbEntity
  8
0
 62
7
100
AcDbSpline
 70
8
 71
3
 72
8
 73
4
 74
0
 40
0
 40
0
 40
0
 40
0
 40
1
 40
1
 40
1
 40
1
 10
38.392106
 20
63.722744
 30
0.0
 10
38.270761
 20
64.479329
 30
0.0
 10
38.374865
 20
65.363226
 30
0.0
 10
38.258825
 20
66.109202
 30
0.0
  0
SPLINE
  5
102
100
AcDbEntity
  8
0
 62
7
100
AcDbSpline
 70
8
 71
3
 72
8
 73
4
 74
0
 40
0
 40
0
 40
0
 40
0
 40
1
 40
1
 40
1
 40
1
 10
38.258825
 20
66.109202
 30
0.0
 10
38.143447
 20
66.855840
 30
0.0
 10
38.308557
 20
67.554736
 30
0.0
 10
38.740228
 20
68.082554
 30
0.0
  0
SPLINE
  5
103
100
AcDbEntity
  8
0
 62
7
100
AcDbSpline
 70
8
 71
3
 72
8
 73
4
 74
0
 40
0
 40
0
 40
0
 40
0
 40
1
 40
1
 40
1
 40
1
 10
38.740228
 20
68.082554
 30
0.0
 10
39.171235
 20
68.611036
 30
0.0
 10
39.289265
 20
69.123604
 30
0.0
 10
39.698391
 20
69.644129
 30
0.0
  0
SPLINE
  5
104
100
AcDbEntity
  8
0
 62
7
100
AcDbSpline
 70
8
 71
3
 72
8
 73
4
 74
0
 40
0
 40
0
 40
0
 40
0
 40
1
 40
1
 40
1
 40
1
 10
39.698391
 20
69.644129
 30
0.0
 10
40.107517
 20
70.165317
 30
0.0
 10
40.299813
 20
70.736237
 30
0.0
 10
40.629368
 20
71.299199
 30
0.0
  0
SPLINE
  5
105
100
AcDbEntity
  8
0
 62
7
100
AcDbSpline
 70
8
 71
3
 72
8
 73
4
 74
0
 40
0
 40
0
 40
0
 40
0
 40
1
 40
1
 40
1
 40
1
 10
40.629368
 20
71.299199
 30
0.0
 10
40.959586
 20
71.862162
 30
0.0
 10
41.151219
 20
72.415841
 30
0.0
 10
41.421759
 20
73.026546
 30
0.0
  0
SPLINE
  5
106
100
AcDbEntity
  8
0
 62
7
100
AcDbSpline
 70
8
 71
3
 72
8
 73
4
 74
0
 40
0
 40
0
 40
0
 40
0
 40
1
 40
1
 40
1
 40
1
 10
41.421759
 20
73.026546
 30
0.0
 10
41.692963
 20
73.636588
 30
0.0
 10
41.914435
 20
74.292383
 30
0.0
 10
41.974113
 20
74.993931
 30
0.0
  0
SPLINE
  5
107
100
AcDbEntity
  8
0
 62
7
100
AcDbSpline
 70
8
 71
3
 72
8
 73
4
 74
0
 40
0
 40
0
 40
0
 40
0
 40
1
 40
1
 40
1
 40
1
 10
41.974113
 20
74.993931
 30
0.0
 10
42.034454
 20
75.694816
 30
0.0
 10
42.458168
 20
76.275682
 30
0.0
 10
42.570893
 20
76.983198
 30
0.0
  0
SPLINE
  5
108
100
AcDbEntity
  8
0
 62
7
100
AcDbSpline
 70
8
 71
3
 72
8
 73
4
 74
0
 40
0
 40
0
 40
0
 40
0
 40
1
 40
1
 40
1
 40
1
 10
42.570893
 20
76.983198
 30
0.0
 10
42.684281
 20
77.690051
 30
0.0
 10
42.874587
 20
78.366402
 30
0.0
 10
42.967420
 20
79.106409
 30
0.0
  0
SPLINE
  5
109
100
AcDbEntity
  8
0
 62
7
100
AcDbSpline
 70
8
 71
3
 72
8
 73
4
 74
0
 40
0
 40
0
 40
0
 40
0
 40
1
 40
1
 40
1
 40
1
 10
42.967420
 20
79.106409
 30
0.0
 10
43.060252
 20
79.845753
 30
0.0
 10
43.124572
 20
80.669973
 30
0.0
 10
43.232656
 20
81.427221
 30
0.0
  0
SPLINE
  5
10a
100
AcDbEntity
  8
0
 62
7
100
AcDbSpline
 70
8
 71
3
 72
8
 73
4
 74
0
 40
0
 40
0
 40
0
 40
0
 40
1
 40
1
 40
1
 40
1
 10
43.232656
 20
81.427221
 30
0.0
 10
43.340739
 20
82.184468
 30
0.0
 10
43.373893
 20
83.016645
 30
0.0
 10
43.365273
 20
83.814341
 30
0.0
  0
SPLINE
  5
10b
100
AcDbEntity
  8
0
 62
7
100
AcDbSpline
 70
8
 71
3
 72
8
 73
4
 74
0
 40
0
 40
0
 40
0
 40
0
 40
1
 40
1
 40
1
 40
1
 10
43.365273
 20
83.814341
 30
0.0
 10
43.357316
 20
84.612037
 30
0.0
 10
43.409700
 20
85.567548
 30
0.0
 10
43.298964
 20
86.334079
 30
0.0
  0
SPLINE
  5
10c
100
AcDbEntity
  8
0
 62
7
100
AcDbSpline
 70
8
 71
3
 72
8
 73
4
 74
0
 40
0
 40
0
 40
0
 40
0
 40
1
 40
1
 40
1
 40
1
 10
43.298964
 20
86.334079
 30
0.0
 10
43.188229
 20
87.100610
 30
0.0
 10
43.144465
 20
87.895654
 30
0.0
 10
43.100038
 20
88.654891
 30
0.0
  0
SPLINE
  5
10d
100
AcDbEntity
  8
0
 62
7
100
AcDbSpline
 70
8
 71
3
 72
8
 73
4
 74
0
 40
0
 40
0
 40
0
 40
0
 40
1
 40
1
 40
1
 40
1
 10
43.100038
 20
88.654891
 30
0.0
 10
43.055611
 20
89.414128
 30
0.0
 10
42.955484
 20
90.201214
 30
0.0
 10
42.834802
 20
90.909393
 30
0.0
  0
SPLINE
  5
10e
100
AcDbEntity
  8
0
 62
7
100
AcDbSpline
 70
8
 71
3
 72
8
 73
4
 74
0
 40
0
 40
0
 40
0
 40
0
 40
1
 40
1
 40
1
 40
1
 10
42.834802
 20
90.909393
 30
0.0
 10
42.714120
 20
91.617572
 30
0.0
 10
42.647148
 20
92.457043
 30
0.0
 10
42.432307
 20
93.092945
 30
0.0
  0
SPLINE
  5
10f
100
AcDbEntity
  8
0
 62
7
100
AcDbSpline
 70
8
 71
3
 72
8
 73
4
 74
0
 40
0
 40
0
 40
0
 40
0
 40
1
 40
1
 40
1
 40
1
 10
42.432307
 20
93.092945
 30
0.0
 10
42.217466
 20
93.728185
 30
0.0
 10
42.408436
 20
94.717513
 30
0.0
 10
41.707551
 20
94.887927
 30
0.0
  0
SPLINE
  5
110
100
AcDbEntity
  8
0
 62
7
100
AcDbSpline
 70
8
 71
3
 72
8
 73
4
 74
0
 40
0
 40
0
 40
0
 40
0
 40
1
 40
1
 40
1
 40
1
 10
41.707551
 20
94.887927
 30
0.0
 10
41.006666
 20
95.058341
 30
0.0
 10
40.008717
 20
94.927713
 30
0.0
 10
39.770005
 20
94.239426
 30
0.0
  0
SPLINE
  5
111
100
AcDbEntity
  8
0
 62
7
100
AcDbSpline
 70
8
 71
3
 72
8
 73
4
 74
0
 40
0
 40
0
 40
0
 40
0
 40
1
 40
1
 40
1
 40
1
 10
39.770005
 20
94.239426
 30
0.0
 10
39.530630
 20
93.551803
 30
0.0
 10
39.310484
 20
93.106207
 30
0.0
 10
38.973635
 20
92.516058
 30
0.0
  0
SPLINE
  5
112
100
AcDbEntity
  8
0
 62
7
100
AcDbSpline
 70
8
 71
3
 72
8
 73
4
 74
0
 40
0
 40
0
 40
0
 40
0
 40
1
 40
1
 40
1
 40
1
 10
38.973635
 20
92.516058
 30
0.0
 10
38.636786
 20
91.925909
 30
0.0
 10
38.340385
 20
91.421298
 30
0.0
 10
38.081780
 20
90.821865
 30
0.0
  0
SPLINE
  5
113
100
AcDbEntity
  8
0
 62
7
100
AcDbSpline
 70
8
 71
3
 72
8
 73
4
 74
0
 40
0
 40
0
 40
0
 40
0
 40
1
 40
1
 40
1
 40
1
 10
38.081780
 20
90.821865
 30
0.0
 10
37.823175
 20
90.222433
 30
0.0
 10
37.612976
 20
89.632284
 30
0.0
 10
37.325859
 20
89.058049
 30
0.0
  0
SPLINE
  5
114
100
AcDbEntity
  8
0
 62
7
100
AcDbSpline
 70
8
 71
3
 72
8
 73
4
 74
0
 40
0
 40
0
 40
0
 40
0
 40
1
 40
1
 40
1
 40
1
 10
37.325859
 20
89.058049
 30
0.0
 10
37.038741
 20
88.483151
 30
0.0
 10
36.757591
 20
87.947375
 30
0.0
 10
36.489703
 20
87.374466
 30
0.0
  0
SPLINE
  5
115
100
AcDbEntity
  8
0
 62
7
100
AcDbSpline
 70
8
 71
3
 72
8
 73
4
 74
0
 40
0
 40
0
 40
0
 40
0
 40
1
 40
1
 40
1
 40
1
 10
36.489703
 20
87.374466
 30
0.0
 10
36.221152
 20
86.802220
 30
0.0
 10
35.877672
 20
86.226659
 30
0.0
 10
35.605806
 20
85.672979
 30
0.0
  0
SPLINE
  5
116
100
AcDbEntity
  8
0
 62
7
100
AcDbSpline
 70
8
 71
3
 72
8
 73
4
 74
0
 40
0
 40
0
 40
0
 40
0
 40
1
 40
1
 40
1
 40
1
 10
35.605806
 20
85.672979
 30
0.0
 10
35.333276
 20
85.118637
 30
0.0
 10
34.897627
 20
84.719457
 30
0.0
 10
34.529612
 20
84.228772
 30
0.0
  0
SPLINE
  5
117
100
AcDbEntity
  8
0
 62
7
100
AcDbSpline
 70
8
 71
3
 72
8
 73
4
 74
0
 40
0
 40
0
 40
0
 40
0
 40
1
 40
1
 40
1
 40
1
 10
34.529612
 20
84.228772
 30
0.0
 10
34.162261
 20
83.738086
 30
0.0
 10
33.810161
 20
83.253368
 30
0.0
 10
33.413634
 20
82.758703
 30
0.0
  0
SPLINE
  5
118
100
AcDbEntity
  8
0
 62
7
100
AcDbSpline
 70
8
 71
3
 72
8
 73
4
 74
0
 40
0
 40
0
 40
0
 40
0
 40
1
 40
1
 40
1
 40
1
 10
33.413634
 20
82.758703
 30
0.0
 10
33.017769
 20
82.263376
 30
0.0
 10
32.764469
 20
81.772027
 30
0.0
 10
32.341419
 20
81.311180
 30
0.0
  0
SPLINE
  5
119
100
AcDbEntity
  8
0
 62
7
100
AcDbSpline
 70
8
 71
3
 72
8
 73
4
 74
0
 40
0
 40
0
 40
0
 40
0
 40
1
 40
1
 40
1
 40
1
 10
32.341419
 20
81.311180
 30
0.0
 10
31.918368
 20
80.850333
 30
0.0
 10
31.607379
 20
80.321188
 30
0.0
 10
31.251300
 20
79.815251
 30
0.0
  0
SPLINE
  5
11a
100
AcDbEntity
  8
0
 62
7
100
AcDbSpline
 70
8
 71
3
 72
8
 73
4
 74
0
 40
0
 40
0
 40
0
 40
0
 40
1
 40
1
 40
1
 40
1
 10
31.251300
 20
79.815251
 30
0.0
 10
30.894558
 20
79.309977
 30
0.0
 10
30.690327
 20
78.730438
 30
0.0
 10
30.319660
 20
78.227153
 30
0.0
  0
SPLINE
  5
11b
100
AcDbEntity
  8
0
 62
7
100
AcDbSpline
 70
8
 71
3
 72
8
 73
4
 74
0
 40
0
 40
0
 40
0
 40
0
 40
1
 40
1
 40
1
 40
1
 10
30.319660
 20
78.227153
 30
0.0
 10
29.948994
 20
77.724532
 30
0.0
 10
29.965571
 20
76.867821
 30
0.0
 10
29.241478
 20
76.785597
 30
0.0
  0
SPLINE
  5
11c
100
AcDbEntity
  8
0
 62
7
100
AcDbSpline
 70
8
 71
3
 72
8
 73
4
 74
0
 40
0
 40
0
 40
0
 40
0
 40
1
 40
1
 40
1
 40
1
 10
29.241478
 20
76.785597
 30
0.0
 10
28.517384
 20
76.703374
 30
0.0
 10
27.620225
 20
76.909595
 30
0.0
 10
26.920666
 20
77.050833
 30
0.0
  0
SPLINE
  5
11d
100
AcDbEntity
  8
0
 62
7
100
AcDbSpline
 70
8
 71
3
 72
8
 73
4
 74
0
 40
0
 40
0
 40
0
 40
0
 40
1
 40
1
 40
1
 40
1
 10
26.920666
 20
77.050833
 30
0.0
 10
26.221107
 20
77.192071
 30
0.0
 10
25.553377
 20
77.275620
 30
0.0
 10
24.869732
 20
77.519637
 30
0.0
  0
SPLINE
  5
11e
100
AcDbEntity
  8
0
 62
7
100
AcDbSpline
 70
8
 71
3
 72
8
 73
4
 74
0
 40
0
 40
0
 40
0
 40
0
 40
1
 40
1
 40
1
 40
1
 10
24.869732
 20
77.519637
 30
0.0
 10
24.186087
 20
77.763654
 30
0.0
 10
23.528303
 20
77.820679
 30
0.0
 10
22.814156
 20
78.050108
 30
0.0
  0
SPLINE
  5
11f
100
AcDbEntity
  8
0
 62
7
100
AcDbSpline
 70
8
 71
3
 72
8
 73
4
 74
0
 40
0
 40
0
 40
0
 40
0
 40
1
 40
1
 40
1
 40
1
 10
22.814156
 20
78.050108
 30
0.0
 10
22.100009
 20
78.279537
 30
0.0
 10
21.553624
 20
78.390936
 30
0.0
 10
20.753938
 20
78.509629
 30
0.0
  0
SPLINE
  5
120
100
AcDbEntity
  8
0
 62
7
100
AcDbSpline
 70
8
 71
3
 72
8
 73
4
 74
0
 40
0
 40
0
 40
0
 40
0
 40
1
 40
1
 40
1
 40
1
 10
20.753938
 20
78.509629
 30
0.0
 10
19.954253
 20
78.628322
 30
0.0
 10
19.141969
 20
78.290810
 30
0.0
 10
19.494069
 20
77.249760
 30
0.0
  0
SPLINE
  5
121
100
AcDbEntity
  8
0
 62
7
100
AcDbSpline
 70
8
 71
3
 72
8
 73
4
 74
0
 40
0
 40
0
 40
0
 40
0
 40
1
 40
1
 40
1
 40
1
 10
19.494069
 20
77.249760
 30
0.0
 10
17.720969
 20
77.168200
 30
0.0
 10
15.656773
 20
77.077357
 30
0.0
 10
14.454593
 20
75.658346
 30
0.0
  0
SPLINE
  5
122
100
AcDbEntity
  8
0
 62
7
100
AcDbSpline
 70
8
 71
3
 72
8
 73
4
 74
0
 40
0
 40
0
 40
0
 40
0
 40
1
 40
1
 40
1
 40
1
 10
14.454593
 20
75.658346
 30
0.0
 10
14.025574
 20
77.372431
 30
0.0
 10
13.694693
 20
79.512219
 30
0.0
 10
12.980546
 20
81.146734
 30
0.0
  0
SPLINE
  5
123
100
AcDbEntity
  8
0
 62
7
100
AcDbSpline
 70
8
 71
3
 72
8
 73
4
 74
0
 40
0
 40
0
 40
0
 40
0
 40
1
 40
1
 40
1
 40
1
 10
12.980546
 20
81.146734
 30
0.0
 10
12.266399
 20
82.781248
 30
0.0
 10
11.613257
 20
84.244686
 30
0.0
 10
10.393173
 20
85.521795
 30
0.0
  0
SPLINE
  5
124
100
AcDbEntity
  8
0
 62
7
100
AcDbSpline
 70
8
 71
3
 72
8
 73
4
 74
0
 40
0
 40
0
 40
0
 40
0
 40
1
 40
1
 40
1
 40
1
 10
10.393173
 20
85.521795
 30
0.0
 10
9.173089
 20
86.798904
 30
0.0
 10
8.691023
 20
88.457290
 30
0.0
 10
7.910568
 20
90.001624
 30
0.0
  0
SPLINE
  5
125
100
AcDbEntity
  8
0
 62
7
100
AcDbSpline
 70
8
 71
3
 72
8
 73
4
 74
0
 40
0
 40
0
 40
0
 40
0
 40
1
 40
1
 40
1
 40
1
 10
7.910568
 20
90.001624
 30
0.0
 10
7.129449
 20
91.545296
 30
0.0
 10
6.119564
 20
92.854233
 30
0.0
 10
5.436583
 20
94.423765
 30
0.0
  0
SPLINE
  5
126
100
AcDbEntity
  8
0
 62
7
100
AcDbSpline
 70
8
 71
3
 72
8
 73
4
 74
0
 40
0
 40
0
 40
0
 40
0
 40
1
 40
1
 40
1
 40
1
 10
5.436583
 20
94.423765
 30
0.0
 10
4.329887
 20
94.726797
 30
0.0
 10
3.501689
 20
94.224175
 30
0.0
 10
3.099194
 20
93.313091
 30
0.0
  0
SPLINE
  5
127
100
AcDbEntity
  8
0
 62
7
100
AcDbSpline
 70
8
 71
3
 72
8
 73
4
 74
0
 40
0
 40
0
 40
0
 40
0
 40
1
 40
1
 40
1
 40
1
 10
3.099194
 20
93.313091
 30
0.0
 10
2.697362
 20
92.401343
 30
0.0
 10
2.270996
 20
91.885460
 30
0.0
 10
2.040241
 20
90.923981
 30
0.0
  0
SPLINE
  5
128
100
AcDbEntity
  8
0
 62
7
100
AcDbSpline
 70
8
 71
3
 72
8
 73
4
 74
0
 40
0
 40
0
 40
0
 40
0
 40
1
 40
1
 40
1
 40
1
 10
2.040241
 20
90.923981
 30
0.0
 10
1.809486
 20
89.963165
 30
0.0
 10
1.491203
 20
89.137619
 30
0.0
 10
1.391077
 20
88.125082
 30
0.0
  0
SPLINE
  5
129
100
AcDbEntity
  8
0
 62
7
100
AcDbSpline
 70
8
 71
3
 72
8
 73
4
 74
0
 40
0
 40
0
 40
0
 40
0
 40
1
 40
1
 40
1
 40
1
 10
1.391077
 20
88.125082
 30
0.0
 10
1.291613
 20
87.111882
 30
0.0
 10
1.190161
 20
86.033037
 30
0.0
 10
1.059532
 20
85.008564
 30
0.0
  0
SPLINE
  5
12a
100
AcDbEntity
  8
0
 62
7
100
AcDbSpline
 70
8
 71
3
 72
8
 73
4
 74
0
 40
0
 40
0
 40
0
 40
0
 40
1
 40
1
 40
1
 40
1
 10
1.059532
 20
85.008564
 30
0.0
 10
0.928903
 20
83.983429
 30
0.0
 10
0.838060
 20
82.824349
 30
0.0
 10
0.861268
 20
81.758765
 30
0.0
  0
SPLINE
  5
12b
100
AcDbEntity
  8
0
 62
7
100
AcDbSpline
 70
8
 71
3
 72
8
 73
4
 74
0
 40
0
 40
0
 40
0
 40
0
 40
1
 40
1
 40
1
 40
1
 10
0.861268
 20
81.758765
 30
0.0
 10
0.884477
 20
80.693181
 30
0.0
 10
0.815515
 20
79.390874
 30
0.0
 10
0.932219
 20
78.381653
 30
0.0
  0
SPLINE
  5
12c
100
AcDbEntity
  8
0
 62
7
100
AcDbSpline
 70
8
 71
3
 72
8
 73
4
 74
0
 40
0
 40
0
 40
0
 40
0
 40
1
 40
1
 40
1
 40
1
 10
0.932219
 20
78.381653
 30
0.0
 10
1.048923
 20
77.372431
 30
0.0
 10
1.215358
 20
76.408963
 30
0.0
 10
1.502475
 20
75.503846
 30
0.0
  0
SPLINE
  5
12d
100
AcDbEntity
  8
0
 62
7
100
AcDbSpline
 70
8
 71
3
 72
8
 73
4
 74
0
 40
0
 40
0
 40
0
 40
0
 40
1
 40
1
 40
1
 40
1
 10
1.502475
 20
75.503846
 30
0.0
 10
1.790256
 20
74.599393
 30
0.0
 10
2.089972
 20
73.783794
 30
0.0
 10
2.388362
 20
72.941671
 30
0.0
  0
SPLINE
  5
12e
100
AcDbEntity
  8
0
 62
7
100
AcDbSpline
 70
8
 71
3
 72
8
 73
4
 74
0
 40
0
 40
0
 40
0
 40
0
 40
1
 40
1
 40
1
 40
1
 10
2.388362
 20
72.941671
 30
0.0
 10
2.686089
 20
72.098884
 30
0.0
 10
3.148925
 20
71.437785
 30
0.0
 10
3.595184
 20
70.700430
 30
0.0
  0
SPLINE
  5
12f
100
AcDbEntity
  8
0
 62
7
100
AcDbSpline
 70
8
 71
3
 72
8
 73
4
 74
0
 40
0
 40
0
 40
0
 40
0
 40
1
 40
1
 40
1
 40
1
 10
3.595184
 20
70.700430
 30
0.0
 10
4.041443
 20
69.963075
 30
0.0
 10
4.481071
 20
69.400775
 30
0.0
 10
5.038729
 20
68.762221
 30
0.0
  0
SPLINE
  5
130
100
AcDbEntity
  8
0
 62
7
100
AcDbSpline
 70
8
 71
3
 72
8
 73
4
 74
0
 40
0
 40
0
 40
0
 40
0
 40
1
 40
1
 40
1
 40
1
 10
5.038729
 20
68.762221
 30
0.0
 10
4.575230
 20
68.381608
 30
0.0
 10
5.082493
 20
67.777533
 30
0.0
 10
4.839802
 20
67.303425
 30
0.0
  0
SPLINE
  5
131
100
AcDbEntity
  8
0
 62
7
100
AcDbSpline
 70
8
 71
3
 72
8
 73
4
 74
0
 40
0
 40
0
 40
0
 40
0
 40
1
 40
1
 40
1
 40
1
 10
4.839802
 20
67.303425
 30
0.0
 10
4.597112
 20
66.829316
 30
0.0
 10
5.541351
 20
66.548830
 30
0.0
 10
5.221079
 20
66.192751
 30
0.0
  0
SPLINE
  5
132
100
AcDbEntity
  8
0
 62
7
100
AcDbSpline
 70
8
 71
3
 72
8
 73
4
 74
0
 40
0
 40
0
 40
0
 40
0
 40
1
 40
1
 40
1
 40
1
 10
5.221079
 20
66.192751
 30
0.0
 10
4.900807
 20
65.836672
 30
0.0
 10
4.896165
 20
65.340018
 30
0.0
 10
4.906111
 20
64.849996
 30
0.0
  0
SPLINE
  5
133
100
AcDbEntity
  8
0
 62
7
100
AcDbSpline
 70
8
 71
3
 72
8
 73
4
 74
0
 40
0
 40
0
 40
0
 40
0
 40
1
 40
1
 40
1
 40
1
 10
4.906111
 20
64.849996
 30
0.0
 10
4.916058
 20
64.359973
 30
0.0
 10
4.924015
 20
63.897800
 30
0.0
 10
5.421995
 20
63.708156
 30
0.0
  0
SPLINE
  5
134
100
AcDbEntity
  8
0
 62
7
100
AcDbSpline
 70
8
 71
3
 72
8
 73
4
 74
0
 40
0
 40
0
 40
0
 40
0
 40
1
 40
1
 40
1
 40
1
 10
5.421995
 20
63.708156
 30
0.0
 10
5.919311
 20
63.517850
 30
0.0
 10
6.179905
 20
63.377938
 30
0.0
 10
6.696452
 20
63.324891
 30
0.0
  0
SPLINE
  5
135
100
AcDbEntity
  8
0
 62
7
100
AcDbSpline
 70
8
 71
3
 72
8
 73
4
 74
0
 40
0
 40
0
 40
0
 40
0
 40
1
 40
1
 40
1
 40
1
 10
6.696452
 20
63.324891
 30
0.0
 10
6.621523
 20
62.858076
 30
0.0
 10
6.887421
 20
62.142603
 30
0.0
 10
6.480948
 20
61.816363
 30
0.0
  0
SPLINE
  5
136
100
AcDbEntity
  8
0
 62
7
100
AcDbSpline
 70
8
 71
3
 72
8
 73
4
 74
0
 40
0
 40
0
 40
0
 40
0
 40
1
 40
1
 40
1
 40
1
 10
6.480948
 20
61.816363
 30
0.0
 10
6.075137
 20
61.490124
 30
0.0
 10
5.910691
 20
61.116804
 30
0.0
 10
5.967054
 20
60.606226
 30
0.0
  0
SPLINE
  5
137
100
AcDbEntity
  8
0
 62
7
100
AcDbSpline
 70
8
 71
3
 72
8
 73
4
 74
0
 40
0
 40
0
 40
0
 40
0
 40
1
 40
1
 40
1
 40
1
 10
1.723284
 20
56.561383
 30
0.0
 10
1.736546
 20
56.095895
 30
0.0
 10
1.679520
 20
55.609850
 30
0.0
 10
1.789593
 20
55.168896
 30
0.0
  0
LWPOLYLINE
  5
138
100
AcDbEntity
  8
0
 62
7
100
AcDbPolyline
 90
4
 70
0
 10
5.967054
 20
60.606226
 30
0.0
 10
0.397106
 20
60.606226
 30
0.0
 10
0.397106
 20
56.561383
 30
0.0
 10
1.723284
 20
56.561383
 30
0.0
  0
SPLINE
  5
139
100
AcDbEntity
  8
0
 62
7
100
AcDbSpline
 70
8
 71
3
 72
8
 73
4
 74
0
 40
0
 40
0
 40
0
 40
0
 40
1
 40
1
 40
1
 40
1
 10
3.049462
 20
55.168896
 30
0.0
 10
3.088584
 20
54.731920
 30
0.0
 10
2.968565
 20
54.252507
 30
0.0
 10
3.115771
 20
53.842718
 30
0.0
  0
SPLINE
  5
13a
100
AcDbEntity
  8
0
 62
7
100
AcDbSpline
 70
8
 71
3
 72
8
 73
4
 74
0
 40
0
 40
0
 40
0
 40
0
 40
1
 40
1
 40
1
 40
1
 10
3.115771
 20
53.842718
 30
0.0
 10
2.588615
 20
53.515152
 30
0.0
 10
2.520317
 20
52.900469
 30
0.0
 10
2.585300
 20
52.317613
 30
0.0
  0
SPLINE
  5
13b
100
AcDbEntity
  8
0
 62
7
100
AcDbSpline
 70
8
 71
3
 72
8
 73
4
 74
0
 40
0
 40
0
 40
0
 40
0
 40
1
 40
1
 40
1
 40
1
 10
2.585300
 20
52.317613
 30
0.0
 10
1.104622
 20
51.549093
 30
0.0
 10
-0.326324
 20
50.146660
 30
0.0
 10
0.065562
 20
48.272771
 30
0.0
  0
LWPOLYLINE
  5
13c
100
AcDbEntity
  8
0
 62
7
100
AcDbPolyline
 90
2
 70
0
 10
1.789593
 20
55.168896
 30
0.0
 10
3.049462
 20
55.168896
 30
0.0
  0
SPLINE
  5
13d
100
AcDbEntity
  8
0
 62
7
100
AcDbSpline
 70
8
 71
3
 72
8
 73
4
 74
0
 40
0
 40
0
 40
0
 40
0
 40
1
 40
1
 40
1
 40
1
 10
1.458048
 20
48.272771
 30
0.0
 10
1.143081
 20
47.466454
 30
0.0
 10
1.062184
 20
46.928026
 30
0.0
 10
0.993886
 20
46.018268
 30
0.0
  0
SPLINE
  5
13e
100
AcDbEntity
  8
0
 62
7
100
AcDbSpline
 70
8
 71
3
 72
8
 73
4
 74
0
 40
0
 40
0
 40
0
 40
0
 40
1
 40
1
 40
1
 40
1
 10
0.993886
 20
46.018268
 30
0.0
 10
0.925588
 20
45.108510
 30
0.0
 10
1.158995
 20
44.337337
 30
0.0
 10
1.060195
 20
43.365912
 30
0.0
  0
SPLINE
  5
13f
100
AcDbEntity
  8
0
 62
7
100
AcDbSpline
 70
8
 71
3
 72
8
 73
4
 74
0
 40
0
 40
0
 40
0
 40
0
 40
1
 40
1
 40
1
 40
1
 10
1.060195
 20
43.365912
 30
0.0
 10
0.961395
 20
42.394487
 30
0.0
 10
1.894361
 20
42.179646
 30
0.0
 10
2.784226
 20
42.371278
 30
0.0
  0
SPLINE
  5
140
100
AcDbEntity
  8
0
 62
7
100
AcDbSpline
 70
8
 71
3
 72
8
 73
4
 74
0
 40
0
 40
0
 40
0
 40
0
 40
1
 40
1
 40
1
 40
1
 10
2.784226
 20
42.371278
 30
0.0
 10
2.782900
 20
42.557606
 30
0.0
 10
2.924138
 20
42.694866
 30
0.0
 10
3.115771
 20
42.636514
 30
0.0
  0
SPLINE
  5
141
100
AcDbEntity
  8
0
 62
7
100
AcDbSpline
 70
8
 71
3
 72
8
 73
4
 74
0
 40
0
 40
0
 40
0
 40
0
 40
1
 40
1
 40
1
 40
1
 10
3.115771
 20
42.636514
 30
0.0
 10
3.131685
 20
42.104717
 30
0.0
 10
2.906898
 20
41.511915
 30
0.0
 10
2.983153
 20
40.978791
 30
0.0
  0
SPLINE
  5
142
100
AcDbEntity
  8
0
 62
7
100
AcDbSpline
 70
8
 71
3
 72
8
 73
4
 74
0
 40
0
 40
0
 40
0
 40
0
 40
1
 40
1
 40
1
 40
1
 10
2.983153
 20
40.978791
 30
0.0
 10
3.059408
 20
40.445668
 30
0.0
 10
2.855840
 20
39.787884
 30
0.0
 10
3.054767
 20
39.326374
 30
0.0
  0
SPLINE
  5
143
100
AcDbEntity
  8
0
 62
7
100
AcDbSpline
 70
8
 71
3
 72
8
 73
4
 74
0
 40
0
 40
0
 40
0
 40
0
 40
1
 40
1
 40
1
 40
1
 10
3.054767
 20
39.326374
 30
0.0
 10
3.253030
 20
38.864201
 30
0.0
 10
3.652210
 20
38.630793
 30
0.0
 10
4.176713
 20
38.724289
 30
0.0
  0
SPLINE
  5
144
100
AcDbEntity
  8
0
 62
7
100
AcDbSpline
 70
8
 71
3
 72
8
 73
4
 74
0
 40
0
 40
0
 40
0
 40
0
 40
1
 40
1
 40
1
 40
1
 10
4.176713
 20
38.724289
 30
0.0
 10
4.701217
 20
38.817784
 30
0.0
 10
5.121615
 20
38.594987
 30
0.0
 10
5.370274
 20
38.193818
 30
0.0
  0
SPLINE
  5
145
100
AcDbEntity
  8
0
 62
7
100
AcDbSpline
 70
8
 71
3
 72
8
 73
4
 74
0
 40
0
 40
0
 40
0
 40
0
 40
1
 40
1
 40
1
 40
1
 10
5.370274
 20
38.193818
 30
0.0
 10
5.107690
 20
37.520782
 30
0.0
 10
4.854390
 20
36.920687
 30
0.0
 10
4.705858
 20
36.205877
 30
0.0
  0
SPLINE
  5
146
100
AcDbEntity
  8
0
 62
7
100
AcDbSpline
 70
8
 71
3
 72
8
 73
4
 74
0
 40
0
 40
0
 40
0
 40
0
 40
1
 40
1
 40
1
 40
1
 10
4.705858
 20
36.205877
 30
0.0
 10
4.557326
 20
35.491067
 30
0.0
 10
4.347790
 20
34.640987
 30
0.0
 10
4.375640
 20
33.883739
 30
0.0
  0
SPLINE
  5
147
100
AcDbEntity
  8
0
 62
7
100
AcDbSpline
 70
8
 71
3
 72
8
 73
4
 74
0
 40
0
 40
0
 40
0
 40
0
 40
1
 40
1
 40
1
 40
1
 10
4.375640
 20
33.883739
 30
0.0
 10
4.403490
 20
33.126492
 30
0.0
 10
4.260926
 20
32.031732
 30
0.0
 10
4.509584
 20
31.365327
 30
0.0
  0
SPLINE
  5
148
100
AcDbEntity
  8
0
 62
7
100
AcDbSpline
 70
8
 71
3
 72
8
 73
4
 74
0
 40
0
 40
0
 40
0
 40
0
 40
1
 40
1
 40
1
 40
1
 10
4.509584
 20
31.365327
 30
0.0
 10
4.758906
 20
30.699586
 30
0.0
 10
4.807974
 20
29.958252
 30
0.0
 10
5.436582
 20
29.706278
 30
0.0
  0
SPLINE
  5
149
100
AcDbEntity
  8
0
 62
7
100
AcDbSpline
 70
8
 71
3
 72
8
 73
4
 74
0
 40
0
 40
0
 40
0
 40
0
 40
1
 40
1
 40
1
 40
1
 10
5.436582
 20
29.706278
 30
0.0
 10
5.425310
 20
27.703750
 30
0.0
 10
5.097744
 20
25.544732
 30
0.0
 10
4.901470
 20
23.610501
 30
0.0
  0
SPLINE
  5
14a
100
AcDbEntity
  8
0
 62
7
100
AcDbSpline
 70
8
 71
3
 72
8
 73
4
 74
0
 40
0
 40
0
 40
0
 40
0
 40
1
 40
1
 40
1
 40
1
 10
4.901470
 20
23.610501
 30
0.0
 10
4.705195
 20
21.676934
 30
0.0
 10
3.682712
 20
20.566923
 30
0.0
 10
3.167492
 20
18.713589
 30
0.0
  0
SPLINE
  5
14b
100
AcDbEntity
  8
0
 62
7
100
AcDbSpline
 70
8
 71
3
 72
8
 73
4
 74
0
 40
0
 40
0
 40
0
 40
0
 40
1
 40
1
 40
1
 40
1
 10
3.167492
 20
18.713589
 30
0.0
 10
2.651609
 20
16.860918
 30
0.0
 10
2.176837
 20
15.150812
 30
0.0
 10
2.143019
 20
13.107172
 30
0.0
  0
SPLINE
  5
14c
100
AcDbEntity
  8
0
 62
7
100
AcDbSpline
 70
8
 71
3
 72
8
 73
4
 74
0
 40
0
 40
0
 40
0
 40
0
 40
1
 40
1
 40
1
 40
1
 10
2.143019
 20
13.107172
 30
0.0
 10
2.109202
 20
11.063531
 30
0.0
 10
2.229221
 20
8.690336
 30
0.0
 10
2.187446
 20
6.564472
 30
0.0
  0
SPLINE
  5
14d
100
AcDbEntity
  8
0
 62
7
100
AcDbSpline
 70
8
 71
3
 72
8
 73
4
 74
0
 40
0
 40
0
 40
0
 40
0
 40
1
 40
1
 40
1
 40
1
 10
2.187446
 20
6.564472
 30
0.0
 10
2.145672
 20
4.438609
 30
0.0
 10
2.219275
 20
2.141006
 30
0.0
 10
2.187446
 20
-0.000109
 30
0.0
  0
SPLINE
  5
14e
100
AcDbEntity
  8
0
 62
7
100
AcDbSpline
 70
8
 71
3
 72
8
 73
4
 74
0
 40
0
 40
0
 40
0
 40
0
 40
1
 40
1
 40
1
 40
1
 10
2.187446
 20
-0.000109
 30
0.0
 10
14.918092
 20
0.046971
 30
0.0
 10
27.646085
 20
0.102670
 30
0.0
 10
40.381373
 20
0.132509
 30
0.0
  0
SPLINE
  5
14f
100
AcDbEntity
  8
0
 62
7
100
AcDbSpline
 70
8
 71
3
 72
8
 73
4
 74
0
 40
0
 40
0
 40
0
 40
0
 40
1
 40
1
 40
1
 40
1
 10
40.381373
 20
0.132509
 30
0.0
 10
40.254060
 20
2.426797
 30
0.0
 10
40.551124
 20
4.809276
 30
0.0
 10
40.381373
 20
7.094944
 30
0.0
  0
SPLINE
  5
150
100
AcDbEntity
  8
0
 62
7
100
AcDbSpline
 70
8
 71
3
 72
8
 73
4
 74
0
 40
0
 40
0
 40
0
 40
0
 40
1
 40
1
 40
1
 40
1
 10
40.381373
 20
7.094944
 30
0.0
 10
40.211622
 20
9.380611
 30
0.0
 10
40.720211
 20
11.470005
 30
0.0
 10
40.779226
 20
13.659525
 30
0.0
  0
SPLINE
  5
151
100
AcDbEntity
  8
0
 62
7
100
AcDbSpline
 70
8
 71
3
 72
8
 73
4
 74
0
 40
0
 40
0
 40
0
 40
0
 40
1
 40
1
 40
1
 40
1
 10
40.779226
 20
13.659525
 30
0.0
 10
40.838241
 20
15.849045
 30
0.0
 10
40.388667
 20
18.098242
 30
0.0
 10
40.447682
 20
20.290415
 30
0.0
  0
SPLINE
  5
152
100
AcDbEntity
  8
0
 62
7
100
AcDbSpline
 70
8
 71
3
 72
8
 73
4
 74
0
 40
0
 40
0
 40
0
 40
0
 40
1
 40
1
 40
1
 40
1
 10
40.447682
 20
20.290415
 30
0.0
 10
40.506697
 20
22.482587
 30
0.0
 10
40.147965
 20
24.534184
 30
0.0
 10
39.784593
 20
26.589760
 30
0.0
  0
SPLINE
  5
153
100
AcDbEntity
  8
0
 62
7
100
AcDbSpline
 70
8
 71
3
 72
8
 73
4
 74
0
 40
0
 40
0
 40
0
 40
0
 40
1
 40
1
 40
1
 40
1
 10
39.784593
 20
26.589760
 30
0.0
 10
40.550460
 20
26.931251
 30
0.0
 10
40.400602
 20
27.710381
 30
0.0
 10
40.447682
 20
28.446409
 30
0.0
  0
SPLINE
  5
154
100
AcDbEntity
  8
0
 62
7
100
AcDbSpline
 70
8
 71
3
 72
8
 73
4
 74
0
 40
0
 40
0
 40
0
 40
0
 40
1
 40
1
 40
1
 40
1
 10
40.447682
 20
28.446409
 30
0.0
 10
40.494761
 20
29.182438
 30
0.0
 10
40.530568
 20
30.023235
 30
0.0
 10
40.447682
 20
30.767221
 30
0.0
  0
SPLINE
  5
155
100
AcDbEntity
  8
0
 62
7
100
AcDbSpline
 70
8
 71
3
 72
8
 73
4
 74
0
 40
0
 40
0
 40
0
 40
0
 40
1
 40
1
 40
1
 40
1
 10
40.447682
 20
30.767221
 30
0.0
 10
40.364796
 20
31.511207
 30
0.0
 10
40.222231
 20
32.151751
 30
0.0
 10
40.116137
 20
32.889106
 30
0.0
  0
SPLINE
  5
156
100
AcDbEntity
  8
0
 62
7
100
AcDbSpline
 70
8
 71
3
 72
8
 73
4
 74
0
 40
0
 40
0
 40
0
 40
0
 40
1
 40
1
 40
1
 40
1
 10
40.116137
 20
32.889106
 30
0.0
 10
40.010043
 20
33.626461
 30
0.0
 10
39.904612
 20
34.331987
 30
0.0
 10
39.783267
 20
35.075973
 30
0.0
  0
SPLINE
  5
157
100
AcDbEntity
  8
0
 62
7
100
AcDbSpline
 70
8
 71
3
 72
8
 73
4
 74
0
 40
0
 40
0
 40
0
 40
0
 40
1
 40
1
 40
1
 40
1
 10
39.783267
 20
35.075973
 30
0.0
 10
39.661258
 20
35.819296
 30
0.0
 10
39.446417
 20
36.344462
 30
0.0
 10
39.723589
 20
37.061262
 30
0.0
  0
SPLINE
  5
158
100
AcDbEntity
  8
0
 62
7
100
AcDbSpline
 70
8
 71
3
 72
8
 73
4
 74
0
 40
0
 40
0
 40
0
 40
0
 40
1
 40
1
 40
1
 40
1
 10
39.723589
 20
37.061262
 30
0.0
 10
40.000760
 20
37.778061
 30
0.0
 10
40.602845
 20
37.712415
 30
0.0
 10
41.228137
 20
38.010142
 30
0.0
  0
SPLINE
  5
159
100
AcDbEntity
  8
0
 62
7
100
AcDbSpline
 70
8
 71
3
 72
8
 73
4
 74
0
 40
0
 40
0
 40
0
 40
0
 40
1
 40
1
 40
1
 40
1
 10
41.228137
 20
38.010142
 30
0.0
 10
41.853430
 20
38.307869
 30
0.0
 10
41.742695
 20
39.427826
 30
0.0
 10
41.641242
 20
40.116776
 30
0.0
  0
SPLINE
  5
15a
100
AcDbEntity
  8
0
 62
7
100
AcDbSpline
 70
8
 71
3
 72
8
 73
4
 74
0
 40
0
 40
0
 40
0
 40
0
 40
1
 40
1
 40
1
 40
1
 10
41.641242
 20
40.116776
 30
0.0
 10
41.539789
 20
40.805725
 30
0.0
 10
41.897194
 20
41.238722
 30
0.0
 10
42.564262
 20
41.514567
 30
0.0
  0
SPLINE
  5
15b
100
AcDbEntity
  8
0
 62
7
100
AcDbSpline
 70
8
 71
3
 72
8
 73
4
 74
0
 40
0
 40
0
 40
0
 40
0
 40
1
 40
1
 40
1
 40
1
 10
42.564262
 20
41.514567
 30
0.0
 10
43.231329
 20
41.790412
 30
0.0
 10
43.615921
 20
42.114663
 30
0.0
 10
43.696818
 20
42.835441
 30
0.0
  0
SPLINE
  5
15c
100
AcDbEntity
  8
0
 62
7
100
AcDbSpline
 70
8
 71
3
 72
8
 73
4
 74
0
 40
0
 40
0
 40
0
 40
0
 40
1
 40
1
 40
1
 40
1
 10
43.696818
 20
42.835441
 30
0.0
 10
43.777715
 20
43.556218
 30
0.0
 10
43.548286
 20
44.493163
 30
0.0
 10
43.778378
 20
45.141001
 30
0.0
  0
SPLINE
  5
15d
100
AcDbEntity
  8
0
 62
7
100
AcDbSpline
 70
8
 71
3
 72
8
 73
4
 74
0
 40
0
 40
0
 40
0
 40
0
 40
1
 40
1
 40
1
 40
1
 10
43.778378
 20
45.141001
 30
0.0
 10
44.008470
 20
45.788839
 30
0.0
 10
44.385767
 20
46.043465
 30
0.0
 10
44.763065
 20
46.609743
 30
0.0
  0
SPLINE
  5
15e
100
AcDbEntity
  8
0
 62
7
100
AcDbSpline
 70
8
 71
3
 72
8
 73
4
 74
0
 40
0
 40
0
 40
0
 40
0
 40
1
 40
1
 40
1
 40
1
 10
44.763065
 20
46.609743
 30
0.0
 10
45.140363
 20
47.176021
 30
0.0
 10
44.910934
 20
48.142805
 30
0.0
 10
44.912260
 20
48.825124
 30
0.0
  0
SPLINE
  5
15f
100
AcDbEntity
  8
0
 62
7
100
AcDbSpline
 70
8
 71
3
 72
8
 73
4
 74
0
 40
0
 40
0
 40
0
 40
0
 40
1
 40
1
 40
1
 40
1
 10
44.912260
 20
48.825124
 30
0.0
 10
44.913586
 20
49.507442
 30
0.0
 10
44.710018
 20
50.293866
 30
0.0
 10
44.487883
 20
50.920485
 30
0.0
  0
SPLINE
  5
160
100
AcDbEntity
  8
0
 62
7
100
AcDbSpline
 70
8
 71
3
 72
8
 73
4
 74
0
 40
0
 40
0
 40
0
 40
0
 40
1
 40
1
 40
1
 40
1
 10
44.487883
 20
50.920485
 30
0.0
 10
44.265085
 20
51.546441
 30
0.0
 10
43.880493
 20
51.915781
 30
0.0
 10
43.584093
 20
52.470124
 30
0.0
  0
SPLINE
  5
161
100
AcDbEntity
  8
0
 62
7
100
AcDbSpline
 70
8
 71
3
 72
8
 73
4
 74
0
 40
0
 40
0
 40
0
 40
0
 40
1
 40
1
 40
1
 40
1
 10
43.584093
 20
52.470124
 30
0.0
 10
43.287692
 20
53.025129
 30
0.0
 10
42.515856
 20
53.238644
 30
0.0
 10
42.635875
 20
53.975336
 30
0.0
  0
SPLINE
  5
162
100
AcDbEntity
  8
0
 62
7
100
AcDbSpline
 70
8
 71
3
 72
8
 73
4
 74
0
 40
0
 40
0
 40
0
 40
0
 40
1
 40
1
 40
1
 40
1
 10
42.635875
 20
53.975336
 30
0.0
 10
42.755895
 20
54.712028
 30
0.0
 10
42.098773
 20
55.247141
 30
0.0
 10
41.309697
 20
55.102587
 30
0.0
  0
SPLINE
  5
163
100
AcDbEntity
  8
0
 62
7
100
AcDbSpline
 70
8
 71
3
 72
8
 73
4
 74
0
 40
0
 40
0
 40
0
 40
0
 40
1
 40
1
 40
1
 40
1
 10
41.309697
 20
55.102587
 30
0.0
 10
41.531169
 20
55.280958
 30
0.0
 10
42.193595
 20
54.989862
 30
0.0
 10
42.171713
 20
55.434132
 30
0.0
  0
SPLINE
  5
164
100
AcDbEntity
  8
0
 62
7
100
AcDbSpline
 70
8
 71
3
 72
8
 73
4
 74
0
 40
0
 40
0
 40
0
 40
0
 40
1
 40
1
 40
1
 40
1
 10
42.171713
 20
55.434132
 30
0.0
 10
42.149831
 20
55.878401
 30
0.0
 10
42.188290
 20
56.134354
 30
0.0
 10
42.171713
 20
56.561383
 30
0.0
  0
LWPOLYLINE
  5
165
100
AcDbEntity
  8
0
 62
7
100
AcDbPolyline
 90
2
 70
0
 10
0.065562
 20
48.272771
 30
0.0
 10
1.458048
 20
48.272771
 30
0.0
  0
SPLINE
  5
166
100
AcDbEntity
  8
0
 62
7
100
AcDbSpline
 70
8
 71
3
 72
8
 73
4
 74
0
 40
0
 40
0
 40
0
 40
0
 40
1
 40
1
 40
1
 40
1
 10
43.497891
 20
56.561383
 30
0.0
 10
43.661011
 20
57.139597
 30
0.0
 10
43.486619
 20
57.597791
 30
0.0
 10
43.564200
 20
58.219105
 30
0.0
  0
SPLINE
  5
167
100
AcDbEntity
  8
0
 62
7
100
AcDbSpline
 70
8
 71
3
 72
8
 73
4
 74
0
 40
0
 40
0
 40
0
 40
0
 40
1
 40
1
 40
1
 40
1
 10
43.564200
 20
58.219105
 30
0.0
 10
43.641781
 20
58.840420
 30
0.0
 10
43.424288
 20
59.189205
 30
0.0
 10
43.564200
 20
59.876828
 30
0.0
  0
SPLINE
  5
168
100
AcDbEntity
  8
0
 62
7
100
AcDbSpline
 70
8
 71
3
 72
8
 73
4
 74
0
 40
0
 40
0
 40
0
 40
0
 40
1
 40
1
 40
1
 40
1
 10
43.564200
 20
59.876828
 30
0.0
 10
43.704112
 20
60.564451
 30
0.0
 10
43.190881
 20
60.700385
 30
0.0
 10
42.569567
 20
60.606226
 30
0.0
  0
SPLINE
  5
169
100
AcDbEntity
  8
0
 62
7
100
AcDbSpline
 70
8
 71
3
 72
8
 73
4
 74
0
 40
0
 40
0
 40
0
 40
0
 40
1
 40
1
 40
1
 40
1
 10
42.569567
 20
60.606226
 30
0.0
 10
41.948252
 20
60.512067
 30
0.0
 10
41.500004
 20
60.655294
 30
0.0
 10
40.911844
 20
60.606226
 30
0.0
  0
SPLINE
  5
16a
100
AcDbEntity
  8
0
 62
7
100
AcDbSpline
 70
8
 71
3
 72
8
 73
4
 74
0
 40
0
 40
0
 40
0
 40
0
 40
1
 40
1
 40
1
 40
1
 10
40.911844
 20
60.606226
 30
0.0
 10
40.323684
 20
60.557157
 30
0.0
 10
39.833661
 20
60.643359
 30
0.0
 10
39.254122
 20
60.606226
 30
0.0
  0
SPLINE
  5
16b
100
AcDbEntity
  8
0
 62
7
100
AcDbSpline
 70
8
 71
3
 72
8
 73
4
 74
0
 40
0
 40
0
 40
0
 40
0
 40
1
 40
1
 40
1
 40
1
 10
39.254122
 20
60.606226
 30
0.0
 10
39.335018
 20
61.066410
 30
0.0
 10
39.246828
 20
61.574336
 30
0.0
 10
38.657341
 20
61.401933
 30
0.0
  0
LWPOLYLINE
  5
16c
100
AcDbEntity
  8
0
 62
7
100
AcDbPolyline
 90
2
 70
0
 10
42.171713
 20
56.561383
 30
0.0
 10
43.497891
 20
56.561383
 30
0.0
  0
SPLINE
  5
16d
100
AcDbEntity
  8
0
 62
7
100
AcDbSpline
 70
8
 71
3
 72
8
 73
4
 74
0
 40
0
 40
0
 40
0
 40
0
 40
1
 40
1
 40
1
 40
1
 10
38.524724
 20
59.943137
 30
0.0
 10
38.962362
 20
59.943137
 30
0.0
 10
39.488855
 20
59.981596
 30
0.0
 10
39.917211
 20
59.943137
 30
0.0
  0
SPLINE
  5
16e
100
AcDbEntity
  8
0
 62
7
100
AcDbSpline
 70
8
 71
3
 72
8
 73
4
 74
0
 40
0
 40
0
 40
0
 40
0
 40
1
 40
1
 40
1
 40
1
 10
39.917211
 20
59.943137
 30
0.0
 10
40.345566
 20
59.904678
 30
0.0
 10
40.913833
 20
60.045253
 30
0.0
 10
41.309697
 20
59.943137
 30
0.0
  0
SPLINE
  5
16f
100
AcDbEntity
  8
0
 62
7
100
AcDbSpline
 70
8
 71
3
 72
8
 73
4
 74
0
 40
0
 40
0
 40
0
 40
0
 40
1
 40
1
 40
1
 40
1
 10
41.309697
 20
59.943137
 30
0.0
 10
41.705562
 20
59.841021
 30
0.0
 10
42.451537
 20
60.164609
 30
0.0
 10
42.768493
 20
59.943137
 30
0.0
  0
SPLINE
  5
170
100
AcDbEntity
  8
0
 62
7
100
AcDbSpline
 70
8
 71
3
 72
8
 73
4
 74
0
 40
0
 40
0
 40
0
 40
0
 40
1
 40
1
 40
1
 40
1
 10
42.768493
 20
59.943137
 30
0.0
 10
43.044338
 20
59.750178
 30
0.0
 10
42.741307
 20
58.961102
 30
0.0
 10
42.834802
 20
58.616959
 30
0.0
  0
SPLINE
  5
171
100
AcDbEntity
  8
0
 62
7
100
AcDbSpline
 70
8
 71
3
 72
8
 73
4
 74
0
 40
0
 40
0
 40
0
 40
0
 40
1
 40
1
 40
1
 40
1
 10
42.834802
 20
58.616959
 30
0.0
 10
42.928298
 20
58.272816
 30
0.0
 10
42.764515
 20
57.598454
 30
0.0
 10
42.834802
 20
57.224472
 30
0.0
  0
LWPOLYLINE
  5
172
100
AcDbEntity
  8
0
 62
7
100
AcDbPolyline
 90
3
 70
0
 10
38.392106
 20
59.943137
 30
0.0
 10
38.458415
 20
59.943137
 30
0.0
 10
38.524724
 20
59.943137
 30
0.0
  0
SPLINE
  5
173
100
AcDbEntity
  8
0
 62
7
100
AcDbSpline
 70
8
 71
3
 72
8
 73
4
 74
0
 40
0
 40
0
 40
0
 40
0
 40
1
 40
1
 40
1
 40
1
 10
41.508624
 20
57.224472
 30
0.0
 10
41.372691
 20
56.908842
 30
0.0
 10
41.712856
 20
56.205304
 30
0.0
 10
41.456903
 20
55.950015
 30
0.0
  0
SPLINE
  5
174
100
AcDbEntity
  8
0
 62
7
100
AcDbSpline
 70
8
 71
3
 72
8
 73
4
 74
0
 40
0
 40
0
 40
0
 40
0
 40
1
 40
1
 40
1
 40
1
 10
41.456903
 20
55.950015
 30
0.0
 10
41.200951
 20
55.694726
 30
0.0
 10
40.499403
 20
56.033564
 30
0.0
 10
40.182446
 20
55.898294
 30
0.0
  0
LWPOLYLINE
  5
175
100
AcDbEntity
  8
0
 62
7
100
AcDbPolyline
 90
2
 70
0
 10
42.834802
 20
57.224472
 30
0.0
 10
41.508624
 20
57.224472
 30
0.0
  0
SPLINE
  5
176
100
AcDbEntity
  8
0
 62
7
100
AcDbSpline
 70
8
 71
3
 72
8
 73
4
 74
0
 40
0
 40
0
 40
0
 40
0
 40
1
 40
1
 40
1
 40
1
 10
40.182446
 20
54.572116
 30
0.0
 10
40.687720
 20
54.637762
 30
0.0
 10
41.202940
 20
54.405018
 30
0.0
 10
41.708877
 20
54.308207
 30
0.0
  0
SPLINE
  5
177
100
AcDbEntity
  8
0
 62
7
100
AcDbSpline
 70
8
 71
3
 72
8
 73
4
 74
0
 40
0
 40
0
 40
0
 40
0
 40
1
 40
1
 40
1
 40
1
 10
41.708877
 20
54.308207
 30
0.0
 10
42.215477
 20
54.212059
 30
0.0
 10
41.852104
 20
53.316225
 30
0.0
 10
41.442315
 20
53.312247
 30
0.0
  0
SPLINE
  5
178
100
AcDbEntity
  8
0
 62
7
100
AcDbSpline
 70
8
 71
3
 72
8
 73
4
 74
0
 40
0
 40
0
 40
0
 40
0
 40
1
 40
1
 40
1
 40
1
 10
41.442315
 20
53.312247
 30
0.0
 10
42.102089
 20
52.955505
 30
0.0
 10
42.603384
 20
52.391216
 30
0.0
 10
43.017152
 20
51.770565
 30
0.0
  0
SPLINE
  5
179
100
AcDbEntity
  8
0
 62
7
100
AcDbSpline
 70
8
 71
3
 72
8
 73
4
 74
0
 40
0
 40
0
 40
0
 40
0
 40
1
 40
1
 40
1
 40
1
 10
43.017152
 20
51.770565
 30
0.0
 10
43.431582
 20
51.150577
 30
0.0
 10
43.956749
 20
50.480194
 30
0.0
 10
44.093345
 20
49.729577
 30
0.0
  0
SPLINE
  5
17a
100
AcDbEntity
  8
0
 62
7
100
AcDbSpline
 70
8
 71
3
 72
8
 73
4
 74
0
 40
0
 40
0
 40
0
 40
0
 40
1
 40
1
 40
1
 40
1
 10
44.093345
 20
49.729577
 30
0.0
 10
44.229278
 20
48.979623
 30
0.0
 10
44.537615
 20
47.741636
 30
0.0
 10
44.074779
 20
47.099103
 30
0.0
  0
SPLINE
  5
17b
100
AcDbEntity
  8
0
 62
7
100
AcDbSpline
 70
8
 71
3
 72
8
 73
4
 74
0
 40
0
 40
0
 40
0
 40
0
 40
1
 40
1
 40
1
 40
1
 10
44.074779
 20
47.099103
 30
0.0
 10
43.611279
 20
46.457233
 30
0.0
 10
42.958800
 20
45.930740
 30
0.0
 10
42.922993
 20
45.178134
 30
0.0
  0
SPLINE
  5
17c
100
AcDbEntity
  8
0
 62
7
100
AcDbSpline
 70
8
 71
3
 72
8
 73
4
 74
0
 40
0
 40
0
 40
0
 40
0
 40
1
 40
1
 40
1
 40
1
 10
42.922993
 20
45.178134
 30
0.0
 10
42.887186
 20
44.424865
 30
0.0
 10
43.428930
 20
43.178921
 30
0.0
 10
42.718762
 20
42.619937
 30
0.0
  0
SPLINE
  5
17d
100
AcDbEntity
  8
0
 62
7
100
AcDbSpline
 70
8
 71
3
 72
8
 73
4
 74
0
 40
0
 40
0
 40
0
 40
0
 40
1
 40
1
 40
1
 40
1
 10
42.718762
 20
42.619937
 30
0.0
 10
42.007930
 20
42.061616
 30
0.0
 10
41.460882
 20
41.862026
 30
0.0
 10
40.712917
 20
41.442954
 30
0.0
  0
SPLINE
  5
17e
100
AcDbEntity
  8
0
 62
7
100
AcDbSpline
 70
8
 71
3
 72
8
 73
4
 74
0
 40
0
 40
0
 40
0
 40
0
 40
1
 40
1
 40
1
 40
1
 10
40.712917
 20
41.442954
 30
0.0
 10
40.811718
 20
40.772571
 30
0.0
 10
40.958260
 20
40.202977
 30
0.0
 10
41.043136
 20
39.518670
 30
0.0
  0
SPLINE
  5
17f
100
AcDbEntity
  8
0
 62
7
100
AcDbSpline
 70
8
 71
3
 72
8
 73
4
 74
0
 40
0
 40
0
 40
0
 40
0
 40
1
 40
1
 40
1
 40
1
 10
41.043136
 20
39.518670
 30
0.0
 10
41.128011
 20
38.833699
 30
0.0
 10
40.468901
 20
38.438498
 30
0.0
 10
39.846260
 20
38.397386
 30
0.0
  0
SPLINE
  5
180
100
AcDbEntity
  8
0
 62
7
100
AcDbSpline
 70
8
 71
3
 72
8
 73
4
 74
0
 40
0
 40
0
 40
0
 40
0
 40
1
 40
1
 40
1
 40
1
 10
39.846260
 20
38.397386
 30
0.0
 10
39.222956
 20
38.356938
 30
0.0
 10
39.173225
 20
37.532718
 30
0.0
 10
38.723650
 20
37.199184
 30
0.0
  0
SPLINE
  5
181
100
AcDbEntity
  8
0
 62
7
100
AcDbSpline
 70
8
 71
3
 72
8
 73
4
 74
0
 40
0
 40
0
 40
0
 40
0
 40
1
 40
1
 40
1
 40
1
 10
38.723650
 20
37.199184
 30
0.0
 10
38.839028
 20
36.079890
 30
0.0
 10
39.169909
 20
34.883014
 30
0.0
 10
39.276003
 20
33.773003
 30
0.0
  0
SPLINE
  5
182
100
AcDbEntity
  8
0
 62
7
100
AcDbSpline
 70
8
 71
3
 72
8
 73
4
 74
0
 40
0
 40
0
 40
0
 40
0
 40
1
 40
1
 40
1
 40
1
 10
39.276003
 20
33.773003
 30
0.0
 10
39.382098
 20
32.662992
 30
0.0
 10
39.777299
 20
31.428321
 30
0.0
 10
39.836314
 20
30.354780
 30
0.0
  0
SPLINE
  5
183
100
AcDbEntity
  8
0
 62
7
100
AcDbSpline
 70
8
 71
3
 72
8
 73
4
 74
0
 40
0
 40
0
 40
0
 40
0
 40
1
 40
1
 40
1
 40
1
 10
39.836314
 20
30.354780
 30
0.0
 10
39.895329
 20
29.281238
 30
0.0
 10
40.142661
 20
27.583068
 30
0.0
 10
38.988886
 20
27.252849
 30
0.0
  0
SPLINE
  5
184
100
AcDbEntity
  8
0
 62
7
100
AcDbSpline
 70
8
 71
3
 72
8
 73
4
 74
0
 40
0
 40
0
 40
0
 40
0
 40
1
 40
1
 40
1
 40
1
 10
38.988886
 20
27.252849
 30
0.0
 10
39.278656
 20
25.589159
 30
0.0
 10
39.512726
 20
24.115775
 30
0.0
 10
39.713642
 20
22.407658
 30
0.0
  0
SPLINE
  5
185
100
AcDbEntity
  8
0
 62
7
100
AcDbSpline
 70
8
 71
3
 72
8
 73
4
 74
0
 40
0
 40
0
 40
0
 40
0
 40
1
 40
1
 40
1
 40
1
 10
39.713642
 20
22.407658
 30
0.0
 10
39.914558
 20
20.698878
 30
0.0
 10
39.741492
 20
18.655237
 30
0.0
 10
39.850902
 20
16.908661
 30
0.0
  0
SPLINE
  5
186
100
AcDbEntity
  8
0
 62
7
100
AcDbSpline
 70
8
 71
3
 72
8
 73
4
 74
0
 40
0
 40
0
 40
0
 40
0
 40
1
 40
1
 40
1
 40
1
 10
39.850902
 20
16.908661
 30
0.0
 10
39.960311
 20
15.162084
 30
0.0
 10
40.366122
 20
13.604488
 30
0.0
 10
39.917211
 20
11.869184
 30
0.0
  0
SPLINE
  5
187
100
AcDbEntity
  8
0
 62
7
100
AcDbSpline
 70
8
 71
3
 72
8
 73
4
 74
0
 40
0
 40
0
 40
0
 40
0
 40
1
 40
1
 40
1
 40
1
 10
39.917211
 20
11.869184
 30
0.0
 10
39.468962
 20
10.133217
 30
0.0
 10
39.803822
 20
8.265296
 30
0.0
 10
39.718284
 20
6.431855
 30
0.0
  0
SPLINE
  5
188
100
AcDbEntity
  8
0
 62
7
100
AcDbSpline
 70
8
 71
3
 72
8
 73
4
 74
0
 40
0
 40
0
 40
0
 40
0
 40
1
 40
1
 40
1
 40
1
 10
39.718284
 20
6.431855
 30
0.0
 10
39.632745
 20
4.598414
 30
0.0
 10
39.782603
 20
2.640312
 30
0.0
 10
39.718284
 20
0.795598
 30
0.0
  0
SPLINE
  5
189
100
AcDbEntity
  8
0
 62
7
100
AcDbSpline
 70
8
 71
3
 72
8
 73
4
 74
0
 40
0
 40
0
 40
0
 40
0
 40
1
 40
1
 40
1
 40
1
 10
39.718284
 20
0.795598
 30
0.0
 10
39.009442
 20
0.769738
 30
0.0
 10
38.158698
 20
0.830079
 30
0.0
 10
37.463781
 20
0.795598
 30
0.0
  0
SPLINE
  5
18a
100
AcDbEntity
  8
0
 62
7
100
AcDbSpline
 70
8
 71
3
 72
8
 73
4
 74
0
 40
0
 40
0
 40
0
 40
0
 40
1
 40
1
 40
1
 40
1
 10
37.463781
 20
0.795598
 30
0.0
 10
36.768864
 20
0.761117
 30
0.0
 10
36.238393
 20
0.713375
 30
0.0
 10
35.474514
 20
0.729289
 30
0.0
  0
SPLINE
  5
18b
100
AcDbEntity
  8
0
 62
7
100
AcDbSpline
 70
8
 71
3
 72
8
 73
4
 74
0
 40
0
 40
0
 40
0
 40
0
 40
1
 40
1
 40
1
 40
1
 10
35.474514
 20
0.729289
 30
0.0
 10
34.710636
 20
0.745203
 30
0.0
 10
33.922886
 20
0.721995
 30
0.0
 10
33.153703
 20
0.729289
 30
0.0
  0
SPLINE
  5
18c
100
AcDbEntity
  8
0
 62
7
100
AcDbSpline
 70
8
 71
3
 72
8
 73
4
 74
0
 40
0
 40
0
 40
0
 40
0
 40
1
 40
1
 40
1
 40
1
 10
33.153703
 20
0.729289
 30
0.0
 10
32.384519
 20
0.736583
 30
0.0
 10
31.604727
 20
0.725311
 30
0.0
 10
30.832891
 20
0.729289
 30
0.0
  0
SPLINE
  5
18d
100
AcDbEntity
  8
0
 62
7
100
AcDbSpline
 70
8
 71
3
 72
8
 73
4
 74
0
 40
0
 40
0
 40
0
 40
0
 40
1
 40
1
 40
1
 40
1
 10
30.832891
 20
0.729289
 30
0.0
 10
30.061056
 20
0.733268
 30
0.0
 10
29.284578
 20
0.725974
 30
0.0
 10
28.512080
 20
0.729289
 30
0.0
  0
SPLINE
  5
18e
100
AcDbEntity
  8
0
 62
7
100
AcDbSpline
 70
8
 71
3
 72
8
 73
4
 74
0
 40
0
 40
0
 40
0
 40
0
 40
1
 40
1
 40
1
 40
1
 10
28.512080
 20
0.729289
 30
0.0
 10
27.739581
 20
0.732605
 30
0.0
 10
26.964430
 20
0.725311
 30
0.0
 10
26.191268
 20
0.729289
 30
0.0
  0
SPLINE
  5
18f
100
AcDbEntity
  8
0
 62
7
100
AcDbSpline
 70
8
 71
3
 72
8
 73
4
 74
0
 40
0
 40
0
 40
0
 40
0
 40
1
 40
1
 40
1
 40
1
 10
26.191268
 20
0.729289
 30
0.0
 10
25.418106
 20
0.733268
 30
0.0
 10
24.643618
 20
0.721332
 30
0.0
 10
23.870457
 20
0.729289
 30
0.0
  0
SPLINE
  5
190
100
AcDbEntity
  8
0
 62
7
100
AcDbSpline
 70
8
 71
3
 72
8
 73
4
 74
0
 40
0
 40
0
 40
0
 40
0
 40
1
 40
1
 40
1
 40
1
 10
23.870457
 20
0.729289
 30
0.0
 10
23.097295
 20
0.737246
 30
0.0
 10
22.322807
 20
0.712049
 30
0.0
 10
21.549645
 20
0.729289
 30
0.0
  0
SPLINE
  5
191
100
AcDbEntity
  8
0
 62
7
100
AcDbSpline
 70
8
 71
3
 72
8
 73
4
 74
0
 40
0
 40
0
 40
0
 40
0
 40
1
 40
1
 40
1
 40
1
 10
21.549645
 20
0.729289
 30
0.0
 10
20.776483
 20
0.746530
 30
0.0
 10
20.049738
 20
0.719343
 30
0.0
 10
19.295143
 20
0.662980
 30
0.0
  0
SPLINE
  5
192
100
AcDbEntity
  8
0
 62
7
100
AcDbSpline
 70
8
 71
3
 72
8
 73
4
 74
0
 40
0
 40
0
 40
0
 40
0
 40
1
 40
1
 40
1
 40
1
 10
19.295143
 20
0.662980
 30
0.0
 10
18.540547
 20
0.607281
 30
0.0
 10
17.738873
 20
0.686188
 30
0.0
 10
16.974331
 20
0.662980
 30
0.0
  0
SPLINE
  5
193
100
AcDbEntity
  8
0
 62
7
100
AcDbSpline
 70
8
 71
3
 72
8
 73
4
 74
0
 40
0
 40
0
 40
0
 40
0
 40
1
 40
1
 40
1
 40
1
 10
16.974331
 20
0.662980
 30
0.0
 10
16.209789
 20
0.639772
 30
0.0
 10
15.421377
 20
0.669611
 30
0.0
 10
14.653520
 20
0.662980
 30
0.0
  0
SPLINE
  5
194
100
AcDbEntity
  8
0
 62
7
100
AcDbSpline
 70
8
 71
3
 72
8
 73
4
 74
0
 40
0
 40
0
 40
0
 40
0
 40
1
 40
1
 40
1
 40
1
 10
14.653520
 20
0.662980
 30
0.0
 10
13.885663
 20
0.656349
 30
0.0
 10
13.100565
 20
0.657012
 30
0.0
 10
12.332708
 20
0.662980
 30
0.0
  0
SPLINE
  5
195
100
AcDbEntity
  8
0
 62
7
100
AcDbSpline
 70
8
 71
3
 72
8
 73
4
 74
0
 40
0
 40
0
 40
0
 40
0
 40
1
 40
1
 40
1
 40
1
 10
12.332708
 20
0.662980
 30
0.0
 10
11.564851
 20
0.668285
 30
0.0
 10
10.776438
 20
0.641098
 30
0.0
 10
10.011897
 20
0.662980
 30
0.0
  0
SPLINE
  5
196
100
AcDbEntity
  8
0
 62
7
100
AcDbSpline
 70
8
 71
3
 72
8
 73
4
 74
0
 40
0
 40
0
 40
0
 40
0
 40
1
 40
1
 40
1
 40
1
 10
10.011897
 20
0.662980
 30
0.0
 10
9.247355
 20
0.684862
 30
0.0
 10
8.514642
 20
0.560202
 30
0.0
 10
7.757394
 20
0.596671
 30
0.0
  0
SPLINE
  5
197
100
AcDbEntity
  8
0
 62
7
100
AcDbSpline
 70
8
 71
3
 72
8
 73
4
 74
0
 40
0
 40
0
 40
0
 40
0
 40
1
 40
1
 40
1
 40
1
 10
7.757394
 20
0.596671
 30
0.0
 10
7.000146
 20
0.633141
 30
0.0
 10
6.176590
 20
0.535004
 30
0.0
 10
5.436583
 20
0.596671
 30
0.0
  0
SPLINE
  5
198
100
AcDbEntity
  8
0
 62
7
100
AcDbSpline
 70
8
 71
3
 72
8
 73
4
 74
0
 40
0
 40
0
 40
0
 40
0
 40
1
 40
1
 40
1
 40
1
 10
5.436583
 20
0.596671
 30
0.0
 10
4.696575
 20
0.658339
 30
0.0
 10
3.816656
 20
0.469358
 30
0.0
 10
3.115771
 20
0.596671
 30
0.0
  0
SPLINE
  5
199
100
AcDbEntity
  8
0
 62
7
100
AcDbSpline
 70
8
 71
3
 72
8
 73
4
 74
0
 40
0
 40
0
 40
0
 40
0
 40
1
 40
1
 40
1
 40
1
 10
3.115771
 20
0.596671
 30
0.0
 10
2.414886
 20
0.723984
 30
0.0
 10
2.887005
 20
1.938100
 30
0.0
 10
2.784227
 20
2.585938
 30
0.0
  0
SPLINE
  5
19a
100
AcDbEntity
  8
0
 62
7
100
AcDbSpline
 70
8
 71
3
 72
8
 73
4
 74
0
 40
0
 40
0
 40
0
 40
0
 40
1
 40
1
 40
1
 40
1
 10
2.784227
 20
2.585938
 30
0.0
 10
2.681448
 20
3.233776
 30
0.0
 10
2.836611
 20
4.193929
 30
0.0
 10
2.784227
 20
4.906750
 30
0.0
  0
SPLINE
  5
19b
100
AcDbEntity
  8
0
 62
7
100
AcDbSpline
 70
8
 71
3
 72
8
 73
4
 74
0
 40
0
 40
0
 40
0
 40
0
 40
1
 40
1
 40
1
 40
1
 10
2.784227
 20
4.906750
 30
0.0
 10
2.731842
 20
5.619571
 30
0.0
 10
2.820033
 20
6.490206
 30
0.0
 10
2.784227
 20
7.227561
 30
0.0
  0
SPLINE
  5
19c
100
AcDbEntity
  8
0
 62
7
100
AcDbSpline
 70
8
 71
3
 72
8
 73
4
 74
0
 40
0
 40
0
 40
0
 40
0
 40
1
 40
1
 40
1
 40
1
 10
2.784227
 20
7.227561
 30
0.0
 10
2.748420
 20
7.964916
 30
0.0
 10
2.827990
 20
8.810355
 30
0.0
 10
2.784227
 20
9.548373
 30
0.0
  0
SPLINE
  5
19d
100
AcDbEntity
  8
0
 62
7
100
AcDbSpline
 70
8
 71
3
 72
8
 73
4
 74
0
 40
0
 40
0
 40
0
 40
0
 40
1
 40
1
 40
1
 40
1
 10
2.784227
 20
9.548373
 30
0.0
 10
2.740463
 20
10.286391
 30
0.0
 10
2.865123
 20
11.155038
 30
0.0
 10
2.784227
 20
11.869184
 30
0.0
  0
SPLINE
  5
19e
100
AcDbEntity
  8
0
 62
7
100
AcDbSpline
 70
8
 71
3
 72
8
 73
4
 74
0
 40
0
 40
0
 40
0
 40
0
 40
1
 40
1
 40
1
 40
1
 10
2.784227
 20
11.869184
 30
0.0
 10
2.703330
 20
12.583331
 30
0.0
 10
2.844568
 20
13.232495
 30
0.0
 10
2.916181
 20
13.925423
 30
0.0
  0
SPLINE
  5
19f
100
AcDbEntity
  8
0
 62
7
100
AcDbSpline
 70
8
 71
3
 72
8
 73
4
 74
0
 40
0
 40
0
 40
0
 40
0
 40
1
 40
1
 40
1
 40
1
 10
2.916181
 20
13.925423
 30
0.0
 10
2.987795
 20
14.618351
 30
0.0
 10
3.063387
 20
15.308627
 30
0.0
 10
3.203962
 20
15.958454
 30
0.0
  0
SPLINE
  5
1a0
100
AcDbEntity
  8
0
 62
7
100
AcDbSpline
 70
8
 71
3
 72
8
 73
4
 74
0
 40
0
 40
0
 40
0
 40
0
 40
1
 40
1
 40
1
 40
1
 10
3.203962
 20
15.958454
 30
0.0
 10
3.344537
 20
16.608281
 30
0.0
 10
3.514287
 20
17.175223
 30
0.0
 10
3.697300
 20
17.785928
 30
0.0
  0
SPLINE
  5
1a1
100
AcDbEntity
  8
0
 62
7
100
AcDbSpline
 70
8
 71
3
 72
8
 73
4
 74
0
 40
0
 40
0
 40
0
 40
0
 40
1
 40
1
 40
1
 40
1
 10
3.697300
 20
17.785928
 30
0.0
 10
3.880976
 20
18.396633
 30
0.0
 10
4.037465
 20
18.939039
 30
0.0
 10
4.294743
 20
19.509296
 30
0.0
  0
SPLINE
  5
1a2
100
AcDbEntity
  8
0
 62
7
100
AcDbSpline
 70
8
 71
3
 72
8
 73
4
 74
0
 40
0
 40
0
 40
0
 40
0
 40
1
 40
1
 40
1
 40
1
 10
4.294743
 20
19.509296
 30
0.0
 10
4.552022
 20
20.080215
 30
0.0
 10
4.709837
 20
20.535095
 30
0.0
 10
5.059948
 20
21.064903
 30
0.0
  0
SPLINE
  5
1a3
100
AcDbEntity
  8
0
 62
7
100
AcDbSpline
 70
8
 71
3
 72
8
 73
4
 74
0
 40
0
 40
0
 40
0
 40
0
 40
1
 40
1
 40
1
 40
1
 10
5.059948
 20
21.064903
 30
0.0
 10
5.410059
 20
21.594711
 30
0.0
 10
5.441224
 20
22.277692
 30
0.0
 10
5.502891
 20
22.942771
 30
0.0
  0
SPLINE
  5
1a4
100
AcDbEntity
  8
0
 62
7
100
AcDbSpline
 70
8
 71
3
 72
8
 73
4
 74
0
 40
0
 40
0
 40
0
 40
0
 40
1
 40
1
 40
1
 40
1
 10
5.502891
 20
22.942771
 30
0.0
 10
5.564559
 20
23.607849
 30
0.0
 10
5.744919
 20
24.247067
 30
0.0
 10
5.833773
 20
24.932701
 30
0.0
  0
SPLINE
  5
1a5
100
AcDbEntity
  8
0
 62
7
100
AcDbSpline
 70
8
 71
3
 72
8
 73
4
 74
0
 40
0
 40
0
 40
0
 40
0
 40
1
 40
1
 40
1
 40
1
 10
5.833773
 20
24.932701
 30
0.0
 10
5.922627
 20
25.618335
 30
0.0
 10
5.886157
 20
26.412715
 30
0.0
 10
5.965728
 20
27.121558
 30
0.0
  0
SPLINE
  5
1a6
100
AcDbEntity
  8
0
 62
7
100
AcDbSpline
 70
8
 71
3
 72
8
 73
4
 74
0
 40
0
 40
0
 40
0
 40
0
 40
1
 40
1
 40
1
 40
1
 10
5.965728
 20
27.121558
 30
0.0
 10
6.044635
 20
27.831063
 30
0.0
 10
5.982305
 20
28.612182
 30
0.0
 10
6.085084
 20
29.323013
 30
0.0
  0
SPLINE
  5
1a7
100
AcDbEntity
  8
0
 62
7
100
AcDbSpline
 70
8
 71
3
 72
8
 73
4
 74
0
 40
0
 40
0
 40
0
 40
0
 40
1
 40
1
 40
1
 40
1
 10
6.085084
 20
29.323013
 30
0.0
 10
6.187862
 20
30.033844
 30
0.0
 10
6.032036
 20
30.808332
 30
0.0
 10
5.967054
 20
31.496619
 30
0.0
  0
SPLINE
  5
1a8
100
AcDbEntity
  8
0
 62
7
100
AcDbSpline
 70
8
 71
3
 72
8
 73
4
 74
0
 40
0
 40
0
 40
0
 40
0
 40
1
 40
1
 40
1
 40
1
 10
5.967054
 20
31.496619
 30
0.0
 10
5.773432
 20
31.170379
 30
0.0
 10
6.028721
 20
30.624657
 30
0.0
 10
5.834436
 20
30.303059
 30
0.0
  0
SPLINE
  5
1a9
100
AcDbEntity
  8
0
 62
7
100
AcDbSpline
 70
8
 71
3
 72
8
 73
4
 74
0
 40
0
 40
0
 40
0
 40
0
 40
1
 40
1
 40
1
 40
1
 10
5.834436
 20
30.303059
 30
0.0
 10
4.341823
 20
32.759803
 30
0.0
 10
5.105038
 20
35.977774
 30
0.0
 10
6.431216
 20
38.326436
 30
0.0
  0
SPLINE
  5
1aa
100
AcDbEntity
  8
0
 62
7
100
AcDbSpline
 70
8
 71
3
 72
8
 73
4
 74
0
 40
0
 40
0
 40
0
 40
0
 40
1
 40
1
 40
1
 40
1
 10
6.431216
 20
38.326436
 30
0.0
 10
6.061875
 20
38.598302
 30
0.0
 10
5.606996
 20
38.992840
 30
0.0
 10
5.635509
 20
39.519996
 30
0.0
  0
SPLINE
  5
1ab
100
AcDbEntity
  8
0
 62
7
100
AcDbSpline
 70
8
 71
3
 72
8
 73
4
 74
0
 40
0
 40
0
 40
0
 40
0
 40
1
 40
1
 40
1
 40
1
 10
5.635509
 20
39.519996
 30
0.0
 10
4.778135
 20
39.003449
 30
0.0
 10
3.436043
 20
39.486178
 30
0.0
 10
3.579933
 20
40.580938
 30
0.0
  0
SPLINE
  5
1ac
100
AcDbEntity
  8
0
 62
7
100
AcDbSpline
 70
8
 71
3
 72
8
 73
4
 74
0
 40
0
 40
0
 40
0
 40
0
 40
1
 40
1
 40
1
 40
1
 10
3.579933
 20
40.580938
 30
0.0
 10
3.723824
 20
41.675698
 30
0.0
 10
3.784165
 20
42.499918
 30
0.0
 10
4.176713
 20
43.498530
 30
0.0
  0
SPLINE
  5
1ad
100
AcDbEntity
  8
0
 62
7
100
AcDbSpline
 70
8
 71
3
 72
8
 73
4
 74
0
 40
0
 40
0
 40
0
 40
0
 40
1
 40
1
 40
1
 40
1
 10
4.176713
 20
43.498530
 30
0.0
 10
3.824613
 20
43.361933
 30
0.0
 10
3.405541
 20
43.423601
 30
0.0
 10
3.049462
 20
43.299603
 30
0.0
  0
SPLINE
  5
1ae
100
AcDbEntity
  8
0
 62
7
100
AcDbSpline
 70
8
 71
3
 72
8
 73
4
 74
0
 40
0
 40
0
 40
0
 40
0
 40
1
 40
1
 40
1
 40
1
 10
3.049462
 20
43.299603
 30
0.0
 10
2.693383
 20
43.176268
 30
0.0
 10
2.197393
 20
43.456755
 30
0.0
 10
2.121138
 20
42.968058
 30
0.0
  0
SPLINE
  5
1af
100
AcDbEntity
  8
0
 62
7
100
AcDbSpline
 70
8
 71
3
 72
8
 73
4
 74
0
 40
0
 40
0
 40
0
 40
0
 40
1
 40
1
 40
1
 40
1
 10
2.121138
 20
42.968058
 30
0.0
 10
1.416274
 20
43.517096
 30
0.0
 10
1.724610
 20
44.705352
 30
0.0
 10
1.656975
 20
45.554106
 30
0.0
  0
SPLINE
  5
1b0
100
AcDbEntity
  8
0
 62
7
100
AcDbSpline
 70
8
 71
3
 72
8
 73
4
 74
0
 40
0
 40
0
 40
0
 40
0
 40
1
 40
1
 40
1
 40
1
 10
1.656975
 20
45.554106
 30
0.0
 10
1.589340
 20
46.402860
 30
0.0
 10
1.959344
 20
47.276811
 30
0.0
 10
2.239167
 20
48.022123
 30
0.0
  0
SPLINE
  5
1b1
100
AcDbEntity
  8
0
 62
7
100
AcDbSpline
 70
8
 71
3
 72
8
 73
4
 74
0
 40
0
 40
0
 40
0
 40
0
 40
1
 40
1
 40
1
 40
1
 10
2.239167
 20
48.022123
 30
0.0
 10
2.518991
 20
48.768098
 30
0.0
 10
2.881701
 20
49.397369
 30
0.0
 10
3.314698
 20
50.063111
 30
0.0
  0
SPLINE
  5
1b2
100
AcDbEntity
  8
0
 62
7
100
AcDbSpline
 70
8
 71
3
 72
8
 73
4
 74
0
 40
0
 40
0
 40
0
 40
0
 40
1
 40
1
 40
1
 40
1
 10
3.314698
 20
50.063111
 30
0.0
 10
2.379742
 20
49.789918
 30
0.0
 10
1.538282
 20
49.226956
 30
0.0
 10
0.662342
 20
48.869551
 30
0.0
  0
SPLINE
  5
1b3
100
AcDbEntity
  8
0
 62
7
100
AcDbSpline
 70
8
 71
3
 72
8
 73
4
 74
0
 40
0
 40
0
 40
0
 40
0
 40
1
 40
1
 40
1
 40
1
 10
0.662342
 20
48.869551
 30
0.0
 10
0.927577
 20
50.421842
 30
0.0
 10
2.536231
 20
51.154555
 30
0.0
 10
3.579933
 20
52.118687
 30
0.0
  0
SPLINE
  5
1b4
100
AcDbEntity
  8
0
 62
7
100
AcDbSpline
 70
8
 71
3
 72
8
 73
4
 74
0
 40
0
 40
0
 40
0
 40
0
 40
1
 40
1
 40
1
 40
1
 10
3.579933
 20
52.118687
 30
0.0
 10
3.428086
 20
52.214172
 30
0.0
 10
3.386974
 20
52.417077
 30
0.0
 10
3.182080
 20
52.450231
 30
0.0
  0
SPLINE
  5
1b5
100
AcDbEntity
  8
0
 62
7
100
AcDbSpline
 70
8
 71
3
 72
8
 73
4
 74
0
 40
0
 40
0
 40
0
 40
0
 40
1
 40
1
 40
1
 40
1
 10
3.182080
 20
52.450231
 30
0.0
 10
3.371723
 20
52.901795
 30
0.0
 10
3.614414
 20
53.265168
 30
0.0
 10
4.115046
 20
53.373914
 30
0.0
  0
SPLINE
  5
1b6
100
AcDbEntity
  8
0
 62
7
100
AcDbSpline
 70
8
 71
3
 72
8
 73
4
 74
0
 40
0
 40
0
 40
0
 40
0
 40
1
 40
1
 40
1
 40
1
 10
4.115046
 20
53.373914
 30
0.0
 10
4.616341
 20
53.481998
 30
0.0
 10
4.695249
 20
54.139119
 30
0.0
 10
5.105038
 20
54.306880
 30
0.0
  0
SPLINE
  5
1b7
100
AcDbEntity
  8
0
 62
7
100
AcDbSpline
 70
8
 71
3
 72
8
 73
4
 74
0
 40
0
 40
0
 40
0
 40
0
 40
1
 40
1
 40
1
 40
1
 10
5.105038
 20
54.306880
 30
0.0
 10
5.095755
 20
54.418279
 30
0.0
 10
5.112995
 20
54.432204
 30
0.0
 10
5.038729
 20
54.505807
 30
0.0
  0
SPLINE
  5
1b8
100
AcDbEntity
  8
0
 62
7
100
AcDbSpline
 70
8
 71
3
 72
8
 73
4
 74
0
 40
0
 40
0
 40
0
 40
0
 40
1
 40
1
 40
1
 40
1
 10
5.038729
 20
54.505807
 30
0.0
 10
4.760895
 20
54.674232
 30
0.0
 10
3.979113
 20
54.285662
 30
0.0
 10
3.778860
 20
54.572116
 30
0.0
  0
SPLINE
  5
1b9
100
AcDbEntity
  8
0
 62
7
100
AcDbSpline
 70
8
 71
3
 72
8
 73
4
 74
0
 40
0
 40
0
 40
0
 40
0
 40
1
 40
1
 40
1
 40
1
 10
3.778860
 20
54.572116
 30
0.0
 10
3.571313
 20
54.868517
 30
0.0
 10
3.934686
 20
55.565423
 30
0.0
 10
3.778860
 20
55.898294
 30
0.0
  0
SPLINE
  5
1ba
100
AcDbEntity
  8
0
 62
7
100
AcDbSpline
 70
8
 71
3
 72
8
 73
4
 74
0
 40
0
 40
0
 40
0
 40
0
 40
1
 40
1
 40
1
 40
1
 10
3.778860
 20
55.898294
 30
0.0
 10
3.325970
 20
55.942058
 30
0.0
 10
2.784890
 20
55.810766
 30
0.0
 10
2.386373
 20
55.964603
 30
0.0
  0
SPLINE
  5
1bb
100
AcDbEntity
  8
0
 62
7
100
AcDbSpline
 70
8
 71
3
 72
8
 73
4
 74
0
 40
0
 40
0
 40
0
 40
0
 40
1
 40
1
 40
1
 40
1
 10
2.386373
 20
55.964603
 30
0.0
 10
2.188773
 20
56.246416
 30
0.0
 10
2.534242
 20
56.908179
 30
0.0
 10
2.386373
 20
57.224472
 30
0.0
  0
LWPOLYLINE
  5
1bc
100
AcDbEntity
  8
0
 62
7
100
AcDbPolyline
 90
2
 70
0
 10
40.182446
 20
55.898294
 30
0.0
 10
40.182446
 20
54.572116
 30
0.0
  0
SPLINE
  5
1bd
100
AcDbEntity
  8
0
 62
7
100
AcDbSpline
 70
8
 71
3
 72
8
 73
4
 74
0
 40
0
 40
0
 40
0
 40
0
 40
1
 40
1
 40
1
 40
1
 10
1.060195
 20
57.224472
 30
0.0
 10
1.147060
 20
58.109696
 30
0.0
 10
0.885803
 20
59.163344
 30
0.0
 10
1.192813
 20
59.943137
 30
0.0
  0
SPLINE
  5
1be
100
AcDbEntity
  8
0
 62
7
100
AcDbSpline
 70
8
 71
3
 72
8
 73
4
 74
0
 40
0
 40
0
 40
0
 40
0
 40
1
 40
1
 40
1
 40
1
 10
1.192813
 20
59.943137
 30
0.0
 10
3.014981
 20
60.108909
 30
0.0
 10
4.931972
 20
59.943137
 30
0.0
 10
6.762761
 20
59.943137
 30
0.0
  0
SPLINE
  5
1bf
100
AcDbEntity
  8
0
 62
7
100
AcDbSpline
 70
8
 71
3
 72
8
 73
4
 74
0
 40
0
 40
0
 40
0
 40
0
 40
1
 40
1
 40
1
 40
1
 10
6.762761
 20
59.943137
 30
0.0
 10
6.322469
 20
60.144716
 30
0.0
 10
6.698441
 20
60.836318
 30
0.0
 10
6.978264
 20
61.053811
 30
0.0
  0
SPLINE
  5
1c0
100
AcDbEntity
  8
0
 62
7
100
AcDbSpline
 70
8
 71
3
 72
8
 73
4
 74
0
 40
0
 40
0
 40
0
 40
0
 40
1
 40
1
 40
1
 40
1
 10
6.978264
 20
61.053811
 30
0.0
 10
7.257425
 20
61.271967
 30
0.0
 10
7.559130
 20
61.746076
 30
0.0
 10
7.823703
 20
61.998713
 30
0.0
  0
SPLINE
  5
1c1
100
AcDbEntity
  8
0
 62
7
100
AcDbSpline
 70
8
 71
3
 72
8
 73
4
 74
0
 40
0
 40
0
 40
0
 40
0
 40
1
 40
1
 40
1
 40
1
 10
7.823703
 20
61.998713
 30
0.0
 10
6.876149
 20
62.342856
 30
0.0
 10
7.752752
 20
63.240015
 30
0.0
 10
7.823703
 20
63.855362
 30
0.0
  0
SPLINE
  5
1c2
100
AcDbEntity
  8
0
 62
7
100
AcDbSpline
 70
8
 71
3
 72
8
 73
4
 74
0
 40
0
 40
0
 40
0
 40
0
 40
1
 40
1
 40
1
 40
1
 10
7.823703
 20
63.855362
 30
0.0
 10
7.169234
 20
63.994611
 30
0.0
 10
5.900745
 20
64.045669
 30
0.0
 10
5.574505
 20
64.788991
 30
0.0
  0
SPLINE
  5
1c3
100
AcDbEntity
  8
0
 62
7
100
AcDbSpline
 70
8
 71
3
 72
8
 73
4
 74
0
 40
0
 40
0
 40
0
 40
0
 40
1
 40
1
 40
1
 40
1
 10
5.574505
 20
64.788991
 30
0.0
 10
5.248265
 20
65.532314
 30
0.0
 10
6.494209
 20
66.112517
 30
0.0
 10
6.630143
 20
66.772954
 30
0.0
  0
SPLINE
  5
1c4
100
AcDbEntity
  8
0
 62
7
100
AcDbSpline
 70
8
 71
3
 72
8
 73
4
 74
0
 40
0
 40
0
 40
0
 40
0
 40
1
 40
1
 40
1
 40
1
 10
6.630143
 20
66.772954
 30
0.0
 10
6.196482
 20
66.923475
 30
0.0
 10
5.730994
 20
66.999730
 30
0.0
 10
5.508196
 20
67.507656
 30
0.0
  0
SPLINE
  5
1c5
100
AcDbEntity
  8
0
 62
7
100
AcDbSpline
 70
8
 71
3
 72
8
 73
4
 74
0
 40
0
 40
0
 40
0
 40
0
 40
1
 40
1
 40
1
 40
1
 10
5.508196
 20
67.507656
 30
0.0
 10
5.285398
 20
68.016245
 30
0.0
 10
6.142772
 20
68.185333
 30
0.0
 10
6.497525
 20
68.298058
 30
0.0
  0
SPLINE
  5
1c6
100
AcDbEntity
  8
0
 62
7
100
AcDbSpline
 70
8
 71
3
 72
8
 73
4
 74
0
 40
0
 40
0
 40
0
 40
0
 40
1
 40
1
 40
1
 40
1
 10
6.497525
 20
68.298058
 30
0.0
 10
3.166166
 20
72.001410
 30
0.0
 10
1.262437
 20
76.690113
 30
0.0
 10
1.458049
 20
81.758765
 30
0.0
  0
SPLINE
  5
1c7
100
AcDbEntity
  8
0
 62
7
100
AcDbSpline
 70
8
 71
3
 72
8
 73
4
 74
0
 40
0
 40
0
 40
0
 40
0
 40
1
 40
1
 40
1
 40
1
 10
1.458049
 20
81.758765
 30
0.0
 10
1.458049
 20
82.051187
 30
0.0
 10
1.501149
 20
82.378090
 30
0.0
 10
1.524357
 20
82.620781
 30
0.0
  0
SPLINE
  5
1c8
100
AcDbEntity
  8
0
 62
7
100
AcDbSpline
 70
8
 71
3
 72
8
 73
4
 74
0
 40
0
 40
0
 40
0
 40
0
 40
1
 40
1
 40
1
 40
1
 10
1.524357
 20
82.620781
 30
0.0
 10
1.524357
 20
83.538496
 30
0.0
 10
1.722621
 20
84.505943
 30
0.0
 10
1.789593
 20
85.405755
 30
0.0
  0
SPLINE
  5
1c9
100
AcDbEntity
  8
0
 62
7
100
AcDbSpline
 70
8
 71
3
 72
8
 73
4
 74
0
 40
0
 40
0
 40
0
 40
0
 40
1
 40
1
 40
1
 40
1
 10
1.789593
 20
85.405755
 30
0.0
 10
1.856565
 20
86.305566
 30
0.0
 10
1.967301
 20
87.266382
 30
0.0
 10
2.120474
 20
88.125082
 30
0.0
  0
SPLINE
  5
1ca
100
AcDbEntity
  8
0
 62
7
100
AcDbSpline
 70
8
 71
3
 72
8
 73
4
 74
0
 40
0
 40
0
 40
0
 40
0
 40
1
 40
1
 40
1
 40
1
 10
2.120474
 20
88.125082
 30
0.0
 10
2.274311
 20
88.983120
 30
0.0
 10
2.499098
 20
89.761586
 30
0.0
 10
2.717255
 20
90.578512
 30
0.0
  0
SPLINE
  5
1cb
100
AcDbEntity
  8
0
 62
7
100
AcDbSpline
 70
8
 71
3
 72
8
 73
4
 74
0
 40
0
 40
0
 40
0
 40
0
 40
1
 40
1
 40
1
 40
1
 10
2.717255
 20
90.578512
 30
0.0
 10
2.935411
 20
91.394774
 30
0.0
 10
3.389627
 20
91.880819
 30
0.0
 10
3.695974
 20
92.650002
 30
0.0
  0
SPLINE
  5
1cc
100
AcDbEntity
  8
0
 62
7
100
AcDbSpline
 70
8
 71
3
 72
8
 73
4
 74
0
 40
0
 40
0
 40
0
 40
0
 40
1
 40
1
 40
1
 40
1
 10
3.695974
 20
92.650002
 30
0.0
 10
4.002984
 20
93.418522
 30
0.0
 10
4.736361
 20
94.153225
 30
0.0
 10
5.033424
 20
93.224900
 30
0.0
  0
SPLINE
  5
1cd
100
AcDbEntity
  8
0
 62
7
100
AcDbSpline
 70
8
 71
3
 72
8
 73
4
 74
0
 40
0
 40
0
 40
0
 40
0
 40
1
 40
1
 40
1
 40
1
 10
5.033424
 20
93.224900
 30
0.0
 10
5.331151
 20
92.296575
 30
0.0
 10
5.860959
 20
92.127488
 30
0.0
 10
6.215712
 20
91.356978
 30
0.0
  0
SPLINE
  5
1ce
100
AcDbEntity
  8
0
 62
7
100
AcDbSpline
 70
8
 71
3
 72
8
 73
4
 74
0
 40
0
 40
0
 40
0
 40
0
 40
1
 40
1
 40
1
 40
1
 10
6.215712
 20
91.356978
 30
0.0
 10
6.571128
 20
90.587132
 30
0.0
 10
6.932511
 20
90.084510
 30
0.0
 10
7.277981
 20
89.369037
 30
0.0
  0
SPLINE
  5
1cf
100
AcDbEntity
  8
0
 62
7
100
AcDbSpline
 70
8
 71
3
 72
8
 73
4
 74
0
 40
0
 40
0
 40
0
 40
0
 40
1
 40
1
 40
1
 40
1
 10
7.277981
 20
89.369037
 30
0.0
 10
7.624113
 20
88.653564
 30
0.0
 10
8.021303
 20
88.054132
 30
0.0
 10
8.283224
 20
87.324071
 30
0.0
  0
SPLINE
  5
1d0
100
AcDbEntity
  8
0
 62
7
100
AcDbSpline
 70
8
 71
3
 72
8
 73
4
 74
0
 40
0
 40
0
 40
0
 40
0
 40
1
 40
1
 40
1
 40
1
 10
8.283224
 20
87.324071
 30
0.0
 10
8.544481
 20
86.593347
 30
0.0
 10
8.801759
 20
85.883842
 30
0.0
 10
9.355438
 20
85.346076
 30
0.0
  0
SPLINE
  5
1d1
100
AcDbEntity
  8
0
 62
7
100
AcDbSpline
 70
8
 71
3
 72
8
 73
4
 74
0
 40
0
 40
0
 40
0
 40
0
 40
1
 40
1
 40
1
 40
1
 10
9.355438
 20
85.346076
 30
0.0
 10
9.909118
 20
84.808311
 30
0.0
 10
10.314928
 20
84.251317
 30
0.0
 10
10.757872
 20
83.631991
 30
0.0
  0
SPLINE
  5
1d2
100
AcDbEntity
  8
0
 62
7
100
AcDbSpline
 70
8
 71
3
 72
8
 73
4
 74
0
 40
0
 40
0
 40
0
 40
0
 40
1
 40
1
 40
1
 40
1
 10
10.757872
 20
83.631991
 30
0.0
 10
11.200815
 20
83.012666
 30
0.0
 10
11.535675
 20
82.384058
 30
0.0
 10
11.853295
 20
81.677205
 30
0.0
  0
SPLINE
  5
1d3
100
AcDbEntity
  8
0
 62
7
100
AcDbSpline
 70
8
 71
3
 72
8
 73
4
 74
0
 40
0
 40
0
 40
0
 40
0
 40
1
 40
1
 40
1
 40
1
 10
11.853295
 20
81.677205
 30
0.0
 10
12.170914
 20
80.971015
 30
0.0
 10
12.475272
 20
80.254879
 30
0.0
 10
12.715974
 20
79.489674
 30
0.0
  0
SPLINE
  5
1d4
100
AcDbEntity
  8
0
 62
7
100
AcDbSpline
 70
8
 71
3
 72
8
 73
4
 74
0
 40
0
 40
0
 40
0
 40
0
 40
1
 40
1
 40
1
 40
1
 10
12.715974
 20
79.489674
 30
0.0
 10
12.956012
 20
78.723807
 30
0.0
 10
13.214616
 20
77.928763
 30
0.0
 10
13.389009
 20
77.112500
 30
0.0
  0
SPLINE
  5
1d5
100
AcDbEntity
  8
0
 62
7
100
AcDbSpline
 70
8
 71
3
 72
8
 73
4
 74
0
 40
0
 40
0
 40
0
 40
0
 40
1
 40
1
 40
1
 40
1
 10
13.389009
 20
77.112500
 30
0.0
 10
13.563401
 20
76.295575
 30
0.0
 10
13.764317
 20
75.317518
 30
0.0
 10
13.857813
 20
74.464786
 30
0.0
  0
SPLINE
  5
1d6
100
AcDbEntity
  8
0
 62
7
100
AcDbSpline
 70
8
 71
3
 72
8
 73
4
 74
0
 40
0
 40
0
 40
0
 40
0
 40
1
 40
1
 40
1
 40
1
 10
13.857813
 20
74.464786
 30
0.0
 10
15.042090
 20
74.655756
 30
0.0
 10
15.408778
 20
75.752505
 30
0.0
 10
16.591729
 20
76.107257
 30
0.0
  0
SPLINE
  5
1d7
100
AcDbEntity
  8
0
 62
7
100
AcDbSpline
 70
8
 71
3
 72
8
 73
4
 74
0
 40
0
 40
0
 40
0
 40
0
 40
1
 40
1
 40
1
 40
1
 10
16.591729
 20
76.107257
 30
0.0
 10
17.774680
 20
76.462010
 30
0.0
 10
19.233475
 20
76.692765
 30
0.0
 10
20.555012
 20
76.586671
 30
0.0
  0
SPLINE
  5
1d8
100
AcDbEntity
  8
0
 62
7
100
AcDbSpline
 70
8
 71
3
 72
8
 73
4
 74
0
 40
0
 40
0
 40
0
 40
0
 40
1
 40
1
 40
1
 40
1
 10
20.555012
 20
76.586671
 30
0.0
 10
20.112068
 20
76.807479
 30
0.0
 10
19.926403
 20
78.030879
 30
0.0
 10
20.601428
 20
77.888978
 30
0.0
  0
SPLINE
  5
1d9
100
AcDbEntity
  8
0
 62
7
100
AcDbSpline
 70
8
 71
3
 72
8
 73
4
 74
0
 40
0
 40
0
 40
0
 40
0
 40
1
 40
1
 40
1
 40
1
 10
20.601428
 20
77.888978
 30
0.0
 10
21.275789
 20
77.747740
 30
0.0
 10
21.765149
 20
77.514332
 30
0.0
 10
22.412324
 20
77.383041
 30
0.0
  0
SPLINE
  5
1da
100
AcDbEntity
  8
0
 62
7
100
AcDbSpline
 70
8
 71
3
 72
8
 73
4
 74
0
 40
0
 40
0
 40
0
 40
0
 40
1
 40
1
 40
1
 40
1
 10
22.412324
 20
77.383041
 30
0.0
 10
23.059499
 20
77.251749
 30
0.0
 10
23.621798
 20
77.071389
 30
0.0
 10
24.246428
 20
76.896333
 30
0.0
  0
SPLINE
  5
1db
100
AcDbEntity
  8
0
 62
7
100
AcDbSpline
 70
8
 71
3
 72
8
 73
4
 74
0
 40
0
 40
0
 40
0
 40
0
 40
1
 40
1
 40
1
 40
1
 10
24.246428
 20
76.896333
 30
0.0
 10
24.871721
 20
76.721941
 30
0.0
 10
25.477121
 20
76.537602
 30
0.0
 10
26.126285
 20
76.455379
 30
0.0
  0
SPLINE
  5
1dc
100
AcDbEntity
  8
0
 62
7
100
AcDbSpline
 70
8
 71
3
 72
8
 73
4
 74
0
 40
0
 40
0
 40
0
 40
0
 40
1
 40
1
 40
1
 40
1
 10
26.126285
 20
76.455379
 30
0.0
 10
26.776113
 20
76.373156
 30
0.0
 10
27.405384
 20
76.148369
 30
0.0
 10
28.048580
 20
76.056863
 30
0.0
  0
SPLINE
  5
1dd
100
AcDbEntity
  8
0
 62
7
100
AcDbSpline
 70
8
 71
3
 72
8
 73
4
 74
0
 40
0
 40
0
 40
0
 40
0
 40
1
 40
1
 40
1
 40
1
 10
28.048580
 20
76.056863
 30
0.0
 10
28.691777
 20
75.965356
 30
0.0
 10
28.988178
 20
76.224624
 30
0.0
 10
29.578327
 20
75.796269
 30
0.0
  0
SPLINE
  5
1de
100
AcDbEntity
  8
0
 62
7
100
AcDbSpline
 70
8
 71
3
 72
8
 73
4
 74
0
 40
0
 40
0
 40
0
 40
0
 40
1
 40
1
 40
1
 40
1
 10
29.578327
 20
75.796269
 30
0.0
 10
30.168476
 20
75.367913
 30
0.0
 10
30.338890
 20
76.586671
 30
0.0
 10
30.588211
 20
76.963968
 30
0.0
  0
SPLINE
  5
1df
100
AcDbEntity
  8
0
 62
7
100
AcDbSpline
 70
8
 71
3
 72
8
 73
4
 74
0
 40
0
 40
0
 40
0
 40
0
 40
1
 40
1
 40
1
 40
1
 10
30.588211
 20
76.963968
 30
0.0
 10
30.836870
 20
77.341929
 30
0.0
 10
31.159794
 20
78.012975
 30
0.0
 10
31.424367
 20
78.448625
 30
0.0
  0
SPLINE
  5
1e0
100
AcDbEntity
  8
0
 62
7
100
AcDbSpline
 70
8
 71
3
 72
8
 73
4
 74
0
 40
0
 40
0
 40
0
 40
0
 40
1
 40
1
 40
1
 40
1
 10
31.424367
 20
78.448625
 30
0.0
 10
31.688939
 20
78.884274
 30
0.0
 10
32.035735
 20
79.414745
 30
0.0
 10
32.342745
 20
79.851058
 30
0.0
  0
SPLINE
  5
1e1
100
AcDbEntity
  8
0
 62
7
100
AcDbSpline
 70
8
 71
3
 72
8
 73
4
 74
0
 40
0
 40
0
 40
0
 40
0
 40
1
 40
1
 40
1
 40
1
 10
32.342745
 20
79.851058
 30
0.0
 10
32.649755
 20
80.287371
 30
0.0
 10
32.958091
 20
80.774078
 30
0.0
 10
33.336052
 20
81.178562
 30
0.0
  0
SPLINE
  5
1e2
100
AcDbEntity
  8
0
 62
7
100
AcDbSpline
 70
8
 71
3
 72
8
 73
4
 74
0
 40
0
 40
0
 40
0
 40
0
 40
1
 40
1
 40
1
 40
1
 10
33.336052
 20
81.178562
 30
0.0
 10
33.714676
 20
81.582383
 30
0.0
 10
34.028317
 20
82.034610
 30
0.0
 10
34.363840
 20
82.471586
 30
0.0
  0
SPLINE
  5
1e3
100
AcDbEntity
  8
0
 62
7
100
AcDbSpline
 70
8
 71
3
 72
8
 73
4
 74
0
 40
0
 40
0
 40
0
 40
0
 40
1
 40
1
 40
1
 40
1
 10
34.363840
 20
82.471586
 30
0.0
 10
34.699363
 20
82.908561
 30
0.0
 10
34.950674
 20
83.409857
 30
0.0
 10
35.325319
 20
83.830918
 30
0.0
  0
SPLINE
  5
1e4
100
AcDbEntity
  8
0
 62
7
100
AcDbSpline
 70
8
 71
3
 72
8
 73
4
 74
0
 40
0
 40
0
 40
0
 40
0
 40
1
 40
1
 40
1
 40
1
 10
35.325319
 20
83.830918
 30
0.0
 10
35.699964
 20
84.251317
 30
0.0
 10
36.075936
 20
84.650496
 30
0.0
 10
36.321279
 20
85.155770
 30
0.0
  0
SPLINE
  5
1e5
100
AcDbEntity
  8
0
 62
7
100
AcDbSpline
 70
8
 71
3
 72
8
 73
4
 74
0
 40
0
 40
0
 40
0
 40
0
 40
1
 40
1
 40
1
 40
1
 10
36.321279
 20
85.155770
 30
0.0
 10
36.566622
 20
85.661044
 30
0.0
 10
36.835836
 20
86.203451
 30
0.0
 10
37.086484
 20
86.711377
 30
0.0
  0
SPLINE
  5
1e6
100
AcDbEntity
  8
0
 62
7
100
AcDbSpline
 70
8
 71
3
 72
8
 73
4
 74
0
 40
0
 40
0
 40
0
 40
0
 40
1
 40
1
 40
1
 40
1
 10
37.086484
 20
86.711377
 30
0.0
 10
37.336468
 20
87.219966
 30
0.0
 10
37.611650
 20
87.742480
 30
0.0
 10
37.878212
 20
88.240460
 30
0.0
  0
SPLINE
  5
1e7
100
AcDbEntity
  8
0
 62
7
100
AcDbSpline
 70
8
 71
3
 72
8
 73
4
 74
0
 40
0
 40
0
 40
0
 40
0
 40
1
 40
1
 40
1
 40
1
 10
37.878212
 20
88.240460
 30
0.0
 10
38.145437
 20
88.737777
 30
0.0
 10
38.323808
 20
89.361080
 30
0.0
 10
38.585728
 20
89.853756
 30
0.0
  0
SPLINE
  5
1e8
100
AcDbEntity
  8
0
 62
7
100
AcDbSpline
 70
8
 71
3
 72
8
 73
4
 74
0
 40
0
 40
0
 40
0
 40
0
 40
1
 40
1
 40
1
 40
1
 10
38.585728
 20
89.853756
 30
0.0
 10
38.848311
 20
90.345768
 30
0.0
 10
39.003474
 20
91.002889
 30
0.0
 10
39.315126
 20
91.445169
 30
0.0
  0
SPLINE
  5
1e9
100
AcDbEntity
  8
0
 62
7
100
AcDbSpline
 70
8
 71
3
 72
8
 73
4
 74
0
 40
0
 40
0
 40
0
 40
0
 40
1
 40
1
 40
1
 40
1
 10
39.315126
 20
91.445169
 30
0.0
 10
39.627441
 20
91.887449
 30
0.0
 10
39.884719
 20
92.554517
 30
0.0
 10
40.111496
 20
92.969611
 30
0.0
  0
SPLINE
  5
1ea
100
AcDbEntity
  8
0
 62
7
100
AcDbSpline
 70
8
 71
3
 72
8
 73
4
 74
0
 40
0
 40
0
 40
0
 40
0
 40
1
 40
1
 40
1
 40
1
 10
40.111496
 20
92.969611
 30
0.0
 10
40.337609
 20
93.385368
 30
0.0
 10
40.513328
 20
94.320986
 30
0.0
 10
41.112760
 20
94.289158
 30
0.0
  0
SPLINE
  5
1eb
100
AcDbEntity
  8
0
 62
7
100
AcDbSpline
 70
8
 71
3
 72
8
 73
4
 74
0
 40
0
 40
0
 40
0
 40
0
 40
1
 40
1
 40
1
 40
1
 10
41.112760
 20
94.289158
 30
0.0
 10
41.711529
 20
94.257993
 30
0.0
 10
41.596815
 20
93.138035
 30
0.0
 10
41.772534
 20
92.632098
 30
0.0
  0
SPLINE
  5
1ec
100
AcDbEntity
  8
0
 62
7
100
AcDbSpline
 70
8
 71
3
 72
8
 73
4
 74
0
 40
0
 40
0
 40
0
 40
0
 40
1
 40
1
 40
1
 40
1
 10
41.772534
 20
92.632098
 30
0.0
 10
41.947589
 20
92.126162
 30
0.0
 10
42.042411
 20
91.307247
 30
0.0
 10
42.167071
 20
90.705825
 30
0.0
  0
SPLINE
  5
1ed
100
AcDbEntity
  8
0
 62
7
100
AcDbSpline
 70
8
 71
3
 72
8
 73
4
 74
0
 40
0
 40
0
 40
0
 40
0
 40
1
 40
1
 40
1
 40
1
 10
42.167071
 20
90.705825
 30
0.0
 10
42.291069
 20
90.104403
 30
0.0
 10
42.389206
 20
89.320632
 30
0.0
 10
42.436286
 20
88.654228
 30
0.0
  0
SPLINE
  5
1ee
100
AcDbEntity
  8
0
 62
7
100
AcDbSpline
 70
8
 71
3
 72
8
 73
4
 74
0
 40
0
 40
0
 40
0
 40
0
 40
1
 40
1
 40
1
 40
1
 10
42.436286
 20
88.654228
 30
0.0
 10
42.483365
 20
87.987823
 30
0.0
 10
42.524476
 20
87.198084
 30
0.0
 10
42.631234
 20
86.528364
 30
0.0
  0
SPLINE
  5
1ef
100
AcDbEntity
  8
0
 62
7
100
AcDbSpline
 70
8
 71
3
 72
8
 73
4
 74
0
 40
0
 40
0
 40
0
 40
0
 40
1
 40
1
 40
1
 40
1
 10
42.631234
 20
86.528364
 30
0.0
 10
42.737991
 20
85.857981
 30
0.0
 10
42.752579
 20
85.031772
 30
0.0
 10
42.768493
 20
84.344812
 30
0.0
  0
SPLINE
  5
1f0
100
AcDbEntity
  8
0
 62
7
100
AcDbSpline
 70
8
 71
3
 72
8
 73
4
 74
0
 40
0
 40
0
 40
0
 40
0
 40
1
 40
1
 40
1
 40
1
 10
42.768493
 20
84.344812
 30
0.0
 10
42.784407
 20
83.657852
 30
0.0
 10
42.684944
 20
82.839600
 30
0.0
 10
42.635875
 20
82.156618
 30
0.0
  0
SPLINE
  5
1f1
100
AcDbEntity
  8
0
 62
7
100
AcDbSpline
 70
8
 71
3
 72
8
 73
4
 74
0
 40
0
 40
0
 40
0
 40
0
 40
1
 40
1
 40
1
 40
1
 10
42.635875
 20
82.156618
 30
0.0
 10
42.586807
 20
81.473637
 30
0.0
 10
42.381249
 20
80.786013
 30
0.0
 10
42.371303
 20
80.100379
 30
0.0
  0
SPLINE
  5
1f2
100
AcDbEntity
  8
0
 62
7
100
AcDbSpline
 70
8
 71
3
 72
8
 73
4
 74
0
 40
0
 40
0
 40
0
 40
0
 40
1
 40
1
 40
1
 40
1
 10
42.371303
 20
80.100379
 30
0.0
 10
42.361357
 20
79.415408
 30
0.0
 10
42.152484
 20
78.753646
 30
0.0
 10
42.040421
 20
78.110449
 30
0.0
  0
SPLINE
  5
1f3
100
AcDbEntity
  8
0
 62
7
100
AcDbSpline
 70
8
 71
3
 72
8
 73
4
 74
0
 40
0
 40
0
 40
0
 40
0
 40
1
 40
1
 40
1
 40
1
 10
42.040421
 20
78.110449
 30
0.0
 10
41.929023
 20
77.467253
 30
0.0
 10
41.739379
 20
76.900312
 30
0.0
 10
41.523212
 20
76.306847
 30
0.0
  0
SPLINE
  5
1f4
100
AcDbEntity
  8
0
 62
7
100
AcDbSpline
 70
8
 71
3
 72
8
 73
4
 74
0
 40
0
 40
0
 40
0
 40
0
 40
1
 40
1
 40
1
 40
1
 10
41.523212
 20
76.306847
 30
0.0
 10
41.307708
 20
75.712719
 30
0.0
 10
41.376006
 20
74.958124
 30
0.0
 10
41.112097
 20
74.397151
 30
0.0
  0
SPLINE
  5
1f5
100
AcDbEntity
  8
0
 62
7
100
AcDbSpline
 70
8
 71
3
 72
8
 73
4
 74
0
 40
0
 40
0
 40
0
 40
0
 40
1
 40
1
 40
1
 40
1
 10
41.112097
 20
74.397151
 30
0.0
 10
40.848851
 20
73.836178
 30
0.0
 10
40.697666
 20
73.285151
 30
0.0
 10
40.430441
 20
72.757995
 30
0.0
  0
SPLINE
  5
1f6
100
AcDbEntity
  8
0
 62
7
100
AcDbSpline
 70
8
 71
3
 72
8
 73
4
 74
0
 40
0
 40
0
 40
0
 40
0
 40
1
 40
1
 40
1
 40
1
 10
40.430441
 20
72.757995
 30
0.0
 10
40.163880
 20
72.230176
 30
0.0
 10
39.953680
 20
71.705673
 30
0.0
 10
39.657280
 20
71.210345
 30
0.0
  0
SPLINE
  5
1f7
100
AcDbEntity
  8
0
 62
7
100
AcDbSpline
 70
8
 71
3
 72
8
 73
4
 74
0
 40
0
 40
0
 40
0
 40
0
 40
1
 40
1
 40
1
 40
1
 10
39.657280
 20
71.210345
 30
0.0
 10
39.360216
 20
70.715681
 30
0.0
 10
39.097632
 20
70.237594
 30
0.0
 10
38.773382
 20
69.773431
 30
0.0
  0
SPLINE
  5
1f8
100
AcDbEntity
  8
0
 62
7
100
AcDbSpline
 70
8
 71
3
 72
8
 73
4
 74
0
 40
0
 40
0
 40
0
 40
0
 40
1
 40
1
 40
1
 40
1
 10
38.773382
 20
69.773431
 30
0.0
 10
38.448468
 20
69.309932
 30
0.0
 10
38.307893
 20
68.718457
 30
0.0
 10
37.795326
 20
68.430676
 30
0.0
  0
SPLINE
  5
1f9
100
AcDbEntity
  8
0
 62
7
100
AcDbSpline
 70
8
 71
3
 72
8
 73
4
 74
0
 40
0
 40
0
 40
0
 40
0
 40
1
 40
1
 40
1
 40
1
 10
37.795326
 20
68.430676
 30
0.0
 10
37.371612
 20
67.214571
 30
0.0
 10
37.547994
 20
66.015706
 30
0.0
 10
37.662708
 20
64.717378
 30
0.0
  0
SPLINE
  5
1fa
100
AcDbEntity
  8
0
 62
7
100
AcDbSpline
 70
8
 71
3
 72
8
 73
4
 74
0
 40
0
 40
0
 40
0
 40
0
 40
1
 40
1
 40
1
 40
1
 10
37.662708
 20
64.717378
 30
0.0
 10
37.777422
 20
63.419049
 30
0.0
 10
37.792673
 20
62.018605
 30
0.0
 10
37.994252
 20
60.738844
 30
0.0
  0
SPLINE
  5
1fb
100
AcDbEntity
  8
0
 62
7
100
AcDbSpline
 70
8
 71
3
 72
8
 73
4
 74
0
 40
0
 40
0
 40
0
 40
0
 40
1
 40
1
 40
1
 40
1
 10
37.994252
 20
60.738844
 30
0.0
 10
38.215724
 20
60.717625
 30
0.0
 10
38.462393
 20
60.794543
 30
0.0
 10
38.657341
 20
60.672535
 30
0.0
  0
SPLINE
  5
1fc
100
AcDbEntity
  8
0
 62
7
100
AcDbSpline
 70
8
 71
3
 72
8
 73
4
 74
0
 40
0
 40
0
 40
0
 40
0
 40
1
 40
1
 40
1
 40
1
 10
38.657341
 20
60.672535
 30
0.0
 10
38.518093
 20
60.534612
 30
0.0
 10
38.249542
 20
60.639380
 30
0.0
 10
38.060561
 20
60.606226
 30
0.0
  0
SPLINE
  5
1fd
100
AcDbEntity
  8
0
 62
7
100
AcDbSpline
 70
8
 71
3
 72
8
 73
4
 74
0
 40
0
 40
0
 40
0
 40
0
 40
1
 40
1
 40
1
 40
1
 10
38.060561
 20
60.606226
 30
0.0
 10
38.069845
 20
60.348284
 30
0.0
 10
38.500852
 20
60.187817
 30
0.0
 10
38.392106
 20
59.943137
 30
0.0
  0
LWPOLYLINE
  5
1fe
100
AcDbEntity
  8
0
 62
7
100
AcDbPolyline
 90
2
 70
0
 10
2.386373
 20
57.224472
 30
0.0
 10
1.060195
 20
57.224472
 30
0.0
  0
LWPOLYLINE
  5
1ff
100
AcDbEntity
  8
0
 62
7
100
AcDbPolyline
 90
1
 70
1
 10
38.392106
 20
59.943137
 30
0.0
  0
ENDSEC
  0
SECTION
  2
OBJECTS
  0
DICTIONARY
  5
C
330
0
100
AcDbDictionary
  3
ACAD_GROUP
350
D
  3
ACAD_MLINESTYLE
350
17
  0
DICTIONARY
  5
D
330
C
100
AcDbDictionary
  0
DICTIONARY
  5
1A
330
C
100
AcDbDictionary
  0
DICTIONARY
  5
17
330
C
100
AcDbDictionary
  3
STANDARD
350
18
  0
DICTIONARY
  5
19
330
C
100
AcDbDictionary
  0
ENDSEC
  0
EOF
