<?xml version="1.0" encoding="UTF-8" standalone="no"?>
<svg
   sodipodi:docname="llama 1.svg"
   id="svg1380"
   version="1.1"
   height="94.955353"
   width="44.980137"
   viewBox="0 0 44.980137 94.955358"
   inkscape:version="1.2.2 (732a01da63, 2022-12-09)"
   xmlns:inkscape="http://www.inkscape.org/namespaces/inkscape"
   xmlns:sodipodi="http://sodipodi.sourceforge.net/DTD/sodipodi-0.dtd"
   xmlns="http://www.w3.org/2000/svg"
   xmlns:svg="http://www.w3.org/2000/svg">
  <defs
     id="defs1384" />
  <sodipodi:namedview
     id="namedview1382"
     pagecolor="#ffffff"
     bordercolor="#000000"
     borderopacity="0.25"
     inkscape:showpageshadow="2"
     inkscape:pageopacity="0.0"
     inkscape:pagecheckerboard="0"
     inkscape:deskcolor="#d1d1d1"
     showgrid="false"
     showguides="true"
     inkscape:zoom="3.4237645"
     inkscape:cx="60.751843"
     inkscape:cy="8.3241708"
     inkscape:window-width="1920"
     inkscape:window-height="1001"
     inkscape:window-x="-9"
     inkscape:window-y="-9"
     inkscape:window-maximized="1"
     inkscape:current-layer="svg1380" />
  <g
     fill="None"
     fill-opacity="0"
     stroke="#000000"
     stroke-opacity="0"
     stroke-width="0.3"
     id="g1102"
     transform="matrix(0.03716643,0,0,0.03716643,-69.41562,-1.978101)">
    <path
       d="M 0,1902 H 1345 V 0 H 0 V 1902 M 926,677 c 8.89,-2.6 10.22,5.06 9,12 8.74,-0.56 16.13,0.74 25,0 8.87,-0.74 15.63,1.42 25,0 9.37,-1.42 17.11,0.63 15,11 -2.11,10.37 1.17,15.63 0,25 -1.17,9.37 1.46,16.28 -1,25 -6.66,0 -13.34,0 -20,0 0.25,6.44 -0.33,10.3 0,17 0.33,6.7 -9.66,2.31 -13,5 11.9,-2.18 21.81,5.89 20,17 -1.81,11.11 9.83,14.33 14.3,22.7 4.47,8.36 10.27,13.93 13.63,23.37 3.35,9.45 6.42,21.31 6.4,31.6 -0.02,10.29 3.44,24.87 -2.25,33.41 -5.69,8.54 -11.38,12.38 -14.85,22.15 -3.47,9.77 -0.01,23.9 -1.23,34.77 -1.22,10.87 -7.02,15.76 -17.08,19.92 -10.06,4.16 -15.45,10.69 -13.92,21.08 1.53,10.39 3.2,27.28 -6.23,31.77 -9.43,4.49 -18.51,3.5 -22.69,14.31 -4.18,10.81 -0.94,18.73 0.9,29.94 1.83,11.22 3.42,21.86 5.02,32.98 1.6,11.12 3.75,20.78 5,32 1.25,11.22 0.71,23.9 0,35 -0.71,11.1 1.55,22.85 -10,28 5.48,31 10.89,61.94 10,95 -0.89,33.06 5.89,66.98 5,100 -0.89,33.02 -8.56,64.53 -6,99 2.56,34.47 -1.92,70.4 0,105 -192.06,0.45 -384.01,1.29 -576,2 0.48,-32.29 -0.63,-66.94 0,-99 0.63,-32.06 -1.18,-67.85 -0.67,-98.67 0.51,-30.82 7.67,-56.61 15.45,-84.55 7.77,-27.95 23.19,-44.69 26.15,-73.85 2.96,-29.17 7.9,-61.73 8.07,-91.93 -9.48,-3.8 -10.22,-14.98 -13.98,-25.02 -3.75,-10.05 -1.6,-26.56 -2.02,-37.98 -0.42,-11.42 2.74,-24.24 4.98,-35.02 2.24,-10.78 6.06,-19.83 10.02,-29.98 -3.75,-6.05 -10.09,-9.41 -18,-8 -7.91,1.41 -13.93,-2.11 -16.92,-9.08 -3,-6.96 0.07,-16.88 -1.08,-24.92 -1.15,-8.04 2.24,-16.98 2,-25 -2.89,-0.88 -5.02,1.19 -5,4 -13.42,2.89 -27.49,-0.35 -26,-15 1.49,-14.65 -2.03,-26.28 -1,-40 1.03,-13.72 2.25,-21.84 7,-34 -7,0 -14,0 -21,0 -5.91,-28.26 15.67,-49.41 38,-61 -0.98,-8.79 0.05,-18.06 8,-23 -2.22,-6.18 -0.41,-13.41 -1,-20 -6.33,0 -12.67,0 -19,0 -1.66,-6.65 -0.8,-13.98 -1,-21 -6.67,0 -13.33,0 -20,0 0,-20.33 0,-40.67 0,-61 28,0 56,0 84,0 -0.85,-7.7 1.63,-13.33 7.75,-18.25 6.13,-4.92 2.12,-15.71 3.25,-22.75 -7.79,-0.8 -11.72,-2.91 -19.22,-5.78 -7.51,-2.86 -7.63,-9.83 -7.78,-17.22 -0.15,-7.39 -0.08,-14.88 4.75,-20.25 4.83,-5.37 -9.41,-9.6 -5.75,-16.75 3.66,-7.15 -3.99,-16.26 3,-22 -8.41,-9.63 -15.04,-18.11 -21.77,-29.23 -6.73,-11.12 -13.71,-21.09 -18.2,-33.8 -4.5,-12.7 -9.02,-25 -13.36,-38.64 -4.33,-13.65 -6.84,-28.18 -8.6,-43.4 -1.76,-15.22 -0.72,-34.86 -1.07,-50.93 -0.35,-16.07 1.02,-33.55 2.99,-49.01 1.97,-15.45 3.5,-31.72 5,-47 1.51,-15.27 6.31,-27.72 9.79,-42.21 3.48,-14.5 9.91,-22.28 15.97,-36.03 6.07,-13.74 18.56,-21.32 35.25,-16.75 10.3,23.67 25.53,43.41 37.31,66.69 11.77,23.29 19.04,48.3 37.44,67.56 18.4,19.26 28.25,41.33 39.02,65.98 10.77,24.65 15.76,56.92 22.23,82.77 18.13,-21.4 49.26,-22.77 76,-24 -5.31,-15.7 6.94,-20.79 19,-19 12.06,1.79 20.3,3.47 31.07,6.93 10.77,3.46 20.69,4.32 31,8 10.31,3.68 20.38,4.94 30.93,7.07 10.55,2.13 24.08,5.24 35,4 10.92,-1.24 10.67,-14.16 16.26,-21.74 5.59,-7.59 8.67,-16.33 14.05,-23.95 5.37,-7.63 10.06,-15.61 16.44,-22.56 6.38,-6.95 10.2,-14.36 16.17,-21.83 5.98,-7.46 11.29,-14.77 16.83,-22.17 5.55,-7.4 12.12,-13.42 16.23,-21.78 4.1,-8.35 9.28,-17.03 13.33,-25.66 4.04,-8.64 8.28,-16.72 12.61,-25.39 4.33,-8.66 7.5,-17.56 11.4,-26.6 3.9,-9.04 8.37,-16.65 13.45,-25.55 5.08,-8.9 8.4,-15.62 12.01,-25.99 3.6,-10.38 18.65,-12.35 29.22,-9.78 10.57,2.57 7.69,17.49 10.93,27.07 3.24,9.59 4.25,22.25 6.07,32.93 1.82,10.68 3.33,22.55 4,34 0.67,11.45 1.33,23.44 3,35 1.67,11.56 0.88,25.97 1,38 0.13,12.03 -0.37,24.58 -2,36 -1.63,11.42 -2.6,23.85 -4,35 -1.4,11.16 -4.27,21.36 -5.98,32.02 -1.7,10.67 -8.09,19.43 -9,30 -0.9,10.58 -4.24,20.47 -8.33,29.67 -4.08,9.21 -6.97,17.56 -11.95,26.05 -4.97,8.49 -7.87,17.1 -14.04,24.96 -6.17,7.85 -7.95,15.58 -14.45,23.55 -6.51,7.96 -9,18.5 -7.26,29.76 1.75,11.25 0.18,24.58 2.01,35.99 1.83,11.41 0,24.14 4,35 z"
       id="path1100" />
  </g>
  <g
     fill="None"
     fill-opacity="0"
     stroke="#fefefe"
     stroke-opacity="0.97"
     stroke-width="0.3"
     id="g1106"
     transform="matrix(0.06630885,0,0,0.06630885,-79.407438,-6.9565939)">
    <path
       d="m 926,677 c -4,-10.86 -2.17,-23.59 -4,-35 -1.83,-11.41 -0.26,-24.74 -2.01,-35.99 -1.74,-11.26 0.75,-21.8 7.26,-29.76 6.5,-7.97 8.28,-15.7 14.45,-23.55 6.17,-7.86 9.07,-16.47 14.04,-24.96 4.98,-8.49 7.87,-16.84 11.95,-26.05 4.09,-9.2 7.43,-19.09 8.33,-29.67 0.91,-10.57 7.3,-19.33 9,-30 1.71,-10.66 4.58,-20.86 5.98,-32.02 1.4,-11.15 2.37,-23.58 4,-35 1.63,-11.42 2.13,-23.97 2,-36 -0.12,-12.03 0.67,-26.44 -1,-38 -1.67,-11.56 -2.33,-23.55 -3,-35 -0.67,-11.45 -2.18,-23.32 -4,-34 -1.82,-10.68 -2.83,-23.34 -6.07,-32.93 -3.24,-9.58 -0.36,-24.5 -10.93,-27.07 -10.57,-2.57 -25.62,-0.6 -29.22,9.78 -3.61,10.37 -6.93,17.09 -12.01,25.99 -5.08,8.9 -9.55,16.51 -13.45,25.55 -3.9,9.04 -7.07,17.94 -11.4,26.6 -4.33,8.67 -8.57,16.75 -12.61,25.39 -4.05,8.63 -9.23,17.31 -13.33,25.66 -4.11,8.36 -10.68,14.38 -16.23,21.78 -5.54,7.4 -10.85,14.71 -16.83,22.17 -5.97,7.47 -9.79,14.88 -16.17,21.83 -6.38,6.95 -11.07,14.93 -16.44,22.56 -5.38,7.62 -8.46,16.36 -14.05,23.95 -5.59,7.58 -5.34,20.5 -16.26,21.74 -10.92,1.24 -24.45,-1.87 -35,-4 -10.55,-2.13 -20.62,-3.39 -30.93,-7.07 -10.31,-3.68 -20.23,-4.54 -31,-8 -10.77,-3.46 -19.01,-5.14 -31.07,-6.93 -12.06,-1.79 -24.31,3.3 -19,19 -26.74,1.23 -57.87,2.6 -76,24 -6.47,-25.85 -11.46,-58.12 -22.23,-82.77 C 528,354.58 518.15,332.51 499.75,313.25 481.35,293.99 474.08,268.98 462.31,245.69 450.53,222.41 435.3,202.67 425,179 c -16.69,-4.57 -29.18,3.01 -35.25,16.75 -6.06,13.75 -12.49,21.53 -15.97,36.03 -3.48,14.49 -8.28,26.94 -9.79,42.21 -1.5,15.28 -3.03,31.55 -5,47 -1.97,15.46 -3.34,32.94 -2.99,49.01 0.35,16.07 -0.69,35.71 1.07,50.93 1.76,15.22 4.27,29.75 8.6,43.4 4.34,13.64 8.86,25.94 13.36,38.64 4.49,12.71 11.47,22.68 18.2,33.8 6.73,11.12 13.36,19.6 21.77,29.23 -6.99,5.74 0.66,14.85 -3,22 -3.66,7.15 10.58,11.38 5.75,16.75 -4.83,5.37 -4.9,12.86 -4.75,20.25 0.15,7.39 0.27,14.36 7.78,17.22 7.5,2.87 11.43,4.98 19.22,5.78 -1.13,7.04 2.88,17.83 -3.25,22.75 -6.12,4.92 -8.6,10.55 -7.75,18.25 -28,0 -56,0 -84,0 0,20.33 0,40.67 0,61 6.67,0 13.33,0 20,0 0.2,7.02 -0.66,14.35 1,21 6.33,0 12.67,0 19,0 0.59,6.59 -1.22,13.82 1,20 -7.95,4.94 -8.98,14.21 -8,23 -22.33,11.59 -43.91,32.74 -38,61 7,0 14,0 21,0 -4.75,12.16 -5.97,20.28 -7,34 -1.03,13.72 2.49,25.35 1,40 -1.49,14.65 12.58,17.89 26,15 -0.02,-2.81 2.11,-4.88 5,-4 0.24,8.02 -3.15,16.96 -2,25 1.15,8.04 -1.92,17.96 1.08,24.92 2.99,6.97 9.01,10.49 16.92,9.08 7.91,-1.41 14.25,1.95 18,8 -3.96,10.15 -7.78,19.2 -10.02,29.98 -2.24,10.78 -5.4,23.6 -4.98,35.02 0.42,11.42 -1.73,27.93 2.02,37.98 3.76,10.04 4.5,21.22 13.98,25.02 -0.17,30.2 -5.11,62.76 -8.07,91.93 -2.96,29.16 -18.38,45.9 -26.15,73.85 -7.78,27.94 -14.94,53.73 -15.45,84.55 -0.51,30.82 1.3,66.61 0.67,98.67 -0.63,32.06 0.48,66.71 0,99 191.99,-0.71 383.94,-1.55 576,-2 -1.92,-34.6 2.56,-70.53 0,-105 -2.56,-34.47 5.11,-65.98 6,-99 0.89,-33.02 -5.89,-66.94 -5,-100 0.89,-33.06 -4.52,-64 -10,-95 11.55,-5.15 9.29,-16.9 10,-28 0.71,-11.1 1.25,-23.78 0,-35 -1.25,-11.22 -3.4,-20.88 -5,-32 -1.6,-11.12 -3.19,-21.76 -5.02,-32.98 -1.84,-11.21 -5.08,-19.13 -0.9,-29.94 4.18,-10.81 13.26,-9.82 22.69,-14.31 9.43,-4.49 7.76,-21.38 6.23,-31.77 -1.53,-10.39 3.86,-16.92 13.92,-21.08 10.06,-4.16 15.86,-9.05 17.08,-19.92 1.22,-10.87 -2.24,-25 1.23,-34.77 3.47,-9.77 9.16,-13.61 14.85,-22.15 5.69,-8.54 2.23,-23.12 2.25,-33.41 0.02,-10.29 -3.05,-22.15 -6.4,-31.6 -3.36,-9.44 -9.16,-15.01 -13.63,-23.37 -4.47,-8.37 -16.11,-11.59 -14.3,-22.7 1.81,-11.11 -8.1,-19.18 -20,-17 3.34,-2.69 13.33,1.7 13,-5 -0.33,-6.7 0.25,-10.56 0,-17 6.66,0 13.34,0 20,0 2.46,-8.72 -0.17,-15.63 1,-25 1.17,-9.37 -2.11,-14.63 0,-25 2.11,-10.37 -5.63,-12.42 -15,-11 -9.37,1.42 -16.13,-0.74 -25,0 -8.87,0.74 -16.26,-0.56 -25,0 1.22,-6.94 -0.11,-14.6 -9,-12 m -4,22 c 0.5,0 1,0 1,0 0.5,0 1,0 1,0 6.6,0 14.54,-0.58 21,0 6.46,0.58 15.03,-1.54 21,0 5.97,1.54 17.22,-3.34 22,0 4.16,2.91 -0.41,14.81 1,20 1.41,5.19 -1.06,15.36 0,21 -6.67,0 -13.33,0 -20,0 -2.05,4.76 3.08,15.37 -0.78,19.22 -3.86,3.85 -14.44,-1.26 -19.22,0.78 0,6.67 0,13.33 0,20 7.62,-0.99 15.39,2.52 23.02,3.98 7.64,1.45 2.16,14.96 -4.02,15.02 9.95,5.38 17.51,13.89 23.75,23.25 6.25,9.35 14.17,19.46 16.23,30.78 2.05,11.31 6.7,29.98 -0.28,39.67 -6.99,9.68 -16.83,17.62 -17.37,28.97 -0.54,11.36 7.63,30.15 -3.08,38.58 -10.72,8.42 -18.97,11.43 -30.25,17.75 1.49,10.11 3.7,18.7 4.98,29.02 1.28,10.33 -8.66,16.29 -18.05,16.91 -9.4,0.61 -10.15,13.04 -16.93,18.07 1.74,16.88 6.73,34.93 8.33,51.67 1.6,16.74 7.56,35.36 8.45,51.55 0.89,16.19 4.62,41.8 -12.78,46.78 4.37,25.09 7.9,47.31 10.93,73.07 3.03,25.77 0.42,56.59 2.07,82.93 1.65,26.34 7.77,49.83 1,76 -6.76,26.18 -1.71,54.35 -3,82 -1.29,27.65 0.97,57.18 0,85 -10.69,0.39 -23.52,-0.52 -34,0 -10.48,0.52 -18.48,1.24 -30,1 -11.52,-0.24 -23.4,0.11 -35,0 -11.6,-0.11 -23.36,0.06 -35,0 -11.64,-0.06 -23.35,0.05 -35,0 -11.65,-0.05 -23.34,0.06 -35,0 -11.66,-0.06 -23.34,0.12 -35,0 -11.66,-0.12 -23.34,0.26 -35,0 -11.66,-0.26 -22.62,0.15 -34,1 -11.38,0.84 -23.47,-0.35 -35,0 -11.53,0.35 -23.42,-0.1 -35,0 -11.58,0.1 -23.42,0.09 -35,0 -11.58,-0.08 -23.47,0.33 -35,0 -11.53,-0.33 -22.58,1.55 -34,1 -11.42,-0.55 -23.84,0.93 -35,0 -11.16,-0.93 -24.43,1.92 -35,0 -10.57,-1.92 -3.45,-20.23 -5,-30 -1.55,-9.77 0.79,-24.25 0,-35 -0.79,-10.75 0.54,-23.88 0,-35 -0.54,-11.12 0.66,-23.87 0,-35 -0.66,-11.13 1.22,-24.23 0,-35 -1.22,-10.77 0.91,-20.56 1.99,-31.01 1.08,-10.45 2.22,-20.86 4.34,-30.66 2.12,-9.8 4.68,-18.35 7.44,-27.56 2.77,-9.21 5.13,-17.39 9.01,-25.99 3.88,-8.61 6.26,-15.47 11.54,-23.46 5.28,-7.99 5.75,-18.29 6.68,-28.32 0.93,-10.03 3.65,-19.67 4.99,-30.01 1.34,-10.34 0.79,-22.32 1.99,-33.01 1.19,-10.7 0.25,-22.48 1.8,-33.2 1.55,-10.72 -0.8,-22.4 -1.78,-32.78 -2.92,4.92 0.93,13.15 -2,18 -22.51,-37.05 -11,-85.58 9,-121 -5.57,-4.1 -12.43,-10.05 -12,-18 -12.93,7.79 -33.17,0.51 -31,-16 2.17,-16.51 3.08,-28.94 9,-44 -5.31,2.06 -11.63,1.13 -17,3 -5.37,1.86 -12.85,-2.37 -14,5 -10.63,-8.28 -5.98,-26.2 -7,-39 -1.02,-12.8 4.56,-25.98 8.78,-37.22 4.22,-11.25 9.69,-20.74 16.22,-30.78 -14.1,4.12 -26.79,12.61 -40,18 4,-23.41 28.26,-34.46 44,-49 -2.29,-1.44 -2.91,-4.5 -6,-5 2.86,-6.81 6.52,-12.29 14.07,-13.93 7.56,-1.63 8.75,-11.54 14.93,-14.07 -0.14,-1.68 0.12,-1.89 -1,-3 -4.19,-2.54 -15.98,3.32 -19,-1 -3.13,-4.47 2.35,-14.98 0,-20 -6.83,-0.66 -14.99,1.32 -21,-1 -2.98,-4.25 2.23,-14.23 0,-19 -6.67,0 -13.33,0 -20,0 1.31,-13.35 -2.63,-29.24 2,-41 27.48,-2.5 56.39,0 84,0 -6.64,-3.04 -0.97,-13.47 3.25,-16.75 4.21,-3.29 8.76,-10.44 12.75,-14.25 -14.29,-5.19 -1.07,-18.72 0,-28 -9.87,-2.1 -29,-2.87 -33.92,-14.08 -4.92,-11.21 13.87,-19.96 15.92,-29.92 -6.54,-2.27 -13.56,-3.42 -16.92,-11.08 -3.36,-7.67 9.57,-10.22 14.92,-11.92 -50.24,-55.85 -78.95,-126.56 -76,-203 0,-4.41 0.65,-9.34 1,-13 0,-13.84 2.99,-28.43 4,-42 1.01,-13.57 2.68,-28.06 4.99,-41.01 2.32,-12.94 5.71,-24.68 9,-37 3.29,-12.31 10.14,-19.64 14.76,-31.24 4.63,-11.59 15.69,-22.67 20.17,-8.67 4.49,14 12.48,16.55 17.83,28.17 5.36,11.61 10.81,19.19 16.02,29.98 5.22,10.79 11.21,19.83 15.16,30.84 3.94,11.02 7.82,21.72 16.17,29.83 8.35,8.11 14.47,16.51 21.15,25.85 6.68,9.34 11.73,18.82 16.52,29.48 4.79,10.65 9.38,21.45 13.01,32.99 3.62,11.55 7.52,23.54 10.15,35.85 2.63,12.32 5.66,27.07 7.07,39.93 17.86,-2.88 23.39,-19.42 41.23,-24.77 17.84,-5.35 39.84,-8.83 59.77,-7.23 -6.68,-3.33 -9.48,-21.78 0.7,-19.64 10.17,2.13 17.55,5.65 27.31,7.63 9.76,1.98 18.24,4.7 27.66,7.34 9.43,2.63 18.56,5.41 28.35,6.65 9.8,1.24 19.29,4.63 28.99,6.01 9.7,1.38 14.17,-2.53 23.07,3.93 8.9,6.46 11.47,-11.92 15.23,-17.61 3.75,-5.7 8.62,-15.82 12.61,-22.39 3.99,-6.57 9.22,-14.57 13.85,-21.15 4.63,-6.58 9.28,-13.92 14.98,-20.02 5.71,-6.09 10.44,-12.91 15.5,-19.5 5.06,-6.59 8.85,-14.15 14.5,-20.5 5.65,-6.34 11.32,-12.36 15.02,-19.98 3.7,-7.62 7.76,-15.8 11.54,-23.46 3.77,-7.67 7.92,-15.55 11.94,-23.06 4.03,-7.5 6.72,-16.9 10.67,-24.33 3.96,-7.42 6.3,-17.33 11,-24 4.71,-6.67 8.59,-16.73 12.01,-22.99 3.41,-6.27 6.06,-20.38 15.1,-19.9 9.03,0.47 7.3,17.36 9.95,24.99 2.64,7.63 4.07,19.98 5.95,29.05 1.87,9.07 3.35,20.89 4.06,30.94 0.71,10.05 1.33,21.96 2.94,32.06 1.61,10.11 1.83,22.57 2.07,32.93 0.24,10.36 -1.26,22.7 -2,33 -0.74,10.3 -3.84,20.67 -3.99,31.01 -0.15,10.33 -3.3,20.31 -4.99,30.01 -1.68,9.7 -4.54,18.25 -7.8,27.2 -3.25,8.96 -2.22,20.34 -6.2,28.8 -3.97,8.46 -6.25,16.77 -10.28,24.72 -4.02,7.96 -7.19,15.87 -11.66,23.34 -4.48,7.46 -8.44,14.67 -13.33,21.67 -4.9,6.99 -7.02,15.91 -14.75,20.25 -6.39,18.34 -3.73,36.42 -2,56 1.73,19.58 1.96,40.7 5,60 3.34,0.32 7.06,-0.84 10,1 -2.1,2.08 -6.15,0.5 -9,1 0.14,3.89 6.64,6.31 5,10 z"
       id="path1104" />
  </g>
  <g
     fill="#000000"
     fill-opacity="0"
     stroke="None"
     id="g1242"
     transform="matrix(0.03716643,0,0,0.03716643,-69.41562,-1.978101)">
    <path
       d="M 0,1902 H 1345 V 0 H 0 V 1902 M 926,677 c 8.89,-2.6 10.22,5.06 9,12 8.74,-0.56 16.13,0.74 25,0 8.87,-0.74 15.63,1.42 25,0 9.37,-1.42 17.11,0.63 15,11 -2.11,10.37 1.17,15.63 0,25 -1.17,9.37 1.46,16.28 -1,25 -6.66,0 -13.34,0 -20,0 0.25,6.44 -0.33,10.3 0,17 0.33,6.7 -9.66,2.31 -13,5 11.9,-2.18 21.81,5.89 20,17 -1.81,11.11 9.83,14.33 14.3,22.7 4.47,8.36 10.27,13.93 13.63,23.37 3.35,9.45 6.42,21.31 6.4,31.6 -0.02,10.29 3.44,24.87 -2.25,33.41 -5.69,8.54 -11.38,12.38 -14.85,22.15 -3.47,9.77 -0.01,23.9 -1.23,34.77 -1.22,10.87 -7.02,15.76 -17.08,19.92 -10.06,4.16 -15.45,10.69 -13.92,21.08 1.53,10.39 3.2,27.28 -6.23,31.77 -9.43,4.49 -18.51,3.5 -22.69,14.31 -4.18,10.81 -0.94,18.73 0.9,29.94 1.83,11.22 3.42,21.86 5.02,32.98 1.6,11.12 3.75,20.78 5,32 1.25,11.22 0.71,23.9 0,35 -0.71,11.1 1.55,22.85 -10,28 5.48,31 10.89,61.94 10,95 -0.89,33.06 5.89,66.98 5,100 -0.89,33.02 -8.56,64.53 -6,99 2.56,34.47 -1.92,70.4 0,105 -192.06,0.45 -384.01,1.29 -576,2 0.48,-32.29 -0.63,-66.94 0,-99 0.63,-32.06 -1.18,-67.85 -0.67,-98.67 0.51,-30.82 7.67,-56.61 15.45,-84.55 7.77,-27.95 23.19,-44.69 26.15,-73.85 2.96,-29.17 7.9,-61.73 8.07,-91.93 -9.48,-3.8 -10.22,-14.98 -13.98,-25.02 -3.75,-10.05 -1.6,-26.56 -2.02,-37.98 -0.42,-11.42 2.74,-24.24 4.98,-35.02 2.24,-10.78 6.06,-19.83 10.02,-29.98 -3.75,-6.05 -10.09,-9.41 -18,-8 -7.91,1.41 -13.93,-2.11 -16.92,-9.08 -3,-6.96 0.07,-16.88 -1.08,-24.92 -1.15,-8.04 2.24,-16.98 2,-25 -2.89,-0.88 -5.02,1.19 -5,4 -13.42,2.89 -27.49,-0.35 -26,-15 1.49,-14.65 -2.03,-26.28 -1,-40 1.03,-13.72 2.25,-21.84 7,-34 -7,0 -14,0 -21,0 -5.91,-28.26 15.67,-49.41 38,-61 -0.98,-8.79 0.05,-18.06 8,-23 -2.22,-6.18 -0.41,-13.41 -1,-20 -6.33,0 -12.67,0 -19,0 -1.66,-6.65 -0.8,-13.98 -1,-21 -6.67,0 -13.33,0 -20,0 0,-20.33 0,-40.67 0,-61 28,0 56,0 84,0 -0.85,-7.7 1.63,-13.33 7.75,-18.25 6.13,-4.92 2.12,-15.71 3.25,-22.75 -7.79,-0.8 -11.72,-2.91 -19.22,-5.78 -7.51,-2.86 -7.63,-9.83 -7.78,-17.22 -0.15,-7.39 -0.08,-14.88 4.75,-20.25 4.83,-5.37 -9.41,-9.6 -5.75,-16.75 3.66,-7.15 -3.99,-16.26 3,-22 -8.41,-9.63 -15.04,-18.11 -21.77,-29.23 -6.73,-11.12 -13.71,-21.09 -18.2,-33.8 -4.5,-12.7 -9.02,-25 -13.36,-38.64 -4.33,-13.65 -6.84,-28.18 -8.6,-43.4 -1.76,-15.22 -0.72,-34.86 -1.07,-50.93 -0.35,-16.07 1.02,-33.55 2.99,-49.01 1.97,-15.45 3.5,-31.72 5,-47 1.51,-15.27 6.31,-27.72 9.79,-42.21 3.48,-14.5 9.91,-22.28 15.97,-36.03 6.07,-13.74 18.56,-21.32 35.25,-16.75 10.3,23.67 25.53,43.41 37.31,66.69 11.77,23.29 19.04,48.3 37.44,67.56 18.4,19.26 28.25,41.33 39.02,65.98 10.77,24.65 15.76,56.92 22.23,82.77 18.13,-21.4 49.26,-22.77 76,-24 -5.31,-15.7 6.94,-20.79 19,-19 12.06,1.79 20.3,3.47 31.07,6.93 10.77,3.46 20.69,4.32 31,8 10.31,3.68 20.38,4.94 30.93,7.07 10.55,2.13 24.08,5.24 35,4 10.92,-1.24 10.67,-14.16 16.26,-21.74 5.59,-7.59 8.67,-16.33 14.05,-23.95 5.37,-7.63 10.06,-15.61 16.44,-22.56 6.38,-6.95 10.2,-14.36 16.17,-21.83 5.98,-7.46 11.29,-14.77 16.83,-22.17 5.55,-7.4 12.12,-13.42 16.23,-21.78 4.1,-8.35 9.28,-17.03 13.33,-25.66 4.04,-8.64 8.28,-16.72 12.61,-25.39 4.33,-8.66 7.5,-17.56 11.4,-26.6 3.9,-9.04 8.37,-16.65 13.45,-25.55 5.08,-8.9 8.4,-15.62 12.01,-25.99 3.6,-10.38 18.65,-12.35 29.22,-9.78 10.57,2.57 7.69,17.49 10.93,27.07 3.24,9.59 4.25,22.25 6.07,32.93 1.82,10.68 3.33,22.55 4,34 0.67,11.45 1.33,23.44 3,35 1.67,11.56 0.88,25.97 1,38 0.13,12.03 -0.37,24.58 -2,36 -1.63,11.42 -2.6,23.85 -4,35 -1.4,11.16 -4.27,21.36 -5.98,32.02 -1.7,10.67 -8.09,19.43 -9,30 -0.9,10.58 -4.24,20.47 -8.33,29.67 -4.08,9.21 -6.97,17.56 -11.95,26.05 -4.97,8.49 -7.87,17.1 -14.04,24.96 -6.17,7.85 -7.95,15.58 -14.45,23.55 -6.51,7.96 -9,18.5 -7.26,29.76 1.75,11.25 0.18,24.58 2.01,35.99 1.83,11.41 0,24.14 4,35 z"
       id="path1240" />
  </g>
  <g
     fill="#fefefe"
     fill-opacity="0.97"
     stroke="None"
     id="g1246"
     transform="matrix(0.06630885,0,0,0.06630885,-22.744661,-11.337736)"
     style="fill:#2b0000">
    <path
       d="m 926,677 c -4,-10.86 -2.17,-23.59 -4,-35 -1.83,-11.41 -0.26,-24.74 -2.01,-35.99 -1.74,-11.26 0.75,-21.8 7.26,-29.76 6.5,-7.97 8.28,-15.7 14.45,-23.55 6.17,-7.86 9.07,-16.47 14.04,-24.96 4.98,-8.49 7.87,-16.84 11.95,-26.05 4.09,-9.2 7.43,-19.09 8.33,-29.67 0.91,-10.57 7.3,-19.33 9,-30 1.71,-10.66 4.58,-20.86 5.98,-32.02 1.4,-11.15 2.37,-23.58 4,-35 1.63,-11.42 2.13,-23.97 2,-36 -0.12,-12.03 0.67,-26.44 -1,-38 -1.67,-11.56 -2.33,-23.55 -3,-35 -0.67,-11.45 -2.18,-23.32 -4,-34 -1.82,-10.68 -2.83,-23.34 -6.07,-32.93 -3.24,-9.58 -0.36,-24.5 -10.93,-27.07 -10.57,-2.57 -25.62,-0.6 -29.22,9.78 -3.61,10.37 -6.93,17.09 -12.01,25.99 -5.08,8.9 -9.55,16.51 -13.45,25.55 -3.9,9.04 -7.07,17.94 -11.4,26.6 -4.33,8.67 -8.57,16.75 -12.61,25.39 -4.05,8.63 -9.23,17.31 -13.33,25.66 -4.11,8.36 -10.68,14.38 -16.23,21.78 -5.54,7.4 -10.85,14.71 -16.83,22.17 -5.97,7.47 -9.79,14.88 -16.17,21.83 -6.38,6.95 -11.07,14.93 -16.44,22.56 -5.38,7.62 -8.46,16.36 -14.05,23.95 -5.59,7.58 -5.34,20.5 -16.26,21.74 -10.92,1.24 -24.45,-1.87 -35,-4 -10.55,-2.13 -20.62,-3.39 -30.93,-7.07 -10.31,-3.68 -20.23,-4.54 -31,-8 -10.77,-3.46 -19.01,-5.14 -31.07,-6.93 -12.06,-1.79 -24.31,3.3 -19,19 -26.74,1.23 -57.87,2.6 -76,24 -6.47,-25.85 -11.46,-58.12 -22.23,-82.77 C 528,354.58 518.15,332.51 499.75,313.25 481.35,293.99 474.08,268.98 462.31,245.69 450.53,222.41 435.3,202.67 425,179 c -16.69,-4.57 -29.18,3.01 -35.25,16.75 -6.06,13.75 -12.49,21.53 -15.97,36.03 -3.48,14.49 -8.28,26.94 -9.79,42.21 -1.5,15.28 -3.03,31.55 -5,47 -1.97,15.46 -3.34,32.94 -2.99,49.01 0.35,16.07 -0.69,35.71 1.07,50.93 1.76,15.22 4.27,29.75 8.6,43.4 4.34,13.64 8.86,25.94 13.36,38.64 4.49,12.71 11.47,22.68 18.2,33.8 6.73,11.12 13.36,19.6 21.77,29.23 -6.99,5.74 0.66,14.85 -3,22 -3.66,7.15 10.58,11.38 5.75,16.75 -4.83,5.37 -4.9,12.86 -4.75,20.25 0.15,7.39 0.27,14.36 7.78,17.22 7.5,2.87 11.43,4.98 19.22,5.78 -1.13,7.04 2.88,17.83 -3.25,22.75 -6.12,4.92 -8.6,10.55 -7.75,18.25 -28,0 -56,0 -84,0 0,20.33 0,40.67 0,61 6.67,0 13.33,0 20,0 0.2,7.02 -0.66,14.35 1,21 6.33,0 12.67,0 19,0 0.59,6.59 -1.22,13.82 1,20 -7.95,4.94 -8.98,14.21 -8,23 -22.33,11.59 -43.91,32.74 -38,61 7,0 14,0 21,0 -4.75,12.16 -5.97,20.28 -7,34 -1.03,13.72 2.49,25.35 1,40 -1.49,14.65 12.58,17.89 26,15 -0.02,-2.81 2.11,-4.88 5,-4 0.24,8.02 -3.15,16.96 -2,25 1.15,8.04 -1.92,17.96 1.08,24.92 2.99,6.97 9.01,10.49 16.92,9.08 7.91,-1.41 14.25,1.95 18,8 -3.96,10.15 -7.78,19.2 -10.02,29.98 -2.24,10.78 -5.4,23.6 -4.98,35.02 0.42,11.42 -1.73,27.93 2.02,37.98 3.76,10.04 4.5,21.22 13.98,25.02 -0.17,30.2 -5.11,62.76 -8.07,91.93 -2.96,29.16 -18.38,45.9 -26.15,73.85 -7.78,27.94 -14.94,53.73 -15.45,84.55 -0.51,30.82 1.3,66.61 0.67,98.67 -0.63,32.06 0.48,66.71 0,99 191.99,-0.71 383.94,-1.55 576,-2 -1.92,-34.6 2.56,-70.53 0,-105 -2.56,-34.47 5.11,-65.98 6,-99 0.89,-33.02 -5.89,-66.94 -5,-100 0.89,-33.06 -4.52,-64 -10,-95 11.55,-5.15 9.29,-16.9 10,-28 0.71,-11.1 1.25,-23.78 0,-35 -1.25,-11.22 -3.4,-20.88 -5,-32 -1.6,-11.12 -3.19,-21.76 -5.02,-32.98 -1.84,-11.21 -5.08,-19.13 -0.9,-29.94 4.18,-10.81 13.26,-9.82 22.69,-14.31 9.43,-4.49 7.76,-21.38 6.23,-31.77 -1.53,-10.39 3.86,-16.92 13.92,-21.08 10.06,-4.16 15.86,-9.05 17.08,-19.92 1.22,-10.87 -2.24,-25 1.23,-34.77 3.47,-9.77 9.16,-13.61 14.85,-22.15 5.69,-8.54 2.23,-23.12 2.25,-33.41 0.02,-10.29 -3.05,-22.15 -6.4,-31.6 -3.36,-9.44 -9.16,-15.01 -13.63,-23.37 -4.47,-8.37 -16.11,-11.59 -14.3,-22.7 1.81,-11.11 -8.1,-19.18 -20,-17 3.34,-2.69 13.33,1.7 13,-5 -0.33,-6.7 0.25,-10.56 0,-17 6.66,0 13.34,0 20,0 2.46,-8.72 -0.17,-15.63 1,-25 1.17,-9.37 -2.11,-14.63 0,-25 2.11,-10.37 -5.63,-12.42 -15,-11 -9.37,1.42 -16.13,-0.74 -25,0 -8.87,0.74 -16.26,-0.56 -25,0 1.22,-6.94 -0.11,-14.6 -9,-12 m -4,22 c 0.5,0 1,0 1,0 0.5,0 1,0 1,0 6.6,0 14.54,-0.58 21,0 6.46,0.58 15.03,-1.54 21,0 5.97,1.54 17.22,-3.34 22,0 4.16,2.91 -0.41,14.81 1,20 1.41,5.19 -1.06,15.36 0,21 -6.67,0 -13.33,0 -20,0 -2.05,4.76 3.08,15.37 -0.78,19.22 -3.86,3.85 -14.44,-1.26 -19.22,0.78 0,6.67 0,13.33 0,20 7.62,-0.99 15.39,2.52 23.02,3.98 7.64,1.45 2.16,14.96 -4.02,15.02 9.95,5.38 17.51,13.89 23.75,23.25 6.25,9.35 14.17,19.46 16.23,30.78 2.05,11.31 6.7,29.98 -0.28,39.67 -6.99,9.68 -16.83,17.62 -17.37,28.97 -0.54,11.36 7.63,30.15 -3.08,38.58 -10.72,8.42 -18.97,11.43 -30.25,17.75 1.49,10.11 3.7,18.7 4.98,29.02 1.28,10.33 -8.66,16.29 -18.05,16.91 -9.4,0.61 -10.15,13.04 -16.93,18.07 1.74,16.88 6.73,34.93 8.33,51.67 1.6,16.74 7.56,35.36 8.45,51.55 0.89,16.19 4.62,41.8 -12.78,46.78 4.37,25.09 7.9,47.31 10.93,73.07 3.03,25.77 0.42,56.59 2.07,82.93 1.65,26.34 7.77,49.83 1,76 -6.76,26.18 -1.71,54.35 -3,82 -1.29,27.65 0.97,57.18 0,85 -10.69,0.39 -23.52,-0.52 -34,0 -10.48,0.52 -18.48,1.24 -30,1 -11.52,-0.24 -23.4,0.11 -35,0 -11.6,-0.11 -23.36,0.06 -35,0 -11.64,-0.06 -23.35,0.05 -35,0 -11.65,-0.05 -23.34,0.06 -35,0 -11.66,-0.06 -23.34,0.12 -35,0 -11.66,-0.12 -23.34,0.26 -35,0 -11.66,-0.26 -22.62,0.15 -34,1 -11.38,0.84 -23.47,-0.35 -35,0 -11.53,0.35 -23.42,-0.1 -35,0 -11.58,0.1 -23.42,0.09 -35,0 -11.58,-0.08 -23.47,0.33 -35,0 -11.53,-0.33 -22.58,1.55 -34,1 -11.42,-0.55 -23.84,0.93 -35,0 -11.16,-0.93 -24.43,1.92 -35,0 -10.57,-1.92 -3.45,-20.23 -5,-30 -1.55,-9.77 0.79,-24.25 0,-35 -0.79,-10.75 0.54,-23.88 0,-35 -0.54,-11.12 0.66,-23.87 0,-35 -0.66,-11.13 1.22,-24.23 0,-35 -1.22,-10.77 0.91,-20.56 1.99,-31.01 1.08,-10.45 2.22,-20.86 4.34,-30.66 2.12,-9.8 4.68,-18.35 7.44,-27.56 2.77,-9.21 5.13,-17.39 9.01,-25.99 3.88,-8.61 6.26,-15.47 11.54,-23.46 5.28,-7.99 5.75,-18.29 6.68,-28.32 0.93,-10.03 3.65,-19.67 4.99,-30.01 1.34,-10.34 0.79,-22.32 1.99,-33.01 1.19,-10.7 0.25,-22.48 1.8,-33.2 1.55,-10.72 -0.8,-22.4 -1.78,-32.78 -2.92,4.92 0.93,13.15 -2,18 -22.51,-37.05 -11,-85.58 9,-121 -5.57,-4.1 -12.43,-10.05 -12,-18 -12.93,7.79 -33.17,0.51 -31,-16 2.17,-16.51 3.08,-28.94 9,-44 -5.31,2.06 -11.63,1.13 -17,3 -5.37,1.86 -12.85,-2.37 -14,5 -10.63,-8.28 -5.98,-26.2 -7,-39 -1.02,-12.8 4.56,-25.98 8.78,-37.22 4.22,-11.25 9.69,-20.74 16.22,-30.78 -14.1,4.12 -26.79,12.61 -40,18 4,-23.41 28.26,-34.46 44,-49 -2.29,-1.44 -2.91,-4.5 -6,-5 2.86,-6.81 6.52,-12.29 14.07,-13.93 7.56,-1.63 8.75,-11.54 14.93,-14.07 -0.14,-1.68 0.12,-1.89 -1,-3 -4.19,-2.54 -15.98,3.32 -19,-1 -3.13,-4.47 2.35,-14.98 0,-20 -6.83,-0.66 -14.99,1.32 -21,-1 -2.98,-4.25 2.23,-14.23 0,-19 -6.67,0 -13.33,0 -20,0 1.31,-13.35 -2.63,-29.24 2,-41 27.48,-2.5 56.39,0 84,0 -6.64,-3.04 -0.97,-13.47 3.25,-16.75 4.21,-3.29 8.76,-10.44 12.75,-14.25 -14.29,-5.19 -1.07,-18.72 0,-28 -9.87,-2.1 -29,-2.87 -33.92,-14.08 -4.92,-11.21 13.87,-19.96 15.92,-29.92 -6.54,-2.27 -13.56,-3.42 -16.92,-11.08 -3.36,-7.67 9.57,-10.22 14.92,-11.92 -50.24,-55.85 -78.95,-126.56 -76,-203 0,-4.41 0.65,-9.34 1,-13 0,-13.84 2.99,-28.43 4,-42 1.01,-13.57 2.68,-28.06 4.99,-41.01 2.32,-12.94 5.71,-24.68 9,-37 3.29,-12.31 10.14,-19.64 14.76,-31.24 4.63,-11.59 15.69,-22.67 20.17,-8.67 4.49,14 12.48,16.55 17.83,28.17 5.36,11.61 10.81,19.19 16.02,29.98 5.22,10.79 11.21,19.83 15.16,30.84 3.94,11.02 7.82,21.72 16.17,29.83 8.35,8.11 14.47,16.51 21.15,25.85 6.68,9.34 11.73,18.82 16.52,29.48 4.79,10.65 9.38,21.45 13.01,32.99 3.62,11.55 7.52,23.54 10.15,35.85 2.63,12.32 5.66,27.07 7.07,39.93 17.86,-2.88 23.39,-19.42 41.23,-24.77 17.84,-5.35 39.84,-8.83 59.77,-7.23 -6.68,-3.33 -9.48,-21.78 0.7,-19.64 10.17,2.13 17.55,5.65 27.31,7.63 9.76,1.98 18.24,4.7 27.66,7.34 9.43,2.63 18.56,5.41 28.35,6.65 9.8,1.24 19.29,4.63 28.99,6.01 9.7,1.38 14.17,-2.53 23.07,3.93 8.9,6.46 11.47,-11.92 15.23,-17.61 3.75,-5.7 8.62,-15.82 12.61,-22.39 3.99,-6.57 9.22,-14.57 13.85,-21.15 4.63,-6.58 9.28,-13.92 14.98,-20.02 5.71,-6.09 10.44,-12.91 15.5,-19.5 5.06,-6.59 8.85,-14.15 14.5,-20.5 5.65,-6.34 11.32,-12.36 15.02,-19.98 3.7,-7.62 7.76,-15.8 11.54,-23.46 3.77,-7.67 7.92,-15.55 11.94,-23.06 4.03,-7.5 6.72,-16.9 10.67,-24.33 3.96,-7.42 6.3,-17.33 11,-24 4.71,-6.67 8.59,-16.73 12.01,-22.99 3.41,-6.27 6.06,-20.38 15.1,-19.9 9.03,0.47 7.3,17.36 9.95,24.99 2.64,7.63 4.07,19.98 5.95,29.05 1.87,9.07 3.35,20.89 4.06,30.94 0.71,10.05 1.33,21.96 2.94,32.06 1.61,10.11 1.83,22.57 2.07,32.93 0.24,10.36 -1.26,22.7 -2,33 -0.74,10.3 -3.84,20.67 -3.99,31.01 -0.15,10.33 -3.3,20.31 -4.99,30.01 -1.68,9.7 -4.54,18.25 -7.8,27.2 -3.25,8.96 -2.22,20.34 -6.2,28.8 -3.97,8.46 -6.25,16.77 -10.28,24.72 -4.02,7.96 -7.19,15.87 -11.66,23.34 -4.48,7.46 -8.44,14.67 -13.33,21.67 -4.9,6.99 -7.02,15.91 -14.75,20.25 -6.39,18.34 -3.73,36.42 -2,56 1.73,19.58 1.96,40.7 5,60 3.34,0.32 7.06,-0.84 10,1 -2.1,2.08 -6.15,0.5 -9,1 0.14,3.89 6.64,6.31 5,10 z"
       id="path1244"
       style="fill:#2b0000" />
  </g>
</svg>
