  0
SECTION
  2
HEADER
  9
$ACADVER
  1
AC1014
  9
$HANDSEED
  5
FFFF
  9
$INSUNITS
 70
     0
  9
$MEASUREMENT
 70
     1
  0
ENDSEC
  0
SECTION
  2
TABLES
  0
TABLE
  2
VPORT
  5
8
330
0
100
AcDbSymbolTable
 70
     4
  0
VPORT
  5
2E
330
8
100
AcDbSymbolTableRecord
100
AcDbViewportTableRecord
  2
*ACTIVE
 70
     0
 10
0.0
 20
0.0
 11
1.0
 21
1.0
 12
210.0
 22
148.5
 13
0.0
 23
0.0
 14
10.0
 24
10.0
 15
10.0
 25
10.0
 16
0.0
 26
0.0
 36
1.0
 17
0.0
 27
0.0
 37
0.0
 40
341.0
 41
1.24
 42
50.0
 43
0.0
 44
0.0
 50
0.0
 51
0.0
 71
     0
 72
   100
 73
     1
 74
     3
 75
     0
 76
     0
 77
     0
 78
     0
  0
ENDTAB
  0
TABLE
  2
LTYPE
  5
5
330
0
100
AcDbSymbolTable
 70
     1
  0
LTYPE
  5
14
330
5
100
AcDbSymbolTableRecord
100
AcDbLinetypeTableRecord
  2
BYBLOCK
 70
     0
  3

 72
    65
 73
     0
 40
0.0
  0
LTYPE
  5
15
330
5
100
AcDbSymbolTableRecord
100
AcDbLinetypeTableRecord
  2
BYLAYER
 70
     0
  3

 72
    65
 73
     0
 40
0.0
  0
LTYPE
  5
16
330
5
100
AcDbSymbolTableRecord
100
AcDbLinetypeTableRecord
  2
CONTINUOUS
 70
     0
  3
Solid line
 72
    65
 73
     0
 40
0.0
  0
ENDTAB
  0
TABLE
  2
LAYER
  5
2
100
AcDbSymbolTable
 70
1
  0
LAYER
  5
50
100
AcDbSymbolTableRecord
100
AcDbLayerTableRecord
  2
0
 70
0
  6
CONTINUOUS
  0
ENDTAB
  0
TABLE
  2
STYLE
  5
3
330
0
100
AcDbSymbolTable
 70
     1
  0
STYLE
  5
11
330
3
100
AcDbSymbolTableRecord
100
AcDbTextStyleTableRecord
  2
STANDARD
 70
     0
 40
0.0
 41
1.0
 50
0.0
 71
     0
 42
2.5
  3
txt
  4

  0
ENDTAB
  0
TABLE
  2
VIEW
  5
6
330
0
100
AcDbSymbolTable
 70
     0
  0
ENDTAB
  0
TABLE
  2
UCS
  5
7
330
0
100
AcDbSymbolTable
 70
     0
  0
ENDTAB
  0
TABLE
  2
APPID
  5
9
330
0
100
AcDbSymbolTable
 70
     2
  0
APPID
  5
12
330
9
100
AcDbSymbolTableRecord
100
AcDbRegAppTableRecord
  2
ACAD
 70
     0
  0
ENDTAB
  0
TABLE
  2
DIMSTYLE
  5
A
330
0
100
AcDbSymbolTable
 70
     1
  0
DIMSTYLE
105
27
330
A
100
AcDbSymbolTableRecord
100
AcDbDimStyleTableRecord
  2
ISO-25
 70
     0
  3

  4

  5

  6

  7

 40
1.0
 41
2.5
 42
0.625
 43
3.75
 44
1.25
 45
0.0
 46
0.0
 47
0.0
 48
0.0
140
2.5
141
2.5
142
0.0
143
0.03937007874016
144
1.0
145
0.0
146
1.0
147
0.625
 71
     0
 72
     0
 73
     0
 74
     0
 75
     0
 76
     0
 77
     1
 78
     8
170
     0
171
     3
172
     1
173
     0
174
     0
175
     0
176
     0
177
     0
178
     0
270
     2
271
     2
272
     2
273
     2
274
     3
340
11
275
     0
280
     0
281
     0
282
     0
283
     0
284
     8
285
     0
286
     0
287
     3
288
     0
  0
ENDTAB
  0
TABLE
  2
BLOCK_RECORD
  5
1
330
0
100
AcDbSymbolTable
 70
     1
  0
BLOCK_RECORD
  5
1F
330
1
100
AcDbSymbolTableRecord
100
AcDbBlockTableRecord
  2
*MODEL_SPACE
  0
BLOCK_RECORD
  5
1B
330
1
100
AcDbSymbolTableRecord
100
AcDbBlockTableRecord
  2
*PAPER_SPACE
  0
ENDTAB
  0
ENDSEC
  0
SECTION
  2
BLOCKS
  0
BLOCK
  5
20
330
1F
100
AcDbEntity
  8
0
100
AcDbBlockBegin
  2
*MODEL_SPACE
 70
     0
 10
0.0
 20
0.0
 30
0.0
  3
*MODEL_SPACE
  1

  0
ENDBLK
  5
21
330
1F
100
AcDbEntity
  8
0
100
AcDbBlockEnd
  0
BLOCK
  5
1C
330
1B
100
AcDbEntity
 67
     1
  8
0
100
AcDbBlockBegin
  2
*PAPER_SPACE
  1

  0
ENDBLK
  5
1D
330
1B
100
AcDbEntity
 67
     1
  8
0
100
AcDbBlockEnd
  0
ENDSEC
  0
SECTION
  2
ENTITIES
  0
SPLINE
  5
100
100
AcDbEntity
  8
0
 62
7
100
AcDbSpline
 70
8
 71
3
 72
8
 73
4
 74
0
 40
0
 40
0
 40
0
 40
0
 40
1
 40
1
 40
1
 40
1
 10
47.355004
 20
52.240591
 30
0.0
 10
47.333103
 20
52.355296
 30
0.0
 10
47.312360
 20
52.464002
 30
0.0
 10
47.295005
 20
52.564945
 30
0.0
  0
SPLINE
  5
101
100
AcDbEntity
  8
0
 62
7
100
AcDbSpline
 70
8
 71
3
 72
8
 73
4
 74
0
 40
0
 40
0
 40
0
 40
0
 40
1
 40
1
 40
1
 40
1
 10
47.295005
 20
52.564945
 30
0.0
 10
47.151626
 20
53.395473
 30
0.0
 10
46.688395
 20
54.075671
 30
0.0
 10
46.279610
 20
54.675805
 30
0.0
  0
SPLINE
  5
102
100
AcDbEntity
  8
0
 62
7
100
AcDbSpline
 70
8
 71
3
 72
8
 73
4
 74
0
 40
0
 40
0
 40
0
 40
0
 40
1
 40
1
 40
1
 40
1
 10
46.279610
 20
54.675805
 30
0.0
 10
46.193377
 20
54.802442
 30
0.0
 10
46.111885
 20
54.922062
 30
0.0
 10
46.036974
 20
55.037920
 30
0.0
  0
SPLINE
  5
103
100
AcDbEntity
  8
0
 62
7
100
AcDbSpline
 70
8
 71
3
 72
8
 73
4
 74
0
 40
0
 40
0
 40
0
 40
0
 40
1
 40
1
 40
1
 40
1
 10
46.036974
 20
55.037920
 30
0.0
 10
45.721809
 20
55.525689
 30
0.0
 10
45.363728
 20
55.948749
 30
0.0
 10
44.966531
 20
56.303508
 30
0.0
  0
SPLINE
  5
104
100
AcDbEntity
  8
0
 62
7
100
AcDbSpline
 70
8
 71
3
 72
8
 73
4
 74
0
 40
0
 40
0
 40
0
 40
0
 40
1
 40
1
 40
1
 40
1
 10
44.966531
 20
56.303508
 30
0.0
 10
45.020630
 20
56.446686
 30
0.0
 10
45.055271
 20
56.593898
 30
0.0
 10
45.067881
 20
56.737516
 30
0.0
  0
SPLINE
  5
105
100
AcDbEntity
  8
0
 62
7
100
AcDbSpline
 70
8
 71
3
 72
8
 73
4
 74
0
 40
0
 40
0
 40
0
 40
0
 40
1
 40
1
 40
1
 40
1
 10
45.067881
 20
56.737516
 30
0.0
 10
45.125166
 20
57.386191
 30
0.0
 10
44.732850
 20
57.939820
 30
0.0
 10
44.115122
 20
58.083506
 30
0.0
  0
SPLINE
  5
106
100
AcDbEntity
  8
0
 62
7
100
AcDbSpline
 70
8
 71
3
 72
8
 73
4
 74
0
 40
0
 40
0
 40
0
 40
0
 40
1
 40
1
 40
1
 40
1
 10
44.115122
 20
58.083506
 30
0.0
 10
44.090984
 20
58.089157
 30
0.0
 10
44.067401
 20
58.095455
 30
0.0
 10
44.043377
 20
58.101276
 30
0.0
  0
SPLINE
  5
107
100
AcDbEntity
  8
0
 62
7
100
AcDbSpline
 70
8
 71
3
 72
8
 73
4
 74
0
 40
0
 40
0
 40
0
 40
0
 40
1
 40
1
 40
1
 40
1
 10
44.043377
 20
58.101276
 30
0.0
 10
44.129964
 20
58.152231
 30
0.0
 10
44.210422
 20
58.212516
 30
0.0
 10
44.282774
 20
58.284681
 30
0.0
  0
SPLINE
  5
108
100
AcDbEntity
  8
0
 62
7
100
AcDbSpline
 70
8
 71
3
 72
8
 73
4
 74
0
 40
0
 40
0
 40
0
 40
0
 40
1
 40
1
 40
1
 40
1
 10
44.282774
 20
58.284681
 30
0.0
 10
44.604586
 20
58.605612
 30
0.0
 10
44.662006
 20
59.008503
 30
0.0
 10
44.647159
 20
59.355466
 30
0.0
  0
SPLINE
  5
109
100
AcDbEntity
  8
0
 62
7
100
AcDbSpline
 70
8
 71
3
 72
8
 73
4
 74
0
 40
0
 40
0
 40
0
 40
0
 40
1
 40
1
 40
1
 40
1
 10
45.088083
 20
59.355466
 30
0.0
 10
45.586495
 20
59.355466
 30
0.0
 10
45.990539
 20
59.759510
 30
0.0
 10
45.990539
 20
60.257922
 30
0.0
  0
LWPOLYLINE
  5
10a
100
AcDbEntity
  8
0
 62
7
100
AcDbPolyline
 90
2
 70
0
 10
44.647159
 20
59.355466
 30
0.0
 10
45.088083
 20
59.355466
 30
0.0
  0
SPLINE
  5
10b
100
AcDbEntity
  8
0
 62
7
100
AcDbSpline
 70
8
 71
3
 72
8
 73
4
 74
0
 40
0
 40
0
 40
0
 40
0
 40
1
 40
1
 40
1
 40
1
 10
45.990539
 20
63.104130
 30
0.0
 10
45.990539
 20
63.602542
 30
0.0
 10
45.586495
 20
64.006586
 30
0.0
 10
45.088083
 20
64.006586
 30
0.0
  0
LWPOLYLINE
  5
10c
100
AcDbEntity
  8
0
 62
7
100
AcDbPolyline
 90
2
 70
0
 10
45.990539
 20
60.257922
 30
0.0
 10
45.990539
 20
63.104130
 30
0.0
  0
SPLINE
  5
10d
100
AcDbEntity
  8
0
 62
7
100
AcDbSpline
 70
8
 71
3
 72
8
 73
4
 74
0
 40
0
 40
0
 40
0
 40
0
 40
1
 40
1
 40
1
 40
1
 10
41.012180
 20
64.006586
 30
0.0
 10
40.989677
 20
64.034516
 30
0.0
 10
40.968911
 20
64.059083
 30
0.0
 10
40.951306
 20
64.079836
 30
0.0
  0
SPLINE
  5
10e
100
AcDbEntity
  8
0
 62
7
100
AcDbSpline
 70
8
 71
3
 72
8
 73
4
 74
0
 40
0
 40
0
 40
0
 40
0
 40
1
 40
1
 40
1
 40
1
 10
40.951306
 20
64.079836
 30
0.0
 10
40.946697
 20
64.085292
 30
0.0
 10
40.942019
 20
64.090683
 30
0.0
 10
40.937341
 20
64.096107
 30
0.0
  0
SPLINE
  5
10f
100
AcDbEntity
  8
0
 62
7
100
AcDbSpline
 70
8
 71
3
 72
8
 73
4
 74
0
 40
0
 40
0
 40
0
 40
0
 40
1
 40
1
 40
1
 40
1
 10
40.937341
 20
64.096107
 30
0.0
 10
40.922969
 20
64.136410
 30
0.0
 10
40.907580
 20
64.173662
 30
0.0
 10
40.891988
 20
64.208269
 30
0.0
  0
SPLINE
  5
110
100
AcDbEntity
  8
0
 62
7
100
AcDbSpline
 70
8
 71
3
 72
8
 73
4
 74
0
 40
0
 40
0
 40
0
 40
0
 40
1
 40
1
 40
1
 40
1
 10
40.891988
 20
64.208269
 30
0.0
 10
40.776469
 20
64.994021
 30
0.0
 10
40.725557
 20
65.849768
 30
0.0
 10
40.676272
 20
66.678770
 30
0.0
  0
SPLINE
  5
111
100
AcDbEntity
  8
0
 62
7
100
AcDbSpline
 70
8
 71
3
 72
8
 73
4
 74
0
 40
0
 40
0
 40
0
 40
0
 40
1
 40
1
 40
1
 40
1
 10
40.676272
 20
66.678770
 30
0.0
 10
40.646782
 20
67.174300
 30
0.0
 10
40.616275
 20
67.686712
 30
0.0
 10
40.572210
 20
68.182683
 30
0.0
  0
SPLINE
  5
112
100
AcDbEntity
  8
0
 62
7
100
AcDbSpline
 70
8
 71
3
 72
8
 73
4
 74
0
 40
0
 40
0
 40
0
 40
0
 40
1
 40
1
 40
1
 40
1
 10
40.572210
 20
68.182683
 30
0.0
 10
40.559126
 20
68.329251
 30
0.0
 10
40.545296
 20
68.474632
 30
0.0
 10
40.531535
 20
68.618963
 30
0.0
  0
SPLINE
  5
113
100
AcDbEntity
  8
0
 62
7
100
AcDbSpline
 70
8
 71
3
 72
8
 73
4
 74
0
 40
0
 40
0
 40
0
 40
0
 40
1
 40
1
 40
1
 40
1
 10
40.531535
 20
68.618963
 30
0.0
 10
40.432896
 20
69.653140
 30
0.0
 10
40.346596
 20
70.559257
 30
0.0
 10
40.582515
 20
71.429647
 30
0.0
  0
SPLINE
  5
114
100
AcDbEntity
  8
0
 62
7
100
AcDbSpline
 70
8
 71
3
 72
8
 73
4
 74
0
 40
0
 40
0
 40
0
 40
0
 40
1
 40
1
 40
1
 40
1
 10
40.582515
 20
71.429647
 30
0.0
 10
40.961069
 20
71.747052
 30
0.0
 10
41.170413
 20
72.145266
 30
0.0
 10
41.345725
 20
72.478705
 30
0.0
  0
SPLINE
  5
115
100
AcDbEntity
  8
0
 62
7
100
AcDbSpline
 70
8
 71
3
 72
8
 73
4
 74
0
 40
0
 40
0
 40
0
 40
0
 40
1
 40
1
 40
1
 40
1
 10
41.345725
 20
72.478705
 30
0.0
 10
41.423754
 20
72.627069
 30
0.0
 10
41.497377
 20
72.767196
 30
0.0
 10
41.574932
 20
72.877360
 30
0.0
  0
SPLINE
  5
116
100
AcDbEntity
  8
0
 62
7
100
AcDbSpline
 70
8
 71
3
 72
8
 73
4
 74
0
 40
0
 40
0
 40
0
 40
0
 40
1
 40
1
 40
1
 40
1
 10
41.574932
 20
72.877360
 30
0.0
 10
41.837561
 20
73.251779
 30
0.0
 10
42.059446
 20
73.629655
 30
0.0
 10
42.274010
 20
73.995058
 30
0.0
  0
SPLINE
  5
117
100
AcDbEntity
  8
0
 62
7
100
AcDbSpline
 70
8
 71
3
 72
8
 73
4
 74
0
 40
0
 40
0
 40
0
 40
0
 40
1
 40
1
 40
1
 40
1
 10
42.274010
 20
73.995058
 30
0.0
 10
42.358819
 20
74.139457
 30
0.0
 10
42.444373
 20
74.285312
 30
0.0
 10
42.534334
 20
74.433948
 30
0.0
  0
SPLINE
  5
118
100
AcDbEntity
  8
0
 62
7
100
AcDbSpline
 70
8
 71
3
 72
8
 73
4
 74
0
 40
0
 40
0
 40
0
 40
0
 40
1
 40
1
 40
1
 40
1
 10
42.534334
 20
74.433948
 30
0.0
 10
42.763202
 20
74.813486
 30
0.0
 10
42.939530
 20
75.194616
 30
0.0
 10
43.110029
 20
75.563205
 30
0.0
  0
SPLINE
  5
119
100
AcDbEntity
  8
0
 62
7
100
AcDbSpline
 70
8
 71
3
 72
8
 73
4
 74
0
 40
0
 40
0
 40
0
 40
0
 40
1
 40
1
 40
1
 40
1
 10
43.110029
 20
75.563205
 30
0.0
 10
43.198905
 20
75.755295
 30
0.0
 10
43.282833
 20
75.936708
 30
0.0
 10
43.373878
 20
76.118528
 30
0.0
  0
SPLINE
  5
11a
100
AcDbEntity
  8
0
 62
7
100
AcDbSpline
 70
8
 71
3
 72
8
 73
4
 74
0
 40
0
 40
0
 40
0
 40
0
 40
1
 40
1
 40
1
 40
1
 10
43.373878
 20
76.118528
 30
0.0
 10
43.543834
 20
76.456780
 30
0.0
 10
43.671013
 20
76.787168
 30
0.0
 10
43.794057
 20
77.106708
 30
0.0
  0
SPLINE
  5
11b
100
AcDbEntity
  8
0
 62
7
100
AcDbSpline
 70
8
 71
3
 72
8
 73
4
 74
0
 40
0
 40
0
 40
0
 40
0
 40
1
 40
1
 40
1
 40
1
 10
43.794057
 20
77.106708
 30
0.0
 10
43.893780
 20
77.365608
 30
0.0
 10
43.987876
 20
77.610170
 30
0.0
 10
44.101293
 20
77.852428
 30
0.0
  0
SPLINE
  5
11c
100
AcDbEntity
  8
0
 62
7
100
AcDbSpline
 70
8
 71
3
 72
8
 73
4
 74
0
 40
0
 40
0
 40
0
 40
0
 40
1
 40
1
 40
1
 40
1
 10
44.101293
 20
77.852428
 30
0.0
 10
44.309281
 20
78.295080
 30
0.0
 10
44.368397
 20
78.766341
 30
0.0
 10
44.420529
 20
79.182113
 30
0.0
  0
SPLINE
  5
11d
100
AcDbEntity
  8
0
 62
7
100
AcDbSpline
 70
8
 71
3
 72
8
 73
4
 74
0
 40
0
 40
0
 40
0
 40
0
 40
1
 40
1
 40
1
 40
1
 10
44.420529
 20
79.182113
 30
0.0
 10
44.455781
 20
79.463623
 30
0.0
 10
44.489135
 20
79.729505
 30
0.0
 10
44.559640
 20
79.917867
 30
0.0
  0
SPLINE
  5
11e
100
AcDbEntity
  8
0
 62
7
100
AcDbSpline
 70
8
 71
3
 72
8
 73
4
 74
0
 40
0
 40
0
 40
0
 40
0
 40
1
 40
1
 40
1
 40
1
 10
44.559640
 20
79.917867
 30
0.0
 10
44.770204
 20
80.477868
 30
0.0
 10
45.004495
 20
81.159456
 30
0.0
 10
45.145300
 20
81.967782
 30
0.0
  0
SPLINE
  5
11f
100
AcDbEntity
  8
0
 62
7
100
AcDbSpline
 70
8
 71
3
 72
8
 73
4
 74
0
 40
0
 40
0
 40
0
 40
0
 40
1
 40
1
 40
1
 40
1
 10
45.145300
 20
81.967782
 30
0.0
 10
45.178586
 20
82.157466
 30
0.0
 10
45.221228
 20
82.353591
 30
0.0
 10
45.266446
 20
82.561205
 30
0.0
  0
SPLINE
  5
120
100
AcDbEntity
  8
0
 62
7
100
AcDbSpline
 70
8
 71
3
 72
8
 73
4
 74
0
 40
0
 40
0
 40
0
 40
0
 40
1
 40
1
 40
1
 40
1
 10
45.266446
 20
82.561205
 30
0.0
 10
45.373016
 20
83.051007
 30
0.0
 10
45.493823
 20
83.606161
 30
0.0
 10
45.505144
 20
84.190399
 30
0.0
  0
SPLINE
  5
121
100
AcDbEntity
  8
0
 62
7
100
AcDbSpline
 70
8
 71
3
 72
8
 73
4
 74
0
 40
0
 40
0
 40
0
 40
0
 40
1
 40
1
 40
1
 40
1
 10
45.505144
 20
84.190399
 30
0.0
 10
45.511448
 20
84.534210
 30
0.0
 10
45.573954
 20
84.903341
 30
0.0
 10
45.640120
 20
85.294131
 30
0.0
  0
SPLINE
  5
122
100
AcDbEntity
  8
0
 62
7
100
AcDbSpline
 70
8
 71
3
 72
8
 73
4
 74
0
 40
0
 40
0
 40
0
 40
0
 40
1
 40
1
 40
1
 40
1
 10
45.640120
 20
85.294131
 30
0.0
 10
45.694015
 20
85.612825
 30
0.0
 10
45.749809
 20
85.942331
 30
0.0
 10
45.778959
 20
86.282616
 30
0.0
  0
SPLINE
  5
123
100
AcDbEntity
  8
0
 62
7
100
AcDbSpline
 70
8
 71
3
 72
8
 73
4
 74
0
 40
0
 40
0
 40
0
 40
0
 40
1
 40
1
 40
1
 40
1
 10
45.778959
 20
86.282616
 30
0.0
 10
45.787908
 20
86.386577
 30
0.0
 10
45.797399
 20
86.493689
 30
0.0
 10
45.807161
 20
86.603072
 30
0.0
  0
SPLINE
  5
124
100
AcDbEntity
  8
0
 62
7
100
AcDbSpline
 70
8
 71
3
 72
8
 73
4
 74
0
 40
0
 40
0
 40
0
 40
0
 40
1
 40
1
 40
1
 40
1
 10
45.807161
 20
86.603072
 30
0.0
 10
45.865598
 20
87.260289
 30
0.0
 10
45.931831
 20
88.005194
 30
0.0
 10
45.920988
 20
88.665393
 30
0.0
  0
SPLINE
  5
125
100
AcDbEntity
  8
0
 62
7
100
AcDbSpline
 70
8
 71
3
 72
8
 73
4
 74
0
 40
0
 40
0
 40
0
 40
0
 40
1
 40
1
 40
1
 40
1
 10
45.920988
 20
88.665393
 30
0.0
 10
45.907562
 20
89.485414
 30
0.0
 10
45.879565
 20
90.344821
 30
0.0
 10
45.766689
 20
91.075152
 30
0.0
  0
SPLINE
  5
126
100
AcDbEntity
  8
0
 62
7
100
AcDbSpline
 70
8
 71
3
 72
8
 73
4
 74
0
 40
0
 40
0
 40
0
 40
0
 40
1
 40
1
 40
1
 40
1
 10
45.766689
 20
91.075152
 30
0.0
 10
45.673203
 20
91.676981
 30
0.0
 10
45.625476
 20
92.401210
 30
0.0
 10
45.583378
 20
93.040190
 30
0.0
  0
LWPOLYLINE
  5
127
100
AcDbEntity
  8
0
 62
7
100
AcDbPolyline
 90
2
 70
0
 10
45.088083
 20
64.006586
 30
0.0
 10
41.012180
 20
64.006586
 30
0.0
  0
SPLINE
  5
128
100
AcDbEntity
  8
0
 62
7
100
AcDbSpline
 70
8
 71
3
 72
8
 73
4
 74
0
 40
0
 40
0
 40
0
 40
0
 40
1
 40
1
 40
1
 40
1
 10
45.571378
 20
93.222214
 30
0.0
 10
45.524534
 20
93.924681
 30
0.0
 10
45.410777
 20
94.791411
 30
0.0
 10
45.274311
 20
95.485303
 30
0.0
  0
SPLINE
  5
129
100
AcDbEntity
  8
0
 62
7
100
AcDbSpline
 70
8
 71
3
 72
8
 73
4
 74
0
 40
0
 40
0
 40
0
 40
0
 40
1
 40
1
 40
1
 40
1
 10
45.274311
 20
95.485303
 30
0.0
 10
45.238584
 20
95.665496
 30
0.0
 10
45.203535
 20
95.868366
 30
0.0
 10
45.166453
 20
96.083166
 30
0.0
  0
SPLINE
  5
12a
100
AcDbEntity
  8
0
 62
7
100
AcDbSpline
 70
8
 71
3
 72
8
 73
4
 74
0
 40
0
 40
0
 40
0
 40
0
 40
1
 40
1
 40
1
 40
1
 10
45.166453
 20
96.083166
 30
0.0
 10
45.073509
 20
96.621372
 30
0.0
 10
44.977379
 20
97.177916
 30
0.0
 10
44.833184
 20
97.611755
 30
0.0
  0
SPLINE
  5
12b
100
AcDbEntity
  8
0
 62
7
100
AcDbSpline
 70
8
 71
3
 72
8
 73
4
 74
0
 40
0
 40
0
 40
0
 40
0
 40
1
 40
1
 40
1
 40
1
 10
44.833184
 20
97.611755
 30
0.0
 10
44.808643
 20
97.685548
 30
0.0
 10
44.782950
 20
97.885333
 30
0.0
 10
44.764171
 20
98.031222
 30
0.0
  0
SPLINE
  5
12c
100
AcDbEntity
  8
0
 62
7
100
AcDbSpline
 70
8
 71
3
 72
8
 73
4
 74
0
 40
0
 40
0
 40
0
 40
0
 40
1
 40
1
 40
1
 40
1
 10
44.764171
 20
98.031222
 30
0.0
 10
44.724919
 20
98.335578
 30
0.0
 10
44.680515
 20
98.680541
 30
0.0
 10
44.560047
 20
98.996862
 30
0.0
  0
SPLINE
  5
12d
100
AcDbEntity
  8
0
 62
7
100
AcDbSpline
 70
8
 71
3
 72
8
 73
4
 74
0
 40
0
 40
0
 40
0
 40
0
 40
1
 40
1
 40
1
 40
1
 10
44.560047
 20
98.996862
 30
0.0
 10
44.249082
 20
99.813695
 30
0.0
 10
43.608374
 20
99.943789
 30
0.0
 10
43.348253
 20
99.961721
 30
0.0
  0
SPLINE
  5
12e
100
AcDbEntity
  8
0
 62
7
100
AcDbSpline
 70
8
 71
3
 72
8
 73
4
 74
0
 40
0
 40
0
 40
0
 40
0
 40
1
 40
1
 40
1
 40
1
 10
43.348253
 20
99.961721
 30
0.0
 10
43.313679
 20
99.964165
 30
0.0
 10
43.279376
 20
99.965317
 30
0.0
 10
43.245751
 20
99.965317
 30
0.0
  0
SPLINE
  5
12f
100
AcDbEntity
  8
0
 62
7
100
AcDbSpline
 70
8
 71
3
 72
8
 73
4
 74
0
 40
0
 40
0
 40
0
 40
0
 40
1
 40
1
 40
1
 40
1
 10
43.245751
 20
99.965317
 30
0.0
 10
42.185203
 20
99.965317
 30
0.0
 10
41.783057
 20
98.947206
 30
0.0
 10
41.567001
 20
98.400255
 30
0.0
  0
SPLINE
  5
130
100
AcDbEntity
  8
0
 62
7
100
AcDbSpline
 70
8
 71
3
 72
8
 73
4
 74
0
 40
0
 40
0
 40
0
 40
0
 40
1
 40
1
 40
1
 40
1
 10
41.567001
 20
98.400255
 30
0.0
 10
41.523952
 20
98.291312
 30
0.0
 10
41.475209
 20
98.167862
 30
0.0
 10
41.445991
 20
98.114407
 30
0.0
  0
SPLINE
  5
131
100
AcDbEntity
  8
0
 62
7
100
AcDbSpline
 70
8
 71
3
 72
8
 73
4
 74
0
 40
0
 40
0
 40
0
 40
0
 40
1
 40
1
 40
1
 40
1
 10
41.445991
 20
98.114407
 30
0.0
 10
41.348234
 20
97.936418
 30
0.0
 10
41.253596
 20
97.735379
 30
0.0
 10
41.153466
 20
97.522543
 30
0.0
  0
SPLINE
  5
132
100
AcDbEntity
  8
0
 62
7
100
AcDbSpline
 70
8
 71
3
 72
8
 73
4
 74
0
 40
0
 40
0
 40
0
 40
0
 40
1
 40
1
 40
1
 40
1
 10
41.153466
 20
97.522543
 30
0.0
 10
41.002152
 20
97.201104
 30
0.0
 10
40.830637
 20
96.836752
 30
0.0
 10
40.666104
 20
96.604664
 30
0.0
  0
SPLINE
  5
133
100
AcDbEntity
  8
0
 62
7
100
AcDbSpline
 70
8
 71
3
 72
8
 73
4
 74
0
 40
0
 40
0
 40
0
 40
0
 40
1
 40
1
 40
1
 40
1
 10
40.666104
 20
96.604664
 30
0.0
 10
40.412085
 20
96.244990
 30
0.0
 10
40.247891
 20
95.822235
 30
0.0
 10
40.103018
 20
95.449240
 30
0.0
  0
SPLINE
  5
134
100
AcDbEntity
  8
0
 62
7
100
AcDbSpline
 70
8
 71
3
 72
8
 73
4
 74
0
 40
0
 40
0
 40
0
 40
0
 40
1
 40
1
 40
1
 40
1
 10
40.103018
 20
95.449240
 30
0.0
 10
40.015091
 20
95.222846
 30
0.0
 10
39.932045
 20
95.008994
 30
0.0
 10
39.843033
 20
94.842055
 30
0.0
  0
SPLINE
  5
135
100
AcDbEntity
  8
0
 62
7
100
AcDbSpline
 70
8
 71
3
 72
8
 73
4
 74
0
 40
0
 40
0
 40
0
 40
0
 40
1
 40
1
 40
1
 40
1
 10
39.843033
 20
94.842055
 30
0.0
 10
39.684059
 20
94.543462
 30
0.0
 10
39.558778
 20
94.226633
 30
0.0
 10
39.437565
 20
93.920244
 30
0.0
  0
SPLINE
  5
136
100
AcDbEntity
  8
0
 62
7
100
AcDbSpline
 70
8
 71
3
 72
8
 73
4
 74
0
 40
0
 40
0
 40
0
 40
0
 40
1
 40
1
 40
1
 40
1
 10
39.437565
 20
93.920244
 30
0.0
 10
39.326588
 20
93.639514
 30
0.0
 10
39.221645
 20
93.374309
 30
0.0
 10
39.104025
 20
93.156186
 30
0.0
  0
SPLINE
  5
137
100
AcDbEntity
  8
0
 62
7
100
AcDbSpline
 70
8
 71
3
 72
8
 73
4
 74
0
 40
0
 40
0
 40
0
 40
0
 40
1
 40
1
 40
1
 40
1
 10
39.104025
 20
93.156186
 30
0.0
 10
38.774688
 20
92.543307
 30
0.0
 10
38.498772
 20
92.010457
 30
0.0
 10
38.261226
 20
91.528383
 30
0.0
  0
SPLINE
  5
138
100
AcDbEntity
  8
0
 62
7
100
AcDbSpline
 70
8
 71
3
 72
8
 73
4
 74
0
 40
0
 40
0
 40
0
 40
0
 40
1
 40
1
 40
1
 40
1
 10
38.261226
 20
91.528383
 30
0.0
 10
37.932025
 20
90.863066
 30
0.0
 10
37.676718
 20
90.344112
 30
0.0
 10
37.457748
 20
89.895054
 30
0.0
  0
SPLINE
  5
139
100
AcDbEntity
  8
0
 62
7
100
AcDbSpline
 70
8
 71
3
 72
8
 73
4
 74
0
 40
0
 40
0
 40
0
 40
0
 40
1
 40
1
 40
1
 40
1
 10
37.457748
 20
89.895054
 30
0.0
 10
37.272673
 20
89.515415
 30
0.0
 10
36.977911
 20
89.187027
 30
0.0
 10
36.636643
 20
88.806744
 30
0.0
  0
LWPOLYLINE
  5
13a
100
AcDbEntity
  8
0
 62
7
100
AcDbPolyline
 90
2
 70
0
 10
45.583378
 20
93.040190
 30
0.0
 10
45.571378
 20
93.222214
 30
0.0
  0
SPLINE
  5
13b
100
AcDbEntity
  8
0
 62
7
100
AcDbSpline
 70
8
 71
3
 72
8
 73
4
 74
0
 40
0
 40
0
 40
0
 40
0
 40
1
 40
1
 40
1
 40
1
 10
36.553258
 20
88.713800
 30
0.0
 10
36.278901
 20
88.406665
 30
0.0
 10
36.075862
 20
88.091870
 30
0.0
 10
35.879467
 20
87.787481
 30
0.0
  0
SPLINE
  5
13c
100
AcDbEntity
  8
0
 62
7
100
AcDbSpline
 70
8
 71
3
 72
8
 73
4
 74
0
 40
0
 40
0
 40
0
 40
0
 40
1
 40
1
 40
1
 40
1
 10
35.879467
 20
87.787481
 30
0.0
 10
35.753372
 20
87.591966
 30
0.0
 10
35.634193
 20
87.407334
 30
0.0
 10
35.507150
 20
87.243241
 30
0.0
  0
SPLINE
  5
13d
100
AcDbEntity
  8
0
 62
7
100
AcDbSpline
 70
8
 71
3
 72
8
 73
4
 74
0
 40
0
 40
0
 40
0
 40
0
 40
1
 40
1
 40
1
 40
1
 10
35.507150
 20
87.243241
 30
0.0
 10
35.406884
 20
87.114266
 30
0.0
 10
35.309127
 20
86.985019
 30
0.0
 10
35.211845
 20
86.856349
 30
0.0
  0
SPLINE
  5
13e
100
AcDbEntity
  8
0
 62
7
100
AcDbSpline
 70
8
 71
3
 72
8
 73
4
 74
0
 40
0
 40
0
 40
0
 40
0
 40
1
 40
1
 40
1
 40
1
 10
35.211845
 20
86.856349
 30
0.0
 10
34.966435
 20
86.531859
 30
0.0
 10
34.734652
 20
86.225368
 30
0.0
 10
34.477108
 20
85.944097
 30
0.0
  0
SPLINE
  5
13f
100
AcDbEntity
  8
0
 62
7
100
AcDbSpline
 70
8
 71
3
 72
8
 73
4
 74
0
 40
0
 40
0
 40
0
 40
0
 40
1
 40
1
 40
1
 40
1
 10
34.477108
 20
85.944097
 30
0.0
 10
34.100723
 20
85.531646
 30
0.0
 10
33.781623
 20
85.068453
 30
0.0
 10
33.500080
 20
84.659832
 30
0.0
  0
SPLINE
  5
140
100
AcDbEntity
  8
0
 62
7
100
AcDbSpline
 70
8
 71
3
 72
8
 73
4
 74
0
 40
0
 40
0
 40
0
 40
0
 40
1
 40
1
 40
1
 40
1
 10
33.500080
 20
84.659832
 30
0.0
 10
33.453981
 20
84.592921
 30
0.0
 10
33.408221
 20
84.526552
 30
0.0
 10
33.362664
 20
84.460962
 30
0.0
  0
SPLINE
  5
141
100
AcDbEntity
  8
0
 62
7
100
AcDbSpline
 70
8
 71
3
 72
8
 73
4
 74
0
 40
0
 40
0
 40
0
 40
0
 40
1
 40
1
 40
1
 40
1
 10
33.362664
 20
84.460962
 30
0.0
 10
33.140237
 20
84.140811
 30
0.0
 10
32.715380
 20
83.517932
 30
0.0
 10
32.369840
 20
82.944304
 30
0.0
  0
SPLINE
  5
142
100
AcDbEntity
  8
0
 62
7
100
AcDbSpline
 70
8
 71
3
 72
8
 73
4
 74
0
 40
0
 40
0
 40
0
 40
0
 40
1
 40
1
 40
1
 40
1
 10
32.369840
 20
82.944304
 30
0.0
 10
32.235272
 20
82.721538
 30
0.0
 10
32.092365
 20
82.455756
 30
0.0
 10
31.954204
 20
82.198721
 30
0.0
  0
SPLINE
  5
143
100
AcDbEntity
  8
0
 62
7
100
AcDbSpline
 70
8
 71
3
 72
8
 73
4
 74
0
 40
0
 40
0
 40
0
 40
0
 40
1
 40
1
 40
1
 40
1
 10
31.954204
 20
82.198721
 30
0.0
 10
31.797467
 20
81.907246
 30
0.0
 10
31.635375
 20
81.605840
 30
0.0
 10
31.513009
 20
81.419512
 30
0.0
  0
SPLINE
  5
144
100
AcDbEntity
  8
0
 62
7
100
AcDbSpline
 70
8
 71
3
 72
8
 73
4
 74
0
 40
0
 40
0
 40
0
 40
0
 40
1
 40
1
 40
1
 40
1
 10
31.513009
 20
81.419512
 30
0.0
 10
31.385627
 20
81.225930
 30
0.0
 10
31.302648
 20
81.003739
 30
0.0
 10
31.214721
 20
80.768499
 30
0.0
  0
SPLINE
  5
145
100
AcDbEntity
  8
0
 62
7
100
AcDbSpline
 70
8
 71
3
 72
8
 73
4
 74
0
 40
0
 40
0
 40
0
 40
0
 40
1
 40
1
 40
1
 40
1
 10
31.214721
 20
80.768499
 30
0.0
 10
31.210514
 20
80.757144
 30
0.0
 10
31.206043
 20
80.745178
 30
0.0
 10
31.201366
 20
80.732704
 30
0.0
  0
SPLINE
  5
146
100
AcDbEntity
  8
0
 62
7
100
AcDbSpline
 70
8
 71
3
 72
8
 73
4
 74
0
 40
0
 40
0
 40
0
 40
0
 40
1
 40
1
 40
1
 40
1
 10
31.201366
 20
80.732704
 30
0.0
 10
30.958397
 20
80.827885
 30
0.0
 10
30.706682
 20
80.872391
 30
0.0
 10
30.427919
 20
80.872391
 30
0.0
  0
SPLINE
  5
147
100
AcDbEntity
  8
0
 62
7
100
AcDbSpline
 70
8
 71
3
 72
8
 73
4
 74
0
 40
0
 40
0
 40
0
 40
0
 40
1
 40
1
 40
1
 40
1
 10
30.427919
 20
80.872391
 30
0.0
 10
30.328739
 20
80.872391
 30
0.0
 10
30.238506
 20
80.867310
 30
0.0
 10
30.151189
 20
80.862426
 30
0.0
  0
SPLINE
  5
148
100
AcDbEntity
  8
0
 62
7
100
AcDbSpline
 70
8
 71
3
 72
8
 73
4
 74
0
 40
0
 40
0
 40
0
 40
0
 40
1
 40
1
 40
1
 40
1
 10
30.151189
 20
80.862426
 30
0.0
 10
30.075194
 20
80.858157
 30
0.0
 10
30.003469
 20
80.854156
 30
0.0
 10
29.933439
 20
80.854156
 30
0.0
  0
SPLINE
  5
149
100
AcDbEntity
  8
0
 62
7
100
AcDbSpline
 70
8
 71
3
 72
8
 73
4
 74
0
 40
0
 40
0
 40
0
 40
0
 40
1
 40
1
 40
1
 40
1
 10
29.933439
 20
80.854156
 30
0.0
 10
29.861715
 20
80.854156
 30
0.0
 10
29.798464
 20
80.858355
 30
0.0
 10
29.734332
 20
80.867443
 30
0.0
  0
SPLINE
  5
14a
100
AcDbEntity
  8
0
 62
7
100
AcDbSpline
 70
8
 71
3
 72
8
 73
4
 74
0
 40
0
 40
0
 40
0
 40
0
 40
1
 40
1
 40
1
 40
1
 10
29.734332
 20
80.867443
 30
0.0
 10
29.455637
 20
80.906763
 30
0.0
 10
29.165552
 20
80.977911
 30
0.0
 10
28.858451
 20
81.053195
 30
0.0
  0
SPLINE
  5
14b
100
AcDbEntity
  8
0
 62
7
100
AcDbSpline
 70
8
 71
3
 72
8
 73
4
 74
0
 40
0
 40
0
 40
0
 40
0
 40
1
 40
1
 40
1
 40
1
 10
28.858451
 20
81.053195
 30
0.0
 10
28.491760
 20
81.143088
 30
0.0
 10
28.112596
 20
81.236032
 30
0.0
 10
27.708212
 20
81.286435
 30
0.0
  0
SPLINE
  5
14c
100
AcDbEntity
  8
0
 62
7
100
AcDbSpline
 70
8
 71
3
 72
8
 73
4
 74
0
 40
0
 40
0
 40
0
 40
0
 40
1
 40
1
 40
1
 40
1
 10
27.708212
 20
81.286435
 30
0.0
 10
27.199428
 20
81.350364
 30
0.0
 10
26.700068
 20
81.490152
 30
0.0
 10
26.171420
 20
81.638110
 30
0.0
  0
SPLINE
  5
14d
100
AcDbEntity
  8
0
 62
7
100
AcDbSpline
 70
8
 71
3
 72
8
 73
4
 74
0
 40
0
 40
0
 40
0
 40
0
 40
1
 40
1
 40
1
 40
1
 10
26.171420
 20
81.638110
 30
0.0
 10
26.070205
 20
81.666481
 30
0.0
 10
25.968652
 20
81.694886
 30
0.0
 10
25.866692
 20
81.722885
 30
0.0
  0
SPLINE
  5
14e
100
AcDbEntity
  8
0
 62
7
100
AcDbSpline
 70
8
 71
3
 72
8
 73
4
 74
0
 40
0
 40
0
 40
0
 40
0
 40
1
 40
1
 40
1
 40
1
 10
25.866692
 20
81.722885
 30
0.0
 10
25.691108
 20
81.771119
 30
0.0
 10
25.520271
 20
81.819930
 30
0.0
 10
25.351128
 20
81.868232
 30
0.0
  0
SPLINE
  5
14f
100
AcDbEntity
  8
0
 62
7
100
AcDbSpline
 70
8
 71
3
 72
8
 73
4
 74
0
 40
0
 40
0
 40
0
 40
0
 40
1
 40
1
 40
1
 40
1
 10
25.351128
 20
81.868232
 30
0.0
 10
24.891561
 20
81.999513
 30
0.0
 10
24.416335
 20
82.135268
 30
0.0
 10
23.892433
 20
82.245532
 30
0.0
  0
SPLINE
  5
150
100
AcDbEntity
  8
0
 62
7
100
AcDbSpline
 70
8
 71
3
 72
8
 73
4
 74
0
 40
0
 40
0
 40
0
 40
0
 40
1
 40
1
 40
1
 40
1
 10
23.892433
 20
82.245532
 30
0.0
 10
23.610619
 20
82.304546
 30
0.0
 10
23.349956
 20
82.388507
 30
0.0
 10
23.074006
 20
82.477383
 30
0.0
  0
SPLINE
  5
151
100
AcDbEntity
  8
0
 62
7
100
AcDbSpline
 70
8
 71
3
 72
8
 73
4
 74
0
 40
0
 40
0
 40
0
 40
0
 40
1
 40
1
 40
1
 40
1
 10
23.074006
 20
82.477383
 30
0.0
 10
22.744432
 20
82.583547
 30
0.0
 10
22.403638
 20
82.693337
 30
0.0
 10
21.990306
 20
82.776484
 30
0.0
  0
SPLINE
  5
152
100
AcDbEntity
  8
0
 62
7
100
AcDbSpline
 70
8
 71
3
 72
8
 73
4
 74
0
 40
0
 40
0
 40
0
 40
0
 40
1
 40
1
 40
1
 40
1
 10
21.990306
 20
82.776484
 30
0.0
 10
21.894854
 20
82.795771
 30
0.0
 10
21.799402
 20
82.805534
 30
0.0
 10
21.706594
 20
82.805534
 30
0.0
  0
SPLINE
  5
153
100
AcDbEntity
  8
0
 62
7
100
AcDbSpline
 70
8
 71
3
 72
8
 73
4
 74
0
 40
0
 40
0
 40
0
 40
0
 40
1
 40
1
 40
1
 40
1
 10
21.706594
 20
82.805534
 30
0.0
 10
21.116764
 20
82.805534
 30
0.0
 10
20.641266
 20
82.421624
 30
0.0
 10
20.495274
 20
81.827421
 30
0.0
  0
SPLINE
  5
154
100
AcDbEntity
  8
0
 62
7
100
AcDbSpline
 70
8
 71
3
 72
8
 73
4
 74
0
 40
0
 40
0
 40
0
 40
0
 40
1
 40
1
 40
1
 40
1
 10
20.495274
 20
81.827421
 30
0.0
 10
20.465649
 20
81.706954
 30
0.0
 10
20.450463
 20
81.576182
 30
0.0
 10
20.449311
 20
81.440460
 30
0.0
  0
SPLINE
  5
155
100
AcDbEntity
  8
0
 62
7
100
AcDbSpline
 70
8
 71
3
 72
8
 73
4
 74
0
 40
0
 40
0
 40
0
 40
0
 40
1
 40
1
 40
1
 40
1
 10
20.449311
 20
81.440460
 30
0.0
 10
19.437166
 20
81.384294
 30
0.0
 10
18.358957
 20
81.193932
 30
0.0
 10
17.353253
 20
80.890594
 30
0.0
  0
SPLINE
  5
156
100
AcDbEntity
  8
0
 62
7
100
AcDbSpline
 70
8
 71
3
 72
8
 73
4
 74
0
 40
0
 40
0
 40
0
 40
0
 40
1
 40
1
 40
1
 40
1
 10
17.353253
 20
80.890594
 30
0.0
 10
16.580858
 20
80.657624
 30
0.0
 10
16.066854
 20
80.203380
 30
0.0
 10
15.653894
 20
79.838418
 30
0.0
  0
SPLINE
  5
157
100
AcDbEntity
  8
0
 62
7
100
AcDbSpline
 70
8
 71
3
 72
8
 73
4
 74
0
 40
0
 40
0
 40
0
 40
0
 40
1
 40
1
 40
1
 40
1
 10
15.653894
 20
79.838418
 30
0.0
 10
15.580712
 20
79.773777
 30
0.0
 10
15.512614
 20
79.713984
 30
0.0
 10
15.447906
 20
79.658970
 30
0.0
  0
SPLINE
  5
158
100
AcDbEntity
  8
0
 62
7
100
AcDbSpline
 70
8
 71
3
 72
8
 73
4
 74
0
 40
0
 40
0
 40
0
 40
0
 40
1
 40
1
 40
1
 40
1
 10
15.447906
 20
79.658970
 30
0.0
 10
15.340116
 20
80.338287
 30
0.0
 10
15.224089
 20
81.026416
 30
0.0
 10
15.065962
 20
81.648990
 30
0.0
  0
SPLINE
  5
159
100
AcDbEntity
  8
0
 62
7
100
AcDbSpline
 70
8
 71
3
 72
8
 73
4
 74
0
 40
0
 40
0
 40
0
 40
0
 40
1
 40
1
 40
1
 40
1
 10
15.065962
 20
81.648990
 30
0.0
 10
14.841806
 20
82.528363
 30
0.0
 10
14.566907
 20
83.430344
 30
0.0
 10
14.200589
 20
84.488317
 30
0.0
  0
SPLINE
  5
15a
100
AcDbEntity
  8
0
 62
7
100
AcDbSpline
 70
8
 71
3
 72
8
 73
4
 74
0
 40
0
 40
0
 40
0
 40
0
 40
1
 40
1
 40
1
 40
1
 10
14.200589
 20
84.488317
 30
0.0
 10
13.910369
 20
85.324608
 30
0.0
 10
13.545847
 20
86.068836
 30
0.0
 10
13.193325
 20
86.788556
 30
0.0
  0
SPLINE
  5
15b
100
AcDbEntity
  8
0
 62
7
100
AcDbSpline
 70
8
 71
3
 72
8
 73
4
 74
0
 40
0
 40
0
 40
0
 40
0
 40
1
 40
1
 40
1
 40
1
 10
13.193325
 20
86.788556
 30
0.0
 10
13.144717
 20
86.887771
 30
0.0
 10
13.096246
 20
86.986782
 30
0.0
 10
13.048384
 20
87.085115
 30
0.0
  0
SPLINE
  5
15c
100
AcDbEntity
  8
0
 62
7
100
AcDbSpline
 70
8
 71
3
 72
8
 73
4
 74
0
 40
0
 40
0
 40
0
 40
0
 40
1
 40
1
 40
1
 40
1
 10
13.048384
 20
87.085115
 30
0.0
 10
12.684338
 20
87.834699
 30
0.0
 10
12.212704
 20
88.451477
 30
0.0
 10
11.756629
 20
89.047950
 30
0.0
  0
SPLINE
  5
15d
100
AcDbEntity
  8
0
 62
7
100
AcDbSpline
 70
8
 71
3
 72
8
 73
4
 74
0
 40
0
 40
0
 40
0
 40
0
 40
1
 40
1
 40
1
 40
1
 10
11.756629
 20
89.047950
 30
0.0
 10
11.671244
 20
89.159605
 30
0.0
 10
11.585418
 20
89.271802
 30
0.0
 10
11.499898
 20
89.385456
 30
0.0
  0
SPLINE
  5
15e
100
AcDbEntity
  8
0
 62
7
100
AcDbSpline
 70
8
 71
3
 72
8
 73
4
 74
0
 40
0
 40
0
 40
0
 40
0
 40
1
 40
1
 40
1
 40
1
 10
11.499898
 20
89.385456
 30
0.0
 10
11.299571
 20
89.651746
 30
0.0
 10
11.083719
 20
89.882038
 30
0.0
 10
10.875019
 20
90.104737
 30
0.0
  0
SPLINE
  5
15f
100
AcDbEntity
  8
0
 62
7
100
AcDbSpline
 70
8
 71
3
 72
8
 73
4
 74
0
 40
0
 40
0
 40
0
 40
0
 40
1
 40
1
 40
1
 40
1
 10
10.875019
 20
90.104737
 30
0.0
 10
10.514430
 20
90.489528
 30
0.0
 10
10.202991
 20
90.821848
 30
0.0
 10
10.085912
 20
91.218842
 30
0.0
  0
SPLINE
  5
160
100
AcDbEntity
  8
0
 62
7
100
AcDbSpline
 70
8
 71
3
 72
8
 73
4
 74
0
 40
0
 40
0
 40
0
 40
0
 40
1
 40
1
 40
1
 40
1
 10
10.085912
 20
91.218842
 30
0.0
 10
9.871247
 20
91.946901
 30
0.0
 10
9.551537
 20
92.584491
 30
0.0
 10
9.242334
 20
93.201066
 30
0.0
  0
SPLINE
  5
161
100
AcDbEntity
  8
0
 62
7
100
AcDbSpline
 70
8
 71
3
 72
8
 73
4
 74
0
 40
0
 40
0
 40
0
 40
0
 40
1
 40
1
 40
1
 40
1
 10
9.242334
 20
93.201066
 30
0.0
 10
9.136374
 20
93.412342
 30
0.0
 10
9.026821
 20
93.630837
 30
0.0
 10
8.924928
 20
93.846757
 30
0.0
  0
SPLINE
  5
162
100
AcDbEntity
  8
0
 62
7
100
AcDbSpline
 70
8
 71
3
 72
8
 73
4
 74
0
 40
0
 40
0
 40
0
 40
0
 40
1
 40
1
 40
1
 40
1
 10
8.924928
 20
93.846757
 30
0.0
 10
8.692230
 20
94.339474
 30
0.0
 10
8.444787
 20
94.765788
 30
0.0
 10
8.205479
 20
95.178069
 30
0.0
  0
SPLINE
  5
163
100
AcDbEntity
  8
0
 62
7
100
AcDbSpline
 70
8
 71
3
 72
8
 73
4
 74
0
 40
0
 40
0
 40
0
 40
0
 40
1
 40
1
 40
1
 40
1
 10
8.205479
 20
95.178069
 30
0.0
 10
8.017117
 20
95.502525
 30
0.0
 10
7.822349
 20
95.838065
 30
0.0
 10
7.637206
 20
96.203264
 30
0.0
  0
SPLINE
  5
164
100
AcDbEntity
  8
0
 62
7
100
AcDbSpline
 70
8
 71
3
 72
8
 73
4
 74
0
 40
0
 40
0
 40
0
 40
0
 40
1
 40
1
 40
1
 40
1
 10
7.637206
 20
96.203264
 30
0.0
 10
7.414880
 20
96.641883
 30
0.0
 10
7.171810
 20
96.988202
 30
0.0
 10
6.957347
 20
97.293744
 30
0.0
  0
SPLINE
  5
165
100
AcDbEntity
  8
0
 62
7
100
AcDbSpline
 70
8
 71
3
 72
8
 73
4
 74
0
 40
0
 40
0
 40
0
 40
0
 40
1
 40
1
 40
1
 40
1
 10
6.957347
 20
97.293744
 30
0.0
 10
6.706176
 20
97.651554
 30
0.0
 10
6.489272
 20
97.960586
 30
0.0
 10
6.299554
 20
98.401340
 30
0.0
  0
SPLINE
  5
166
100
AcDbEntity
  8
0
 62
7
100
AcDbSpline
 70
8
 71
3
 72
8
 73
4
 74
0
 40
0
 40
0
 40
0
 40
0
 40
1
 40
1
 40
1
 40
1
 10
6.299554
 20
98.401340
 30
0.0
 10
5.946456
 20
99.219632
 30
0.0
 10
5.322154
 20
99.308000
 30
0.0
 10
5.070134
 20
99.308000
 30
0.0
  0
SPLINE
  5
167
100
AcDbEntity
  8
0
 62
7
100
AcDbSpline
 70
8
 71
3
 72
8
 73
4
 74
0
 40
0
 40
0
 40
0
 40
0
 40
1
 40
1
 40
1
 40
1
 10
5.070134
 20
99.308000
 30
0.0
 10
4.023789
 20
99.308000
 30
0.0
 10
3.335998
 20
97.984449
 30
0.0
 10
3.088521
 20
97.414585
 30
0.0
  0
SPLINE
  5
168
100
AcDbEntity
  8
0
 62
7
100
AcDbSpline
 70
8
 71
3
 72
8
 73
4
 74
0
 40
0
 40
0
 40
0
 40
0
 40
1
 40
1
 40
1
 40
1
 10
3.088521
 20
97.414585
 30
0.0
 10
3.013034
 20
97.240324
 30
0.0
 10
2.932191
 20
97.062164
 30
0.0
 10
2.846603
 20
96.873498
 30
0.0
  0
SPLINE
  5
169
100
AcDbEntity
  8
0
 62
7
100
AcDbSpline
 70
8
 71
3
 72
8
 73
4
 74
0
 40
0
 40
0
 40
0
 40
0
 40
1
 40
1
 40
1
 40
1
 10
2.846603
 20
96.873498
 30
0.0
 10
2.540519
 20
96.198825
 30
0.0
 10
2.193556
 20
95.434157
 30
0.0
 10
2.001804
 20
94.620035
 30
0.0
  0
SPLINE
  5
16a
100
AcDbEntity
  8
0
 62
7
100
AcDbSpline
 70
8
 71
3
 72
8
 73
4
 74
0
 40
0
 40
0
 40
0
 40
0
 40
1
 40
1
 40
1
 40
1
 10
2.001804
 20
94.620035
 30
0.0
 10
1.952858
 20
94.412183
 30
0.0
 10
1.899946
 20
94.200093
 30
0.0
 10
1.846220
 20
93.984614
 30
0.0
  0
SPLINE
  5
16b
100
AcDbEntity
  8
0
 62
7
100
AcDbSpline
 70
8
 71
3
 72
8
 73
4
 74
0
 40
0
 40
0
 40
0
 40
0
 40
1
 40
1
 40
1
 40
1
 10
1.846220
 20
93.984614
 30
0.0
 10
1.649181
 20
93.194389
 30
0.0
 10
1.445430
 20
92.377284
 30
0.0
 10
1.358282
 20
91.518486
 30
0.0
  0
SPLINE
  5
16c
100
AcDbEntity
  8
0
 62
7
100
AcDbSpline
 70
8
 71
3
 72
8
 73
4
 74
0
 40
0
 40
0
 40
0
 40
0
 40
1
 40
1
 40
1
 40
1
 10
1.358282
 20
91.518486
 30
0.0
 10
1.316420
 20
91.105968
 30
0.0
 10
1.285270
 20
90.656468
 30
0.0
 10
1.255102
 20
90.221782
 30
0.0
  0
SPLINE
  5
16d
100
AcDbEntity
  8
0
 62
7
100
AcDbSpline
 70
8
 71
3
 72
8
 73
4
 74
0
 40
0
 40
0
 40
0
 40
0
 40
1
 40
1
 40
1
 40
1
 10
1.255102
 20
90.221782
 30
0.0
 10
1.208359
 20
89.547346
 30
0.0
 10
1.159989
 20
88.849963
 30
0.0
 10
1.070367
 20
88.242202
 30
0.0
  0
SPLINE
  5
16e
100
AcDbEntity
  8
0
 62
7
100
AcDbSpline
 70
8
 71
3
 72
8
 73
4
 74
0
 40
0
 40
0
 40
0
 40
0
 40
1
 40
1
 40
1
 40
1
 10
1.070367
 20
88.242202
 30
0.0
 10
0.905427
 20
87.123894
 30
0.0
 10
0.829872
 20
85.785802
 30
0.0
 10
0.868243
 20
84.662817
 30
0.0
  0
SPLINE
  5
16f
100
AcDbEntity
  8
0
 62
7
100
AcDbSpline
 70
8
 71
3
 72
8
 73
4
 74
0
 40
0
 40
0
 40
0
 40
0
 40
1
 40
1
 40
1
 40
1
 10
0.868243
 20
84.662817
 30
0.0
 10
0.903970
 20
83.617996
 30
0.0
 10
1.036742
 20
82.361086
 30
0.0
 10
1.232663
 20
81.213830
 30
0.0
  0
SPLINE
  5
170
100
AcDbEntity
  8
0
 62
7
100
AcDbSpline
 70
8
 71
3
 72
8
 73
4
 74
0
 40
0
 40
0
 40
0
 40
0
 40
1
 40
1
 40
1
 40
1
 10
1.232663
 20
81.213830
 30
0.0
 10
1.385060
 20
80.325136
 30
0.0
 10
1.657757
 20
79.570603
 30
0.0
 10
1.921504
 20
78.840883
 30
0.0
  0
SPLINE
  5
171
100
AcDbEntity
  8
0
 62
7
100
AcDbSpline
 70
8
 71
3
 72
8
 73
4
 74
0
 40
0
 40
0
 40
0
 40
0
 40
1
 40
1
 40
1
 40
1
 10
1.921504
 20
78.840883
 30
0.0
 10
1.985737
 20
78.663232
 30
0.0
 10
2.050242
 20
78.484835
 30
0.0
 10
2.113256
 20
78.303524
 30
0.0
  0
SPLINE
  5
172
100
AcDbEntity
  8
0
 62
7
100
AcDbSpline
 70
8
 71
3
 72
8
 73
4
 74
0
 40
0
 40
0
 40
0
 40
0
 40
1
 40
1
 40
1
 40
1
 10
2.113256
 20
78.303524
 30
0.0
 10
2.429272
 20
77.395001
 30
0.0
 10
2.754371
 20
76.506171
 30
0.0
 10
3.254477
 20
75.620934
 30
0.0
  0
SPLINE
  5
173
100
AcDbEntity
  8
0
 62
7
100
AcDbSpline
 70
8
 71
3
 72
8
 73
4
 74
0
 40
0
 40
0
 40
0
 40
0
 40
1
 40
1
 40
1
 40
1
 10
3.254477
 20
75.620934
 30
0.0
 10
3.744042
 20
74.754239
 30
0.0
 10
4.224997
 20
74.053262
 30
0.0
 10
4.715884
 20
73.351947
 30
0.0
  0
SPLINE
  5
174
100
AcDbEntity
  8
0
 62
7
100
AcDbSpline
 70
8
 71
3
 72
8
 73
4
 74
0
 40
0
 40
0
 40
0
 40
0
 40
1
 40
1
 40
1
 40
1
 10
4.715884
 20
73.351947
 30
0.0
 10
4.992919
 20
72.956512
 30
0.0
 10
5.279648
 20
72.614566
 30
0.0
 10
5.556920
 20
72.283908
 30
0.0
  0
SPLINE
  5
175
100
AcDbEntity
  8
0
 62
7
100
AcDbSpline
 70
8
 71
3
 72
8
 73
4
 74
0
 40
0
 40
0
 40
0
 40
0
 40
1
 40
1
 40
1
 40
1
 10
5.556920
 20
72.283908
 30
0.0
 10
5.574817
 20
72.262553
 30
0.0
 10
5.592647
 20
72.241300
 30
0.0
 10
5.610442
 20
72.220081
 30
0.0
  0
SPLINE
  5
176
100
AcDbEntity
  8
0
 62
7
100
AcDbSpline
 70
8
 71
3
 72
8
 73
4
 74
0
 40
0
 40
0
 40
0
 40
0
 40
1
 40
1
 40
1
 40
1
 10
5.610442
 20
72.220081
 30
0.0
 10
5.437673
 20
72.089818
 30
0.0
 10
5.286461
 20
71.923996
 30
0.0
 10
5.185722
 20
71.709297
 30
0.0
  0
SPLINE
  5
177
100
AcDbEntity
  8
0
 62
7
100
AcDbSpline
 70
8
 71
3
 72
8
 73
4
 74
0
 40
0
 40
0
 40
0
 40
0
 40
1
 40
1
 40
1
 40
1
 10
5.185722
 20
71.709297
 30
0.0
 10
5.031968
 20
71.381655
 30
0.0
 10
5.031256
 20
71.009507
 30
0.0
 10
5.183889
 20
70.661053
 30
0.0
  0
SPLINE
  5
178
100
AcDbEntity
  8
0
 62
7
100
AcDbSpline
 70
8
 71
3
 72
8
 73
4
 74
0
 40
0
 40
0
 40
0
 40
0
 40
1
 40
1
 40
1
 40
1
 10
5.183889
 20
70.661053
 30
0.0
 10
5.341541
 20
70.301650
 30
0.0
 10
5.562816
 20
70.055868
 30
0.0
 10
5.800836
 20
69.880623
 30
0.0
  0
SPLINE
  5
179
100
AcDbEntity
  8
0
 62
7
100
AcDbSpline
 70
8
 71
3
 72
8
 73
4
 74
0
 40
0
 40
0
 40
0
 40
0
 40
1
 40
1
 40
1
 40
1
 10
5.800836
 20
69.880623
 30
0.0
 10
5.389267
 20
69.427870
 30
0.0
 10
4.852485
 20
68.703268
 30
0.0
 10
5.257139
 20
67.806235
 30
0.0
  0
SPLINE
  5
17a
100
AcDbEntity
  8
0
 62
7
100
AcDbSpline
 70
8
 71
3
 72
8
 73
4
 74
0
 40
0
 40
0
 40
0
 40
0
 40
1
 40
1
 40
1
 40
1
 10
5.257139
 20
67.806235
 30
0.0
 10
5.632880
 20
66.973334
 30
0.0
 10
6.467510
 20
66.662335
 30
0.0
 10
7.211839
 20
66.502209
 30
0.0
  0
SPLINE
  5
17b
100
AcDbEntity
  8
0
 62
7
100
AcDbSpline
 70
8
 71
3
 72
8
 73
4
 74
0
 40
0
 40
0
 40
0
 40
0
 40
1
 40
1
 40
1
 40
1
 10
7.211839
 20
66.502209
 30
0.0
 10
7.072525
 20
66.117553
 30
0.0
 10
6.986733
 20
65.669104
 30
0.0
 10
7.188044
 20
65.213674
 30
0.0
  0
SPLINE
  5
17c
100
AcDbEntity
  8
0
 62
7
100
AcDbSpline
 70
8
 71
3
 72
8
 73
4
 74
0
 40
0
 40
0
 40
0
 40
0
 40
1
 40
1
 40
1
 40
1
 10
7.188044
 20
65.213674
 30
0.0
 10
7.190925
 20
65.207197
 30
0.0
 10
7.193875
 20
65.200657
 30
0.0
 10
7.196925
 20
65.194048
 30
0.0
  0
SPLINE
  5
17d
100
AcDbEntity
  8
0
 62
7
100
AcDbSpline
 70
8
 71
3
 72
8
 73
4
 74
0
 40
0
 40
0
 40
0
 40
0
 40
1
 40
1
 40
1
 40
1
 10
7.196925
 20
65.194048
 30
0.0
 10
7.119743
 20
65.101714
 30
0.0
 10
7.044968
 20
65.017753
 30
0.0
 10
6.997445
 20
64.980908
 30
0.0
  0
SPLINE
  5
17e
100
AcDbEntity
  8
0
 62
7
100
AcDbSpline
 70
8
 71
3
 72
8
 73
4
 74
0
 40
0
 40
0
 40
0
 40
0
 40
1
 40
1
 40
1
 40
1
 10
6.997445
 20
64.980908
 30
0.0
 10
6.725676
 20
64.770810
 30
0.0
 10
6.458010
 20
64.408856
 30
0.0
 10
6.317293
 20
64.006067
 30
0.0
  0
SPLINE
  5
17f
100
AcDbEntity
  8
0
 62
7
100
AcDbSpline
 70
8
 71
3
 72
8
 73
4
 74
0
 40
0
 40
0
 40
0
 40
0
 40
1
 40
1
 40
1
 40
1
 10
6.317293
 20
64.006067
 30
0.0
 10
6.301269
 20
64.005997
 30
0.0
 10
6.285342
 20
64.005997
 30
0.0
 10
6.269317
 20
64.005858
 30
0.0
  0
SPLINE
  5
180
100
AcDbEntity
  8
0
 62
7
100
AcDbSpline
 70
8
 71
3
 72
8
 73
4
 74
0
 40
0
 40
0
 40
0
 40
0
 40
1
 40
1
 40
1
 40
1
 10
6.269317
 20
64.005858
 30
0.0
 10
6.055025
 20
64.004636
 30
0.0
 10
5.840732
 20
64.003415
 30
0.0
 10
5.627592
 20
64.003415
 30
0.0
  0
SPLINE
  5
181
100
AcDbEntity
  8
0
 62
7
100
AcDbSpline
 70
8
 71
3
 72
8
 73
4
 74
0
 40
0
 40
0
 40
0
 40
0
 40
1
 40
1
 40
1
 40
1
 10
5.627592
 20
64.003415
 30
0.0
 10
5.455466
 20
64.003415
 30
0.0
 10
5.284222
 20
64.004227
 30
0.0
 10
5.114334
 20
64.006497
 30
0.0
  0
SPLINE
  5
182
100
AcDbEntity
  8
0
 62
7
100
AcDbSpline
 70
8
 71
3
 72
8
 73
4
 74
0
 40
0
 40
0
 40
0
 40
0
 40
1
 40
1
 40
1
 40
1
 10
5.114334
 20
64.006497
 30
0.0
 10
4.995527
 20
64.008059
 30
0.0
 10
4.875670
 20
64.008698
 30
0.0
 10
4.755270
 20
64.008698
 30
0.0
  0
SPLINE
  5
183
100
AcDbEntity
  8
0
 62
7
100
AcDbSpline
 70
8
 71
3
 72
8
 73
4
 74
0
 40
0
 40
0
 40
0
 40
0
 40
1
 40
1
 40
1
 40
1
 10
4.755270
 20
64.008698
 30
0.0
 10
4.535385
 20
64.008698
 30
0.0
 10
4.313398
 20
64.006594
 30
0.0
 10
4.091444
 20
64.004463
 30
0.0
  0
SPLINE
  5
184
100
AcDbEntity
  8
0
 62
7
100
AcDbSpline
 70
8
 71
3
 72
8
 73
4
 74
0
 40
0
 40
0
 40
0
 40
0
 40
1
 40
1
 40
1
 40
1
 10
4.091444
 20
64.004463
 30
0.0
 10
3.875321
 20
64.002394
 30
0.0
 10
3.659198
 20
64.000326
 30
0.0
 10
3.445211
 20
64.000326
 30
0.0
  0
SPLINE
  5
185
100
AcDbEntity
  8
0
 62
7
100
AcDbSpline
 70
8
 71
3
 72
8
 73
4
 74
0
 40
0
 40
0
 40
0
 40
0
 40
1
 40
1
 40
1
 40
1
 10
3.445211
 20
64.000326
 30
0.0
 10
3.241290
 20
64.000326
 30
0.0
 10
3.064081
 20
64.002255
 30
0.0
 10
2.903480
 20
64.006289
 30
0.0
  0
SPLINE
  5
186
100
AcDbEntity
  8
0
 62
7
100
AcDbSpline
 70
8
 71
3
 72
8
 73
4
 74
0
 40
0
 40
0
 40
0
 40
0
 40
1
 40
1
 40
1
 40
1
 10
2.903480
 20
64.006289
 30
0.0
 10
2.817553
 20
64.008427
 30
0.0
 10
2.728100
 20
64.013238
 30
0.0
 10
2.637800
 20
64.017983
 30
0.0
  0
SPLINE
  5
187
100
AcDbEntity
  8
0
 62
7
100
AcDbSpline
 70
8
 71
3
 72
8
 73
4
 74
0
 40
0
 40
0
 40
0
 40
0
 40
1
 40
1
 40
1
 40
1
 10
2.637800
 20
64.017983
 30
0.0
 10
2.489876
 20
64.025746
 30
0.0
 10
2.336936
 20
64.033779
 30
0.0
 10
2.179826
 20
64.033779
 30
0.0
  0
SPLINE
  5
188
100
AcDbEntity
  8
0
 62
7
100
AcDbSpline
 70
8
 71
3
 72
8
 73
4
 74
0
 40
0
 40
0
 40
0
 40
0
 40
1
 40
1
 40
1
 40
1
 10
2.179826
 20
64.033779
 30
0.0
 10
1.914757
 20
64.033779
 30
0.0
 10
1.210696
 20
64.033779
 30
0.0
 10
0.761061
 20
63.506148
 30
0.0
  0
SPLINE
  5
189
100
AcDbEntity
  8
0
 62
7
100
AcDbSpline
 70
8
 71
3
 72
8
 73
4
 74
0
 40
0
 40
0
 40
0
 40
0
 40
1
 40
1
 40
1
 40
1
 10
0.761061
 20
63.506148
 30
0.0
 10
0.570089
 20
63.282093
 30
0.0
 10
0.363322
 20
62.885235
 30
0.0
 10
0.462638
 20
62.266830
 30
0.0
  0
SPLINE
  5
18a
100
AcDbEntity
  8
0
 62
7
100
AcDbSpline
 70
8
 71
3
 72
8
 73
4
 74
0
 40
0
 40
0
 40
0
 40
0
 40
1
 40
1
 40
1
 40
1
 10
0.462638
 20
62.266830
 30
0.0
 10
0.519346
 20
61.913528
 30
0.0
 10
0.495212
 20
61.669340
 30
0.0
 10
0.464602
 20
61.360205
 30
0.0
  0
SPLINE
  5
18b
100
AcDbEntity
  8
0
 62
7
100
AcDbSpline
 70
8
 71
3
 72
8
 73
4
 74
0
 40
0
 40
0
 40
0
 40
0
 40
1
 40
1
 40
1
 40
1
 10
0.464602
 20
61.360205
 30
0.0
 10
0.431689
 20
61.027478
 30
0.0
 10
0.394369
 20
60.650381
 30
0.0
 10
0.458369
 20
60.144614
 30
0.0
  0
SPLINE
  5
18c
100
AcDbEntity
  8
0
 62
7
100
AcDbSpline
 70
8
 71
3
 72
8
 73
4
 74
0
 40
0
 40
0
 40
0
 40
0
 40
1
 40
1
 40
1
 40
1
 10
0.458369
 20
60.144614
 30
0.0
 10
0.515416
 20
59.693616
 30
0.0
 10
0.899054
 20
59.355466
 30
0.0
 10
1.353672
 20
59.355466
 30
0.0
  0
LWPOLYLINE
  5
18d
100
AcDbEntity
  8
0
 62
7
100
AcDbPolyline
 90
2
 70
0
 10
36.636643
 20
88.806744
 30
0.0
 10
36.553258
 20
88.713800
 30
0.0
  0
SPLINE
  5
18e
100
AcDbEntity
  8
0
 62
7
100
AcDbSpline
 70
8
 71
3
 72
8
 73
4
 74
0
 40
0
 40
0
 40
0
 40
0
 40
1
 40
1
 40
1
 40
1
 10
1.839610
 20
58.869528
 30
0.0
 10
1.839610
 20
58.371116
 30
0.0
 10
2.243654
 20
57.967072
 30
0.0
 10
2.742066
 20
57.967072
 30
0.0
  0
LWPOLYLINE
  5
18f
100
AcDbEntity
  8
0
 62
7
100
AcDbPolyline
 90
3
 70
0
 10
1.353672
 20
59.355466
 30
0.0
 10
1.839610
 20
59.355466
 30
0.0
 10
1.839610
 20
58.869528
 30
0.0
  0
SPLINE
  5
190
100
AcDbEntity
  8
0
 62
7
100
AcDbSpline
 70
8
 71
3
 72
8
 73
4
 74
0
 40
0
 40
0
 40
0
 40
0
 40
1
 40
1
 40
1
 40
1
 10
3.297424
 20
57.411714
 30
0.0
 10
3.297424
 20
57.152416
 30
0.0
 10
3.407401
 20
56.919319
 30
0.0
 10
3.582513
 20
56.754701
 30
0.0
  0
SPLINE
  5
191
100
AcDbEntity
  8
0
 62
7
100
AcDbSpline
 70
8
 71
3
 72
8
 73
4
 74
0
 40
0
 40
0
 40
0
 40
0
 40
1
 40
1
 40
1
 40
1
 10
3.582513
 20
56.754701
 30
0.0
 10
3.067874
 20
56.373266
 30
0.0
 10
2.837218
 20
55.831907
 30
0.0
 10
2.743897
 20
55.611107
 30
0.0
  0
SPLINE
  5
192
100
AcDbEntity
  8
0
 62
7
100
AcDbSpline
 70
8
 71
3
 72
8
 73
4
 74
0
 40
0
 40
0
 40
0
 40
0
 40
1
 40
1
 40
1
 40
1
 10
2.743897
 20
55.611107
 30
0.0
 10
2.661868
 20
55.417152
 30
0.0
 10
2.652852
 20
55.210215
 30
0.0
 10
2.704679
 20
55.021344
 30
0.0
  0
SPLINE
  5
193
100
AcDbEntity
  8
0
 62
7
100
AcDbSpline
 70
8
 71
3
 72
8
 73
4
 74
0
 40
0
 40
0
 40
0
 40
0
 40
1
 40
1
 40
1
 40
1
 10
2.704679
 20
55.021344
 30
0.0
 10
1.628775
 20
54.246270
 30
0.0
 10
0.361222
 20
53.274361
 30
0.0
 10
0.051341
 20
51.683605
 30
0.0
  0
SPLINE
  5
194
100
AcDbEntity
  8
0
 62
7
100
AcDbSpline
 70
8
 71
3
 72
8
 73
4
 74
0
 40
0
 40
0
 40
0
 40
0
 40
1
 40
1
 40
1
 40
1
 10
0.051341
 20
51.683605
 30
0.0
 10
-0.012045
 20
51.358201
 30
0.0
 10
0.108084
 20
51.024288
 30
0.0
 10
0.364171
 20
50.813825
 30
0.0
  0
SPLINE
  5
195
100
AcDbEntity
  8
0
 62
7
100
AcDbSpline
 70
8
 71
3
 72
8
 73
4
 74
0
 40
0
 40
0
 40
0
 40
0
 40
1
 40
1
 40
1
 40
1
 10
0.364171
 20
50.813825
 30
0.0
 10
0.528432
 20
50.678817
 30
0.0
 10
0.731641
 20
50.608584
 30
0.0
 10
0.937289
 20
50.608584
 30
0.0
  0
SPLINE
  5
196
100
AcDbEntity
  8
0
 62
7
100
AcDbSpline
 70
8
 71
3
 72
8
 73
4
 74
0
 40
0
 40
0
 40
0
 40
0
 40
1
 40
1
 40
1
 40
1
 10
0.937289
 20
50.608584
 30
0.0
 10
1.052266
 20
50.608584
 30
0.0
 10
1.168022
 20
50.630549
 30
0.0
 10
1.278117
 20
50.675461
 30
0.0
  0
SPLINE
  5
197
100
AcDbEntity
  8
0
 62
7
100
AcDbSpline
 70
8
 71
3
 72
8
 73
4
 74
0
 40
0
 40
0
 40
0
 40
0
 40
1
 40
1
 40
1
 40
1
 10
1.278117
 20
50.675461
 30
0.0
 10
1.425770
 20
50.735729
 30
0.0
 10
1.571185
 20
50.800370
 30
0.0
 10
1.714635
 20
50.867484
 30
0.0
  0
LWPOLYLINE
  5
198
100
AcDbEntity
  8
0
 62
7
100
AcDbPolyline
 90
3
 70
0
 10
2.742066
 20
57.967072
 30
0.0
 10
3.297424
 20
57.967072
 30
0.0
 10
3.297424
 20
57.411714
 30
0.0
  0
SPLINE
  5
199
100
AcDbEntity
  8
0
 62
7
100
AcDbSpline
 70
8
 71
3
 72
8
 73
4
 74
0
 40
0
 40
0
 40
0
 40
0
 40
1
 40
1
 40
1
 40
1
 10
1.692500
 20
50.810063
 30
0.0
 10
1.382484
 20
50.008076
 30
0.0
 10
0.996676
 20
49.009965
 30
0.0
 10
1.078773
 20
47.969076
 30
0.0
  0
SPLINE
  5
19a
100
AcDbEntity
  8
0
 62
7
100
AcDbSpline
 70
8
 71
3
 72
8
 73
4
 74
0
 40
0
 40
0
 40
0
 40
0
 40
1
 40
1
 40
1
 40
1
 10
1.078773
 20
47.969076
 30
0.0
 10
1.093518
 20
47.782375
 30
0.0
 10
1.085181
 20
47.548388
 30
0.0
 10
1.076364
 20
47.300674
 30
0.0
  0
SPLINE
  5
19b
100
AcDbEntity
  8
0
 62
7
100
AcDbSpline
 70
8
 71
3
 72
8
 73
4
 74
0
 40
0
 40
0
 40
0
 40
0
 40
1
 40
1
 40
1
 40
1
 10
1.076364
 20
47.300674
 30
0.0
 10
1.046671
 20
46.466790
 30
0.0
 10
1.005996
 20
45.324755
 30
0.0
 10
1.909807
 20
44.620728
 30
0.0
  0
SPLINE
  5
19c
100
AcDbEntity
  8
0
 62
7
100
AcDbSpline
 70
8
 71
3
 72
8
 73
4
 74
0
 40
0
 40
0
 40
0
 40
0
 40
1
 40
1
 40
1
 40
1
 10
1.909807
 20
44.620728
 30
0.0
 10
2.070849
 20
44.495311
 30
0.0
 10
2.266634
 20
44.430230
 30
0.0
 10
2.464487
 20
44.430230
 30
0.0
  0
SPLINE
  5
19d
100
AcDbEntity
  8
0
 62
7
100
AcDbSpline
 70
8
 71
3
 72
8
 73
4
 74
0
 40
0
 40
0
 40
0
 40
0
 40
1
 40
1
 40
1
 40
1
 10
2.464487
 20
44.430230
 30
0.0
 10
2.576514
 20
44.430230
 30
0.0
 10
2.689253
 20
44.451110
 30
0.0
 10
2.796704
 20
44.493617
 30
0.0
  0
SPLINE
  5
19e
100
AcDbEntity
  8
0
 62
7
100
AcDbSpline
 70
8
 71
3
 72
8
 73
4
 74
0
 40
0
 40
0
 40
0
 40
0
 40
1
 40
1
 40
1
 40
1
 10
2.796704
 20
44.493617
 30
0.0
 10
2.933306
 20
44.547783
 30
0.0
 10
3.052079
 20
44.633202
 30
0.0
 10
3.145328
 20
44.740450
 30
0.0
  0
SPLINE
  5
19f
100
AcDbEntity
  8
0
 62
7
100
AcDbSpline
 70
8
 71
3
 72
8
 73
4
 74
0
 40
0
 40
0
 40
0
 40
0
 40
1
 40
1
 40
1
 40
1
 10
3.145328
 20
44.740450
 30
0.0
 10
3.151770
 20
44.740382
 30
0.0
 10
3.158175
 20
44.740382
 30
0.0
 10
3.164581
 20
44.740382
 30
0.0
  0
SPLINE
  5
1a0
100
AcDbEntity
  8
0
 62
7
100
AcDbSpline
 70
8
 71
3
 72
8
 73
4
 74
0
 40
0
 40
0
 40
0
 40
0
 40
1
 40
1
 40
1
 40
1
 10
3.164581
 20
44.740382
 30
0.0
 10
3.217697
 20
44.740382
 30
0.0
 10
3.281557
 20
44.741735
 30
0.0
 10
3.353146
 20
44.748042
 30
0.0
  0
SPLINE
  5
1a1
100
AcDbEntity
  8
0
 62
7
100
AcDbSpline
 70
8
 71
3
 72
8
 73
4
 74
0
 40
0
 40
0
 40
0
 40
0
 40
1
 40
1
 40
1
 40
1
 10
3.353146
 20
44.748042
 30
0.0
 10
3.274981
 20
44.339456
 30
0.0
 10
3.224137
 20
43.938191
 30
0.0
 10
3.171971
 20
43.526214
 30
0.0
  0
SPLINE
  5
1a2
100
AcDbEntity
  8
0
 62
7
100
AcDbSpline
 70
8
 71
3
 72
8
 73
4
 74
0
 40
0
 40
0
 40
0
 40
0
 40
1
 40
1
 40
1
 40
1
 10
3.171971
 20
43.526214
 30
0.0
 10
3.148786
 20
43.343378
 30
0.0
 10
3.124855
 20
43.154439
 30
0.0
 10
3.097636
 20
42.956892
 30
0.0
  0
SPLINE
  5
1a3
100
AcDbEntity
  8
0
 62
7
100
AcDbSpline
 70
8
 71
3
 72
8
 73
4
 74
0
 40
0
 40
0
 40
0
 40
0
 40
1
 40
1
 40
1
 40
1
 10
3.097636
 20
42.956892
 30
0.0
 10
3.016285
 20
42.367096
 30
0.0
 10
3.178954
 20
41.804278
 30
0.0
 10
3.555644
 20
41.372105
 30
0.0
  0
SPLINE
  5
1a4
100
AcDbEntity
  8
0
 62
7
100
AcDbSpline
 70
8
 71
3
 72
8
 73
4
 74
0
 40
0
 40
0
 40
0
 40
0
 40
1
 40
1
 40
1
 40
1
 10
3.555644
 20
41.372105
 30
0.0
 10
3.979822
 20
40.885348
 30
0.0
 10
4.629446
 20
40.606246
 30
0.0
 10
5.337947
 20
40.606246
 30
0.0
  0
SPLINE
  5
1a5
100
AcDbEntity
  8
0
 62
7
100
AcDbSpline
 70
8
 71
3
 72
8
 73
4
 74
0
 40
0
 40
0
 40
0
 40
0
 40
1
 40
1
 40
1
 40
1
 10
5.337947
 20
40.606246
 30
0.0
 10
5.415163
 20
40.606246
 30
0.0
 10
5.491904
 20
40.609648
 30
0.0
 10
5.568001
 20
40.616416
 30
0.0
  0
SPLINE
  5
1a6
100
AcDbEntity
  8
0
 62
7
100
AcDbSpline
 70
8
 71
3
 72
8
 73
4
 74
0
 40
0
 40
0
 40
0
 40
0
 40
1
 40
1
 40
1
 40
1
 10
5.568001
 20
40.616416
 30
0.0
 10
5.645997
 20
40.492558
 30
0.0
 10
5.737280
 20
40.372635
 30
0.0
 10
5.841240
 20
40.257794
 30
0.0
  0
SPLINE
  5
1a7
100
AcDbEntity
  8
0
 62
7
100
AcDbSpline
 70
8
 71
3
 72
8
 73
4
 74
0
 40
0
 40
0
 40
0
 40
0
 40
1
 40
1
 40
1
 40
1
 10
5.841240
 20
40.257794
 30
0.0
 10
5.351099
 20
39.268223
 30
0.0
 10
4.842925
 20
37.936844
 30
0.0
 10
4.660630
 20
36.423508
 30
0.0
  0
SPLINE
  5
1a8
100
AcDbEntity
  8
0
 62
7
100
AcDbSpline
 70
8
 71
3
 72
8
 73
4
 74
0
 40
0
 40
0
 40
0
 40
0
 40
1
 40
1
 40
1
 40
1
 10
4.660630
 20
36.423508
 30
0.0
 10
4.440203
 20
34.593848
 30
0.0
 10
4.749710
 20
32.972655
 30
0.0
 10
5.580611
 20
31.604941
 30
0.0
  0
SPLINE
  5
1a9
100
AcDbEntity
  8
0
 62
7
100
AcDbSpline
 70
8
 71
3
 72
8
 73
4
 74
0
 40
0
 40
0
 40
0
 40
0
 40
1
 40
1
 40
1
 40
1
 10
5.580611
 20
31.604941
 30
0.0
 10
5.744296
 20
31.335530
 30
0.0
 10
6.036686
 20
31.171068
 30
0.0
 10
6.351888
 20
31.171068
 30
0.0
  0
LWPOLYLINE
  5
1aa
100
AcDbEntity
  8
0
 62
7
100
AcDbPolyline
 90
2
 70
0
 10
1.714635
 20
50.867484
 30
0.0
 10
1.692500
 20
50.810063
 30
0.0
  0
SPLINE
  5
1ab
100
AcDbEntity
  8
0
 62
7
100
AcDbSpline
 70
8
 71
3
 72
8
 73
4
 74
0
 40
0
 40
0
 40
0
 40
0
 40
1
 40
1
 40
1
 40
1
 10
6.352971
 20
31.171068
 30
0.0
 10
6.547807
 20
31.171068
 30
0.0
 10
6.733796
 20
31.234316
 30
0.0
 10
6.886025
 20
31.346109
 30
0.0
  0
SPLINE
  5
1ac
100
AcDbEntity
  8
0
 62
7
100
AcDbSpline
 70
8
 71
3
 72
8
 73
4
 74
0
 40
0
 40
0
 40
0
 40
0
 40
1
 40
1
 40
1
 40
1
 10
6.886025
 20
31.346109
 30
0.0
 10
7.018390
 20
31.002329
 30
0.0
 10
7.083606
 20
30.674689
 30
0.0
 10
7.068150
 20
30.473886
 30
0.0
  0
SPLINE
  5
1ad
100
AcDbEntity
  8
0
 62
7
100
AcDbSpline
 70
8
 71
3
 72
8
 73
4
 74
0
 40
0
 40
0
 40
0
 40
0
 40
1
 40
1
 40
1
 40
1
 10
7.068150
 20
30.473886
 30
0.0
 10
7.040253
 20
30.110786
 30
0.0
 10
6.928531
 20
29.624175
 30
0.0
 10
6.820538
 20
29.153558
 30
0.0
  0
SPLINE
  5
1ae
100
AcDbEntity
  8
0
 62
7
100
AcDbSpline
 70
8
 71
3
 72
8
 73
4
 74
0
 40
0
 40
0
 40
0
 40
0
 40
1
 40
1
 40
1
 40
1
 10
6.820538
 20
29.153558
 30
0.0
 10
6.722171
 20
28.725176
 30
0.0
 10
6.620481
 20
28.282146
 30
0.0
 10
6.572416
 20
27.890577
 30
0.0
  0
SPLINE
  5
1af
100
AcDbEntity
  8
0
 62
7
100
AcDbSpline
 70
8
 71
3
 72
8
 73
4
 74
0
 40
0
 40
0
 40
0
 40
0
 40
1
 40
1
 40
1
 40
1
 10
6.572416
 20
27.890577
 30
0.0
 10
6.522216
 20
27.481452
 30
0.0
 10
6.306229
 20
26.688138
 30
0.0
 10
6.132713
 20
26.050685
 30
0.0
  0
SPLINE
  5
1b0
100
AcDbEntity
  8
0
 62
7
100
AcDbSpline
 70
8
 71
3
 72
8
 73
4
 74
0
 40
0
 40
0
 40
0
 40
0
 40
1
 40
1
 40
1
 40
1
 10
6.132713
 20
26.050685
 30
0.0
 10
6.012957
 20
25.610779
 30
0.0
 10
5.899846
 20
25.195344
 30
0.0
 10
5.835782
 20
24.894888
 30
0.0
  0
SPLINE
  5
1b1
100
AcDbEntity
  8
0
 62
7
100
AcDbSpline
 70
8
 71
3
 72
8
 73
4
 74
0
 40
0
 40
0
 40
0
 40
0
 40
1
 40
1
 40
1
 40
1
 10
5.835782
 20
24.894888
 30
0.0
 10
5.797479
 20
24.715105
 30
0.0
 10
5.659181
 20
24.500744
 30
0.0
 10
5.512818
 20
24.273769
 30
0.0
  0
SPLINE
  5
1b2
100
AcDbEntity
  8
0
 62
7
100
AcDbSpline
 70
8
 71
3
 72
8
 73
4
 74
0
 40
0
 40
0
 40
0
 40
0
 40
1
 40
1
 40
1
 40
1
 10
5.512818
 20
24.273769
 30
0.0
 10
5.274357
 20
23.904095
 30
0.0
 10
4.977560
 20
23.444058
 30
0.0
 10
4.920343
 20
22.842939
 30
0.0
  0
SPLINE
  5
1b3
100
AcDbEntity
  8
0
 62
7
100
AcDbSpline
 70
8
 71
3
 72
8
 73
4
 74
0
 40
0
 40
0
 40
0
 40
0
 40
1
 40
1
 40
1
 40
1
 10
4.920343
 20
22.842939
 30
0.0
 10
4.880549
 20
22.425199
 30
0.0
 10
4.958274
 20
22.125216
 30
0.0
 10
5.029863
 20
21.926995
 30
0.0
  0
SPLINE
  5
1b4
100
AcDbEntity
  8
0
 62
7
100
AcDbSpline
 70
8
 71
3
 72
8
 73
4
 74
0
 40
0
 40
0
 40
0
 40
0
 40
1
 40
1
 40
1
 40
1
 10
5.029863
 20
21.926995
 30
0.0
 10
4.718728
 20
21.442542
 30
0.0
 10
4.377562
 20
20.484432
 30
0.0
 10
3.937858
 20
19.205520
 30
0.0
  0
SPLINE
  5
1b5
100
AcDbEntity
  8
0
 62
7
100
AcDbSpline
 70
8
 71
3
 72
8
 73
4
 74
0
 40
0
 40
0
 40
0
 40
0
 40
1
 40
1
 40
1
 40
1
 10
3.937858
 20
19.205520
 30
0.0
 10
3.785291
 20
18.761755
 30
0.0
 10
3.641197
 20
18.342592
 30
0.0
 10
3.564558
 20
18.164162
 30
0.0
  0
SPLINE
  5
1b6
100
AcDbEntity
  8
0
 62
7
100
AcDbSpline
 70
8
 71
3
 72
8
 73
4
 74
0
 40
0
 40
0
 40
0
 40
0
 40
1
 40
1
 40
1
 40
1
 10
3.564558
 20
18.164162
 30
0.0
 10
3.350435
 20
17.663848
 30
0.0
 10
3.493410
 20
17.292008
 30
0.0
 10
3.597709
 20
17.114863
 30
0.0
  0
SPLINE
  5
1b7
100
AcDbEntity
  8
0
 62
7
100
AcDbSpline
 70
8
 71
3
 72
8
 73
4
 74
0
 40
0
 40
0
 40
0
 40
0
 40
1
 40
1
 40
1
 40
1
 10
3.597709
 20
17.114863
 30
0.0
 10
3.740208
 20
16.872845
 30
0.0
 10
3.939621
 20
16.739087
 30
0.0
 10
4.133983
 20
16.662621
 30
0.0
  0
SPLINE
  5
1b8
100
AcDbEntity
  8
0
 62
7
100
AcDbSpline
 70
8
 71
3
 72
8
 73
4
 74
0
 40
0
 40
0
 40
0
 40
0
 40
1
 40
1
 40
1
 40
1
 10
4.133983
 20
16.662621
 30
0.0
 10
4.086528
 20
16.394904
 30
0.0
 10
4.045784
 20
16.110991
 30
0.0
 10
4.005753
 20
15.832160
 30
0.0
  0
SPLINE
  5
1b9
100
AcDbEntity
  8
0
 62
7
100
AcDbSpline
 70
8
 71
3
 72
8
 73
4
 74
0
 40
0
 40
0
 40
0
 40
0
 40
1
 40
1
 40
1
 40
1
 10
4.005753
 20
15.832160
 30
0.0
 10
3.947925
 20
15.428929
 30
0.0
 10
3.888099
 20
15.012001
 30
0.0
 10
3.818001
 20
14.726596
 30
0.0
  0
SPLINE
  5
1ba
100
AcDbEntity
  8
0
 62
7
100
AcDbSpline
 70
8
 71
3
 72
8
 73
4
 74
0
 40
0
 40
0
 40
0
 40
0
 40
1
 40
1
 40
1
 40
1
 10
3.818001
 20
14.726596
 30
0.0
 10
3.755733
 20
14.474408
 30
0.0
 10
3.557033
 20
13.879460
 30
0.0
 10
3.364875
 20
13.304103
 30
0.0
  0
SPLINE
  5
1bb
100
AcDbEntity
  8
0
 62
7
100
AcDbSpline
 70
8
 71
3
 72
8
 73
4
 74
0
 40
0
 40
0
 40
0
 40
0
 40
1
 40
1
 40
1
 40
1
 10
3.364875
 20
13.304103
 30
0.0
 10
2.968423
 20
12.116984
 30
0.0
 10
2.681762
 20
11.239339
 30
0.0
 10
2.603631
 20
10.755574
 30
0.0
  0
SPLINE
  5
1bc
100
AcDbEntity
  8
0
 62
7
100
AcDbSpline
 70
8
 71
3
 72
8
 73
4
 74
0
 40
0
 40
0
 40
0
 40
0
 40
1
 40
1
 40
1
 40
1
 10
2.603631
 20
10.755574
 30
0.0
 10
2.555227
 20
10.455722
 30
0.0
 10
2.660882
 20
10.151678
 30
0.0
 10
2.884767
 20
9.946466
 30
0.0
  0
SPLINE
  5
1bd
100
AcDbEntity
  8
0
 62
7
100
AcDbSpline
 70
8
 71
3
 72
8
 73
4
 74
0
 40
0
 40
0
 40
0
 40
0
 40
1
 40
1
 40
1
 40
1
 10
2.884767
 20
9.946466
 30
0.0
 10
3.208409
 20
9.649808
 30
0.0
 10
3.556355
 20
9.466089
 30
0.0
 10
3.922673
 20
9.397891
 30
0.0
  0
SPLINE
  5
1be
100
AcDbEntity
  8
0
 62
7
100
AcDbSpline
 70
8
 71
3
 72
8
 73
4
 74
0
 40
0
 40
0
 40
0
 40
0
 40
1
 40
1
 40
1
 40
1
 10
3.922673
 20
9.397891
 30
0.0
 10
3.850066
 20
9.156547
 30
0.0
 10
3.790951
 20
8.883276
 30
0.0
 10
3.791697
 20
8.435977
 30
0.0
  0
SPLINE
  5
1bf
100
AcDbEntity
  8
0
 62
7
100
AcDbSpline
 70
8
 71
3
 72
8
 73
4
 74
0
 40
0
 40
0
 40
0
 40
0
 40
1
 40
1
 40
1
 40
1
 10
3.791697
 20
8.435977
 30
0.0
 10
3.791766
 20
8.372187
 30
0.0
 10
3.786817
 20
8.337269
 30
0.0
 10
3.784071
 20
8.322899
 30
0.0
  0
SPLINE
  5
1c0
100
AcDbEntity
  8
0
 62
7
100
AcDbSpline
 70
8
 71
3
 72
8
 73
4
 74
0
 40
0
 40
0
 40
0
 40
0
 40
1
 40
1
 40
1
 40
1
 10
3.784071
 20
8.322899
 30
0.0
 10
3.773054
 20
8.307509
 30
0.0
 10
3.751530
 20
8.280394
 30
0.0
 10
3.735023
 20
8.259582
 30
0.0
  0
SPLINE
  5
1c1
100
AcDbEntity
  8
0
 62
7
100
AcDbSpline
 70
8
 71
3
 72
8
 73
4
 74
0
 40
0
 40
0
 40
0
 40
0
 40
1
 40
1
 40
1
 40
1
 10
3.735023
 20
8.259582
 30
0.0
 10
3.519781
 20
7.988477
 30
0.0
 10
3.288371
 20
7.642531
 30
0.0
 10
3.267321
 20
6.966098
 30
0.0
  0
SPLINE
  5
1c2
100
AcDbEntity
  8
0
 62
7
100
AcDbSpline
 70
8
 71
3
 72
8
 73
4
 74
0
 40
0
 40
0
 40
0
 40
0
 40
1
 40
1
 40
1
 40
1
 10
3.267321
 20
6.966098
 30
0.0
 10
3.257356
 20
6.646046
 30
0.0
 10
3.035775
 20
5.961206
 30
0.0
 10
2.857752
 20
5.410937
 30
0.0
  0
SPLINE
  5
1c3
100
AcDbEntity
  8
0
 62
7
100
AcDbSpline
 70
8
 71
3
 72
8
 73
4
 74
0
 40
0
 40
0
 40
0
 40
0
 40
1
 40
1
 40
1
 40
1
 10
2.857752
 20
5.410937
 30
0.0
 10
2.628545
 20
4.702433
 30
0.0
 10
2.412049
 20
4.033185
 30
0.0
 10
2.369848
 20
3.483388
 30
0.0
  0
SPLINE
  5
1c4
100
AcDbEntity
  8
0
 62
7
100
AcDbSpline
 70
8
 71
3
 72
8
 73
4
 74
0
 40
0
 40
0
 40
0
 40
0
 40
1
 40
1
 40
1
 40
1
 10
2.369848
 20
3.483388
 30
0.0
 10
2.298022
 20
2.547916
 30
0.0
 10
2.865718
 20
2.132613
 30
0.0
 10
3.123126
 20
1.951268
 30
0.0
  0
SPLINE
  5
1c5
100
AcDbEntity
  8
0
 62
7
100
AcDbSpline
 70
8
 71
3
 72
8
 73
4
 74
0
 40
0
 40
0
 40
0
 40
0
 40
1
 40
1
 40
1
 40
1
 10
3.123126
 20
1.951268
 30
0.0
 10
3.018082
 20
1.308934
 30
0.0
 10
2.948866
 20
0.841163
 30
0.0
 10
3.303014
 20
0.424312
 30
0.0
  0
SPLINE
  5
1c6
100
AcDbEntity
  8
0
 62
7
100
AcDbSpline
 70
8
 71
3
 72
8
 73
4
 74
0
 40
0
 40
0
 40
0
 40
0
 40
1
 40
1
 40
1
 40
1
 10
3.303014
 20
0.424312
 30
0.0
 10
3.522662
 20
0.165744
 30
0.0
 10
3.837186
 20
0.034708
 30
0.0
 10
4.237807
 20
0.034708
 30
0.0
  0
SPLINE
  5
1c7
100
AcDbEntity
  8
0
 62
7
100
AcDbSpline
 70
8
 71
3
 72
8
 73
4
 74
0
 40
0
 40
0
 40
0
 40
0
 40
1
 40
1
 40
1
 40
1
 10
4.237807
 20
0.034708
 30
0.0
 10
4.369088
 20
0.034708
 30
0.0
 10
4.509520
 20
0.046773
 30
0.0
 10
4.672121
 20
0.060803
 30
0.0
  0
SPLINE
  5
1c8
100
AcDbEntity
  8
0
 62
7
100
AcDbSpline
 70
8
 71
3
 72
8
 73
4
 74
0
 40
0
 40
0
 40
0
 40
0
 40
1
 40
1
 40
1
 40
1
 10
4.672121
 20
0.060803
 30
0.0
 10
4.720661
 20
0.065037
 30
0.0
 10
4.772522
 20
0.069480
 30
0.0
 10
4.827909
 20
0.073958
 30
0.0
  0
SPLINE
  5
1c9
100
AcDbEntity
  8
0
 62
7
100
AcDbSpline
 70
8
 71
3
 72
8
 73
4
 74
0
 40
0
 40
0
 40
0
 40
0
 40
1
 40
1
 40
1
 40
1
 10
4.827909
 20
0.073958
 30
0.0
 10
5.023016
 20
0.089751
 30
0.0
 10
5.231343
 20
0.097415
 30
0.0
 10
5.464753
 20
0.097415
 30
0.0
  0
SPLINE
  5
1ca
100
AcDbEntity
  8
0
 62
7
100
AcDbSpline
 70
8
 71
3
 72
8
 73
4
 74
0
 40
0
 40
0
 40
0
 40
0
 40
1
 40
1
 40
1
 40
1
 10
5.464753
 20
0.097415
 30
0.0
 10
5.698774
 20
0.097415
 30
0.0
 10
5.928591
 20
0.090091
 30
0.0
 10
6.171865
 20
0.082364
 30
0.0
  0
SPLINE
  5
1cb
100
AcDbEntity
  8
0
 62
7
100
AcDbSpline
 70
8
 71
3
 72
8
 73
4
 74
0
 40
0
 40
0
 40
0
 40
0
 40
1
 40
1
 40
1
 40
1
 10
6.171865
 20
0.082364
 30
0.0
 10
6.418936
 20
0.074499
 30
0.0
 10
6.674379
 20
0.066363
 30
0.0
 10
6.937889
 20
0.066363
 30
0.0
  0
SPLINE
  5
1cc
100
AcDbEntity
  8
0
 62
7
100
AcDbSpline
 70
8
 71
3
 72
8
 73
4
 74
0
 40
0
 40
0
 40
0
 40
0
 40
1
 40
1
 40
1
 40
1
 10
6.937889
 20
0.066363
 30
0.0
 10
7.058865
 20
0.066363
 30
0.0
 10
7.171502
 20
0.068029
 30
0.0
 10
7.282310
 20
0.071431
 30
0.0
  0
SPLINE
  5
1cd
100
AcDbEntity
  8
0
 62
7
100
AcDbSpline
 70
8
 71
3
 72
8
 73
4
 74
0
 40
0
 40
0
 40
0
 40
0
 40
1
 40
1
 40
1
 40
1
 10
7.282310
 20
0.071431
 30
0.0
 10
7.551210
 20
0.079775
 30
0.0
 10
7.808517
 20
0.090008
 30
0.0
 10
8.061281
 20
0.100108
 30
0.0
  0
SPLINE
  5
1ce
100
AcDbEntity
  8
0
 62
7
100
AcDbSpline
 70
8
 71
3
 72
8
 73
4
 74
0
 40
0
 40
0
 40
0
 40
0
 40
1
 40
1
 40
1
 40
1
 10
8.061281
 20
0.100108
 30
0.0
 10
8.583387
 20
0.120920
 30
0.0
 10
9.076510
 20
0.140580
 30
0.0
 10
9.610412
 20
0.140580
 30
0.0
  0
LWPOLYLINE
  5
1cf
100
AcDbEntity
  8
0
 62
7
100
AcDbPolyline
 90
2
 70
0
 10
6.351888
 20
31.171068
 30
0.0
 10
6.352971
 20
31.171068
 30
0.0
  0
SPLINE
  5
1d0
100
AcDbEntity
  8
0
 62
7
100
AcDbSpline
 70
8
 71
3
 72
8
 73
4
 74
0
 40
0
 40
0
 40
0
 40
0
 40
1
 40
1
 40
1
 40
1
 10
9.681050
 20
0.140580
 30
0.0
 10
9.879547
 20
0.139886
 30
0.0
 10
10.076247
 20
0.139677
 30
0.0
 10
10.271863
 20
0.139677
 30
0.0
  0
SPLINE
  5
1d1
100
AcDbEntity
  8
0
 62
7
100
AcDbSpline
 70
8
 71
3
 72
8
 73
4
 74
0
 40
0
 40
0
 40
0
 40
0
 40
1
 40
1
 40
1
 40
1
 10
10.271863
 20
0.139677
 30
0.0
 10
10.513341
 20
0.139677
 30
0.0
 10
10.753327
 20
0.139677
 30
0.0
 10
10.993347
 20
0.140372
 30
0.0
  0
SPLINE
  5
1d2
100
AcDbEntity
  8
0
 62
7
100
AcDbSpline
 70
8
 71
3
 72
8
 73
4
 74
0
 40
0
 40
0
 40
0
 40
0
 40
1
 40
1
 40
1
 40
1
 10
10.993347
 20
0.140372
 30
0.0
 10
11.232655
 20
0.141066
 30
0.0
 10
11.471997
 20
0.141135
 30
0.0
 10
11.713034
 20
0.141135
 30
0.0
  0
SPLINE
  5
1d3
100
AcDbEntity
  8
0
 62
7
100
AcDbSpline
 70
8
 71
3
 72
8
 73
4
 74
0
 40
0
 40
0
 40
0
 40
0
 40
1
 40
1
 40
1
 40
1
 10
11.713034
 20
0.141135
 30
0.0
 10
11.868177
 20
0.141135
 30
0.0
 10
12.023931
 20
0.141135
 30
0.0
 10
12.180905
 20
0.140441
 30
0.0
  0
SPLINE
  5
1d4
100
AcDbEntity
  8
0
 62
7
100
AcDbSpline
 70
8
 71
3
 72
8
 73
4
 74
0
 40
0
 40
0
 40
0
 40
0
 40
1
 40
1
 40
1
 40
1
 10
12.180905
 20
0.140441
 30
0.0
 10
12.339845
 20
0.139747
 30
0.0
 10
12.500209
 20
0.139747
 30
0.0
 10
12.661453
 20
0.139747
 30
0.0
  0
SPLINE
  5
1d5
100
AcDbEntity
  8
0
 62
7
100
AcDbSpline
 70
8
 71
3
 72
8
 73
4
 74
0
 40
0
 40
0
 40
0
 40
0
 40
1
 40
1
 40
1
 40
1
 10
12.661453
 20
0.139747
 30
0.0
 10
12.909575
 20
0.139747
 30
0.0
 10
13.159797
 20
0.139747
 30
0.0
 10
13.410088
 20
0.140510
 30
0.0
  0
SPLINE
  5
1d6
100
AcDbEntity
  8
0
 62
7
100
AcDbSpline
 70
8
 71
3
 72
8
 73
4
 74
0
 40
0
 40
0
 40
0
 40
0
 40
1
 40
1
 40
1
 40
1
 10
13.410088
 20
0.140510
 30
0.0
 10
13.659633
 20
0.140510
 30
0.0
 10
13.909280
 20
0.141205
 30
0.0
 10
14.156994
 20
0.141205
 30
0.0
  0
SPLINE
  5
1d7
100
AcDbEntity
  8
0
 62
7
100
AcDbSpline
 70
8
 71
3
 72
8
 73
4
 74
0
 40
0
 40
0
 40
0
 40
0
 40
1
 40
1
 40
1
 40
1
 10
14.156994
 20
0.141205
 30
0.0
 10
14.355830
 20
0.141205
 30
0.0
 10
14.553412
 20
0.141205
 30
0.0
 10
14.748689
 20
0.140302
 30
0.0
  0
SPLINE
  5
1d8
100
AcDbEntity
  8
0
 62
7
100
AcDbSpline
 70
8
 71
3
 72
8
 73
4
 74
0
 40
0
 40
0
 40
0
 40
0
 40
1
 40
1
 40
1
 40
1
 10
14.748689
 20
0.140302
 30
0.0
 10
14.886172
 20
0.139608
 30
0.0
 10
15.023249
 20
0.139608
 30
0.0
 10
15.159784
 20
0.139608
 30
0.0
  0
SPLINE
  5
1d9
100
AcDbEntity
  8
0
 62
7
100
AcDbSpline
 70
8
 71
3
 72
8
 73
4
 74
0
 40
0
 40
0
 40
0
 40
0
 40
1
 40
1
 40
1
 40
1
 10
15.159784
 20
0.139608
 30
0.0
 10
15.405023
 20
0.139608
 30
0.0
 10
15.648976
 20
0.140302
 30
0.0
 10
15.892623
 20
0.140788
 30
0.0
  0
SPLINE
  5
1da
100
AcDbEntity
  8
0
 62
7
100
AcDbSpline
 70
8
 71
3
 72
8
 73
4
 74
0
 40
0
 40
0
 40
0
 40
0
 40
1
 40
1
 40
1
 40
1
 10
15.892623
 20
0.140788
 30
0.0
 10
16.134202
 20
0.141482
 30
0.0
 10
16.375442
 20
0.141968
 30
0.0
 10
16.617326
 20
0.141968
 30
0.0
  0
SPLINE
  5
1db
100
AcDbEntity
  8
0
 62
7
100
AcDbSpline
 70
8
 71
3
 72
8
 73
4
 74
0
 40
0
 40
0
 40
0
 40
0
 40
1
 40
1
 40
1
 40
1
 10
16.617326
 20
0.141968
 30
0.0
 10
16.826093
 20
0.141968
 30
0.0
 10
17.035234
 20
0.141274
 30
0.0
 10
17.245527
 20
0.140302
 30
0.0
  0
SPLINE
  5
1dc
100
AcDbEntity
  8
0
 62
7
100
AcDbSpline
 70
8
 71
3
 72
8
 73
4
 74
0
 40
0
 40
0
 40
0
 40
0
 40
1
 40
1
 40
1
 40
1
 10
17.245527
 20
0.140302
 30
0.0
 10
17.373791
 20
0.139539
 30
0.0
 10
17.501851
 20
0.139261
 30
0.0
 10
17.629708
 20
0.139261
 30
0.0
  0
SPLINE
  5
1dd
100
AcDbEntity
  8
0
 62
7
100
AcDbSpline
 70
8
 71
3
 72
8
 73
4
 74
0
 40
0
 40
0
 40
0
 40
0
 40
1
 40
1
 40
1
 40
1
 10
17.629708
 20
0.139261
 30
0.0
 10
17.876372
 20
0.139261
 30
0.0
 10
18.122426
 20
0.140372
 30
0.0
 10
18.368276
 20
0.141482
 30
0.0
  0
SPLINE
  5
1de
100
AcDbEntity
  8
0
 62
7
100
AcDbSpline
 70
8
 71
3
 72
8
 73
4
 74
0
 40
0
 40
0
 40
0
 40
0
 40
1
 40
1
 40
1
 40
1
 10
18.368276
 20
0.141482
 30
0.0
 10
18.611075
 20
0.142593
 30
0.0
 10
18.853739
 20
0.143634
 30
0.0
 10
19.096742
 20
0.143634
 30
0.0
  0
SPLINE
  5
1df
100
AcDbEntity
  8
0
 62
7
100
AcDbSpline
 70
8
 71
3
 72
8
 73
4
 74
0
 40
0
 40
0
 40
0
 40
0
 40
1
 40
1
 40
1
 40
1
 10
19.096742
 20
0.143634
 30
0.0
 10
19.310594
 20
0.143634
 30
0.0
 10
19.524615
 20
0.142801
 30
0.0
 10
19.739416
 20
0.140302
 30
0.0
  0
SPLINE
  5
1e0
100
AcDbEntity
  8
0
 62
7
100
AcDbSpline
 70
8
 71
3
 72
8
 73
4
 74
0
 40
0
 40
0
 40
0
 40
0
 40
1
 40
1
 40
1
 40
1
 10
19.739416
 20
0.140302
 30
0.0
 10
19.858731
 20
0.138914
 30
0.0
 10
19.977843
 20
0.138358
 30
0.0
 10
20.096853
 20
0.138358
 30
0.0
  0
SPLINE
  5
1e1
100
AcDbEntity
  8
0
 62
7
100
AcDbSpline
 70
8
 71
3
 72
8
 73
4
 74
0
 40
0
 40
0
 40
0
 40
0
 40
1
 40
1
 40
1
 40
1
 10
20.096853
 20
0.138358
 30
0.0
 10
20.346805
 20
0.138358
 30
0.0
 10
20.596214
 20
0.140857
 30
0.0
 10
20.845556
 20
0.143357
 30
0.0
  0
SPLINE
  5
1e2
100
AcDbEntity
  8
0
 62
7
100
AcDbSpline
 70
8
 71
3
 72
8
 73
4
 74
0
 40
0
 40
0
 40
0
 40
0
 40
1
 40
1
 40
1
 40
1
 10
20.845556
 20
0.143357
 30
0.0
 10
21.088593
 20
0.145786
 30
0.0
 10
21.331562
 20
0.148285
 30
0.0
 10
21.574869
 20
0.148285
 30
0.0
  0
SPLINE
  5
1e3
100
AcDbEntity
  8
0
 62
7
100
AcDbSpline
 70
8
 71
3
 72
8
 73
4
 74
0
 40
0
 40
0
 40
0
 40
0
 40
1
 40
1
 40
1
 40
1
 10
21.574869
 20
0.148285
 30
0.0
 10
21.816787
 20
0.148285
 30
0.0
 10
22.029453
 20
0.145717
 30
0.0
 10
22.225001
 20
0.140559
 30
0.0
  0
SPLINE
  5
1e4
100
AcDbEntity
  8
0
 62
7
100
AcDbSpline
 70
8
 71
3
 72
8
 73
4
 74
0
 40
0
 40
0
 40
0
 40
0
 40
1
 40
1
 40
1
 40
1
 10
22.225001
 20
0.140559
 30
0.0
 10
22.373297
 20
0.136602
 30
0.0
 10
22.526983
 20
0.134589
 30
0.0
 10
22.681788
 20
0.134589
 30
0.0
  0
SPLINE
  5
1e5
100
AcDbEntity
  8
0
 62
7
100
AcDbSpline
 70
8
 71
3
 72
8
 73
4
 74
0
 40
0
 40
0
 40
0
 40
0
 40
1
 40
1
 40
1
 40
1
 10
22.681788
 20
0.134589
 30
0.0
 10
23.312802
 20
0.134589
 30
0.0
 10
23.900836
 20
0.166390
 30
0.0
 10
24.523308
 20
0.200010
 30
0.0
  0
LWPOLYLINE
  5
1e6
100
AcDbEntity
  8
0
 62
7
100
AcDbPolyline
 90
2
 70
0
 10
9.610412
 20
0.140580
 30
0.0
 10
9.681050
 20
0.140580
 30
0.0
  0
SPLINE
  5
1e7
100
AcDbEntity
  8
0
 62
7
100
AcDbSpline
 70
8
 71
3
 72
8
 73
4
 74
0
 40
0
 40
0
 40
0
 40
0
 40
1
 40
1
 40
1
 40
1
 10
24.726754
 20
0.210930
 30
0.0
 10
24.911014
 20
0.220760
 30
0.0
 10
25.114595
 20
0.225501
 30
0.0
 10
25.349023
 20
0.225501
 30
0.0
  0
SPLINE
  5
1e8
100
AcDbEntity
  8
0
 62
7
100
AcDbSpline
 70
8
 71
3
 72
8
 73
4
 74
0
 40
0
 40
0
 40
0
 40
0
 40
1
 40
1
 40
1
 40
1
 10
25.349023
 20
0.225501
 30
0.0
 10
25.586229
 20
0.225501
 30
0.0
 10
25.822419
 20
0.220919
 30
0.0
 10
26.072574
 20
0.216011
 30
0.0
  0
SPLINE
  5
1e9
100
AcDbEntity
  8
0
 62
7
100
AcDbSpline
 70
8
 71
3
 72
8
 73
4
 74
0
 40
0
 40
0
 40
0
 40
0
 40
1
 40
1
 40
1
 40
1
 10
26.072574
 20
0.216011
 30
0.0
 10
26.321237
 20
0.211082
 30
0.0
 10
26.578443
 20
0.206043
 30
0.0
 10
26.835174
 20
0.206043
 30
0.0
  0
SPLINE
  5
1ea
100
AcDbEntity
  8
0
 62
7
100
AcDbSpline
 70
8
 71
3
 72
8
 73
4
 74
0
 40
0
 40
0
 40
0
 40
0
 40
1
 40
1
 40
1
 40
1
 10
26.835174
 20
0.206043
 30
0.0
 10
26.956387
 20
0.206043
 30
0.0
 10
27.077329
 20
0.207153
 30
0.0
 10
27.198068
 20
0.209861
 30
0.0
  0
SPLINE
  5
1eb
100
AcDbEntity
  8
0
 62
7
100
AcDbSpline
 70
8
 71
3
 72
8
 73
4
 74
0
 40
0
 40
0
 40
0
 40
0
 40
1
 40
1
 40
1
 40
1
 10
27.198068
 20
0.209861
 30
0.0
 10
27.400090
 20
0.214442
 30
0.0
 10
27.624823
 20
0.216664
 30
0.0
 10
27.885011
 20
0.216664
 30
0.0
  0
SPLINE
  5
1ec
100
AcDbEntity
  8
0
 62
7
100
AcDbSpline
 70
8
 71
3
 72
8
 73
4
 74
0
 40
0
 40
0
 40
0
 40
0
 40
1
 40
1
 40
1
 40
1
 10
27.885011
 20
0.216664
 30
0.0
 10
28.140386
 20
0.216664
 30
0.0
 10
28.398541
 20
0.214651
 30
0.0
 10
28.655814
 20
0.212568
 30
0.0
  0
SPLINE
  5
1ed
100
AcDbEntity
  8
0
 62
7
100
AcDbSpline
 70
8
 71
3
 72
8
 73
4
 74
0
 40
0
 40
0
 40
0
 40
0
 40
1
 40
1
 40
1
 40
1
 10
28.655814
 20
0.212568
 30
0.0
 10
28.916341
 20
0.210485
 30
0.0
 10
29.175987
 20
0.208403
 30
0.0
 10
29.431295
 20
0.208403
 30
0.0
  0
SPLINE
  5
1ee
100
AcDbEntity
  8
0
 62
7
100
AcDbSpline
 70
8
 71
3
 72
8
 73
4
 74
0
 40
0
 40
0
 40
0
 40
0
 40
1
 40
1
 40
1
 40
1
 10
29.431295
 20
0.208403
 30
0.0
 10
29.539695
 20
0.208403
 30
0.0
 10
29.647214
 20
0.208403
 30
0.0
 10
29.753785
 20
0.209722
 30
0.0
  0
SPLINE
  5
1ef
100
AcDbEntity
  8
0
 62
7
100
AcDbSpline
 70
8
 71
3
 72
8
 73
4
 74
0
 40
0
 40
0
 40
0
 40
0
 40
1
 40
1
 40
1
 40
1
 10
29.753785
 20
0.209722
 30
0.0
 10
30.043666
 20
0.212082
 30
0.0
 10
30.333073
 20
0.212915
 30
0.0
 10
30.622276
 20
0.212915
 30
0.0
  0
SPLINE
  5
1f0
100
AcDbEntity
  8
0
 62
7
100
AcDbSpline
 70
8
 71
3
 72
8
 73
4
 74
0
 40
0
 40
0
 40
0
 40
0
 40
1
 40
1
 40
1
 40
1
 10
30.622276
 20
0.212915
 30
0.0
 10
30.915480
 20
0.212915
 30
0.0
 10
31.208480
 20
0.212082
 30
0.0
 10
31.501412
 20
0.211249
 30
0.0
  0
SPLINE
  5
1f1
100
AcDbEntity
  8
0
 62
7
100
AcDbSpline
 70
8
 71
3
 72
8
 73
4
 74
0
 40
0
 40
0
 40
0
 40
0
 40
1
 40
1
 40
1
 40
1
 10
31.501412
 20
0.211249
 30
0.0
 10
31.749126
 20
0.210555
 30
0.0
 10
31.996909
 20
0.209861
 30
0.0
 10
32.244690
 20
0.209652
 30
0.0
  0
LWPOLYLINE
  5
1f2
100
AcDbEntity
  8
0
 62
7
100
AcDbPolyline
 90
2
 70
0
 10
24.523308
 20
0.200010
 30
0.0
 10
24.726754
 20
0.210930
 30
0.0
  0
SPLINE
  5
1f3
100
AcDbEntity
  8
0
 62
7
100
AcDbSpline
 70
8
 71
3
 72
8
 73
4
 74
0
 40
0
 40
0
 40
0
 40
0
 40
1
 40
1
 40
1
 40
1
 10
32.331194
 20
0.209652
 30
0.0
 10
32.600670
 20
0.209652
 30
0.0
 10
32.870687
 20
0.210624
 30
0.0
 10
33.140774
 20
0.211527
 30
0.0
  0
SPLINE
  5
1f4
100
AcDbEntity
  8
0
 62
7
100
AcDbSpline
 70
8
 71
3
 72
8
 73
4
 74
0
 40
0
 40
0
 40
0
 40
0
 40
1
 40
1
 40
1
 40
1
 10
33.140774
 20
0.211527
 30
0.0
 10
33.408758
 20
0.212568
 30
0.0
 10
33.676811
 20
0.213470
 30
0.0
 10
33.944253
 20
0.213470
 30
0.0
  0
SPLINE
  5
1f5
100
AcDbEntity
  8
0
 62
7
100
AcDbSpline
 70
8
 71
3
 72
8
 73
4
 74
0
 40
0
 40
0
 40
0
 40
0
 40
1
 40
1
 40
1
 40
1
 10
33.944253
 20
0.213470
 30
0.0
 10
34.208509
 20
0.213470
 30
0.0
 10
34.472087
 20
0.212499
 30
0.0
 10
34.734715
 20
0.209652
 30
0.0
  0
SPLINE
  5
1f6
100
AcDbEntity
  8
0
 62
7
100
AcDbSpline
 70
8
 71
3
 72
8
 73
4
 74
0
 40
0
 40
0
 40
0
 40
0
 40
1
 40
1
 40
1
 40
1
 10
34.734715
 20
0.209652
 30
0.0
 10
34.845488
 20
0.208403
 30
0.0
 10
34.956669
 20
0.207986
 30
0.0
 10
35.068052
 20
0.207986
 30
0.0
  0
SPLINE
  5
1f7
100
AcDbEntity
  8
0
 62
7
100
AcDbSpline
 70
8
 71
3
 72
8
 73
4
 74
0
 40
0
 40
0
 40
0
 40
0
 40
1
 40
1
 40
1
 40
1
 10
35.068052
 20
0.207986
 30
0.0
 10
35.319020
 20
0.207986
 30
0.0
 10
35.571277
 20
0.210485
 30
0.0
 10
35.823602
 20
0.213054
 30
0.0
  0
SPLINE
  5
1f8
100
AcDbEntity
  8
0
 62
7
100
AcDbSpline
 70
8
 71
3
 72
8
 73
4
 74
0
 40
0
 40
0
 40
0
 40
0
 40
1
 40
1
 40
1
 40
1
 10
35.823602
 20
0.213054
 30
0.0
 10
36.069825
 20
0.215553
 30
0.0
 10
36.316048
 20
0.218052
 30
0.0
 10
36.561051
 20
0.218052
 30
0.0
  0
SPLINE
  5
1f9
100
AcDbEntity
  8
0
 62
7
100
AcDbSpline
 70
8
 71
3
 72
8
 73
4
 74
0
 40
0
 40
0
 40
0
 40
0
 40
1
 40
1
 40
1
 40
1
 10
36.561051
 20
0.218052
 30
0.0
 10
36.808019
 20
0.218052
 30
0.0
 10
37.023125
 20
0.215414
 30
0.0
 10
37.217758
 20
0.209986
 30
0.0
  0
SPLINE
  5
1fa
100
AcDbEntity
  8
0
 62
7
100
AcDbSpline
 70
8
 71
3
 72
8
 73
4
 74
0
 40
0
 40
0
 40
0
 40
0
 40
1
 40
1
 40
1
 40
1
 10
37.217758
 20
0.209986
 30
0.0
 10
37.342971
 20
0.206306
 30
0.0
 10
37.470083
 20
0.204571
 30
0.0
 10
37.595566
 20
0.204571
 30
0.0
  0
SPLINE
  5
1fb
100
AcDbEntity
  8
0
 62
7
100
AcDbSpline
 70
8
 71
3
 72
8
 73
4
 74
0
 40
0
 40
0
 40
0
 40
0
 40
1
 40
1
 40
1
 40
1
 10
37.595566
 20
0.204571
 30
0.0
 10
38.033236
 20
0.204571
 30
0.0
 10
38.418027
 20
0.226396
 30
0.0
 10
38.790141
 20
0.247549
 30
0.0
  0
SPLINE
  5
1fc
100
AcDbEntity
  8
0
 62
7
100
AcDbSpline
 70
8
 71
3
 72
8
 73
4
 74
0
 40
0
 40
0
 40
0
 40
0
 40
1
 40
1
 40
1
 40
1
 10
38.790141
 20
0.247549
 30
0.0
 10
38.996028
 20
0.259274
 30
0.0
 10
39.208829
 20
0.271346
 30
0.0
 10
39.429562
 20
0.279614
 30
0.0
  0
SPLINE
  5
1fd
100
AcDbEntity
  8
0
 62
7
100
AcDbSpline
 70
8
 71
3
 72
8
 73
4
 74
0
 40
0
 40
0
 40
0
 40
0
 40
1
 40
1
 40
1
 40
1
 10
39.429562
 20
0.279614
 30
0.0
 10
39.737137
 20
0.291207
 30
0.0
 10
40.028442
 20
0.297107
 30
0.0
 10
40.295410
 20
0.297107
 30
0.0
  0
SPLINE
  5
1fe
100
AcDbEntity
  8
0
 62
7
100
AcDbSpline
 70
8
 71
3
 72
8
 73
4
 74
0
 40
0
 40
0
 40
0
 40
0
 40
1
 40
1
 40
1
 40
1
 10
40.295410
 20
0.297107
 30
0.0
 10
40.867445
 20
0.297107
 30
0.0
 10
41.338536
 20
0.270797
 30
0.0
 10
41.695736
 20
0.218941
 30
0.0
  0
SPLINE
  5
1ff
100
AcDbEntity
  8
0
 62
7
100
AcDbSpline
 70
8
 71
3
 72
8
 73
4
 74
0
 40
0
 40
0
 40
0
 40
0
 40
1
 40
1
 40
1
 40
1
 10
41.695736
 20
0.218941
 30
0.0
 10
41.738986
 20
0.212693
 30
0.0
 10
41.782238
 20
0.209583
 30
0.0
 10
41.825354
 20
0.209583
 30
0.0
  0
SPLINE
  5
200
100
AcDbEntity
  8
0
 62
7
100
AcDbSpline
 70
8
 71
3
 72
8
 73
4
 74
0
 40
0
 40
0
 40
0
 40
0
 40
1
 40
1
 40
1
 40
1
 10
41.825354
 20
0.209583
 30
0.0
 10
42.035782
 20
0.209583
 30
0.0
 10
42.241194
 20
0.283203
 30
0.0
 10
42.404643
 20
0.420077
 30
0.0
  0
SPLINE
  5
201
100
AcDbEntity
  8
0
 62
7
100
AcDbSpline
 70
8
 71
3
 72
8
 73
4
 74
0
 40
0
 40
0
 40
0
 40
0
 40
1
 40
1
 40
1
 40
1
 10
42.404643
 20
0.420077
 30
0.0
 10
42.601580
 20
0.584880
 30
0.0
 10
42.718929
 20
0.825884
 30
0.0
 10
42.727336
 20
1.082550
 30
0.0
  0
SPLINE
  5
202
100
AcDbEntity
  8
0
 62
7
100
AcDbSpline
 70
8
 71
3
 72
8
 73
4
 74
0
 40
0
 40
0
 40
0
 40
0
 40
1
 40
1
 40
1
 40
1
 10
42.727336
 20
1.082550
 30
0.0
 10
42.778452
 20
2.647138
 30
0.0
 10
42.623545
 20
5.041777
 30
0.0
 10
41.595605
 20
7.569293
 30
0.0
  0
SPLINE
  5
203
100
AcDbEntity
  8
0
 62
7
100
AcDbSpline
 70
8
 71
3
 72
8
 73
4
 74
0
 40
0
 40
0
 40
0
 40
0
 40
1
 40
1
 40
1
 40
1
 10
41.595605
 20
7.569293
 30
0.0
 10
41.862573
 20
7.645488
 30
0.0
 10
42.202417
 20
7.758024
 30
0.0
 10
42.482604
 20
8.039431
 30
0.0
  0
SPLINE
  5
204
100
AcDbEntity
  8
0
 62
7
100
AcDbSpline
 70
8
 71
3
 72
8
 73
4
 74
0
 40
0
 40
0
 40
0
 40
0
 40
1
 40
1
 40
1
 40
1
 10
42.482604
 20
8.039431
 30
0.0
 10
42.750521
 20
8.308502
 30
0.0
 10
43.028946
 20
8.801284
 30
0.0
 10
42.833770
 20
9.620833
 30
0.0
  0
SPLINE
  5
205
100
AcDbEntity
  8
0
 62
7
100
AcDbSpline
 70
8
 71
3
 72
8
 73
4
 74
0
 40
0
 40
0
 40
0
 40
0
 40
1
 40
1
 40
1
 40
1
 10
42.833770
 20
9.620833
 30
0.0
 10
42.419760
 20
11.359511
 30
0.0
 10
41.524829
 20
16.093748
 30
0.0
 10
41.367754
 20
17.953029
 30
0.0
  0
SPLINE
  5
206
100
AcDbEntity
  8
0
 62
7
100
AcDbSpline
 70
8
 71
3
 72
8
 73
4
 74
0
 40
0
 40
0
 40
0
 40
0
 40
1
 40
1
 40
1
 40
1
 10
41.367754
 20
17.953029
 30
0.0
 10
41.394668
 20
17.951919
 30
0.0
 10
41.422259
 20
17.951363
 30
0.0
 10
41.450461
 20
17.951363
 30
0.0
  0
SPLINE
  5
207
100
AcDbEntity
  8
0
 62
7
100
AcDbSpline
 70
8
 71
3
 72
8
 73
4
 74
0
 40
0
 40
0
 40
0
 40
0
 40
1
 40
1
 40
1
 40
1
 10
41.450461
 20
17.951363
 30
0.0
 10
41.974905
 20
17.951363
 30
0.0
 10
42.287836
 20
18.180295
 30
0.0
 10
42.458064
 20
18.372352
 30
0.0
  0
SPLINE
  5
208
100
AcDbEntity
  8
0
 62
7
100
AcDbSpline
 70
8
 71
3
 72
8
 73
4
 74
0
 40
0
 40
0
 40
0
 40
0
 40
1
 40
1
 40
1
 40
1
 10
42.458064
 20
18.372352
 30
0.0
 10
42.844889
 20
18.808870
 30
0.0
 10
42.825229
 20
19.391412
 30
0.0
 10
42.776825
 20
19.791659
 30
0.0
  0
SPLINE
  5
209
100
AcDbEntity
  8
0
 62
7
100
AcDbSpline
 70
8
 71
3
 72
8
 73
4
 74
0
 40
0
 40
0
 40
0
 40
0
 40
1
 40
1
 40
1
 40
1
 10
42.776825
 20
19.791659
 30
0.0
 10
42.764351
 20
19.894365
 30
0.0
 10
42.734320
 20
19.994225
 30
0.0
 10
42.688085
 20
20.086762
 30
0.0
  0
SPLINE
  5
20a
100
AcDbEntity
  8
0
 62
7
100
AcDbSpline
 70
8
 71
3
 72
8
 73
4
 74
0
 40
0
 40
0
 40
0
 40
0
 40
1
 40
1
 40
1
 40
1
 10
42.688085
 20
20.086762
 30
0.0
 10
42.012734
 20
21.437461
 30
0.0
 10
41.413989
 20
23.369689
 30
0.0
 10
41.045129
 20
25.388761
 30
0.0
  0
SPLINE
  5
20b
100
AcDbEntity
  8
0
 62
7
100
AcDbSpline
 70
8
 71
3
 72
8
 73
4
 74
0
 40
0
 40
0
 40
0
 40
0
 40
1
 40
1
 40
1
 40
1
 10
41.045129
 20
25.388761
 30
0.0
 10
40.890223
 20
26.290474
 30
0.0
 10
40.545904
 20
28.374210
 30
0.0
 10
40.367609
 20
29.723355
 30
0.0
  0
SPLINE
  5
20c
100
AcDbEntity
  8
0
 62
7
100
AcDbSpline
 70
8
 71
3
 72
8
 73
4
 74
0
 40
0
 40
0
 40
0
 40
0
 40
1
 40
1
 40
1
 40
1
 10
40.367609
 20
29.723355
 30
0.0
 10
40.643186
 20
29.732372
 30
0.0
 10
40.894968
 20
29.848234
 30
0.0
 10
41.079839
 20
30.051744
 30
0.0
  0
SPLINE
  5
20d
100
AcDbEntity
  8
0
 62
7
100
AcDbSpline
 70
8
 71
3
 72
8
 73
4
 74
0
 40
0
 40
0
 40
0
 40
0
 40
1
 40
1
 40
1
 40
1
 10
41.079839
 20
30.051744
 30
0.0
 10
41.348230
 20
30.347118
 30
0.0
 10
41.378398
 20
30.708385
 30
0.0
 10
41.362806
 20
30.985585
 30
0.0
  0
SPLINE
  5
20e
100
AcDbEntity
  8
0
 62
7
100
AcDbSpline
 70
8
 71
3
 72
8
 73
4
 74
0
 40
0
 40
0
 40
0
 40
0
 40
1
 40
1
 40
1
 40
1
 10
41.362806
 20
30.985585
 30
0.0
 10
41.491408
 20
32.166470
 30
0.0
 10
41.246405
 20
33.223357
 30
0.0
 10
40.938356
 20
34.552300
 30
0.0
  0
SPLINE
  5
20f
100
AcDbEntity
  8
0
 62
7
100
AcDbSpline
 70
8
 71
3
 72
8
 73
4
 74
0
 40
0
 40
0
 40
0
 40
0
 40
1
 40
1
 40
1
 40
1
 10
40.938356
 20
34.552300
 30
0.0
 10
40.899849
 20
34.718387
 30
0.0
 10
40.859852
 20
34.890721
 30
0.0
 10
40.819040
 20
35.070164
 30
0.0
  0
SPLINE
  5
210
100
AcDbEntity
  8
0
 62
7
100
AcDbSpline
 70
8
 71
3
 72
8
 73
4
 74
0
 40
0
 40
0
 40
0
 40
0
 40
1
 40
1
 40
1
 40
1
 10
40.819040
 20
35.070164
 30
0.0
 10
40.655863
 20
36.210639
 30
0.0
 10
41.349653
 20
37.683642
 30
0.0
 10
42.151980
 20
39.387000
 30
0.0
  0
SPLINE
  5
211
100
AcDbEntity
  8
0
 62
7
100
AcDbSpline
 70
8
 71
3
 72
8
 73
4
 74
0
 40
0
 40
0
 40
0
 40
0
 40
1
 40
1
 40
1
 40
1
 10
42.151980
 20
39.387000
 30
0.0
 10
42.207909
 20
39.505840
 30
0.0
 10
42.264380
 20
39.625630
 30
0.0
 10
42.320987
 20
39.746365
 30
0.0
  0
SPLINE
  5
212
100
AcDbEntity
  8
0
 62
7
100
AcDbSpline
 70
8
 71
3
 72
8
 73
4
 74
0
 40
0
 40
0
 40
0
 40
0
 40
1
 40
1
 40
1
 40
1
 10
42.320987
 20
39.746365
 30
0.0
 10
42.357459
 20
39.754980
 30
0.0
 10
42.394610
 20
39.763449
 30
0.0
 10
42.431489
 20
39.771856
 30
0.0
  0
SPLINE
  5
213
100
AcDbEntity
  8
0
 62
7
100
AcDbSpline
 70
8
 71
3
 72
8
 73
4
 74
0
 40
0
 40
0
 40
0
 40
0
 40
1
 40
1
 40
1
 40
1
 10
42.431489
 20
39.771856
 30
0.0
 10
42.833432
 20
39.863580
 30
0.0
 10
43.333607
 20
39.977741
 30
0.0
 10
43.754057
 20
40.363076
 30
0.0
  0
SPLINE
  5
214
100
AcDbEntity
  8
0
 62
7
100
AcDbSpline
 70
8
 71
3
 72
8
 73
4
 74
0
 40
0
 40
0
 40
0
 40
0
 40
1
 40
1
 40
1
 40
1
 10
43.754057
 20
40.363076
 30
0.0
 10
43.891676
 20
40.489170
 30
0.0
 10
43.986789
 20
40.654923
 30
0.0
 10
44.026312
 20
40.837358
 30
0.0
  0
SPLINE
  5
215
100
AcDbEntity
  8
0
 62
7
100
AcDbSpline
 70
8
 71
3
 72
8
 73
4
 74
0
 40
0
 40
0
 40
0
 40
0
 40
1
 40
1
 40
1
 40
1
 10
44.026312
 20
40.837358
 30
0.0
 10
44.201556
 20
41.646396
 30
0.0
 10
44.044006
 20
42.390350
 30
0.0
 10
43.905031
 20
43.046787
 30
0.0
  0
SPLINE
  5
216
100
AcDbEntity
  8
0
 62
7
100
AcDbSpline
 70
8
 71
3
 72
8
 73
4
 74
0
 40
0
 40
0
 40
0
 40
0
 40
1
 40
1
 40
1
 40
1
 10
43.905031
 20
43.046787
 30
0.0
 10
43.890931
 20
43.113291
 30
0.0
 10
43.877033
 20
43.178915
 30
0.0
 10
43.863678
 20
43.243657
 30
0.0
  0
SPLINE
  5
217
100
AcDbEntity
  8
0
 62
7
100
AcDbSpline
 70
8
 71
3
 72
8
 73
4
 74
0
 40
0
 40
0
 40
0
 40
0
 40
1
 40
1
 40
1
 40
1
 10
43.863678
 20
43.243657
 30
0.0
 10
43.882389
 20
43.253351
 30
0.0
 10
43.901032
 20
43.262910
 30
0.0
 10
43.919607
 20
43.272469
 30
0.0
  0
SPLINE
  5
218
100
AcDbEntity
  8
0
 62
7
100
AcDbSpline
 70
8
 71
3
 72
8
 73
4
 74
0
 40
0
 40
0
 40
0
 40
0
 40
1
 40
1
 40
1
 40
1
 10
43.919607
 20
43.272469
 30
0.0
 10
44.434899
 20
43.537674
 30
0.0
 10
44.921650
 20
43.788236
 30
0.0
 10
45.522090
 20
44.256683
 30
0.0
  0
SPLINE
  5
219
100
AcDbEntity
  8
0
 62
7
100
AcDbSpline
 70
8
 71
3
 72
8
 73
4
 74
0
 40
0
 40
0
 40
0
 40
0
 40
1
 40
1
 40
1
 40
1
 10
45.522090
 20
44.256683
 30
0.0
 10
46.449626
 20
44.981047
 30
0.0
 10
46.268753
 20
46.137082
 30
0.0
 10
46.149170
 20
46.902054
 30
0.0
  0
SPLINE
  5
21a
100
AcDbEntity
  8
0
 62
7
100
AcDbSpline
 70
8
 71
3
 72
8
 73
4
 74
0
 40
0
 40
0
 40
0
 40
0
 40
1
 40
1
 40
1
 40
1
 10
46.149170
 20
46.902054
 30
0.0
 10
46.109039
 20
47.158277
 30
0.0
 10
46.067616
 20
47.423244
 30
0.0
 10
46.079883
 20
47.572422
 30
0.0
  0
SPLINE
  5
21b
100
AcDbEntity
  8
0
 62
7
100
AcDbSpline
 70
8
 71
3
 72
8
 73
4
 74
0
 40
0
 40
0
 40
0
 40
0
 40
1
 40
1
 40
1
 40
1
 10
46.079883
 20
47.572422
 30
0.0
 10
46.104492
 20
47.873218
 30
0.0
 10
46.330647
 20
48.159269
 30
0.0
 10
46.697614
 20
48.601006
 30
0.0
  0
SPLINE
  5
21c
100
AcDbEntity
  8
0
 62
7
100
AcDbSpline
 70
8
 71
3
 72
8
 73
4
 74
0
 40
0
 40
0
 40
0
 40
0
 40
1
 40
1
 40
1
 40
1
 10
46.697614
 20
48.601006
 30
0.0
 10
46.833878
 20
48.765030
 30
0.0
 10
46.974814
 20
48.934648
 30
0.0
 10
47.113382
 20
49.122738
 30
0.0
  0
SPLINE
  5
21d
100
AcDbEntity
  8
0
 62
7
100
AcDbSpline
 70
8
 71
3
 72
8
 73
4
 74
0
 40
0
 40
0
 40
0
 40
0
 40
1
 40
1
 40
1
 40
1
 10
47.113382
 20
49.122738
 30
0.0
 10
47.777076
 20
50.025601
 30
0.0
 10
47.533087
 20
51.305662
 30
0.0
 10
47.354997
 20
52.240320
 30
0.0
  0
LWPOLYLINE
  5
21e
100
AcDbEntity
  8
0
 62
7
100
AcDbPolyline
 90
2
 70
0
 10
32.244690
 20
0.209652
 30
0.0
 10
32.331194
 20
0.209652
 30
0.0
  0
LWPOLYLINE
  5
21f
100
AcDbEntity
  8
0
 62
7
100
AcDbPolyline
 90
2
 70
0
 10
47.354997
 20
52.240320
 30
0.0
 10
47.355004
 20
52.240591
 30
0.0
  0
ENDSEC
  0
SECTION
  2
OBJECTS
  0
DICTIONARY
  5
C
330
0
100
AcDbDictionary
  3
ACAD_GROUP
350
D
  3
ACAD_MLINESTYLE
350
17
  0
DICTIONARY
  5
D
330
C
100
AcDbDictionary
  0
DICTIONARY
  5
1A
330
C
100
AcDbDictionary
  0
DICTIONARY
  5
17
330
C
100
AcDbDictionary
  3
STANDARD
350
18
  0
DICTIONARY
  5
19
330
C
100
AcDbDictionary
  0
ENDSEC
  0
EOF
